<svg xmlns="http://www.w3.org/2000/svg" width="1545" height="1052"  xmlns:v="https://vecta.io/nano"><style><![CDATA[.B{fill:#161616}.C{fill:#fff}.D{fill:#6d6c6c}.E{fill:#e8e8e8}.F{fill:#e5261f}.G{opacity:.12}.H{opacity:.11}]]></style><g class="E"><path d="M127.4 774.1c68-33.7 146.2-20.3 217.7-7.6 38.1 6.8 76.1 13.1 114.7 16.3 41.3 3.5 82.8 4.2 124.2 2.2 80.1-4 158.8-19.8 237.8-32.9 79-13 159.6-23.2 239.6-13.7 77.9 9.3 153.9 42.2 233.3 35.6 8.9-.7 17.7-2 26.5-3.8 1.9-.4 1.1-3.3-.8-2.9-79.9 16.2-158.4-15.8-236.3-28.7-78-12.9-157.3-5.8-234.9 6.1-80.6 12.3-160.5 29.7-241.9 35.8-82.1 6.1-163.8.3-244.8-14-69.3-12.3-144.1-28.5-212.9-5-8.1 2.8-16 6.1-23.7 9.9-1.7 1-.2 3.6 1.5 2.7zm940.7 131.7c-3.7-7.8-24.9-58.2-5.6-57 1.1.1 1.6-1 1.4-1.9-2.5-15.6-2.2-31.6 1-47.2 1.5-7.2 3.6-14.2 6.3-21 2.4-6.1 8.1-23.4 17.3-15.3 5.6 5 5 15.8 5.6 22.6a321.46 321.46 0 0 1 .9 24.1 302.2 302.2 0 0 1-4.2 48.4c-1.5 8.5-3.3 17-5.5 25.3-1.2 4.5-2.5 8.9-3.8 13.3-1.3 4-2.3 10.1-6.9 11.6-1.8.6-1 3.5.8 2.9 6.4-2.2 7.8-9.8 9.5-15.5 2.9-9.4 5.3-19 7.3-28.7 3.8-19.2 5.8-38.8 5.8-58.4 0-10.2-.5-20.4-1.5-30.5-.7-6.4-1.2-14.2-7-18.3-13.9-9.8-21.3 17.1-24 25.8-6.3 19.9-7.7 40.9-4.4 61.5a23.07 23.07 0 0 0 1.4-1.9c-12-.7-11.7 13.6-10.2 21.6 2.6 13.8 7.1 27.2 13.2 39.9.9 2 3.4.4 2.6-1.3h0z"/><path d="M1098.3 823.5c-.3-6.8.4-13.6 2.3-20.1.9-3.2 2.1-6.3 3.5-9.4.7-1.4 1.4-2.8 2.2-4.1.5-.7 1.1-1.3 1.6-2 3-3 5.5-2.5 7.4 1.6-.3 1.9 2.3 2.7 2.9.8 2-6.6 5.9-14.8 13.9-15.2 8.5-.4 10.8 8.2 11.1 15 .7 13.1-1.6 26.5-5 39.1-7 25.7-19.9 49.4-32.7 72.7-.9 1.7 1.7 3.2 2.6 1.5 15.9-29 32.3-59.1 36.9-92.2 1-7.4 1.7-15 1.1-22.5-.4-5.2-1.8-11-6.2-14.3-4.2-3.1-9.9-2.8-14.3-.4-5.7 3.2-8.6 9.4-10.4 15.4 1 .3 1.9.5 2.9.8.5-3.4-1.4-6.3-4.9-7.1-3.8-.9-7.1 1.6-9.2 4.6-7.1 9.9-9.3 23.9-8.8 35.7.1 2 3.1 2 3.1.1h0zm-70.6 130.8c43-23.5 94-22 141.1-15.2 51.3 7.4 102.9 21 155 14.5 28.9-3.6 58.2-13.5 87.4-6.6 1.9.4 2.7-2.4.8-2.9-25.3-6-50.7.3-75.7 4.6-27.1 4.6-54.3 4.2-81.6.9-51.2-6.1-101.7-20.3-153.7-17.6-26 1.3-51.8 7.1-74.8 19.6-1.7 1-.2 3.6 1.5 2.7zm131.7-68.9c38.3 3.5 75.5-7.7 112.5-16.1 19.5-4.4 39.3-8.2 59.3-8.4 20.9-.3 41.4 3.9 61.9 7.4 21.8 3.8 43.8 6.6 65.8 2.5 1.9-.4 1.1-3.2-.8-2.9-40.9 7.6-80.9-9.4-121.6-10.1-38.1-.6-74.8 11.6-111.7 19.3-21.5 4.5-43.3 7.3-65.3 5.3-2-.1-2 2.9-.1 3h0zm-889-132.9c-3.5-3.8-6.6-8.1-8.9-12.8-1.1-2.3-2.1-4.6-2.8-7.1-.6-1.9-1.2-3.9-.8-5.8.4-2.2 2.8-7.1 6.3-3.9 1.1 1 2.9 0 2.5-1.5-5.5-19.8-6.8-39.9-8.2-60.3-1.4-20.3-2.9-41.1 1.1-61.2 1-4.8 1.7-11.8 7.1-13.5 6.7-2.2 11.4 4.9 13.3 10.2 3.4 9.2 5.5 19.2 7.7 28.8 4.7 20.4 7.9 41.1 9.8 61.9 2 22.9 2.3 45.9 1 68.8-.1 1.9 2.9 1.9 3 0 2.7-46.6-1.5-93.6-12.7-138.9l-4.4-16.6c-1.3-4.4-2.7-8.9-5.6-12.4-3.9-4.6-11.3-7.1-16.4-2.9-3 2.5-4 6.7-4.8 10.3-1.2 5.3-2.1 10.6-2.6 16-1.2 11.5-1 23.1-.4 34.7 1.4 25.5 2.5 51.4 9.3 76.1.8-.5 1.7-1 2.5-1.5-5.5-5.1-11.8 1.4-11.5 7.4.4 9.7 7.2 19.6 13.5 26.4 1.2 1.4 3.3-.7 2-2.2h0z"/><path d="M299.7 666.1c-4.1-9.5-1.8-19.7.7-29.3 2.2-8.7 4.4-17.2 4.4-26.2.1-10.2-.6-20.1 2-30.1 1.2-4.6 2.9-9 5-13.3.9-1.8 2-4.7 3.5-6 4.5-4 6.8 3.4 7.8 6.2 6.8 18.7 8 38.9 8.3 58.6.4 20.7-.2 41.4-1.7 62-1.7 23.7-4.7 47.3-8.8 70.8-.3 1.9 2.6 2.7 2.9.8 8.3-47 12.1-95 10.3-142.6-.4-11-1.3-22.1-3.5-32.9-1-5.3-2.4-10.6-4.1-15.7-1.2-3.5-2.4-8.3-5.6-10.6-7-5.1-11.7 7.4-13.6 11.9-3.9 9.1-5.8 18.8-5.8 28.7 0 6.6.5 13.2-.2 19.8-.7 6.4-2.6 12.5-4.1 18.7-2.6 10.3-4.5 20.7-.2 30.8.9 1.6 3.5.1 2.7-1.6h0zM164.1 532.8c57-42.5 115.2-85.3 181.3-112.9 32.6-13.6 67.1-23.1 102.4-25.9 39-3.1 78.2 2.1 116 11.9 77.2 20.2 147.3 59.2 220.3 90.2 70.7 30.1 144.8 49.8 220.4 62.7 75.7 12.9 152.3 19.6 228.8 25.5l28.5 2.2c1.9.1 1.9-2.9 0-3-78.3-5.9-156.7-11.9-234.3-24-76.7-11.9-152.8-29.8-224.9-58.9-73.2-29.5-142.4-68.8-218.1-91.9-36.8-11.2-75-18.6-113.6-18.6-35.5 0-70.6 6.8-104 18.4-67.1 23.4-126.5 64.3-183.3 106.1l-21 15.6c-1.6 1.2-.1 3.8 1.5 2.6h0zm862.8 24.2c61.3 1.3 120.5-16.5 179.3-31.5 30.2-7.7 60.6-14.8 91.6-18.1 30.9-3.4 62.1-2.6 92.7 3.2 34.6 6.5 67.9 19.1 98.2 36.9 1.7 1 3.2-1.6 1.5-2.6-52.9-31-114.5-45.8-175.7-41.9-62.4 3.9-121.9 24.4-182.5 38.2-34.5 7.9-69.7 13.6-105.2 12.9-1.8-.1-1.8 2.9.1 2.9h0zm318.2 207.8c42.8-6.5 86.5-6.7 129.4-.4 1.9.3 2.7-2.6.8-2.9-43.5-6.3-87.5-6.1-131 .4-1.9.3-1.1 3.1.8 2.9zM28.3 673.1c32.3-39.2 67.3-76.2 104.7-110.5 1.4-1.3-.7-3.4-2.1-2.1C93.4 594.8 58.4 631.7 26.2 671c-1.2 1.5.9 3.6 2.1 2.1zm1162-545c-13.5 4.7-24.1-6.6-30.7-16.9-6.5-10-11.2-20.9-11.2-33.1.1-22.9 15.4-43 36.6-51 19.6-7.3 43.5-3.4 58.7 11.4 15.7 15.3 19.7 39.1 9.8 58.5-2.8 5.5-6.4 10.7-10 15.7-2.1 2.9-4.1 6.1-7 8.4-3.4 2.6-7.2 3.1-11.3 3.6l-42.2 4.8c-1.9.2-1.9 3.2 0 3 15.2-1.7 30.7-2.8 45.8-5.2 12.3-2 18.9-14.4 24.7-24.3 11.8-20.1 10.9-44.6-4.3-62.8-15.1-18.1-41.7-24-63.7-16.5-22.1 7.6-38.6 27.5-40.1 51.1-.9 14.9 5 28.6 13.3 40.6 7.2 10.4 18.7 20.2 32.2 15.5 2-.5 1.2-3.4-.6-2.8h0zm-913.5 37.6c-4.2-10.3 6.8-18.7 16.1-19.4 9.9-.7 19.4 3.5 29 5.3 18.1 3.5 36.7 2.1 54.2-3.7 16.8-5.6 33.2-14.8 51.3-15.2 18.6-.3 35.2 10.7 54 8.4 9.1-1.1 17.9-4 27.1-4.7 8.5-.7 21.3.9 24.3 10.6s-10.6 17.8-17.8 21.3c-8 3.9-16.9 6-25.7 6.1-9.4 0-17.8-2.8-26.6-5.7-8.1-2.7-16.1-4.3-24.6-4.1-16.2.3-31.8 5.5-47.3 9.8-9.6 2.7-19.4 5.2-29.4 6-10.3.8-19.7-1-29.6-3.4-9.8-2.4-18.4-1.5-28.3-.1-5.9.8-12.1 1.3-17.6-1.6-4.9-2.6-8.9-7.2-7.7-13.1.4-1.9-2.5-2.7-2.9-.8-1.5 6.9 2.5 12.7 8.5 16.1 8.1 4.6 17.1 2.7 25.9 1.4 6.1-.9 11.8-1.1 17.9.1 5.4 1.1 10.7 2.9 16.2 3.8 8.6 1.4 17.3.9 25.9-.4 19.6-3.2 38.1-11.1 57.7-13.9 10.5-1.5 20.9-1.1 31.1 2 9.5 2.9 18.5 6.6 28.5 6.9 16.1.6 37.2-5.8 46.6-19.8 4.2-6.3 2.9-13.6-2.8-18.4-6.3-5.5-15.1-6.4-23.1-5.6-10.3 1-20.2 4.5-30.5 5-11.5.6-22.1-3.8-33.1-6.6-20.5-5.2-38.5 1.5-57.5 8.9-11.6 4.5-23.2 8.2-35.7 9.3-13.6 1.2-26.6-.8-39.8-4.2-9.4-2.4-20.2-4.9-29 .6-6.7 4.2-11.3 12.1-8.2 19.9.7 1.7 3.6 1 2.9-.8h0zm836.1 165.1c14.4-14 35.3-13.8 54.1-12 22 2.1 43.3 4.9 65.5 2.5 11.4-1.3 22.5-3.7 33.6-6.6 11.6-3 23.5-6.2 35.7-5.8 12.3.4 23.8 5.3 35.9 7 11 1.5 22.1.2 33-1.9 9.8-1.8 19.5-4.8 29.6-4.3 8.9.4 19.8 4.9 19 15.7-.8 10.1-12.2 17.1-21.3 18.6-11.6 1.8-23.4-2.4-34.9-3.3-21.6-1.7-37.9 12.8-58.4 16.5-21.6 3.9-41.9-8-62.4-12.4-25.2-5.3-49.1 5.7-73.7 9.7-12.3 2-26.6 4.7-39 2.2-6.1-1.3-11.9-4.3-14.9-10-2.7-5.3-2.8-11.7 1.7-16 1.4-1.3-.7-3.5-2.1-2.1-5.8 5.5-5.5 14.2-1.5 20.8 4.8 7.9 14 10.6 22.7 11.1 25.6 1.5 50.6-7.2 75.2-12.4 13.7-2.9 26.3-1.9 39.7 1.9 11.2 3.2 22 7.6 33.5 9.7 10.9 2 21.4 1.4 31.8-2.4 10.9-3.9 21.1-10 32.5-12.6 21.6-4.9 45.9 11 65.3-4.2 6.5-5.1 11-13.3 7.9-21.5-2.7-7.1-9.6-10.6-16.7-11.6-9.2-1.4-18.1.6-27.1 2.5-14.3 3-28.9 5.4-43.5 2.6-12.6-2.4-24.5-6.9-37.6-6.3-12.4.6-24.4 4.2-36.4 7.2-15.2 3.8-30.7 6-46.4 6.3-13.6.2-27-1.5-40.5-3-21.3-2.4-45.6-3.9-62.2 12.2-1.6 1.1.5 3.2 1.9 1.9h0z"/><path d="M461.6 1010.7c-4.5-4.1-8.4-8.7-11.6-13.9-1.5-2.4-2.9-5-4-7.6-.6-1.5-1.6-3.7-1.4-5.4.3-2.9 3.1-7.3 6.5-4.6 1.3 1.1 3.2-.2 2.4-1.8-3.8-7.4-6.1-15.9-5.7-24.3.1-1.6.3-3.1.9-4.6.5-1.3 1.2-2.5 2.1-3.6 1.8-1.8 3.4-1.8 4.8.2 3.7 2.7 5.2 7.9 6.9 12 6.1 14.6 10.6 29.8 13.7 45.3 1-.3 1.9-.5 2.9-.8-2.7-7.5-4.8-15.2-6.1-23.1-.9-5.6-2.5-24.2 9-18 7.4 4 8.8 15.9 8.8 23.4.1 8.3-1.5 16.4-3.1 24.5-.4 1.9 2.5 2.7 2.9.8 2-10.3 4.1-21 2.8-31.6-1-7.7-4.4-20-13.7-21.2-7.4-.9-10.4 6.6-10.6 12.7-.4 11.1 3.4 23.1 7.1 33.4.7 1.8 3.3 1.1 2.9-.8a237.36 237.36 0 0 0-9.5-34.2c-1.8-5-3.7-9.9-5.9-14.8-1.6-3.7-3.2-9-7.1-11.1-6.2-3.4-10.6 3.5-11.6 8.7-1.8 9.5 1.5 20.4 5.7 28.8l2.4-1.8c-6.1-5.1-12.3 2.2-11.4 8.6 1.5 10.2 10.5 20.3 17.7 27.1 1.5 1.1 3.6-1 2.2-2.3h0zM341.2 258c22.2-4.5 44.8-9 67.6-7 21.9 1.9 42.6 9.7 63.8 15.1 41.4 10.4 84.3 14.1 126.9 14 24.4-.1 48.7-1.3 73-3.3 1.9-.2 1.9-3.2 0-3-43.4 3.4-87.2 4.8-130.7.8-22.1-2-44.1-5.5-65.7-10.7-20.6-5-40.6-12.5-61.7-15.2-24.9-3.2-49.7 1.6-74 6.5-1.9.3-1.1 3.2.8 2.8h0zm234 .2c73.4-3.8 144.7-28.8 218.7-24.2 1.9.1 1.9-2.9 0-3-73.9-4.6-145.3 20.5-218.7 24.2-2 .1-2 3.1 0 3zm603.9 499.2c-2.9-7.3-4.4-15-4.3-22.9 0-4 .5-8 1.4-11.9.8-3.6 4.8-12.9 9.4-7 .8 1 2.7.2 2.6-1.1-1-8.6-.8-17.2.8-25.7.7-3.7 1.7-7.4 3-11 .8-2.2 1.6-4.6 2.7-6.7 1.6-3 3.4-3.8 6.4-5.3 5.4-2.5 5.5-9 6.8-14.2 1.8-7.1 3.9-14.3 8-20.4 2.4-3.6 6.9-9.4 11.8-8.1 3.9 1 5.3 5.2 6 8.8 1.6 7.9.5 16.7.1 24.7-.9 17.7-3.2 35.4-6.8 52.7-4 19-9.7 37.6-16.8 55.7-.7 1.8 2.2 2.6 2.9.8 14.8-37.4 23.1-77.3 24.1-117.6.2-7.8 1.2-33.8-14.2-27.8-6.5 2.6-10.9 10.5-13.5 16.6-1.5 3.5-2.6 7.1-3.6 10.7-1.5 5.5-1.5 12.3-6.8 15.5-3.1 1.9-5.1 2.7-6.9 6.3-2.1 4.1-3.6 8.8-4.8 13.3-2.7 10.3-3.4 21-2.1 31.6.9-.4 1.7-.7 2.6-1.1-2-2.5-5.3-3.1-8.2-1.8-3.9 1.8-5.3 6.3-6.2 10.1-2.8 12.1-1.6 24.8 2.9 36.4.5 2 3.4 1.2 2.7-.6h0z"/><path d="M1150.7 752.2c-4.3-6.7-8.5-13.7-10.7-21.5-1-3.6-1.6-7.3-1.4-11 .3-4.1 2-7.3 3.4-11.1 2.2-6.1-1.3-11.9-2.7-17.8-.7-2.8-4.8-27.7 4-24.3 1.1.4 2.1-.8 1.8-1.8-2.9-12.9-5.9-26.6-1.8-39.5 1.8-5.7 9.1-20.5 16.6-13.7 4.6 4.2 7.2 12 9.3 17.6 9.2 25.3 13.2 53.4 15 80.2.1 1.9 3.1 1.9 3 0-1.2-17.5-3.6-34.9-7.3-52-3.2-15-6.7-31.7-15.4-44.7-2.7-4-6.6-7.4-11.7-5.3-5.4 2.2-9.1 8.8-11.2 13.8-5.9 14.3-2.6 29.9.6 44.5l1.8-1.8c-5.3-2.1-8.5 3.9-9.3 8.4-1.6 10 2.1 19.3 4.4 28.8 1.4 5.8-2.1 9.9-3.1 15.3-.8 3.8-.6 7.6.1 11.4 1.7 9.5 6.9 18.2 12 26.3 1 1.3 3.6-.2 2.6-1.8h0zm80.3-50.3c2.7-9.3 5.5-18.6 11.2-26.5 5.5-7.6 11.9-14.8 18-21.9 3.2-3.6 6.4-7.2 9.9-10.5 1.8-1.7 3.6-3.5 5.9-4.7 4.5-2.4 7.5.7 8.7 4.8 2.7 9.4.5 19.6-1.9 28.9-9.2 35.2-25.2 68.5-46.6 98-1.1 1.6 1.5 3.1 2.6 1.5a297.08 297.08 0 0 0 44.3-89.5c2.3-7.7 4.6-15.6 5.4-23.6.7-6.5.9-15.5-3-21.1-8.2-11.6-25.2 11.5-29.7 16.8-5.8 6.8-12 13.6-17.1 21-5.3 7.8-8 16.9-10.6 25.9-.6 1.9 2.3 2.7 2.9.9h0zm-5.8-77.6c-3.8 46.6-13.8 92.4-29.7 136.3-.7 1.8 2.2 2.6 2.9.8 16-44.2 26-90.3 29.8-137.1.1-1.9-2.9-1.9-3 0h0z"/><path d="M1198 664.6c5.4 20.3 8.2 41 8.4 62 0 1.9 3 1.9 3 0-.2-21.2-3-42.3-8.5-62.8-.5-1.9-3.4-1.1-2.9.8zm13.6-22.7c3.5 13.8 5.2 27.9 5.3 42.1 0 1.9 3 1.9 3 0-.1-14.5-1.9-28.9-5.4-42.9-.5-1.9-3.4-1.1-2.9.8h0zm-8.5 107.9c7.7-6 14.6-12.9 20.6-20.5 1.2-1.5-.9-3.6-2.1-2.1-6.1 7.7-12.9 14.5-20.6 20.5-1.5 1.2.6 3.3 2.1 2.1zM1151 609.9c8.7 36.3 15.5 73 20.2 110 .2 1.9 3.2 1.9 3 0-4.8-37.3-11.6-74.3-20.3-110.8-.4-1.9-3.3-1.1-2.9.8z"/><path d="M1139.1 644.3c8.8 5.3 16.3 12.1 22.3 20.5 1.1 1.6 3.7.1 2.6-1.5-6.3-8.8-14.1-16-23.3-21.5-1.8-1.1-3.3 1.5-1.6 2.5zm38.3 20.9c-3.6 9-6.5 18.2-8.7 27.7-.4 1.9 2.4 2.7 2.9.8 2.2-9.4 5.1-18.7 8.7-27.7.7-1.8-2.2-2.6-2.9-.8zm-38.5 45.4c11 3.1 21.7 6.7 32.3 10.9 1.8.7 2.6-2.2.8-2.9-10.6-4.2-21.4-7.8-32.3-10.9-1.9-.5-2.7 2.4-.8 2.9zm140.9-71.4c-13.3 46.3-50.1 81.8-61.9 128.7-.5 1.9 2.4 2.7 2.9.8 11.8-46.9 48.6-82.4 61.9-128.7.6-1.9-2.3-2.7-2.9-.8z"/><path d="M1253 658.7l-7.6 48.6c-.3 1.9 2.6 2.7 2.9.8l7.6-48.6c.3-1.9-2.6-2.7-2.9-.8zm3 35.6c8.9-6.4 18.2-12.2 27.9-17.5 1.7-.9.2-3.5-1.5-2.6-9.7 5.2-19 11-27.9 17.5-1.6 1.2-.1 3.8 1.5 2.6zm-28.7 58c9.1-10.7 22.1-16.1 34.9-21.2 1.8-.7 1-3.6-.8-2.9-13.2 5.3-26.7 10.9-36.2 22-1.3 1.5.8 3.6 2.1 2.1zm-145.3 9.5c3.7 23.4.6 46.9-2.9 70.2l-10.2 68.8c-.3 1.9 2.6 2.7 2.9.8l10.8-72.6c3.3-22.5 5.9-45.3 2.3-67.9-.4-2-3.2-1.2-2.9.7h0z"/><path d="M1062.5 804.5c3.4 14 8 27.6 13.8 40.8.8 1.8 3.4.2 2.6-1.5-5.6-13-10.1-26.3-13.5-40.1-.5-1.8-3.4-1-2.9.8h0zm30.1-28.4c-1.4 9.1-4.7 17.4-9.9 24.9-1.1 1.6 1.5 3.1 2.6 1.5 5.3-7.7 8.8-16.4 10.2-25.7.2-1.8-2.7-2.6-2.9-.7h0zm41.3 1.5c-12.3 42.7-28 84.3-46.8 124.6-.8 1.7 1.8 3.3 2.6 1.5 18.9-40.5 34.7-82.4 47.1-125.3.5-1.8-2.4-2.6-2.9-.8h0z"/><path d="M1126 775.8l-1.1 29c-.1 1.9 2.9 1.9 3 0l1.1-29c.1-1.9-2.9-1.9-3 0zm-22.2 13c-5.4 22.6 0 46.2 3.2 68.8.3 1.9 3.2 1.1 2.9-.8-3.1-22-8.4-45.1-3.2-67.2.5-1.9-2.4-2.7-2.9-.8zm-4.4 92.1c9.7-2.4 18.7-6.5 26.8-12.3 1.6-1.1.1-3.7-1.5-2.6-7.9 5.6-16.6 9.6-26.1 12-1.9.4-1.1 3.3.8 2.9zM265.9 587.7c10.1 54.6 16.4 109.9 18.7 165.3.1 1.9 3.1 1.9 3 0-2.3-55.8-8.6-111.3-18.8-166.1-.4-1.9-3.3-1.1-2.9.8h0z"/><path d="M255 651.1c10.6 13.3 19.1 28 25.3 43.8.7 1.8 3.6 1 2.9-.8a174.79 174.79 0 0 0-26-45.1c-1.2-1.5-3.4.6-2.2 2.1zm30-36.7c-3.6 14.9-6.3 30-8.2 45.2-.2 1.9 2.8 1.9 3 0a376.16 376.16 0 0 1 8.1-44.4c.4-1.9-2.5-2.7-2.9-.8h0zm31.4-53.7c1.8 65.3-1.4 130.6-9.6 195.4-.2 1.9 2.8 1.9 3 0 8.2-64.8 11.4-130.1 9.6-195.4-.1-1.9-3.1-1.9-3 0z"/><path d="M299.6 629.4c7.2 17.1 12.2 35 14.9 53.4.3 1.9 3.2 1.1 2.9-.8-2.7-18.4-7.7-36.3-14.9-53.4-.8-1.7-3.7-1-2.9.8zm11.5 113.1c4.3-8.4 10-15.7 17-22 1.4-1.3-.7-3.4-2.1-2.1-7.2 6.4-13.1 14-17.5 22.6-.9 1.7 1.7 3.2 2.6 1.5zm-4.3-170.7c2.6 8.3 5.5 16.4 8.7 24.5.7 1.8 3.6 1 2.9-.8a263.91 263.91 0 0 1-8.7-24.5c-.6-1.9-3.5-1.1-2.9.8zM92 965.8c65.6-6.4 132-4.4 197 6.2 18.3 3 36.6 6.7 54.7 11 1.9.4 2.7-2.4.8-2.9-64.1-15.3-130-22.3-195.9-20.8-18.9.5-37.8 1.6-56.6 3.5-1.9.1-2 3.1 0 3zm588 28.7c.1-4.3 10.8-5.1 13.4-4.8 4.4.4 8.6 2.7 11 6.4 7.9 12.2-8.1 17.1-17.3 14.1-1.8-.6-2.6 2.3-.8 2.9 6.4 2.2 14.9 1.9 20.1-3.2 4.4-4.3 3.5-11.2.2-15.9-3.7-5.2-9.8-7.8-16.1-7.4-4.4.3-13.4 2.3-13.5 7.9 0 1.9 3 1.9 3 0h0z"/><path d="M679.5 992.9c6.4-9 19.8-13.1 29.8-16.3 11.1-3.5 22.6-5.6 34.3-6.2 1.9-.1 1.9-3.1 0-3-13.1.7-26.1 3.1-38.5 7.4-10 3.5-21.8 7.6-28.2 16.6-1.1 1.6 1.5 3.1 2.6 1.5h0z"/><path d="M745.1 970.8c7.7.9 13.9 6.9 15.4 14.4.4 1.9 3.3 1.1 2.9-.8-1.8-9-9.3-15.5-18.3-16.6-2-.2-1.9 2.8 0 3h0zm3.7-3.1c11.2-7 22.1 2 24.4 13.3.4 1.9 3.3 1.1 2.9-.8-2.8-13.3-16-23.1-28.8-15.1-1.6 1.1-.1 3.7 1.5 2.6z"/><path d="M761.2 987.3c6.2 2 12.8-1.5 15-7.5.7-1.8-2.2-2.6-2.9-.8-1.6 4.5-6.8 6.9-11.3 5.4-1.9-.6-2.7 2.3-.8 2.9h0zm-82.1 4.1c-5.2 3-4.9 10.1-2.9 15 2.2 5.6 7.6 9.3 13.7 7.8 1.9-.5 1.1-3.3-.8-2.9-4.7 1.1-8.5-1.9-10.1-6.1-1.3-3.4-2.2-9 1.7-11.2 1.6-1 .1-3.6-1.6-2.6h0z"/><path d="M680.5 1002.8c-3-8.1 11.6-13 16.7-8.4 3.2 2.9 2.4 7.5-1 9.9-1.5 1.1-3.4 1.9-5.3 1.5-6.7-1.3-1.2-9 2.1-4.6 1.2 1.5 3.8 0 2.6-1.5-3.9-5.1-12.5-2.5-10.9 4.4 1.7 7.6 12.5 4.9 15.8.2 4.6-6.6-.4-14.6-8-14.7-7.2-.1-18.1 5.1-14.8 13.9.6 1.9 3.5 1.1 2.8-.7h0zm23.9 7.8c21-4.5 41-12.2 59.6-22.9 1.7-1 .2-3.6-1.5-2.6-18.4 10.6-38.2 18.1-58.9 22.6-1.9.4-1.1 3.3.8 2.9zm56.4-47.6c17-14.3 34-31.3 55.8-37.8 1.8-.6 1.1-3.4-.8-2.9-22.3 6.7-39.7 24-57.1 38.6-1.5 1.2.7 3.3 2.1 2.1h0z"/><path d="M816.4 926.3c11.2 3.8 19.3 13.8 20.5 25.6.2 1.9 3.2 1.9 3 0-1.3-13.2-10.1-24.3-22.7-28.5-1.8-.6-2.6 2.3-.8 2.9z"/><path d="M775.9 982.7c20.5-9.1 40.9-18.6 61.1-28.5 1.7-.8.2-3.4-1.5-2.6-20.2 9.9-40.6 19.3-61.1 28.5-1.8.8-.2 3.4 1.5 2.6zm-28-13.6l2-1.4c.7-.5 1-1.3.5-2.1-.4-.7-1.4-1-2.1-.5l-2 1.4c-.7.5-1 1.3-.5 2.1.4.6 1.4 1 2.1.5zm-296.7-24.8c1.9 22.4 6.9 44.3 15 65.2.7 1.8 3.6 1 2.9-.8-8-20.7-13.1-42.3-14.9-64.4-.1-1.9-3.1-1.9-3 0h0z"/><path d="M446 989.2c6.2 3.2 11.7 7.4 16.6 12.5 1.3 1.4 3.4-.7 2.1-2.1-5-5.3-10.7-9.6-17.2-12.9-1.7-1-3.2 1.6-1.5 2.5h0zm21.9-15c-4.3 6.2-6.2 13.4-5.5 20.9.2 1.9 3.2 1.9 3 0-.6-7 1.1-13.5 5.1-19.4 1-1.5-1.6-3-2.6-1.5zm8.9-8.3c2.9 12.4 3.8 25 2.5 37.7-.2 1.9 2.8 1.9 3 0a118.9 118.9 0 0 0-2.7-38.5c-.3-1.8-3.2-1-2.8.8z"/><path d="M472.4 970.3l7.2 13.9c.9 1.7 3.5.2 2.6-1.5l-7.2-13.9c-.9-1.7-3.5-.2-2.6 1.5z"/></g><circle cx="531.6" cy="326.8" r="16.9" class="F"/><g class="B"><circle cx="1076.2" cy="691.6" r="12.2"/><circle cx="1094" cy="675.2" r="5"/><circle cx="285.3" cy="368" r="8.6"/></g><g class="F"><circle cx="317.7" cy="385.8" r="9.4"/><circle cx="614" cy="599.1" r="5.2"/><circle cx="1019.5" cy="104.8" r="9"/><circle cx="1059.5" cy="138" r="6.8"/><circle cx="1052.5" cy="646.6" r="7"/><circle cx="584" cy="109.3" r="4.5"/><path d="M473.1 489.4c-1.2-1.6 0-4.4 1.5-5.3 1.9-1.2 4.5-.6 6.5-.1 2.1.5 4 1.5 6 2 2.6.7 5.5 1 8.1 0 2.8-1.1 4.2-3.3 4.8-6.1.6-2.4.4-5.4 2.4-7.3 1.9-1.9 4.9-2.1 7.4-2.1 6.4.1 12.7 3.7 16.2-3.7 1.8-4 2.1-8.4 6.5-10.7 5.3-2.8 11.7-.4 16.9 1.4 1.8.6 2.6-2.2.8-2.9-7.9-2.8-19.3-5.4-24.2 3.9-.8 1.6-1.3 3.4-1.9 5-.6 1.5-1.3 4.1-2.9 4.8-1.8.8-5.1-.1-7-.4-3.7-.5-7.6-.9-11.2.7-3.6 1.7-4.8 4.6-5.5 8.4-1.8 10.1-9.8 5.4-16.4 3.8-3.6-.9-7.5-.6-10 2.4-1.9 2.3-2.4 5.2-.6 7.6 1.1 1.7 3.7.2 2.6-1.4h0zm23.2 16.2c1-5.8 5.5-9 11.3-8.7 3.2.1 6.7 1.2 9.9.2 2.2-.7 3.9-2.2 4.8-4.3 2.1-4.6 2.1-8.5 6.6-11.9 3.8-2.9 8.3-3.8 12.9-2.7 2.9.7 6 2 9 .9 3.2-1.2 4.7-4.9 7.6-6.8 3.7-2.4 8.2-3.2 12.4-3.9 1.9-.3 1.1-3.2-.8-2.9-3.9.7-7.8 1.5-11.3 3.2-1.6.8-3 1.7-4.3 2.9-2.6 2.4-3.7 4.8-8 4.6-3.7-.1-6.6-1.9-10.5-1.4-3.5.5-6.8 2-9.5 4.2-2.5 2.1-4.5 4.8-5.5 8-1.1 3.3-1.8 7.3-6.3 7.4-2.1.1-4.2-.4-6.3-.5-7.3-.6-13.6 3.4-14.9 10.8-.3 2 2.5 2.8 2.9.9h0zm527.1-28.6c6.5 1.2 9.9 9.7 17.3 6.9 4.3-1.6 6.9-5.6 11.9-5.7 5.5-.1 8 4.5 12.7 6 7.8 2.5 14-6.1 21.5-4.7 6.8 1.3 11 9.5 18.6 7.3 1.9-.5 1.1-3.4-.8-2.9-6.7 1.9-11.9-7.4-18.8-7.6-3.1-.1-6.1 1.2-8.8 2.4-5.7 2.6-9.3 4.2-14.8.1-5.5-4.2-11.8-4.8-17.7-.9-1.8 1.2-3.2 2.5-5.3 3.1-3.1.9-5.1-.7-7.4-2.6-2.4-1.9-4.6-3.8-7.7-4.4-1.8-.3-2.6 2.6-.7 3h0zm20.6-9.9c5.1 4.1 11-1.6 16.4 1.8 5.1 3.2 8 4.2 13.8 2.2 3.2-1.1 6.4-2.7 9.9-2.2 2.8.5 5 2.6 7.9 2.9 2.7.3 5-1.2 7.4-2.3 4.8-2.1 9.5-1.9 14 1 1.6 1.1 3.1-1.5 1.5-2.6-4.7-3-10.1-3.8-15.4-1.8-1.6.6-3.5 2.1-5.2 2.4-2.5.4-4.5-.7-6.7-1.7-2-.9-3.9-1.2-6.1-1-2.8.3-5.4 1.5-8.1 2.3-4.3 1.4-7.1 1.2-10.9-1.5-2.1-1.5-4-2.3-6.6-2.2-3 .1-7.1 2.6-9.8.5-1.5-1.1-3.6 1-2.1 2.2h0z"/></g><path d="M714.1 556.8c.4-5.3 6.5-5.1 9.7-3.3 1.6.9 2.9 2.2 4.2 3.5 2.3 2.2 4.5 4.7 7.4 6.1 5.4 2.4 8.7-.5 13.2-3.1 14.2-8 24.7 18 39 8.9.8-.5.1-1.8-.8-1.3-9.5 6.1-18.4-5.7-26.3-9.2-2.6-1.2-5.4-1.9-8.2-1.4-4.1.7-6.8 4.3-10.7 5.3-9.2 2.5-12.7-10.5-21-11.4-4-.5-7.8 1.9-8.1 6 0 .9 1.5.9 1.6-.1h0zm253.8 57.3c1.8-7.1 7.9-10.8 15-10.2 3.6.3 6.5.2 8.9-2.9 2.8-3.7 2.9-8.7 6.3-12.2 4-4 10.1-5.2 15.5-6.2.9-.2.5-1.6-.4-1.4-5 .9-10.4 2-14.5 5.1-3.9 3-4.9 7.1-6.8 11.4-2.5 5.5-6.3 4.5-11.4 4.6-2 0-3.9.5-5.7 1.3-4.3 2-7.2 5.7-8.4 10.2-.2.9 1.2 1.3 1.5.3h0zm34.2-5.6c0-5.1 3.1-10 8-11.6 3.5-1.2 7.2.2 10.7-1 5.6-2 8.4-9 14.7-9.3 1-.1 1-1.6 0-1.5-3.1.2-5.4 1.6-7.7 3.6-1.8 1.6-3.4 3.5-5.5 4.7-3.3 2.1-6.3 1.2-9.8 1.5-7 .6-12 6.8-12 13.6.1 1 1.6 1 1.6 0h0z" class="E"/><path d="M634 174.9c1.6 4.8 5.1 11.1 11.1 8.1 3.6-1.8 5.3-5.7 9.6-6.5 4.8-.9 9.8 1.5 12.1 5.8.6 1.2 2.3.8 2.7-.4 3-8.7 14-9.4 18.4-1.5.9 1.7 3.5.2 2.6-1.5-5.7-10.4-20-8.9-23.8 2.2.9-.1 1.8-.2 2.7-.4-2.6-4.9-7.8-7.7-13.3-7.4-2.5.1-4.9.8-6.9 2.3-1.3.9-2.3 2.6-3.7 3.4s-5.8.2-7-1c-.9-.9-1.3-2.8-1.6-3.9-.6-1.8-3.5-1-2.9.8h0zm43.8-13.2c1.9 1.5 3.7 1.5 6 .8 3.1-.9 5.1-2.8 7.8.7.9 1.2 1.2 2.8 2.4 3.9 2.2 2.2 5.4 2.5 8.4 2.2 3.5-.3 13.5-2.7 13 3.8-.1 1.9 2.9 1.9 3 0 .7-9.2-11.4-6.9-16.7-6.7-3.9.1-5.7-1.5-7.5-4.7-.8-1.4-1.6-2.6-3.1-3.3-3.4-1.5-8.6 3.1-11.2 1.1-1.5-1.1-3.7 1-2.1 2.2h0zM364.4 706.1c-1.1-3.5-.9-7.1 1-10.2 2-3.2 5.1-4.2 8-6.1 3.7-2.5 5.1-5.9 5.7-10.2.3-2.3.3-4.6.9-6.9 1.1-4 3.6-5.8 7.3-7.4 3.4-1.4 6.5-2.6 8.7-5.7 1.1-1.6-1.5-3.1-2.6-1.5-3.2 4.4-9.5 4.3-13.3 8-3.8 3.8-3.2 9.2-4.1 14-1.3 7.3-7.9 7.7-12 12.6-3.3 4-4.1 9.4-2.5 14.2.6 1.8 3.5 1 2.9-.8h0zm1.4-33.2c7.4-4.4 1.2-15.2 8.7-19.4 4-2.3 7.6-3.3 10.8-6.9 3.1-3.5 5.1-7.7 7.1-11.9.8-1.7-1.8-3.3-2.6-1.5-2 4.2-4 8.4-7.2 11.8-3.4 3.7-8 4.1-11.7 7.1-5.5 4.5-1.1 14.8-6.7 18.2-1.6 1-.1 3.5 1.6 2.6h0zm406.5-125.7c-6.1.7-11-4.7-10-10.8 1-5.8 6.5-10.3 12.3-10.7 4.7-.3 10 1.6 12.2 6.1 2.4 4.9.2 11.6-4.9 13.5-1.8.7-1 3.6.8 2.9 6.1-2.4 9.3-9 7.7-15.4-1.9-7.4-10-11-17.2-10-7 1-13.4 6.8-14.1 14-.7 7.4 5.6 14.1 13.1 13.3 2-.1 2-3.1.1-2.9z" class="B"/><path d="M317.3 877.4c6.3-6.8 15.9-16.3 28.8-26 11.1-8.4 20.1-13.5 31.5-19.9l60.3-32.9 89.8-7.5c42.4-3.2 110.5-8.3 188.5-10.3l31.5-.7 100.1-.7 51.4-.7c27.4.2 49.9 1.2 65.1 2.1l45.9 4.1c3.6.4 8.9 1 15.8 2.7 8.3 2.1 14.9 4.8 19.2 6.9l-16.4 24.7c-18.1 26.8-36.5 52.3-54.8 76.8-2.9 1.8-8.2 4.6-15.1 6.9-14.7 4.8-27.2 3.7-31.5 3.4-18-1.3-61.7-.5-125.4 1.4l-85-2.1-24.7 37.7-164.5-8.9 32.9-36.3-243.4-20.7z" class="C"/><g class="B"><path d="M374.8 859.8l148 11.5c1.9.2 1.9-2.8 0-3l-148-11.5c-1.9-.1-1.9 2.9 0 3h0zm380.4 24.9a2668.38 2668.38 0 0 1 154.9 3.3c1.9.1 1.9-2.9 0-3-51.6-2.6-103.2-3.7-154.9-3.3-1.9 0-1.9 3 0 3zm-291-55.2c25 4.4 50.4 3.8 75.7 3.6 26.8-.2 53.6.4 80.4 1.3L779 842c30.4 1.3 60.9 2.1 91.3 2.1 1.9 0 1.9-3 0-3-106 .3-211.6-10.9-317.5-11-29.3 0-58.8 1.7-87.8-3.4-1.8-.4-2.7 2.5-.8 2.8zm241-21.4c75.2.1 150.4 2.3 225.5 6.6 1.9.1 1.9-2.9 0-3-75.1-4.3-150.3-6.5-225.5-6.6-1.9 0-1.9 3 0 3zm339-14.5c-22.2 33.9-45.4 67-69.7 99.3-1.2 1.5 1.4 3 2.6 1.5a1843.23 1843.23 0 0 0 69.7-99.3c1.1-1.6-1.5-3.1-2.6-1.5zM343 856.5c30.8-21.3 62-42.7 96.8-57 1.8-.7 1-3.6-.8-2.9-35.1 14.4-66.5 35.9-97.6 57.3-1.5 1.1 0 3.7 1.6 2.6z"/><path d="M436.9 799.9c79.4-7.3 158.9-12.6 238.5-15.7s159.3-4.3 239-3.1c22.3.3 44.6.9 66.8 2.9 21.4 1.9 43.8 4.1 63.8 12.4 1.8.7 2.6-2.2.8-2.9-17-7.1-35.7-9.4-53.9-11.4-19.9-2.2-39.9-3.2-59.9-3.7-39.9-1-79.9-.9-119.8-.5-80 .7-160 3.6-239.9 8.6-45.2 2.8-90.4 6.3-135.5 10.5-1.9.1-1.9 3.1.1 2.9h0zM719 907.2c74.5 2.5 149 2.6 223.4-.2 12.8-.5 27.1-2 35-13.4 1.1-1.6-1.5-3.1-2.6-1.5-7.9 11.3-23.2 11.6-35.6 12l-51.4 1.5c-36 .7-72 .7-108 .1l-60.9-1.5c-1.8-.1-1.8 2.9.1 3h0zm-377.5-53.4l-26.4 23.1c-1.1.9-.1 2.5 1.1 2.6l242.7 19.4c1.9.1 1.9-2.9 0-3l-242.7-19.4 1.1 2.6 26.4-23.1c1.3-1.4-.8-3.5-2.2-2.2h0z"/><path d="M592.9 866.8c-23.3 20.5-45.2 42.4-65.6 65.7-1.3 1.4.8 3.6 2.1 2.1 20.4-23.3 42.4-45.3 65.6-65.7 1.5-1.3-.6-3.4-2.1-2.1h0z"/><path d="M594 868.9c48.7-4.7 97.7-3.5 146.1 3.7 1.9.3 2.7-2.6.8-2.9-48.6-7.3-97.9-8.6-146.9-3.8-1.9.2-1.9 3.2 0 3h0z"/><path d="M738.6 871.6l-49.3 70.5c-1.1 1.6 1.5 3.1 2.6 1.5l49.3-70.5c1.1-1.6-1.5-3.1-2.6-1.5h0z"/><path d="M527.7 936l162.1 8c1.9.1 1.9-2.9 0-3l-162.1-8c-1.9-.1-1.9 2.9 0 3zm41.9-18.8l25.1 4.4c1.9.3 2.7-2.6.8-2.9l-25.1-4.4c-1.9-.3-2.7 2.6-.8 2.9z"/><path d="M589.1 908a193.06 193.06 0 0 0-14.4 16.8c-1.2 1.5 1.4 3 2.6 1.5 4.4-5.6 9-11 14-16.2 1.2-1.3-.9-3.5-2.2-2.1h0zm14.1 1.5c.1-5.2 4-8.6 9.1-8.5 2.5 0 4.8.8 7.3.4 4.6-.7 8.6-3.6 10.7-7.6 1.5-2.7 1.9-5.8 4.2-8 2.5-2.4 6-3.5 9.4-3.8 3.1-.3 6.5-.1 9.5 1 2.5 1 5.1 2.9 5.2 5.9.1 2.3-1.3 4.7-3.9 4.8.1 1 .3 2 .4 2.9 2.7-.4 5.7 2.5 6.5 4.8.4 1.1.5 2.5.4 3.6-.1 2.6-1.4 5.3-3.1 7.3s-3.9 3.6-6.4 4.3c-2.2.6-2.6.7-4.2-1.1-1.8-2.1-1-2.5.9-4.1 8.6-7.2 15.7 2.2 24.5 2.5 6 .2 11.7-3.5 12.9-9.6.6-3-.3-5.7-1.8-8.4-1.7-3-2.7-3.6-2-7.3-.5-2.2.2-3.3 2.1-3.3 1.1-.5 2.1-.5 3.1.2 2.4.7 3.8 2.3 5.3 4.3 1.1 1.5 3.7.1 2.6-1.5-3.1-4.3-8.5-8.4-13.9-5.2-5.1 3-3.3 8.3-.8 12.4 2.6 4.4 4.4 9-.2 13-5.2 4.5-11.1 1.5-16.2-1-5.2-2.5-11-2.8-16 .5-3 1.9-7.4 6.9-4.1 10.5 3.6 3.8 11.1.6 14.3-2 4.1-3.3 6.8-8.8 6-14.2-.9-5.4-5.1-9.6-10.6-8.7-1.7.3-1.3 3 .4 2.9 6.1-.1 8.7-7.5 5.5-12.2-4.4-6.5-15.4-6.6-22-4.2-3.3 1.2-6.2 3.3-8 6.4-1.3 2.2-1.7 4.9-3.1 7-2.2 3.2-6.1 5.1-10 5.1-4.6-.1-8.2-1.4-12.2 1.6-3.1 2.3-4.6 5.7-4.6 9.4-.2 1.9 2.8 1.9 2.8-.1h0z"/></g><path d="M763 346.6l-.7 71.6 168.5-4.9 34.4 26.7-9.1-52.7-2.8-43.5-190.3 2.8zm-6.1-177.4l-5.6 103.7-29.7 37 35.4-9.6 210.6-7.2-5.6-124.6-205.1.7z" class="F"/><g class="C"><path d="M874.8 215.2c1.4 24.9 19.3 45.4 43.8 50 1.9.3 2.7-2.5.8-2.9-23.2-4.3-40.3-23.5-41.6-47.1-.2-2-3.2-2-3 0h0z"/><path d="M919.3 265.1c9.6.7 18.2-13.4 21.7-20.8 4.6-10 6-21 3.9-31.7-.4-1.9-3.3-1.1-2.9.8 1.8 9.3.8 18.8-2.8 27.6-1.8 4.3-4.1 8.4-7.1 12-2.9 3.6-7.7 9.5-12.8 9.1-1.9-.2-1.9 2.8 0 3h0z"/><path d="M927.7 262c4 4.9 9.4 8.3 15.5 10 1.9.5 2.7-2.4.8-2.9-5.7-1.6-10.5-4.7-14.2-9.2-1.2-1.5-3.3.7-2.1 2.1h0z"/><path d="M940.3 242.7c1.2 1.9 2.5 3.7 4 5.4 1.4 1.5 3.9 2.8 5.1 4.4 3.5 4.7-3.2 13.8-6.1 17.4-1.2 1.5 1.4 3 2.6 1.5 3.3-4.3 7.9-11.5 7.7-17.3-.1-1.6-.7-2.5-1.8-3.6-3.2-3.4-6.4-5.3-9-9.4-1-1.6-3.6-.1-2.5 1.6h0zm-1.9 3c-.5 4.8-1.7 9.4-3.8 13.8-.3.7-1 1.6-1.2 2.3-.5 1.8.8-1.1 1.1-1.5 1.2-2.1 2.2-4.3 3.2-6.4l-2.7-1.2c-.9 2.9-2.4 5.1-4.8 7.1l2.4 1.8 6.2-10.6c1-1.7-1.5-3-2.6-1.5l-6.6 8.9c-1 1.4 1.2 3.1 2.4 1.8 2.4-2.8 4.2-5.8 5.4-9.2.7-1.8-2.2-2.6-2.9-.8-1.1 3-2.6 5.5-4.7 7.9l2.4 1.8 6.6-8.9c-.9-.5-1.7-1-2.6-1.5l-6.2 10.6c-.9 1.6 1.1 2.8 2.4 1.8 2.8-2.2 4.6-5 5.6-8.4.5-1.6-2-2.7-2.7-1.2-1.1 2.1-2.2 4.3-3.2 6.4-.6 1.2-1.6 2.7-1.4 4.1.1 1.7 1.8 3.2 3.6 2.6 2.4-.8 3.6-5.2 4.4-7.3 1.6-4 2.5-8.2 3-12.5-.1-1.8-3.1-1.8-3.3.1h0zm-27.8 14.9c-8.3-1.3-15.3 4.1-20.9 9.7-6.2 6.2-10.8 13.7-12.4 22.3-.4 1.9 2.5 2.7 2.9.8 1.3-7.1 4.7-13.3 9.5-18.7 4.8-5.5 12.2-12.5 20.1-11.2 1.9.3 2.7-2.6.8-2.9h0zm-10-41.9c3.1 8.1 6.6 16.1 10.3 23.9.6 1.2 2.4.8 2.7-.4.9-3.6 1.3-7.1 1.1-10.8-.1-1.9-3.1-1.9-3 0 .2 3.4-.1 6.7-1 10 .9-.1 1.8-.2 2.7-.4-3.6-7.6-7-15.3-10-23.2-.6-1.7-3.5-.9-2.8.9h0z"/><path d="M886.7 229.6c-.7-1.3.6-2.7 1.8-3.1 1.8-.6 3.7.1 5.5.6 1.8.6 2.6-2.3.8-2.9-2.9-.9-6.4-1.6-9 .4-2 1.6-2.9 4.2-1.6 6.5.8 1.7 3.4.2 2.5-1.5h0zm31.4-6.8c1-4.4 5.9-6.3 9.4-3.1 1.4 1.3 3.6-.8 2.1-2.1-5-4.6-12.9-2.3-14.4 4.4-.4 1.9 2.5 2.7 2.9.8h0zm6.4 3.3l-.4.4c-.6.6-.6 1.5 0 2.1s1.5.6 2.1 0l.4-.4c.6-.6.6-1.5 0-2.1s-1.5-.6-2.1 0zm6.7-2.8c.1.3.3.5.4.8.4.7 1.4.9 2.1.5s.9-1.3.5-2.1c-.1-.3-.3-.5-.4-.8-.4-.7-1.4-.9-2.1-.5s-.9 1.3-.5 2.1zm-.9 6.8l.4.4c.6.6 1.5.6 2.1 0s.6-1.5 0-2.1l-.4-.4c-.6-.6-1.5-.6-2.1 0s-.6 1.5 0 2.1zm-41.3 6.7v.4a1.54 1.54 0 0 0 1.5 1.5 1.54 1.54 0 0 0 1.5-1.5v-.4a1.54 1.54 0 0 0-1.5-1.5c-.9 0-1.5.6-1.5 1.5zm6.8-2.8h-1.4c.6.5 1.5.6 2.1 0s.6-1.6 0-2.1c-.9-.8-2-.8-2.9 0-.6.5-.5 1.6 0 2.1.7.6 1.6.5 2.2 0h0zm1.6 5.1v-.4a1.54 1.54 0 0 0-1.5-1.5 1.54 1.54 0 0 0-1.5 1.5v.4a1.54 1.54 0 0 0 1.5 1.5c.8-.1 1.5-.7 1.5-1.5zm-7.3-26.9c-2.5-1.6-5.7-.8-7.5 1.5-.5.6-.1 1.7.5 2.1.8.5 1.6.1 2.1-.5.8-1 2.3-1.1 3.3-.4 1.8.9 3.3-1.7 1.6-2.7h0zm23.9-3.4c1.2-.5 2.5-.8 3.9-.9 1.9-.1 1.9-3.1 0-3s-3.7.5-5.4 1.3c-.7.3-.9 1.4-.5 2.1s1.2.8 2 .5h0zm.7 42c4.4.4 8.5-2.5 9.9-6.7.6-1.8-2.3-2.6-2.9-.8-1 3-3.9 4.8-7 4.5-1.9-.2-1.9 2.8 0 3zm38.6 3.6c3.3-.2 6.4.5 9.3 2.1 1.7.9 3.2-1.7 1.5-2.6-3.4-1.8-7-2.7-10.8-2.5-1.9.1-1.9 3.1 0 3zm-74-72c-8.4 3.8-14.9 11.2-17.2 20.2-1.4 5.5-.4 10.9-.6 16.5-.3 6.3-3.2 11.9-5.1 17.8-5.5 17.1 3.9 35.9 21.3 41.1 1.9.5 2.6-2.3.8-2.9-8.3-2.5-15-8.6-18.5-16.5-3.8-8.7-2.3-16.9.9-25.5 1.4-3.7 2.8-7.4 3.3-11.4.6-4.8-.4-9.6.1-14.4.9-9.9 7.6-18.3 16.5-22.3 1.7-.8.2-3.3-1.5-2.6h0zM877 215c10.7-5 18.7-13.7 22.9-24.7.7-1.8-2.2-2.6-2.9-.8-3.9 10.2-11.6 18.3-21.5 22.9-1.8.8-.2 3.4 1.5 2.6zm24.2-25.3c3.3 5.8 10.2 8.4 16.3 10.4 7.7 2.6 15.8 3.7 23.9 3.6 1.9 0 1.9-3 0-3-6.7.1-13.3-.7-19.7-2.5-6.2-1.7-14.5-4.1-17.9-10.1-.9-1.6-3.5-.1-2.6 1.6h0z"/><path d="M942.1 205.4c2.3-4.1 8.2-3.6 9.6 1.1 1.4 4.6-2.4 8.4-6.8 8.9-1.9.2-1.9 3.2 0 3 6.7-.8 12.3-7.1 9.2-13.9-2.9-6.2-11.3-6.3-14.6-.5-.9 1.5 1.6 3 2.6 1.4h0z"/><path d="M944 216.5c-2.2 12.8-.9 30.1 10.1 38.8 1.5 1.2 3.6-.9 2.1-2.1-10-7.9-11.4-24-9.3-35.8.4-2-2.5-2.8-2.9-.9h0zm-65.2-30.7c6.6-3.4 13.6-7.1 21.2-7 6.5.1 11.9 3.1 18.5 1.9 6.9-1.2 13.2-4.4 20.4-4.8 7.4-.4 15.4.8 20.6 6.5 1.3 1.4 3.4-.7 2.1-2.1-10.1-11-26.3-7.3-38.8-3.7-5 1.5-9.4 1.9-14.5.6-3.6-.9-6.9-1.6-10.7-1.3-7.2.7-13.9 4-20.2 7.3-1.8.9-.3 3.5 1.4 2.6zm-1.1 89.6c-.3.1-.7.2-1 .2-1.6.4-1.3 2.4 0 2.9 2.4 1 4.9 1.3 7.5 1 1.9-.2 1.9-3.2 0-3-2.3.3-4.5 0-6.7-.9v2.9c.3-.1.7-.2 1-.2 1.8-.4 1-3.3-.8-2.9zm-102.8-69.7c1.5 2.3 5.1 1.8 5.6-1 .2-.9-1.2-1.3-1.4-.4-.3 1.4-2 1.9-2.9.7-.5-.8-1.8-.1-1.3.7h0zm11.5-1.1c.6 1 1.3 2.1 2.6 2.3 1.1.2 2.1-.3 2.5-1.4.3-.9-1.1-1.3-1.4-.4-.2.4-.8.3-1.1.1-.5-.3-.8-.9-1.1-1.5-.7-.7-2 0-1.5.9h0zm-3.2 2.7l.3.6v-.1c-.1.2-.1.4-.2.5 0 0 0-.1.1-.1-.2.1-.4.1-.5.2h.1c-.2-.1-.4-.2-.6-.4-.2-.3-.3.3-.3.5 0 .4.1.9.1 1.3s0 .8-.2 1.1c-.1.2-.5.5-.7.3-.7-.6-1.8.4-1.1 1.1.7.6 1.5.6 2.3.1s1.1-1.4 1.1-2.4c0-.7-.1-1.2.1-1.8.1-.4.1-.7-.1-1-.6-.8-1.5-.2-1.6.6 0 .2.2.5.4.6h.1c.8.7 1.6-.6.7-1.1h0z"/><path d="M782.5 207.9c.3 1.4-.1 2.9 1 4.1.8.9 2 1.1 3 .3.7-.6-.3-1.7-1.1-1.1-.6.5-1.2-1-1.2-1.3l-.2-2.4c-.3-.9-1.7-.5-1.5.4h0zm-5.8-7.1h2.2c1 0 1-1.5 0-1.5h-2.2c-1 0-1 1.5 0 1.5zm10.9.3c.7 0 1.3.1 1.9.5.8.5 1.6-.8.8-1.3s-1.7-.7-2.6-.7c-1.1 0-1.1 1.5-.1 1.5h0zm-5 16.8c-9.8.6-8.9-9.8-11.2-16.2-.6-1.9-1.7-3.5-2.4-5.4-2.6-7.4 3.1-2.2 5 .5.6.8 1.9 0 1.3-.8-1.1-1.6-5.1-7.5-7.5-6.8-2.5.7-.9 6-.3 7.5 1.1 3 2.6 5.4 3.2 8.6.5 2.9.6 5.9 2.1 8.5 2 3.6 5.6 5.8 9.7 5.5 1 .1 1-1.4.1-1.4h0z"/><path d="M775.7 197.3c4.8-2.6 9.8-2.8 14.7-.5.4.2.8.1 1-.3 1.3-2.4 2.9-4.2 5.1-5.8-.4-.2-.9-.4-1.3-.5.2 5.5.4 11.3-.5 16.7-1.3 7.6-6.3 10.4-13.5 11.3-.9.1-1 1.6 0 1.5 5.9-.8 11.3-2.2 13.8-8.1 2.7-6.4 2-14.6 1.7-21.4 0-.7-.8-.9-1.3-.5-1.4 1.1-3 4-4.5 4.8-1.7.9-3.7-.4-5.6-.6-3.7-.4-7.2.5-10.5 2.2-.7.4 0 1.7.9 1.2h0zm-.8 18.2c-2.7 4.4-1.7 9.7-.9 14.6 1.2 7.5 3.4 14.8 5.6 22 .3.9 1.7.5 1.4-.4-1.6-5.4-3.3-10.9-4.5-16.4-1.3-5.7-3.6-13.7-.3-19 .5-.8-.8-1.6-1.3-.8h0z"/><path d="M779.5 251.5c-1.9.3-8 2.3-6.1 5.3.7 1.1 2.2 1.3 3.4 1.4 2.3.2 4.6-.2 6.8-.9.9-.3.5-1.7-.4-1.4-2 .6-5.2 1.6-7.3.8-.4-.2-1.2-.9-1-1.4.1-.3 1-.7 1.4-.9 1.2-.6 2.4-1.1 3.7-1.3.9-.4.5-1.8-.5-1.6h0zm4.4-23.2c.7 8.2 1.6 16.3 2.8 24.5.1 1 1.6.5 1.4-.4-1.2-8-2.1-16-2.8-24.1.1-1-1.4-1-1.4 0z"/><path d="M787.3 252.2c-2.2.3-6.1 2.2-4.1 5.1 2.2 3.1 8.4.5 11-.5.9-.3.5-1.8-.4-1.4-1.7.7-3.4 1.3-5.2 1.6-.8.1-2.3.4-3.1 0-1.3-1.5-1.2-2.5.3-2.9.5-.2 1-.3 1.5-.3.9-.2.9-1.7 0-1.6h0zm7.2-40.6c4 2.4 4.9 6.5 6.7 10.5 1.3 2.9 2.9 4.9 5.3 7 3.5 3 6.7 5.3 8 10.1 1.3 5 .2 10.2-1.2 15-.3.9 1.2 1.3 1.4.4 2.4-8.3 3.3-17.4-3.7-23.8-1.6-1.5-3.5-2.7-5-4.2-2.2-2.3-3.3-4.9-4.4-7.8-1.4-3.5-2.9-6.5-6.2-8.5-1-.5-1.7.8-.9 1.3h0z"/><path d="M806.5 236.7c-3.3-.5-6 2.3-7 5.4-1.4 4.2 2.2 8.4 4.6 11.4.2-.4.4-.9.5-1.3-3.2.3-5.8 1.3-8.4 3.2-.3.2-.5.7-.3 1 2.5 3.2 8.2 1.8 11.7 1.8 3.7-.1 7.4-.4 7.3-5.1 0-1-1.5-1-1.5 0 .1 4.8-9.4 3.7-12 3.7h-1.7c-1.9-.3-2.3-.7-1.2-1.2.5-1.3 5-1.8 6.1-1.9.7-.1.9-.8.5-1.3-1.3-1.7-3.1-3.7-3.8-5.8-1-2.7.2-9.2 4.8-8.5 1 .2 1.4-1.2.4-1.4h0zm-13.4 6.9c.4 4 .6 8 .7 12 0 1 1.5 1 1.5 0-.1-4-.3-8-.7-12-.1-.9-1.6-.9-1.5 0z"/><path d="M794.7 252.8c3.1 1.5 6.4 1.8 9.6.8.9-.3.5-1.7-.4-1.4-2.9.8-5.8.6-8.5-.7-.8-.4-1.6.9-.7 1.3h0zm21.1-4.9c2.8-1.9 4.8-4.4 5.5-7.8 1.1-5.4-2.3-10.4.1-15.7 1.9-4.1 5.1-7.2 6-11.7 1-5.1-1-10.3.2-15.4.3-1.2.7-2.8 1.6-3.8.9-2 2.3-1.5 4 1.6l-.6 1.5c-.3 2.5-2.2 5.1-2.7 7.7-.4 2.3-.2 4.6-.5 6.9-.4 3.3-2 5.9-3.5 8.9-2.1 4.3-1.7 8.1-1.5 12.8.3 7.1-2.5 13-8.9 16.4-.9.5-.1 1.8.8 1.3 4.2-2.3 7.5-5.8 8.9-10.4 2.2-7-.8-13.7 2.7-20.6 1.3-2.7 2.6-5 3-8 .5-3.5.2-6.5 1.3-10 .8-2.5 5.3-9.3 1.9-11.7-2.2-1.5-5.1 1.1-6.2 2.7-3 4.2-2.1 9.6-1.9 14.5.2 4.5-.6 8-3 11.8-1.3 2-2.7 4-3.5 6.3-2.7 7.8 4.3 15.5-4.4 21.5-.8.5-.1 1.8.7 1.2zm33.9 26.1c-3.5-.7-6.6.4-9.4 2.6-2 1.5-4.6 3.7-4.2 6.5 1.2 7.3 12.7 3 16.3.6 1.6-1.1.1-3.7-1.5-2.6-1.5 1-3 1.8-4.7 2.3-1.1.3-2.2.6-3.3.6-1.5.1-2.1.2-2.9-1.3s-.4-1.5.7-2.6c.7-.7 1.4-1.2 2.2-1.8 1.8-1.2 3.8-1.9 6-1.5 1.9.5 2.7-2.4.8-2.8z"/><path d="M846.7 273.1c-.6-4.5-1.9-8.8-4.2-12.8-1.5-2.6-4.8-8.3-8.3-8.7-7.6-.9.6 19 1.9 21.7.9 1.7 3.4.2 2.6-1.5-1.5-3.1-2.7-6.2-3.5-9.5-.4-1.7-1.2-4.2-1-5.8 0-.5-.1-.9-.1-1.4.8.4 1.5 1 2.1 1.7 4.2 4.3 6.7 10.4 7.5 16.3.3 1.8 3.3 1.9 3 0z"/><path d="M838.8 271.7c-2.2-4.2-11.3-18.4-17.5-12.9s4.9 17.4 8.8 21c1.4 1.3 3.5-.8 2.1-2.1-2.1-2-4.1-4.1-5.7-6.4-.9-1.3-5.3-7.8-3.8-9.2l3.6-.6c.9.6 1.7 1.3 2.5 2 .9.8 1.8 1.8 2.7 2.7 1.9 2.1 3.4 4.5 4.7 7 .9 1.8 3.5.3 2.6-1.5h0z"/><path d="M829.9 278.6c-3.4-2.8-8.4 0-8.1 4.3.4 5.8 6.9 7 11.4 5.7 1.9-.5 1.1-3.4-.8-2.9-2.4.7-5.7.9-7.2-1.7-.6-1-.7-2.2.2-3 .6-.6 1.7-.9 2.4-.3 1.4 1.3 3.5-.8 2.1-2.1z"/><path d="M823.4 282.9c-4.2 1.3-4.2 6.3-1.8 9.3s7 5 10.4 2.4c1.5-1.2-.6-3.3-2.1-2.1-1.6 1.2-4.2-.4-5.3-1.5-1.2-1.2-2.8-4.4-.3-5.2 1.8-.6 1-3.5-.9-2.9h0zm24.6-8.7c7.3 0 9.5 13.7 8.1 18.8-.5 1.9 2.4 2.7 2.9.8 2-7.2-1.4-22.6-11-22.6-2 0-2 3 0 3z"/></g><path d="M776.6 378.4h103.5c1.9 0 1.9-3 0-3H776.6c-1.9 0-1.9 3 0 3zm26.5 13.4h95.3c1.9 0 1.9-3 0-3h-95.3c-1.9 0-1.9 3 0 3zm89.5-13.9h12c1.9 0 1.9-3 0-3h-12c-1.9 0-1.9 3 0 3zm34.1 9c-3.7-1.7-6.5-4.7-7.5-8.7-.5-1.9-.9-4.7.4-6.4 2.5-3.5 5.5 1.3 6.3 3.8.4 1.3 2.6 1.5 2.9 0 .1-.7.3-1.4.5-2.1.8-3 2.7-2.7 5.8.7.5 1.8-.7 4.8-1.5 6.3-1.7 3.4-4.5 5.8-7.9 7.5-1.7.8-.2 3.4 1.5 2.6 6.4-3 13.4-11.8 10.2-19.3-1-2.3-3.4-4.1-6-3.7-3.5.5-5 4.2-5.6 7.2h2.9c-1.7-5.5-8.9-11.9-12.2-3.8-2.9 7.1 2.3 15.5 8.7 18.5 1.7.8 3.2-1.8 1.5-2.6h0z" class="E"/><path d="M506.7 754.3l-6.9 46.9c-42.3 12.9-63 21.3-62.2 25 1 4.6 33.6 2.4 98-6.6l2.8-67.1-31.7 1.8z" class="B"/><path d="M527.2 611.2c-2.1 1.6-3.3 3.4-7.8 12.1-3.6 6.9-5.3 10.4-6.5 13-8.1 18.4-16 47.3-16 47.3-6.3 22.9-9.5 34.3-11.7 46.4-3.2 17.1-4.5 31.6-5.2 42.1 5.9 2.7 13 5.4 21.3 7.4 19.6 4.7 36.5 3.3 47.7 1.3 2-14.1 4.8-29.4 8.7-45.5 3.4-14.4 7.3-27.7 11.3-39.9 4.3 2.7 10.6 6.9 18.2 12.1 24.9 17.3 32.7 25.7 47.3 35.1 9.6 6.2 23.8 14 43.4 20 4.5-.6 16.8-2.8 27.3-13 15.8-15.5 14.2-36.5 13.9-39.5-6.6-7-15.9-16.4-27.8-26.5-21-17.8-39.1-28.7-52-36.4-10.4-6.2-22-11.9-45.1-23.4 0 0-27.1-13.4-52-15.6-4.4-.4-10.3-.6-15 3h0z" class="C"/><g class="B"><path d="M481.2 770.8a471.02 471.02 0 0 1 14.3-77.4c3.4-12.4 7.3-24.7 11.7-36.9 4.4-12.1 8.8-24.8 15-36.2 3.7-6.8 8.7-9.1 16.2-9.4 6.8-.3 13.6.6 20.2 2.2 12.1 2.8 23.8 7.5 35.2 12.4 21.6 9.2 42.4 20.5 61.9 33.7 22.2 15 42.7 32.3 61.2 51.7 1.3 1.4 3.5-.7 2.1-2.1-35-36.5-77.2-65.9-123.7-85.8-11.4-4.9-23-9.5-35.1-12.5-10-2.4-25.5-5.7-34.6.8-3.9 2.8-6.1 7.3-8.1 11.6-2.6 5.7-5 11.5-7.4 17.3-5.3 13.1-10 26.4-14.1 40a473.32 473.32 0 0 0-17.9 90.6c-.1 1.9 2.9 1.9 3.1 0h0z"/><path d="M480.6 772.2a92.62 92.62 0 0 0 67.8 9.2c1.9-.5 1.1-3.4-.8-2.9-22.2 5.5-45.6 2.4-65.5-8.9-1.7-.9-3.2 1.6-1.5 2.6h0z"/><path d="M551.4 779.2c3.5-28.5 9.9-56.6 18.9-83.9.6-1.8-2.3-2.6-2.9-.8-9.1 27.6-15.4 55.9-19 84.7-.2 1.9 2.8 1.9 3 0h0z"/><path d="M561 692.4c40.1 20.4 70 59.6 115.1 70.1 1.9.4 2.7-2.5.8-2.9-44.8-10.5-74.6-49.5-114.4-69.8-1.7-.9-3.2 1.7-1.5 2.6h0z"/></g><g class="D"><path d="M515.2 782.4c10.2-32.4 21.4-65.4 33.7-99l8.9-23.8 62.8 33 87.6 46.5c-.8 3.7-3.7 13.8-12.8 19.2-6.8 4-14.3 3.7-22.3 2.1-24.8-5-40.4-20-71.6-43.3-7.1-5.3-18-13.3-31.9-22.7-2.7 7.6-5.3 15.5-7.8 23.8-6.7 22.4-11 43.5-13.8 62.8-5.8 1.5-13.5 2.8-22.3 2.5-3.9-.2-7.4-.6-10.5-1.1h0z" class="G"/><path d="M567 693.3c-2.5-1-12.6 17.8-15.6 23.4-7.7 14.3-17.7 35.4-27 63.5 1.9.8 4.3 1.7 7.1 2.1 7.4 1.3 13.4-.5 16.7-1.8 5.3-27.8 10.7-49.9 14.9-65.6 2.6-9.8 5.7-20.8 3.9-21.6z" class="G"/></g><path d="M410.5 766.4L390 819.9c-39.9 13.3-59.3 22.1-58.4 26.4 1.1 5 29.7 4 85.8-3.1l20.2-65-27.1-11.8z" class="B"/><path d="M467.8 592.5c-7.7 5.4-12.1 11.8-14.3 15.2-9.6 14.5-14.5 21.8-17.8 28.2-9.4 18.1-15.4 33.3-18.2 40.8-9.5 25.1-14.3 45.5-18.7 63.8-3.2 13.7-5.5 25.1-6.9 33a82.38 82.38 0 0 0 17.3 15.6c16 10.7 32.1 13.2 40.8 13.9 7.3-21.1 14.2-38.9 20-52.9 6.1-15 10.6-25 18.7-36.4 5.8-8.3 11.5-14.5 15.6-18.7 4.5 6.3 11 14.8 19.5 24.3 10.5 11.7 29.7 32.8 60.7 51.2 25.1 14.9 44.8 20.2 64.6 25.6 20.6 5.6 26.9 5 31.7 2.2 19.7-11.6 9.7-57.9 9.1-60.7-19.3-14.8-33.6-27.9-43.4-37.3-8.8-8.5-18.7-18.8-36-34.3l-16-13.9c-3.1-2.6-14.6-12-34.3-25.6 0 0-25-17.3-49.4-29.9 0 0-6.2-3.2-16.9-6.5-8.9-2.7-12.6-2.9-16-2.2-1.2.1-4.7.9-10.1 4.6h0z" class="C"/><g class="B"><path d="M464.9 592.8c-44.1 49-62.7 114.2-74.9 177.5-.4 1.9 2.5 2.7 2.9.8 12.1-62.8 30.4-127.6 74.1-176.2 1.4-1.4-.8-3.6-2.1-2.1h0z"/><path d="M391 773.8c14.6 16.9 34.7 28.2 56.7 31.8 1.9.3 2.7-2.6.8-2.9-21.6-3.5-41.1-14.5-55.4-31-1.2-1.5-3.3.6-2.1 2.1z"/><path d="M450.6 804.2c6.4-19.9 14-39.3 23-58.2 8.2-17.1 16.6-36.8 31.3-49.4 1.5-1.3-.7-3.4-2.1-2.1-14.9 12.8-23.5 32.7-31.7 50-9.1 19.1-16.8 38.8-23.3 58.9-.7 1.8 2.2 2.6 2.8.8h0z"/><path d="M494.3 683.8c41.1 56.6 97.1 107.4 169.1 117 1.9.3 1.9-2.7 0-3-70.8-9.4-126-59.8-166.5-115.5-1.2-1.5-3.8 0-2.6 1.5zm-26.9-89c16.5-12.1 37.5 1.3 52.7 9.5 15.7 8.4 30.8 17.7 45.5 27.8 29.6 20.5 56.9 44.3 81.3 70.8 1.3 1.4 3.4-.7 2.1-2.1-40.2-43.7-88.5-80.4-141.9-106.5-12.8-6.3-28.5-11.3-41.2-2-1.5 1 0 3.6 1.5 2.5h0z"/></g><g class="D"><path d="M414.6 789.2l32.5-67.9c27.5-57.9 32.1-69.1 44.7-73.4 21.8-7.3 42.5 14.6 90.4 48.8C609 715.9 645.9 740 693 764.3c.9 5.2 2.8 19.4-5.5 28.4-3.7 3.9-12.1 9.9-38.1 5.5-10-1.7-56.8-10.6-113.6-67.2-14.3-14.2-24.9-27.2-31.9-36.4-2.9 3.4-7.3 8.9-12.1 15.9-8.4 12.4-14 23.7-27 55l-15.2 37.7c-3.8.2-11 .2-19-3.1-8.2-3.1-13.4-8.1-16-10.9z" opacity=".13"/><path d="M496 681.2c3.9 2 9.6 5 16.3 9 42.3 25.2 43.3 40.5 74.8 59.2 24.5 14.5 33.7 11.1 58.9 30.1 9.8 7.4 17.1 14.5 21.8 19.4-9.7-.8-23.1-2.8-38.4-7.6-20-6.3-33.8-14.6-44-20.8-5.1-3.1-26.3-16.2-49.5-39.5-11.6-11.5-26.1-27.9-39.9-49.8h0zm4.5 13.8c-1.4-1.8-11.9 2.7-21.1 9.7-16.6 12.5-21.3 27-36.7 55.4-4.5 8.3-11.3 20.4-20.4 34.6l26.7 10.7c2-5.4 17.3-46.3 28.7-71 3.7-7.9 5.7-12.3 9.3-18.3 8-13.2 14.8-19.4 13.5-21.1h0z" class="G"/></g><path d="M915.5 523.3c2.6 1.4 2.5 2.9 5.8 5.7 2.7 2.3 3.7 2 4.8 3.9 1.2 2.1 1.4 4.5 1.4 6.1 1.1 0 3.1.3 5.2 1.8.6.4 4.7 3.3 5.8 9.6.8 4.3-.2 7.9-.7 9.2 1.1 1 2.8 2.8 3.4 5.7.8 3.6-.3 6.9-1.7 10.5-4.1 10.1-7.8 14.3-12 22.8-1.3 2.5-3 6.4-4.8 11.4-.1 3.8-.1 10 .7 17.5 1.2 11.2 3.4 19.3 4.1 21.9 3.5 13 9.7 43.4 10.3 71.3.3 14.3.6 37.2-9.3 60.6-3.7 8.8-9.2 21.2-20.3 26.3-1.8.8-14.7 6.7-23.7-2.6-3.3-3.4-5-7.6-5.8-10.5-.2-1.5-.4-3.8-.3-6.6.3-12.1 5.9-20.8 7.9-24.1 6.8-11.5 8.9-24.3 12.4-46 2.2-13.4 1.7-25 .7-47.8-.7-15.6-2.2-36.7-5.5-61.8-1.7-.5-3.9-1.5-5.5-3.9-2.4-3.7-1-7.1-2.8-13.6-1.4-4.9-2.5-4-4.8-10.5-1.7-4.7-3.3-9-2.4-14 .2-1 1.1-6.9 4.5-8.3 4.3-1.9 9.1 4.9 10.3 6.6a26.84 26.84 0 0 1 4.1 9.2c2.4-4 4.9-8.8 7.2-14.5 1.1-2.6 2-5.1 2.8-7.5-.4-2.2-.9-5.4-1.3-9.3-.5-5.2-.7-7.9-.1-11.3.4-2.3 1.4-7.4 4.5-8.8 1.9-.7 4 .4 5.1 1h0z" class="C"/><g class="B"><path d="M925.3 606.6c4.9-8.8 10.7-17.6 14.7-26.9 2.9-6.8 4.1-15-.4-21.4-1.1-1.6-3.7-.1-2.6 1.5 5.2 7.3 1.7 16.4-2.1 23.5l-12.2 21.8c-1 1.7 1.6 3.2 2.6 1.5z"/><path d="M932.4 574.9c7.3-9.7 13.2-33.1-3.8-36.9-1.9-.4-2.7 2.5-.8 2.9 14.8 3.3 8.1 24.3 2 32.5-1.1 1.5 1.5 3 2.6 1.5h0z"/><path d="M924.5 566c6.9-9.9 7.4-23.5 2.1-34.2-.9-1.7-3.4-.2-2.6 1.5 4.8 9.8 4.2 22.2-2.1 31.2-1.1 1.5 1.5 3 2.6 1.5zm-5.9-7.7c2.8-8.8 3.7-18.4 1.7-27.5-1.1-4.9-6-13.5-12.1-8.8-5.7 4.4-3.1 16.5-2.5 22.4s-.1 10.1-3.2 15.2c-2.7 4.4-4.9 9-6.6 13.9-.7 1.8 2.2 2.6 2.9.8 2.3-6.5 6.4-11.8 9.1-18 2.5-5.8.8-12.1.4-18.2-.2-2.8-1-7.3.1-10 .1-2.1 1.4-2.5 3.9-1.4 2.8-1.1 4.4-.3 4.7 2.5.7 1.9 1 4.1 1.2 6.1.8 7.5 0 14.9-2.3 22.1-.7 2 2.1 2.8 2.7.9h0z"/><path d="M927.7 533.3c-1.2-4.6-6.4-8.3-10.9-5.2-1.6 1.1-.1 3.7 1.5 2.6 2.8-1.9 5.7.6 6.5 3.4.5 1.9 3.4 1.1 2.9-.8zm-30 37.8c-1.6-5.9-5.5-13.4-12.1-14.6-6.3-1.2-8.5 4.9-8.7 10-.5 9.6 4.6 16.2 7.1 25 2 7.1 1.4 14.2 8.6 18.4 1.7 1 3.2-1.6 1.5-2.6-5.4-3.1-5.6-8.5-6.7-14-.8-4.4-2.9-8.1-4.7-12.2-2.1-4.7-4.4-12-2.6-17.1l.3-1.4c2.3-.7 4.6-1.5 6.8-2.2 1.3.4 2.9 2.5 3.8 3.5 1.9 2.4 3 5 3.7 8 .6 1.9 3.5 1.1 3-.8h0z"/><path d="M892 608.4c4.2 34.7 8.7 70.7 5.6 105.6-1.5 16.5-5.6 31.8-12.2 46.9-5.4 12.4-9.3 24.1-6.7 37.7.4 1.9 3.3 1.1 2.9-.8-2.9-15.2 3.3-27.7 9-41.3 6-14.1 9-29.1 10.2-44.3 2.7-34.4-1.6-69.7-5.7-103.8-.4-1.9-3.4-1.9-3.1 0h0z"/><path d="M922.3 604c-2.4 6.9-1.2 14.6-.4 21.7.9 7.5 2.1 15 3.5 22.4 3.1 16.3 7 32.4 9.1 48.9 2.1 16.2 2.2 32.6.4 48.8-1.8 16.1-4.9 33.7-13.9 47.5-4.3 6.6-10.7 13-18.8 14.5-8.7 1.7-16.6-3.5-20.7-11-.9-1.7-3.5-.2-2.6 1.5 5.8 10.5 17.7 15.7 29 10.7 13.4-5.9 20.5-20.9 24.4-34.2 10.3-35 7.4-71.5.3-106.8-2-10-4.2-20-5.8-30.1-.9-5.4-1.6-10.8-2.2-16.2-.5-5.7-1.3-11.7.6-17.2.7-1.5-2.2-2.3-2.9-.5h0z"/></g><g class="D"><path d="M932.1 541.7c.3 5 .3 11.4-.9 18.4-3.2 19.2-12.7 31.3-17.1 36.1-.1 5.7-.3 14.5 0 25.1 1.2 47.6 8.6 70.9 9.8 93.2 1.2 21.7-2.8 53.4-27.8 94.4 3.3.3 8.5.3 13.9-2.6 4.9-2.6 12.5-8.6 19.4-28.7 6.3-18.4 13.2-52.1 5.5-90.7-3.4-16.8-8.6-30-11.3-58.2-.7-7.5-1-13.8-1.2-18.1 1.7-4 4.2-9.5 7.8-15.5 5.9-9.9 9.7-13.2 10.7-20.3.7-5-.3-10.1-2.3-15.1.2-1.3 1-6.6-1.4-11.8-1.6-3.7-4-5.5-5.1-6.2h0z" opacity=".1"/><path d="M922 617.999c-.5.101 1.1 17.501 4.3 52.301l4.3 47.2c1 45.6-13 77.8-10.7 78.9 1.6.8 9.6-15.4 14.2-35 6.3-27.1 3.8-50.6 2.3-64.1-1.4-11.9-1.9-8.6-9-49-3.5-20.3-4.9-30.4-5.4-30.301h0z" class="H"/></g><path d="M675.7 712.5c-9.5 19.3-12.2 36.3-14.7 52.9-1.4 9.1-2.8 22-2.7 37.6 31.2 8.3 59 12.8 81.8 15.2 29.6 3.2 20.9-.7 95.6 1.9 37.3 1.3 56.5 2.6 61.8-7.6 4.4-8.6-6.4-17.2-7-37-.5-15.9 5.8-28.9 10.8-37-29.5-11.9-63.6-23.7-102-33.7-38.2-10-73.6-16.4-105.1-20.4-5 5.9-12.2 15.3-18.5 28.1z" fill="#d6d6d6"/><g class="D"><path d="M678.3 709.1c7.3 14.6 22.7 39.6 51.4 53.6 11.2 5.5 23.9 9 61.3 10.9 24.2 1.2 57.8 1.8 98.5-1.5-.6 8.7 1.2 14.9 2.9 19 2.6 6.1 6.2 9.6 5.8 16-.1 1.5-.3 5.3-2.9 8.4-3.6 4.2-9.5 4.6-12.4 4.7-28.8 1.4-38.7.4-38.7.4-24.2-2.6-45.7-2-63.5-1.5-7.7.2-11.8.5-20.1.4-4.6-.1-17.3-.4-35.7-2.9-27.1-3.7-52.1-10-66-13.9-.3-17.9 1.3-32.7 2.9-43.4 2.5-16.4 5.5-25.5 6.6-28.4 3.2-9.2 6.9-16.6 9.9-21.8h0z" class="G"/><path d="M667.3 735.3c3.9 7.9 10.6 19.1 21.9 29.5 19 17.4 39.5 22 63.8 27.7 51.5 12.2 104 26.1 103.6 28.4-.2 1.4-19.8-1.8-53.6-2.2-8.2-.1-13.5-.2-21.2 0-15 .3-19.1 1.1-28.1.7-9.7-.4-16.8-1.8-24.4-3.3l-70.7-15c.1-6.4.5-13.1 1.1-20.1 1.5-16.7 4.3-32.1 7.6-45.7h0z" opacity=".1"/></g><path d="M959.3 793.7c-21.2 3-33.3 3.6-53.1 9.2-9.2 2.6-16.6 5.3-21.5 7.3-3.1-8.7-6.8-22.8-5.2-40 .9-10.2 3.4-18.7 6-25.1 5.5 1.4 12.4 2.7 20.5 3.2 10.1.6 18.7-.2 25.2-1.3l7.4-26.9 13.6-3.7 1.3-7.5c5.6 2.6 14.5 6.8 25.6 11.5 20.9 9 23.9 9.3 28.4 13.3 12.1 10.9 17.9 32.6 9 45.1-5.4 7.5-22.7 10-57.2 14.9z" stroke="#161616" stroke-width="2" class="C"/><path d="M951.8 708.7c-.7 4.7-1 9.4-.8 14.2.1 1.9 3.1 1.9 3 0-.2-4.5.1-8.9.7-13.4.2-1.9-2.7-2.7-2.9-.8h0zm32.6 25.5c.8 3.7-1.5 7-4.7 8.5-1.8.8-.2 3.4 1.5 2.6 4.6-2.1 7.1-7 6.1-11.9-.4-1.9-3.3-1.1-2.9.8h0zm-11.3-1c1.1.1 2.3.4 3.2 1.2l.6.6c.6-.5.7-.8.2-.7-.3-.2-1.1-.2-1.4-.3-.5-.2-1-.3-1.5-.6-.3-.1-.5-.3-.8-.5-.8.5-.9.9-.2 1.1.4.4 1.2.8 1.7 1.1l1.7 1.1c1.6 1 2.8-1.1 1.8-2.4-.6-.8-1.3-1.2-2.2-1.6-1.8-.7-2.6 2.2-.8 2.9.4.2.6.5.9.8l1.8-2.4-4.1-2.6c-1.1-.6-2.5-.4-3.2.7-1.8 2.7 2.1 4.6 4.1 5.2 1.1.3 2.4.6 3.5.2 1.2-.4 1.8-1.7 1.4-2.9-.8-2.6-4.3-3.7-6.7-3.9-2-.1-1.9 2.9 0 3h0z" class="B"/><path d="M1002.4 729.6c4.3 1.2 11.4 3.8 18.3 9.2 2.4 1.9 7.6 6 10.7 11.9 5.9 11.2 3.2 26.9-7.1 37.3-10.1 10.1-26.3 13.7-41.4 9.2l19.5-67.6z" class="F"/><g class="B"><path d="M1007.3 691.3l-28.2 104.4c-1.5 5.6 7.2 8 8.7 2.4l28.2-104.4c1.5-5.6-7.2-8-8.7-2.4z"/><path d="M986.9 774.4c-1.6-6.6-5.8-10.8-10.7-15.7-10.4-10.4-15-8.3-21.5-15.5-10.2-11.5-2.1-20.7-12.2-31.1-8.6-8.8-21.6-9.5-24.6-9.6-2.9-.1-14.6-.2-23.6 7.5-7.8 6.7-10.7 16.8-9.3 17.6.5.3 2-.4 6.8-5.5-1.5 1.5-3.3 3.9-4.4 7.1-1.2 3.8-1 7.5-.4 7.6.5.1.7-2 2.8-3.4 1.2-.8 2.6-1.1 3.6-1.1-2.6 2.8-5 6.5-4.2 10.3 2 10.6 25.8 15.5 33.7 17.1 25.6 5.3 40.6.2 48.6 9.8.7.8 3.9 4.7 2.7 8.3-1.6 4.6-9.9 7.2-14.9 5-4.3-1.9-4.9-6.8-5.8-6.6-1.1.3-.5 8.5 4.3 16 1.8 2.7 3.2 4.9 6.1 6.4 5.1 2.5 11.6 1.2 15.5-1.2 8.3-4.7 9.3-15.8 7.5-23h0z" stroke="#161616" stroke-width="2"/></g><path d="M952.3 779.5c0-1.5.2-3.7.8-3.7.3 0 .6.6.6.5 0 0-2.2-2.1-2.2-4.4 0-1.1.5-2 .9-2.5-9.6 2.8-21 5.5-34 7.3-14.3 2-27.1 2.5-38 2.3-.5 4.1-.8 9.9.6 16.8 1.1 5.6 3 10.2 4.7 13.6 15.5-6.7 27.5-9.5 35.6-10.9l17.2-2.6 19.1-2.7c-.5-.7-1.3-1.8-2.1-3.2-1.1-1.9-3.2-5.8-3.2-10.5h0z" opacity=".22" class="D"/><path d="M1034.2 764.3c-3.2 8.9-11.9 14.8-21.4 14.7-11.2-.2-17.8-8.8-18.4-9.6l-7.7 28.9c2.4.5 5.7 1 9.7.9 12.6-.3 21.2-6 23-7.3 2.8-1.9 12-8.9 14.3-20.8.5-2.8.5-5.2.5-6.8h0z" fill="gray" opacity=".393"/><path d="M855.9 559.1a253.07 253.07 0 0 0 15.2 19.1c7.8 8.9 15.5 16.4 22.7 22.7 10.3-10 21.2-20.1 32.7-30.4 10.9-9.8 21.7-19 32.3-27.7-2.5-5.1-5.9-11-10.4-17-8.8-11.7-18.5-19.5-25.9-24.5-16.9 11.9-34.7 26.1-52.3 43.2l-14.3 14.6z" class="C"/><g class="B"><path d="M876.2 541.8c14.3-14.2 29.6-27.3 45.9-39.1 1.5-1.1.1-3.7-1.5-2.6-16.5 12-32.1 25.2-46.5 39.6-1.4 1.4.7 3.5 2.1 2.1z"/><path d="M921.4 502.1c14.4 10.9 26.5 24.4 35.9 39.8 1 1.6 3.6.1 2.6-1.5-9.7-15.9-22.2-29.6-37-40.9-1.5-1.1-3 1.5-1.5 2.6zm-45.7 36.2c-7.3 6.3-14.3 13-20.9 20.1-1.3 1.4.8 3.5 2.1 2.1 6.6-7.1 13.5-13.8 20.9-20.1 1.5-1.3-.6-3.4-2.1-2.1z"/><path d="M855.2 561.2c11.4 14 23.6 27.2 36.7 39.7 1.4 1.3 3.5-.8 2.1-2.1-13-12.5-25.3-25.7-36.7-39.7-1.2-1.6-3.4.6-2.1 2.1z"/><path d="M895.2 601.5c21.1-20.1 42.8-39.5 65-58.3 1.5-1.2-.7-3.4-2.1-2.1-22.2 18.8-43.9 38.3-65 58.3-1.4 1.3.7 3.4 2.1 2.1zm-27.6-41.3a525.76 525.76 0 0 0 21.2 25.7c1.3 1.5 3.4-.7 2.1-2.1a641.75 641.75 0 0 1-21.2-25.7c-1.1-1.6-3.2.6-2.1 2.1z"/><path d="M869.8 560.2c15.2-16.7 33.1-30.4 50.9-44.1 1.5-1.2 0-3.8-1.5-2.6-18.1 13.8-36.2 27.7-51.5 44.5-1.4 1.5.8 3.6 2.1 2.2z"/><path d="M921 516.1c9.2 6.9 17.6 14.6 25.3 23.1 1.3 1.4 3.4-.7 2.1-2.1-7.9-8.7-16.5-16.5-25.9-23.6-1.6-1.1-3.1 1.5-1.5 2.6z"/><path d="M890.6 586.7c5.1-.2 9-2.7 13-5.7 5.2-4 10.3-8.1 15.3-12.4 10.6-8.9 20.7-18.3 30.4-28 1.4-1.4-.8-3.5-2.1-2.1-8.4 8.5-17.2 16.6-26.2 24.5-4.4 3.8-8.9 7.5-13.4 11.2-4.9 3.9-10.3 9.4-17 9.6-1.9-.1-1.9 2.9 0 2.9h0z"/></g><path d="M916.4 503l-10 18.9c-10.2 19.8-15.4 29.8-17 36.1-2.1 8.2-3.7 22.6 4.8 42.9l-38.1-40.6 60.3-57.3z" class="D H"/><g class="E"><path d="M906 535.4c4.8 4.9 9.3 10.1 13.5 15.5 1.2 1.5 3.3-.6 2.1-2.1-4.2-5.4-8.7-10.6-13.5-15.5-1.3-1.4-3.4.7-2.1 2.1z"/><path d="M907.2 535l7-4.4c1.2-.8 2.5-2 3.9-2.4 1.9-.7.7-1.1 2.2-.3 1.8.9 3.8 4.8 5.1 6.4l5.6 7.1c1.2 1.5 3.3-.6 2.1-2.1l-7.3-9.3c-1.2-1.6-3.1-5.4-5.2-5.9-1.5-.3-2.8.7-4 1.5-3.7 2.2-7.3 4.6-10.9 6.8-1.6 1.1-.1 3.7 1.5 2.6h0z"/><path d="M921.3 550.8c4.2-1.8 7.9-4.4 11.1-7.6 1.4-1.4-.8-3.5-2.1-2.1-3.1 3-6.6 5.4-10.5 7.1-1.8.8-.3 3.4 1.5 2.6zm-6.8-10.1c1.3-1.3 2.5-2.6 4.5-2.3 1.1.2 1.5.4 2.7.2 1-.2 1.3-1.4.9-2.2-.9-1.5-1.7 1-1.7 1.9 0 .8.3 1.7.9 2.3 1.5 1.6 3.7 1.2 5.5.4 1.8-.7 1-3.6-.8-2.9-.7.3-1.4.5-2.2.6a2.56 2.56 0 0 1 0-2.1c0-.7.1-1.3-.1-2-.3-1-1.1-1.9-2.2-2-3.2-.4-3.2 3.4-2 5.4l.9-2.2c-.8.1-1.8-.5-2.6-.5-.6 0-1.3.2-1.9.4-1.6.6-2.8 1.8-3.9 3-1.5 1.3.7 3.4 2 2h0zm-1.5-6.4c1.4.1 2.7 0 4-.3 1.9-.4 1.1-3.3-.8-2.9-1.1.2-2.1.3-3.2.2-.8-.1-1.5.7-1.5 1.5 0 .9.7 1.4 1.5 1.5h0zm-22.9 14.4l13.9 15.6c1.3 1.4 3.4-.7 2.1-2.1-4.7-5.1-9.4-10.3-13.9-15.6-1.2-1.5-3.3.6-2.1 2.1z"/><path d="M892.5 549.1c1-1.8 1.5-3.3 3.6-3.4 1.8-.1 2.9 1.3 4.1 2.4 1.7 1.5 3.1 3.3 4.8 4.9 1.3 1.2 2.7 2.4 4.2 3.4 1.3.9 2.5 1.4 1.1 3.1-.8 1-2.9 1.4-4.1 1.8-1.8.6-1 3.5.8 2.9 2.7-.9 7-2.3 7.9-5.5.4-1.3.1-1.9-.8-2.8-1.9-1.7-4.5-2.8-6.4-4.6-3.2-2.9-6-7.2-10.1-8.9-3.9-1.5-5.9 2.1-7.6 5.1-1 1.7 1.6 3.3 2.5 1.6z"/></g><path d="M862 537.5c-3.4 1.4-3.2 2.9-7.5 5.7-3.5 2.3-4.7 2-6.1 3.9-1.6 2.1-1.8 4.5-1.8 6.1-1.4 0-3.9.3-6.6 1.8-.8.4-6 3.3-7.5 9.6-1 4.3.3 7.9.9 9.2-1.4 1-3.5 2.8-4.4 5.7-1.1 3.6.3 6.9 2.2 10.5 5.2 10.1 9.9 14.3 15.3 22.8 1.6 2.5 3.9 6.4 6.1 11.4.1 3.8.1 10-.9 17.5-1.5 11.2-4.4 19.3-5.3 21.9-4.5 13-12.4 43.4-13.2 71.3-.4 14.3-.8 37.2 11.8 60.6 4.7 8.8 11.7 21.2 25.9 26.3 2.2.8 18.7 6.7 30.2-2.6 4.2-3.4 6.3-7.6 7.5-10.5.3-1.5.5-3.8.4-6.6-.4-12.1-7.6-20.8-10.1-24.1-8.7-11.5-11.3-24.3-15.8-46-2.8-13.4-2.2-25-.9-47.8.9-15.6 2.7-36.7 7-61.8 2.1-.5 5-1.5 7-3.9 3-3.7 1.2-7.1 3.5-13.6 1.7-4.9 3.1-4 6.1-10.5 2.2-4.7 4.1-9 3.1-14-.2-1-1.5-6.9-5.7-8.3-5.4-1.9-11.6 4.9-13.1 6.6-3.1 3.4-4.5 7-5.3 9.2-3.1-4-6.3-8.8-9.2-14.5-1.3-2.6-2.5-5.1-3.5-7.5.5-2.2 1.2-5.4 1.7-9.3.6-5.2.9-7.9.1-11.3-.6-2.3-1.8-7.4-5.7-8.8-2.1-.8-4.8.3-6.2 1h0z" class="C"/><g class="B"><path d="M852.5 619.2l-15-21.1c-4.7-6.8-10.2-16.4-3.4-23.9 1.3-1.4-.8-3.6-2.1-2.1-5.3 5.8-4.7 13.7-1.4 20.4 5 10 12.9 19.1 19.4 28.2 1 1.6 3.6.1 2.5-1.5z"/><path d="M843.1 587.2c-4.8-5-8.8-11.8-8.7-18.9.1-6.9 5.1-12.1 11.7-13.2 1.9-.3 1.1-3.2-.8-2.9-7.1 1.2-12.8 6.7-13.8 13.9-1.2 8.6 3.7 17.3 9.5 23.3 1.3 1.4 3.4-.8 2.1-2.2h0z"/><path d="M853.2 578.3c-7.7-8.6-8.6-21.2-2.5-30.9 1-1.6-1.6-3.1-2.6-1.5-6.9 10.9-5.6 25 2.9 34.5 1.4 1.5 3.5-.6 2.2-2.1zm8.1-6.6c-3.2-7.8-4.4-16.5-2.4-24.8 1.1-4.7 7.1-13.6 11.9-6.4 2 3 1.3 7.5 1 10.9-.5 6.4-2.8 13.4.5 19.4 1.6 2.8 4 5.2 5.8 7.8 2.3 3.2 4.1 6.7 5.8 10.3.8 1.8 3.4.2 2.6-1.5-2.1-4.6-4.7-8.9-7.8-12.9-1.8-2.4-4.1-4.6-4.9-7.6-.8-2.9 0-6.1.3-9.1.8-6.1 3.3-17.5-3.3-21.6-5.9-3.7-12.2 1.8-14.1 7.2-3.4 9.3-2 20.2 1.6 29.2.8 1.7 3.7.9 3-.9z"/><path d="M849.7 548.3c1.2-3.5 5.6-5.1 8.9-3.4 1.7.9 3.2-1.7 1.5-2.6-5-2.7-11.4-.1-13.3 5.2-.7 1.8 2.2 2.6 2.9.8zm38.3 37.8c1.1-3.2 2.7-6 5.1-8.3 1-.9 2.1-1.8 3.3-2.5 2.8-1.6 4-1.6 7.1-.5 3.6 1.3 4.1 2.1 4.4 5.9.1 1.2.1 2.4 0 3.6-.3 3.8-1.7 7.4-3.5 10.7-2.1 3.8-4.7 7.3-5.9 11.6-1.8 6.5-1.9 11.8-8.9 14.9-1.8.8-.2 3.4 1.5 2.6 3-1.3 5.5-3.3 7.2-6.1 2.3-3.7 2.1-8.1 3.5-12.1 1.6-4.4 4.7-8.1 6.7-12.3 1.8-4 2.7-8.4 2.4-12.8-.4-6-3.9-11-10.5-10-7.5 1.1-13 7.8-15.3 14.6-.7 1.7 2.2 2.5 2.9.7h0z"/><path d="M888.6 622.2c-2.8 18.2-5.1 36.5-6.7 54.8-1.4 16.4-2.3 32.9-.7 49.4 1.5 15.1 5.3 29.8 12.4 43.2 7.2 13.7 16.1 26.2 12.1 42.5-.5 1.9 2.4 2.7 2.9.8 3.4-14.1-1.8-25.6-8.5-37.7-8-14.3-13.4-28.9-15.5-45.3-2-16.4-1.3-32.9 0-49.3 1.6-19.2 3.9-38.4 6.9-57.5.3-2-2.6-2.8-2.9-.9h0z"/><path d="M850.1 619.3c2 4.4 1.5 9.3 1 14-.6 5.3-1.4 10.6-2.5 15.9-1.8 9.3-4.3 18.5-6.7 27.7-4.7 18.1-9.2 36.2-9.8 54.9-.6 18.5 1.8 37.6 7.9 55.1 5.1 14.6 14.1 28.7 28.6 35.2 13.7 6.1 30.6 3.2 39.4-9.6 1.1-1.6-1.5-3.1-2.6-1.5-9.7 14-29 13.7-42 4.7-14-9.7-20.4-26.4-24.2-42.3-4.2-17.6-5.3-36-3.3-53.9 2-17.6 7-34.6 11.3-51.7 2.3-9.2 4.5-18.4 5.8-27.8 1.1-7.3 2.6-15.3-.6-22.2-.5-1.8-3.1-.2-2.3 1.5h0z"/></g><g class="D"><path d="M840.9 555.8c-.4 5-.4 11.4 1.1 18.4 4.1 19.2 16.2 31.3 21.7 36.1.2 5.7.3 14.5 0 25.1-1.5 47.6-10.9 70.9-12.5 93.2-1.5 21.7 3.6 53.4 35.4 94.4-4.3.3-10.8.3-17.7-2.6-6.2-2.6-15.9-8.6-24.7-28.7-8-18.4-16.8-52.1-7-90.7 4.3-16.8 11-30 14.4-58.2a249.27 249.27 0 0 0 1.5-18.1c-2.2-4-5.4-9.5-10-15.5-7.5-9.9-12.4-13.2-13.6-20.3-.9-5 .3-10.1 2.9-15.1-.3-1.3-1.2-6.6 1.8-11.8 2.2-3.6 5.3-5.4 6.7-6.2h0z" opacity=".1"/><path d="M853.8 632.099c.7.101-1.4 17.501-5.5 52.301l-5.5 47.2c-1.3 45.6 16.5 77.8 13.6 78.9-2.1.8-12.2-15.4-18.1-35-8.1-27.1-4.9-50.6-2.9-64.1 1.7-11.9 2.4-8.6 11.4-49 4.5-20.3 6.3-30.4 7-30.301z" class="H"/></g><path d="M374.3 917.9c-.9-2.4-2.6-5.9-5.6-9.4-3.3-3.9-6.1-5.3-8.3-6.9-3.9-3-5.4-6.7-11.8-34.4-3-13.2-3.3-14.7-2.8-17.4 1.3-7 5-9.4 6.9-18.4.9-4.3.9-7.4.7-13.2-.3-8.8-.5-17.8-4.2-28.1-3.3-9.5-7.1-20-17-24.7-6.9-3.2-13.7-2.1-19.8-1-12.3 2.2-15 6.8-27.8 12.5-6.4 2.8-24.8 11-46.6 9.7-9.7-.6-15.1-2.7-21.2 1-6.4 4-9.1 11.6-11.1 17.4-2.5 7.1-3.1 13.3-3.1 17.4l-5.6 18.8c-6.4 22.8-6.4 27-10.8 39.3-4.4 12.5-7.2 20.3-13.9 29.2-2.2 2.9-2.3 2.6-22.6 22.2-10.4 10-15.9 15.5-18.4 24.7-1 3.6-2.6 9.3.3 13.2.9 1.1 3.8 4.4 21.5 3.8 8.2-.3 9.3-1 17.7-1.7 15.5-1.3 27.6 0 33.7.7 5.8.6 10.6 1.5 13.9 2.1 3.2.3 8 .9 13.6 2.4 10.1 2.8 13.2 5.9 22.2 9.7 5.5 2.3 16.8 7 30.6 6.6 9.4-.3 17-2.8 21.9-4.9 7.2 1.1 13.1.6 17 0 6.8-1.1 12-3.3 16.3-5.2 5.2-2.3 4.9-2.8 11.5-5.9 11.5-5.6 13.4-4.6 16.7-7.6 2.4-2.2 4.6-5.7 5.9-20.2.9-7.7 1.4-18.5.2-31.7h0zM209 945.5c.8 5.5 2.4 9.9 0 12.3-3.1 3-8.4-1.3-21.8-.6-2.2.1-3.5.3-10 .8l-9.1.6c-5.8.5-6.3.8-8.7.6-4.3-.4-6.5-.5-8.3-2.1-2.9-2.5-3.4-7.1-2.8-10.2 1-6.2 6.1-8.8 15.2-16.3 3.8-3.1 9.3-7.9 15.5-14.6 3.7-4.9 7.3-10 11-15.3l4.9-7.4c1.5-4.1 3.4-9.8 5.3-16.7 5-18.2 5.1-29.5 6.8-29.6 2 0 3.7 14.8 4.4 22.9.8 10.4.6 19 .2 24.8 1 1.9 2.4 5.1 2.8 9.3.5 4.7-.4 8.5-1.1 10.6-5.4 13.5-5.4 23.8-4.3 30.9h0z" class="C"/><g class="B"><path d="M209.5 793c-13.3 21.6-4.8 47-1 70.1 1.1 6.8 1.7 13.6 1.4 20.4-.2 3.2-.6 6.4-.2 9.7.4 3 1.5 5.7 2.2 8.6 1.9 7.5-.8 15.1-2.3 22.4-1.3 6.3-2.6 12.6-2.8 19-.4 10.1 2.1 20.9 9.4 28.2 8.1 8.1 19.9 6.8 29.6 11.9 10.1 5.4 19.6 9.9 31.2 11 5.7.5 11.6.3 17.2-.7 6-1 11.6-3.9 17.6-4.9 5.7-.9 11.2 1.1 16.9-.4 6.4-1.6 12.6-5.2 18.6-7.9l18.7-8.5c4.1-1.9 7.8-3.6 8.8-8.4 1.3-6 .6-13.1.7-19.2.2-6.4.7-12.8.3-19.2-.2-4.1-.8-8.2-2.5-11.9-2.6-5.8-8.1-7.6-11.7-12.4-7.1-9.8-10.7-23.5-12.7-35.3-.6-3.7-1-7.4-1.3-11.1-.2-3.8 1.1-6.2 2.5-9.5 2-4.7 3.3-9.7 3.9-14.7 1.6-11.6.1-23.5-2.6-34.8-2.3-9.6-5.4-20.3-13.1-27.1-20.2-17.8-46.7 3.1-65.4 11.9-6.9 3.2-14.1 5.3-21.7 5.3-7.3 0-14.5-1.4-21.8-.9-9.7.6-19.8 5-23.1 14.7-.6 1.8 2.3 2.6 2.9.8 4-11.7 17.9-13 28.4-12.4 11.2.7 21.4 1.4 32-2.8 18.2-7.2 37.1-25.4 58.2-19 11.6 3.5 16.5 14.8 19.5 25.6s4.9 22 4.3 33.2c-.3 5.5-1.3 11-3.1 16.3-.8 2.4-1.9 4.8-3.1 7.1-1.3 2.6-1 4.5-.8 7.5.7 10.8 3 21.4 6.9 31.5 1.7 4.4 3.6 8.8 5.9 13 2.5 4.4 5.9 6.2 9.4 9.6 8 7.6 5.9 21.1 5.6 31l-.6 18.9c-.1 4.2-1 6.6-4.6 8.7-2.9 1.7-6.2 2.9-9.3 4.2l-16.9 7.7c-6.4 2.9-12.8 6.6-20.1 6.2-4.8-.2-8.7-.8-13.4.5-5.8 1.7-11.3 3.8-17.3 4.5-11.5 1.4-23.4-.4-33.8-5.4-4.4-2.1-8.5-4.9-13-6.9-4.7-2.1-9.6-2.6-14.6-3.8-11.8-2.8-18.1-14-19.1-25.4-1.2-13.6 4-26.3 5.6-39.6.9-6.7-2.6-12.3-3.1-18.9-.4-6.7.7-13.3 0-20.1-2.5-25.1-15-53-.5-76.7 1.5-1.8-1.1-3.3-2.2-1.6h0z"/><path d="M211.4 792.7c17.5-2.6 31.2 11.4 38.5 25.6 7 13.4 10.6 28.3 18.3 41.4 6.5 11 16 20.2 28.8 23 11.3 2.5 23.8.1 33.1-6.9 12.5-9.4 17.9-24.9 20.7-39.7.4-1.9-2.5-2.7-2.9-.8-2.6 13.5-7.2 28-18.2 37-11.1 9.1-27.5 11-40.4 4.5-26.7-13.3-26.9-49.6-43.9-71-8.4-10.6-21.2-18-35-16-1.7.3-.9 3.2 1 2.9h0z"/><path d="M317.1 888.1c.1.2.2.3.3.5.1-.6.2-1.2.2-1.8l-.5.5c.6-.1 1.2-.2 1.8-.2-1.7-.9-2.5-4.7-3.1-6.4-.9-2.6-1.5-5.4-2-8.1-.3-2.1-1.7-17.8 2.7-16.3 1.3.5 2.3 5.9 2.7 7.3.7 2.7 1.1 5.5 1.4 8.3.3 2.7.3 5.4.4 8 0 1.2.1 2.4.1 3.6 0 .6 0 1.2-.1 1.8.2.7-.1 1.2-.8 1.5.2-1.9-2.8-1.9-3 0-.2 2 1.4 3.6 3.5 3.4 2.9-.3 3.3-3.5 3.3-5.8.2-5.4-.1-11.1-.9-16.4-.6-4.4-1.5-10.7-4.7-14.1-5.9-6.4-7.9 6.1-8 9.5-.3 5.3.4 10.6 1.8 15.6.9 3 2.2 9.1 5.3 10.7.6.3 1.3.3 1.8-.2l.5-.5c.5-.5.6-1.3.2-1.8-.1-.2-.2-.3-.3-.5-1-1.8-3.6-.3-2.6 1.4h0zm-24 54.2a424.23 424.23 0 0 0 4.2 47.8c.3 1.9 3.2 1.1 2.9-.8-2.2-15.6-3.6-31.3-4.1-47-.1-1.9-3.1-1.9-3 0h0z"/><path d="M295.2 943c7.1-10 19.8-14.2 30.8-18 12.1-4.2 24.4-7.4 37-9.7 1.9-.3 1.1-3.2-.8-2.9-14.4 2.6-28.6 6.5-42.3 11.6-10.3 3.9-20.8 8.3-27.4 17.5-1 1.6 1.6 3.1 2.7 1.5z"/><path d="M295.7 943.6c11.8 6.3 23.3 11.1 36.9 7.5 13-3.5 25.1-10.8 35.3-19.3 1.5-1.2-.6-3.3-2.1-2.1-9.5 7.9-20.5 14.5-32.3 18.1-13.4 4.1-24.5-.3-36.3-6.7-1.7-1-3.2 1.6-1.5 2.5h0z"/><path d="M342.3 941.2l2.4 11.8c.4 1.9 3.3 1.1 2.9-.8l-2.4-11.8c-.4-1.9-3.3-1.1-2.9.8zm6.7-2.8l1.1 11.1c.2 1.9 3.2 1.9 3 0l-1.1-11.1c-.2-1.9-3.2-2-3 0zm-136.9-21.7c-1.9 5.5 0 10.5 6.5 9.4 1.6-.3 3-1 4.6-1.5.9-.3 2.2-.8 3.2-.7 5.1.7 2.2 2.4 3.5 4.2 1.5 2 2.4 3 5.1 3 3.6-.1 10.7-3.5 13.1.9.9 1.8 0 6.6 0 8.8l.1 7.8.9 34.1c.1 1.9 3.1 1.9 3 0-.7-17.5-1-35.1-1.1-52.7 0-.5-.3-1.1-.7-1.3-3.3-1.5-6.6-2.2-10.2-1.7-2.5.3-3.6 1.3-6-.1-2.3-1.3-1.5-2.1-2.9-3.9-1.5-1.9-3.7-2.3-6-2-1.6.2-2.9.9-4.4 1.4-.8.3-1.8.8-2.7.8-2.2-.1-3.8-3.5-3-5.6.5-1.9-2.4-2.7-3-.9h0zm-6.6-99.1c.1-11.5 3.8-32.3 20.2-28.3 1.9.5 2.7-2.4.8-2.9-6.9-1.7-13.7 1.3-18 6.8-5.4 6.8-6 16-6 24.4 0 2 3 2 3 0z"/><path d="M202.8 811.3c-2.2 4.6.9 9.3 3.7 13.1 2.9 4 7.3 7.6 12.5 6.5 2.9-.6 4.9-3.2 7.8-3.7 3.2-.7 6.3 2.1 9.5 2 6.8-.3 10.9-6.8 15.8-10.4 1.5-1.1.1-3.7-1.5-2.6-3.9 2.8-6.9 7.2-11.4 9.1-4.7 2-7.5-1.5-12-1.2s-7.1 4.9-11.9 3.7c-4-1-12-10.2-9.8-15 .7-1.7-1.9-3.3-2.7-1.5h0z"/><path d="M203.6 809.5c-4.8 21-10.4 41.8-16.7 62.3-3 9.7-5.8 19.8-10.8 28.8-4.3 7.7-10.2 14.2-16.5 20.3-11 10.6-23.7 20.6-29.9 35-2.5 5.8-3.2 11.8 2.5 15.9 6.3 4.6 15.6 4.4 22.9 3.7 11.2-1.1 22.3-4.6 33.6-3.7 10.8.9 21.1 5.3 31.9 2.1 1.8-.6 1.1-3.4-.8-2.9-9.7 2.9-19.2-.8-28.9-2-8-1-16 .3-23.8 1.6-9.4 1.6-20 3.9-29.3.6-5.8-2-8.3-6.3-6.2-12.2 1.4-3.9 3.5-7.6 5.9-10.9 8.5-12.2 20.9-21 30.9-31.9 11.2-12.3 16.3-27 21.2-42.7 6.4-20.9 12.1-42 17-63.3.4-1.8-2.5-2.6-3-.7h0zm.1 33.2c-1.8 18.9-3.8 38.3-13.1 55.3-4.1 7.6-9.4 14.5-15.6 20.4-5.7 5.4-12.3 9.7-18.2 14.8-4.4 3.8-10.7 9.5-11.1 15.8-.4 5.7 4.4 10.2 9.5 11.7 8.2 2.5 18.1-.5 26.5-1 9.8-.5 19.7-.2 29.5.8 1.9.2 1.9-2.8 0-3a180.19 180.19 0 0 0-27.5-.9c-3.9.2-7.9.5-11.8.9-4.6.5-9.5 1.6-14.1.7-5.7-1.1-10.6-5.6-8.2-11.8 1.5-3.7 4.7-6.9 7.6-9.6 5.3-5 11.5-8.9 16.9-13.7 10.3-8.9 18.4-20.4 23.5-33 6.1-15.1 7.6-31.5 9.2-47.6.1-1.7-2.9-1.7-3.1.2h0zm25.8 85.3c.9 8.9 2.3 17.6 4.3 26.3.4 1.9 3.3 1.1 2.9-.8a216.86 216.86 0 0 1-4.2-25.6c-.2-1.8-3.2-1.8-3 .1zm25-126.3c16 12.3 41.8 19.4 60.5 9 1.7-.9.2-3.5-1.5-2.6-17.8 9.8-42.4 2.6-57.4-9-1.7-1.2-3.2 1.4-1.6 2.6z"/><path d="M205.8 814.5c-.6-7.2.8-15.6 5.8-21.1 5-5.4 12.8-4.9 19.6-4.9 12.5.2 25.1 1.5 37-2.9 1.8-.7 1-3.6-.8-2.9-15.3 5.7-31 1.2-46.7 3.2-13.7 1.8-18.9 16.2-17.9 28.6.1 1.9 3.1 2 3 0h0z"/><path d="M206.4 817.4c1-6.9 3.2-13.4 7-19.3 2-3.1 4.1-6 7.6-7.3 3.4-1.3 7.4-.8 11-.8 12.1.2 24.5.6 35.5-5.2 1.7-.9.2-3.5-1.5-2.6-7.2 3.8-15.1 4.8-23.1 4.9-6.8.1-14.1-1.1-20.8.2-11.7 2.3-17.1 19.1-18.6 29.2-.3 1.9 2.6 2.8 2.9.9h0z"/><path d="M205.5 814.8c.7-9.1 1.8-20.8 10.8-25.8 4.9-2.7 11.3-2.1 16.7-2.2h14.2c9.1-.2 18.2-.9 26.9-3.9 8.3-2.9 16-7.4 23.5-11.9 1.7-1 .2-3.6-1.5-2.6-9.1 5.4-18.4 10.9-28.8 13.3-11.5 2.7-23.4 2-35.1 2.1-8.6.1-16.9.1-22.7 7.4-5.3 6.7-6.1 15.4-6.8 23.6-.3 1.9 2.7 1.9 2.8 0h0z"/></g><g class="D"><path d="M273.9 783.9c4.3 4-1.3 11.6 2.6 18.4 5.1 8.8 19.8 9.9 31 9.4-5.9 1.6-14.9 5.3-19.9 13.6-8.8 14.6-2.7 39 18.4 56.2l5.8 45.1-16.8 14.7.5 50.4c-5 1.8-12.8 3.8-22 2.6-9.2-1.1-11.3-4.3-28.9-11.5-16.3-6.7-18.7-5.6-24.1-10.5-10-8.9-11.9-21.4-12.1-22.6-1.3-9.2 2.4-10.4 4.2-28.9.9-9.6.7-17.2.5-19.9-.4-8.9-1.5-12.2-2.6-22-1.4-11.7-.7-14.1-1.6-25.2-2.2-28.6-8.1-33.8-4.2-48.3 1.6-5.9 3.5-13.3 10-17.3 8.1-5.1 14 .9 31-.5 16.3-1.4 23.8-8 28.2-3.7h0z" opacity=".05"/><path d="M218.3 790.7c-11.1 2.1-18.8 19.5-13.6 29.9 1.7 3.4 5.6 7.8 10.5 8.4 4 .5 5-2.1 11-2.6 6.1-.5 7.2 1.9 12.1 1 3.6-.6 8.9-3.1 10.5-7.3 2.8-7.5-7.4-16.6-11-19.9-5.7-5.1-12.1-10.9-19.5-9.5z" class="H"/><path d="M211.5 857.4c2.4-.4 7.9 32.5 19.4 64.6 10.8 29.9 24.5 52.8 35.2 68.2-8.6-4.3-15.9-6.9-21-8.4-6.7-2-11.6-2.8-18.4-6.3-5-2.6-8.7-5.4-11-7.3-2.2-2.8-5.3-7.4-6.3-13.6-.4-2.3-.3-3.4.5-13.6 1.1-14.8 1.1-15.3 1.6-17.8 1.5-8.2 2.8-8.1 3.1-13.6.4-5.2-.7-6.2-2.1-16.3-1.2-8.8-1.4-15.5-1.6-19.9-.2-10-.4-15.9.6-16h0z" opacity=".14"/></g><defs /></svg>