<svg xmlns="http://www.w3.org/2000/svg" width="536" height="365"  xmlns:v="https://vecta.io/nano"><style><![CDATA[.P{fill:#161616}.Q{fill:#fff}.R{fill:#6d6c6c}.S{fill:#e8e8e8}.T{fill:#e5261f}.U{opacity:.122}.V{opacity:.11}.W{opacity:.102}.X{stroke-width:.694}]]></style><g class="S"><path d="M44.2 268.58c23.59-11.69 50.72-7.04 75.52-2.64 13.22 2.36 26.41 4.55 39.8 5.66a324.28 324.28 0 0 0 43.08.76c27.79-1.39 55.1-6.87 82.5-11.41 27.41-4.51 55.37-8.05 83.13-4.76 27.02 3.23 53.39 14.65 80.93 12.36 3.09-.25 6.15-.7 9.2-1.32.66-.14.38-1.15-.28-1.01-27.72 5.62-54.95-5.48-81.98-9.96-27.06-4.47-54.57-2.01-81.49 2.12-27.96 4.27-55.68 10.3-83.92 12.42-28.48 2.12-56.83.1-84.93-4.86-24.04-4.26-49.99-9.88-73.86-1.73a71.99 71.99 0 0 0-8.22 3.43c-.59.35-.07 1.25.52.94zm326.35 45.69c-1.28-2.7-8.64-20.19-1.94-19.77.38.03.55-.35.48-.66-.86-5.41-.76-10.96.35-16.38.52-2.5 1.25-4.92 2.19-7.28.83-2.12 2.81-8.12 6-5.31 1.94 1.73 1.73 5.48 1.94 7.84.21 2.77.31 5.55.31 8.36-.03 5.62-.52 11.24-1.45 16.79-.52 2.95-1.15 5.9-1.91 8.78l-1.32 4.62c-.45 1.38-.8 3.5-2.39 4.02-.63.21-.35 1.22.27 1.01 2.22-.77 2.71-3.4 3.3-5.38 1.01-3.26 1.84-6.59 2.53-9.96 1.32-6.66 2.01-13.46 2.01-20.26a106.46 106.46 0 0 0-.52-10.58c-.24-2.22-.41-4.93-2.42-6.35-4.83-3.4-7.39 5.93-8.33 8.95-2.19 6.9-2.67 14.19-1.53 21.34.18-.21.35-.45.49-.66-4.16-.25-4.06 4.72-3.54 7.49.9 4.79 2.46 9.44 4.58 13.85.31.69 1.18.13.9-.46h0z"/><path d="M381.03 285.72c-.11-2.36.14-4.72.8-6.97.31-1.11.72-2.19 1.21-3.27l.76-1.42.56-.69c1.04-1.04 1.91-.87 2.57.55-.11.66.79.94 1 .28.7-2.29 2.05-5.13 4.82-5.27 2.95-.14 3.75 2.84 3.86 5.2.24 4.55-.56 9.2-1.74 13.57-2.43 8.91-6.9 17.14-11.34 25.22-.32.59.59 1.11.9.52 5.51-10.06 11.2-20.5 12.8-31.99.35-2.57.59-5.2.38-7.8-.14-1.81-.62-3.82-2.15-4.97-1.46-1.07-3.43-.97-4.96-.13-1.98 1.11-2.98 3.26-3.61 5.34.35.1.66.17 1.01.28.17-1.18-.49-2.19-1.7-2.47-1.32-.31-2.47.56-3.19 1.6-2.47 3.43-3.23 8.29-3.06 12.39.04.69 1.08.69 1.08.03h0zm-24.49 45.38c14.91-8.15 32.61-7.63 48.95-5.27 17.79 2.57 35.7 7.28 53.77 5.03 10.03-1.25 20.19-4.68 30.32-2.29.66.14.94-.83.28-1.01-8.78-2.08-17.59.11-26.26 1.6-9.41 1.6-18.84 1.46-28.31.31-17.77-2.11-35.28-7.04-53.32-6.1-9.03.45-17.98 2.46-25.95 6.8-.59.34-.07 1.24.52.93zm45.69-23.9c13.28 1.21 26.19-2.67 39.02-5.59 6.77-1.53 13.64-2.84 20.58-2.91 7.25-.11 14.36 1.35 21.47 2.56 7.56 1.32 15.2 2.29 22.83.87.66-.14.38-1.11-.28-1-14.19 2.63-28.06-3.27-42.18-3.51-13.22-.21-25.95 4.03-38.76 6.7-7.45 1.56-15.02 2.53-22.65 1.84-.69-.04-.69 1-.03 1.04h0zM93.81 261.09c-1.22-1.32-2.29-2.81-3.09-4.45-.38-.79-.73-1.59-.97-2.46-.21-.66-.42-1.35-.28-2.01.14-.76.97-2.46 2.19-1.35.38.34 1 0 .87-.52-1.91-6.87-2.36-13.85-2.85-20.93-.49-7.04-1.01-14.26.38-21.23.35-1.67.59-4.09 2.47-4.68 2.32-.77 3.95 1.7 4.61 3.54 1.18 3.19 1.91 6.66 2.67 9.99 1.63 7.08 2.74 14.26 3.4 21.47a167.01 167.01 0 0 1 .35 23.88c-.04.65 1 .65 1.04 0 .93-16.17-.52-32.48-4.41-48.2-.48-1.94-.97-3.85-1.52-5.76-.46-1.52-.94-3.08-1.95-4.3-1.35-1.6-3.92-2.46-5.69-1.01-1.04.87-1.38 2.33-1.66 3.58-.42 1.84-.73 3.68-.9 5.55-.42 3.99-.35 8.01-.14 12.04.48 8.85.86 17.83 3.22 26.4.28-.17.59-.34.87-.52-1.91-1.77-4.09.49-3.99 2.57.14 3.37 2.5 6.8 4.68 9.16.42.49 1.15-.24.7-.76h0z"/><path d="M103.97 231.11c-1.42-3.3-.62-6.84.25-10.17.76-3.02 1.52-5.96 1.52-9.09.04-3.54-.21-6.97.7-10.44.41-1.6 1-3.12 1.73-4.62.31-.62.7-1.63 1.22-2.08 1.56-1.38 2.35 1.18 2.7 2.15 2.36 6.49 2.78 13.5 2.88 20.34.14 7.18-.07 14.36-.59 21.51-.59 8.22-1.63 16.41-3.05 24.56-.11.66.9.94 1 .28 2.88-16.31 4.2-32.96 3.58-49.48-.14-3.81-.45-7.66-1.22-11.41a40.78 40.78 0 0 0-1.42-5.45c-.42-1.21-.83-2.88-1.94-3.68-2.43-1.77-4.06 2.57-4.72 4.13-1.35 3.16-2.01 6.52-2.01 9.96 0 2.29.17 4.58-.07 6.87-.24 2.22-.9 4.34-1.42 6.49-.91 3.57-1.56 7.18-.07 10.68.31.56 1.21.04.93-.55h0zm-47.04-46.25c19.78-14.75 39.97-29.6 62.9-39.17 11.31-4.72 23.28-8.02 35.52-8.99 13.53-1.07 27.13.73 40.25 4.13 26.78 7.01 51.1 20.54 76.42 31.3 24.53 10.44 50.24 17.27 76.47 21.75 26.26 4.48 52.83 6.8 79.37 8.85l9.89.76c.66.04.66-1.01 0-1.04-27.16-2.05-54.36-4.13-81.28-8.33-26.61-4.13-53.01-10.34-78.03-20.43-25.39-10.24-49.4-23.87-75.66-31.89-12.77-3.88-26.02-6.45-39.41-6.45-12.32 0-24.5 2.36-36.08 6.38-23.28 8.12-43.89 22.31-63.59 36.81l-7.29 5.42c-.55.41-.03 1.32.52.9h0zm299.33 8.4c21.26.45 41.8-5.73 62.2-10.93 10.48-2.68 21.03-5.14 31.78-6.28 10.72-1.18 21.54-.91 32.16 1.11 12 2.25 23.56 6.62 34.07 12.8.59.35 1.11-.56.52-.9-18.35-10.76-39.72-15.89-60.96-14.54-21.64 1.35-42.29 8.47-63.31 13.25-11.97 2.74-24.18 4.72-36.5 4.48-.62-.04-.62 1.01.04 1.01h0zm110.39 72.09c14.85-2.25 30.01-2.32 44.89-.14.66.11.94-.9.28-1-15.09-2.19-30.36-2.12-45.45.14-.66.1-.38 1.07.28 1zM9.82 233.54c11.2-13.6 23.35-26.44 36.32-38.34.49-.45-.24-1.18-.73-.73-13.01 11.9-25.15 24.7-36.32 38.34-.42.52.31 1.25.73.73zM412.95 44.45c-4.69 1.63-8.37-2.29-10.66-5.87-2.25-3.47-3.88-7.25-3.88-11.48.03-7.95 5.34-14.92 12.7-17.7 6.8-2.53 15.09-1.18 20.36 3.96 5.45 5.31 6.84 13.56 3.4 20.29-.97 1.91-2.22 3.72-3.47 5.45-.73 1.01-1.42 2.12-2.43 2.92-1.18.9-2.49 1.07-3.92 1.25l-14.64 1.66c-.66.07-.66 1.11 0 1.04 5.28-.59 10.65-.97 15.89-1.8 4.27-.7 6.56-5 8.57-8.43 4.09-6.98 3.78-15.48-1.49-21.79-5.24-6.28-14.47-8.33-22.1-5.73-7.67 2.64-13.39 9.54-13.91 17.73-.31 5.17 1.73 9.93 4.61 14.09 2.5 3.61 6.49 7.01 11.17 5.38.7-.18.42-1.18-.2-.97h0zM96.03 57.49c-1.46-3.57 2.36-6.49 5.58-6.73 3.44-.24 6.73 1.21 10.07 1.84 6.27 1.21 12.73.73 18.8-1.28 5.83-1.95 11.52-5.14 17.8-5.28 6.45-.1 12.21 3.71 18.73 2.92 3.16-.39 6.21-1.39 9.4-1.63 2.95-.25 7.39.31 8.43 3.67 1.04 3.37-3.68 6.18-6.17 7.39a21.06 21.06 0 0 1-8.92 2.12c-3.26 0-6.17-.97-9.23-1.98-2.81-.93-5.58-1.49-8.53-1.42-5.62.1-11.03 1.91-16.41 3.4-3.33.94-6.73 1.8-10.2 2.08-3.57.28-6.84-.35-10.27-1.18-3.4-.83-6.38-.52-9.82-.03-2.04.27-4.2.45-6.1-.56-1.7-.9-3.09-2.5-2.68-4.54.14-.66-.86-.94-1-.28-.52 2.39.87 4.41 2.95 5.59 2.81 1.59 5.93.93 8.98.48 2.12-.31 4.1-.38 6.21.04 1.88.38 3.71 1 5.62 1.31 2.99.49 6 .32 8.99-.13 6.8-1.12 13.22-3.86 20.02-4.83 3.64-.52 7.25-.38 10.79.7 3.29 1 6.41 2.29 9.88 2.39 5.59.21 12.91-2.01 16.17-6.87 1.46-2.19 1.01-4.72-.97-6.38-2.19-1.91-5.24-2.22-8.02-1.95-3.57.35-7 1.56-10.58 1.74-3.99.21-7.66-1.32-11.48-2.29-7.11-1.81-13.36.52-19.95 3.09-4.02 1.56-8.05 2.84-12.38 3.22-4.72.42-9.23-.27-13.81-1.45-3.26-.84-7.01-1.7-10.06.2-2.33 1.46-3.92 4.2-2.85 6.91.25.59 1.25.35 1.01-.28h0zm290.06 57.28c5-4.85 12.25-4.78 18.77-4.16 7.63.73 15.02 1.7 22.73.87 3.95-.45 7.8-1.29 11.65-2.29 4.03-1.04 8.16-2.15 12.39-2.01 4.26.13 8.25 1.83 12.45 2.42 3.82.52 7.67.07 11.45-.66 3.4-.62 6.77-1.66 10.27-1.49 3.09.14 6.87 1.7 6.59 5.45-.28 3.5-4.23 5.93-7.39 6.45-4.02.63-8.12-.83-12.11-1.14-7.49-.59-13.14 4.44-20.26 5.72-7.49 1.36-14.53-2.77-21.64-4.3-8.75-1.84-17.04 1.98-25.57 3.37-4.27.69-9.23 1.63-13.53.76-2.12-.45-4.13-1.49-5.17-3.47-.94-1.84-.97-4.06.59-5.55.48-.45-.25-1.22-.73-.73-2.01 1.91-1.91 4.93-.52 7.22 1.66 2.74 4.86 3.67 7.87 3.85 8.89.52 17.56-2.5 26.09-4.3 4.76-1.01 9.13-.66 13.78.66 3.88 1.11 7.63 2.63 11.62 3.36 3.78.69 7.42.49 11.03-.83 3.78-1.35 7.32-3.47 11.28-4.37 7.49-1.7 15.92 3.81 22.65-1.46 2.25-1.77 3.82-4.62 2.74-7.46-.94-2.46-3.33-3.68-5.79-4.03-3.2-.48-6.28.21-9.41.87-4.96 1.04-10.02 1.88-15.09.9-4.37-.83-8.5-2.39-13.04-2.18-4.3.21-8.47 1.46-12.63 2.5-5.27 1.32-10.65 2.08-16.1 2.18-4.71.07-9.36-.52-14.05-1.04-7.39-.83-15.82-1.35-21.58 4.23-.55.39.18 1.11.66.66h0z"/><path d="M160.14 350.67c-1.56-1.42-2.91-3.02-4.02-4.82a18.99 18.99 0 0 1-1.39-2.64c-.21-.52-.56-1.28-.49-1.87.11-1.01 1.08-2.54 2.26-1.6.45.38 1.11-.07.83-.62-1.32-2.57-2.12-5.52-1.98-8.43.04-.56.11-1.08.32-1.6a4.47 4.47 0 0 1 .72-1.25c.63-.62 1.18-.62 1.67.07 1.28.94 1.8 2.74 2.39 4.16 2.12 5.07 3.68 10.34 4.76 15.72.34-.1.66-.17 1-.28-.93-2.6-1.66-5.27-2.11-8.01-.32-1.94-.87-8.4 3.12-6.25 2.57 1.39 3.05 5.52 3.05 8.12.04 2.88-.52 5.69-1.07 8.5-.14.66.86.94 1 .28.7-3.57 1.42-7.29.97-10.96-.34-2.68-1.52-6.94-4.75-7.36-2.57-.31-3.61 2.29-3.68 4.41-.14 3.85 1.18 8.01 2.47 11.59.24.62 1.14.38 1-.28a83.43 83.43 0 0 0-3.29-11.87c-.63-1.73-1.29-3.43-2.05-5.13-.56-1.29-1.11-3.13-2.46-3.85-2.15-1.18-3.68 1.21-4.03 3.01-.62 3.3.52 7.08 1.98 10l.83-.63c-2.11-1.77-4.27.77-3.95 2.99.52 3.54 3.64 7.04 6.14 9.4.52.38 1.25-.35.76-.8h0zM118.37 89.52c7.7-1.57 15.54-3.13 23.45-2.43 7.6.66 14.78 3.36 22.14 5.24 14.36 3.6 29.24 4.89 44.02 4.85 8.47-.03 16.9-.45 25.33-1.14.66-.07.66-1.11 0-1.04-15.06 1.18-30.25 1.66-45.35.27-7.66-.69-15.3-1.9-22.79-3.71-7.15-1.73-14.08-4.33-21.4-5.27-8.64-1.11-17.25.55-25.68 2.25-.66.11-.38 1.11.28.98h0zm81.18.06c25.47-1.31 50.2-9.99 75.87-8.39.66.03.66-1.01 0-1.04-25.63-1.6-50.4 7.11-75.87 8.39-.69.04-.69 1.08 0 1.04zm209.51 173.21c-1.01-2.54-1.53-5.21-1.49-7.95 0-1.39.17-2.77.48-4.13.28-1.25 1.67-4.47 3.26-2.43.28.35.94.07.91-.38-.35-2.98-.28-5.97.27-8.92a24.78 24.78 0 0 1 1.05-3.81l.93-2.33c.56-1.04 1.18-1.31 2.22-1.84 1.88-.86 1.91-3.12 2.36-4.92.63-2.47 1.35-4.96 2.78-7.08.83-1.25 2.39-3.26 4.09-2.81 1.35.35 1.84 1.8 2.08 3.05.56 2.74.18 5.8.04 8.57-.32 6.14-1.11 12.29-2.36 18.29-1.39 6.59-3.37 13.04-5.83 19.32-.24.63.76.91 1.01.28 5.13-12.98 8.01-26.82 8.36-40.8.07-2.71.41-11.73-4.93-9.65-2.26.9-3.78 3.65-4.68 5.76-.52 1.22-.91 2.47-1.25 3.71-.52 1.91-.52 4.27-2.36 5.38-1.08.66-1.77.94-2.4 2.19-.72 1.42-1.24 3.05-1.66 4.61-.94 3.58-1.18 7.29-.73 10.97.31-.14.59-.25.9-.38-.69-.87-1.84-1.08-2.84-.63-1.35.63-1.84 2.19-2.15 3.51-.97 4.19-.56 8.6 1 12.62.18.7 1.18.42.94-.2h0z"/><path d="M399.21 260.98c-1.49-2.32-2.95-4.75-3.71-7.46-.35-1.25-.56-2.53-.49-3.81.1-1.43.69-2.54 1.18-3.86.76-2.11-.45-4.12-.94-6.17-.24-.97-1.66-9.61 1.39-8.43.38.14.73-.28.62-.63-1-4.47-2.04-9.23-.62-13.7.62-1.98 3.16-7.11 5.76-4.76 1.59 1.46 2.5 4.17 3.23 6.11 3.19 8.78 4.57 18.53 5.2 27.83.03.66 1.07.66 1.04 0-.42-6.07-1.25-12.11-2.53-18.04-1.11-5.21-2.33-11-5.35-15.51-.93-1.39-2.28-2.57-4.05-1.84-1.88.76-3.16 3.05-3.89 4.79-2.05 4.96-.9 10.37.21 15.44l.62-.63c-1.84-.73-2.95 1.35-3.22 2.92-.56 3.46.72 6.69 1.52 9.99.49 2.01-.73 3.43-1.07 5.31-.28 1.31-.21 2.63.03 3.95.59 3.3 2.4 6.32 4.17 9.13.34.45 1.24-.07.9-.63h0zm27.86-17.45c.93-3.23 1.9-6.45 3.88-9.19 1.91-2.64 4.13-5.14 6.25-7.6l3.43-3.65c.62-.59 1.25-1.21 2.05-1.63 1.56-.83 2.6.25 3.02 1.67.93 3.26.17 6.8-.66 10.03-3.2 12.21-8.75 23.76-16.17 34-.38.55.52 1.07.9.52a102.98 102.98 0 0 0 15.37-31.05c.8-2.68 1.6-5.42 1.87-8.19.25-2.26.32-5.38-1.04-7.32-2.84-4.03-8.74 3.99-10.3 5.83-2.01 2.35-4.16 4.71-5.93 7.28-1.84 2.71-2.78 5.87-3.68 8.99-.21.66.8.93 1.01.31h0zm-2.02-26.92a182.41 182.41 0 0 1-10.3 47.29c-.24.62.76.9 1.01.27a182.97 182.97 0 0 0 10.33-47.56c.04-.66-1-.66-1.04 0h0z"/><path d="M415.62 230.59a86.76 86.76 0 0 1 2.91 21.51c0 .66 1.04.66 1.04 0-.07-7.36-1.04-14.68-2.95-21.79-.17-.66-1.18-.38-1 .28zm4.72-7.88c1.21 4.79 1.8 9.68 1.83 14.61 0 .66 1.04.66 1.04 0-.03-5.03-.65-10.03-1.87-14.89-.17-.65-1.18-.38-1 .28h0zm-2.95 37.44c2.67-2.08 5.06-4.48 7.14-7.11.42-.52-.31-1.25-.73-.73a41.77 41.77 0 0 1-7.14 7.11c-.52.42.21 1.15.73.73zm-18.08-48.54c3.02 12.59 5.38 25.33 7.01 38.17.07.65 1.11.65 1.04 0-1.67-12.95-4.02-25.78-7.04-38.45-.14-.66-1.15-.38-1.01.28z"/><path d="M395.18 223.55c3.06 1.83 5.66 4.19 7.74 7.11.38.55 1.28.03.9-.52-2.18-3.06-4.89-5.55-8.08-7.46-.63-.38-1.15.52-.56.87zm13.29 7.25c-1.25 3.12-2.25 6.31-3.02 9.61-.14.66.83.93 1.01.27.76-3.26 1.77-6.48 3.02-9.61.24-.62-.77-.9-1.01-.27zm-13.36 15.75a112.68 112.68 0 0 1 11.21 3.78c.62.24.9-.76.28-1.01-3.68-1.45-7.43-2.7-11.21-3.78-.66-.17-.94.84-.28 1.01zM444 221.78c-4.62 16.06-17.39 28.38-21.48 44.65-.17.66.83.94 1.01.28 4.09-16.28 16.86-28.59 21.47-44.66.21-.66-.8-.93-1-.27z"/><path d="M434.7 228.54l-2.64 16.86c-.1.66.9.94 1.01.28l2.63-16.86c.11-.66-.9-.94-1-.28zm1.04 12.35c3.09-2.22 6.31-4.23 9.68-6.07.59-.31.07-1.21-.52-.9-3.37 1.8-6.59 3.82-9.68 6.07-.56.42-.04 1.32.52.9zm-9.96 20.13c3.16-3.72 7.67-5.59 12.11-7.36.62-.24.35-1.25-.28-1.01-4.58 1.84-9.26 3.79-12.56 7.64-.45.52.28 1.25.73.73zm-50.41 3.29c1.29 8.12.21 16.28-1 24.36l-3.54 23.87c-.11.66.9.94 1 .28l3.75-25.19c1.15-7.81 2.05-15.72.8-23.56-.14-.69-1.11-.42-1.01.24h0z"/><path d="M368.61 279.13a84.18 84.18 0 0 0 4.79 14.15c.27.63 1.18.07.9-.52-1.94-4.51-3.51-9.12-4.69-13.91-.17-.62-1.18-.35-1 .28h0zm10.44-9.86a20.36 20.36 0 0 1-3.43 8.64c-.39.56.52 1.08.9.52 1.84-2.67 3.05-5.69 3.54-8.91.07-.63-.94-.9-1.01-.25h0zm14.33.52c-4.27 14.82-9.72 29.25-16.24 43.24-.27.59.63 1.14.9.52 6.56-14.06 12.04-28.59 16.34-43.48.18-.62-.83-.9-1-.28h0z"/><path d="M390.64 269.17l-.38 10.06c-.04.66 1 .66 1.04 0l.38-10.06c.03-.66-1.01-.66-1.04 0zm-7.7 4.51c-1.88 7.84 0 16.03 1.11 23.87.1.66 1.11.38 1-.28-1.07-7.63-2.91-15.64-1.11-23.31.18-.66-.83-.94-1-.28zm-1.53 31.96c3.37-.84 6.49-2.26 9.3-4.27.55-.38.03-1.29-.52-.9-2.74 1.94-5.76 3.33-9.06 4.16-.66.14-.38 1.14.28 1.01zM92.25 203.91c3.5 18.94 5.69 38.13 6.49 57.35.03.66 1.07.66 1.04 0a406.49 406.49 0 0 0-6.53-57.63c-.14-.66-1.14-.38-1 .28h0z"/><path d="M88.47 225.9c3.67 4.62 6.62 9.72 8.77 15.2.25.63 1.25.35 1.01-.28a60.67 60.67 0 0 0-9.02-15.64c-.42-.52-1.18.2-.76.72zm10.4-12.73c-1.25 5.17-2.18 10.41-2.84 15.68-.07.66.97.66 1.04 0a129.3 129.3 0 0 1 2.81-15.4c.14-.66-.87-.94-1.01-.28h0zm10.9-18.63a444.04 444.04 0 0 1-3.33 67.8c-.07.65.97.65 1.04 0a444.04 444.04 0 0 0 3.33-67.8c-.04-.66-1.08-.66-1.04 0z"/><path d="M103.94 218.38c2.5 5.93 4.23 12.14 5.17 18.52.1.66 1.11.38 1-.27a75.72 75.72 0 0 0-5.17-18.53c-.27-.59-1.28-.35-1 .28zm3.99 39.24c1.49-2.92 3.47-5.45 5.9-7.64.48-.45-.25-1.18-.73-.73-2.5 2.23-4.55 4.86-6.07 7.85-.32.59.59 1.11.9.52zm-1.49-59.23l3.02 8.5c.24.63 1.24.35 1-.28l-3.02-8.5c-.21-.66-1.21-.38-1 .28zm-74.52 136.7c22.76-2.22 45.79-1.52 68.34 2.15 6.35 1.04 12.7 2.33 18.98 3.82.66.14.94-.83.28-1.01a267.12 267.12 0 0 0-67.97-7.21c-6.55.17-13.11.55-19.63 1.21-.66.04-.7 1.08 0 1.04zm203.99 9.96c.03-1.49 3.75-1.77 4.65-1.67 1.52.14 2.98.94 3.81 2.23 2.75 4.23-2.81 5.93-6 4.89-.62-.21-.9.8-.27 1 2.22.77 5.16.66 6.97-1.11 1.52-1.49 1.21-3.88.07-5.51-1.29-1.81-3.4-2.71-5.59-2.57-1.52.1-4.65.8-4.68 2.74 0 .66 1.04.66 1.04 0h0z"/><path d="M235.74 344.49c2.22-3.12 6.87-4.54 10.33-5.65 3.86-1.21 7.84-1.94 11.9-2.15.66-.04.66-1.08 0-1.04-4.54.24-9.05 1.07-13.35 2.56-3.47 1.22-7.57 2.64-9.79 5.76-.38.56.52 1.08.91.52h0z"/><path d="M258.49 336.83c2.68.31 4.83 2.39 5.35 4.99.14.66 1.14.38 1-.27-.62-3.13-3.22-5.38-6.35-5.76-.69-.07-.65.97 0 1.04h0zm1.29-1.08c3.88-2.43 7.66.7 8.46 4.62.14.66 1.15.38 1.01-.28-.97-4.62-5.55-8.02-9.99-5.24-.56.38-.04 1.28.52.9z"/><path d="M264.08 342.55c2.15.7 4.44-.52 5.2-2.6.25-.62-.76-.9-1-.28-.56 1.56-2.36 2.4-3.92 1.88-.66-.21-.94.79-.28 1h0zm-28.48 1.42c-1.81 1.05-1.7 3.51-1.01 5.21.76 1.94 2.64 3.23 4.75 2.7.66-.17.39-1.14-.27-1-1.63.38-2.95-.66-3.51-2.12-.45-1.18-.76-3.12.59-3.88.56-.35.04-1.25-.55-.91h0z"/><path d="M236.08 347.93c-1.04-2.81 4.03-4.51 5.8-2.91 1.11 1 .83 2.6-.35 3.43-.52.38-1.18.66-1.84.52-2.32-.45-.42-3.12.73-1.6.42.52 1.32 0 .9-.52-1.35-1.77-4.34-.86-3.78 1.53.59 2.64 4.34 1.7 5.48.07 1.6-2.29-.14-5.07-2.77-5.1-2.5-.03-6.28 1.77-5.14 4.82.21.66 1.22.38.97-.24h0zm8.29 2.71c7.29-1.57 14.23-4.24 20.68-7.95.59-.35.07-1.25-.52-.9-6.38 3.68-13.25 6.28-20.43 7.84-.66.14-.38 1.14.27 1.01zm19.57-16.52c5.9-4.96 11.8-10.86 19.36-13.11.62-.21.38-1.18-.28-1.01-7.73 2.32-13.77 8.33-19.81 13.39-.52.42.25 1.15.73.73h0z"/><path d="M283.23 321.39c3.89 1.32 6.7 4.79 7.11 8.88.07.66 1.11.66 1.04 0-.45-4.58-3.5-8.43-7.87-9.89-.63-.21-.9.8-.28 1.01z"/><path d="M269.18 340.96a635.74 635.74 0 0 0 21.2-9.89c.59-.28.07-1.18-.52-.9-7.01 3.43-14.09 6.69-21.2 9.88-.63.28-.07 1.18.52.91zm-9.71-4.72l.69-.49c.24-.17.35-.45.17-.73-.14-.24-.48-.34-.73-.17l-.69.49c-.24.17-.35.45-.17.72.14.21.48.35.73.18zm-102.94-8.61c.66 7.77 2.4 15.37 5.21 22.62.24.63 1.25.35 1-.27-2.77-7.19-4.54-14.68-5.17-22.35-.03-.66-1.07-.66-1.04 0h0z"/><path d="M154.73 343.21c2.15 1.11 4.06 2.57 5.76 4.34.45.48 1.18-.24.73-.73-1.74-1.84-3.72-3.33-5.97-4.48-.59-.34-1.11.56-.52.87h0zm7.6-5.2a10.76 10.76 0 0 0-1.91 7.25c.07.66 1.11.66 1.04 0a10.11 10.11 0 0 1 1.77-6.73c.35-.52-.56-1.04-.9-.52zm3.08-2.88c1.01 4.3 1.32 8.67.87 13.08-.07.66.97.66 1.04 0 .42-4.48.11-8.95-.93-13.36-.11-.63-1.11-.35-.98.28z"/><path d="M163.89 336.65l2.5 4.83c.31.59 1.21.07.9-.52l-2.5-4.83c-.31-.59-1.21-.07-.9.52z"/></g><path d="M184.43 119.25a5.86 5.86 0 1 1 0-11.73 5.86 5.86 0 0 1 5.86 5.87c0 3.24-2.62 5.86-5.86 5.86z" class="T"/><path d="M373.36 244.19c-2.34 0-4.23-1.89-4.23-4.23s1.89-4.24 4.23-4.24 4.23 1.9 4.23 4.24-1.89 4.23-4.23 4.23zm6.18-8.19c-.96 0-1.74-.77-1.74-1.73a1.74 1.74 0 0 1 1.74-1.74c.96 0 1.73.78 1.73 1.74s-.77 1.73-1.73 1.73zM98.98 130.66c-1.65 0-2.99-1.33-2.99-2.98s1.34-2.98 2.99-2.98 2.98 1.33 2.98 2.98-1.33 2.98-2.98 2.98z" class="P"/><path d="M110.22 137.12c-1.81 0-3.26-1.46-3.26-3.26a3.25 3.25 0 0 1 3.26-3.26c1.8 0 3.26 1.45 3.26 3.26a3.26 3.26 0 0 1-3.26 3.26zm102.79 72.55a1.8 1.8 0 0 1-1.8-1.81 1.79 1.79 0 0 1 1.8-1.8 1.8 1.8 0 0 1 1.81 1.8 1.81 1.81 0 0 1-1.81 1.81zM353.69 39.48a3.12 3.12 0 1 1 0-6.24 3.12 3.12 0 1 1 0 6.24zm13.88 10.76a2.36 2.36 0 0 1 0-4.72c1.3 0 2.36 1.06 2.36 2.36s-1.06 2.36-2.36 2.36zm-2.43 176.53c-1.34 0-2.43-1.08-2.43-2.43 0-1.34 1.09-2.43 2.43-2.43s2.43 1.09 2.43 2.43c0 1.35-1.09 2.43-2.43 2.43zM202.6 39.48c-.86 0-1.56-.69-1.56-1.56 0-.86.7-1.56 1.56-1.56.87 0 1.57.7 1.57 1.56 0 .87-.7 1.56-1.57 1.56zM164.13 169.8c-.42-.55 0-1.53.52-1.84.66-.41 1.56-.21 2.26-.03.72.17 1.38.52 2.08.69.9.24 1.91.35 2.81 0 .97-.38 1.45-1.14 1.66-2.11.21-.84.14-1.88.84-2.54.65-.66 1.7-.73 2.56-.73 2.22.04 4.41 1.29 5.62-1.28.63-1.39.73-2.91 2.26-3.71 1.84-.97 4.06-.14 5.86.48.63.21.9-.76.28-1-2.74-.97-6.7-1.88-8.4 1.35-.27.56-.45 1.18-.66 1.74-.2.52-.45 1.42-1 1.66-.63.28-1.77-.03-2.43-.14-1.28-.17-2.64-.31-3.89.24-1.25.59-1.66 1.6-1.9 2.92-.63 3.5-3.4 1.87-5.69 1.32-1.25-.31-2.61-.21-3.47.83-.66.8-.84 1.8-.21 2.64.38.59 1.28.07.9-.49h0zm8.05 5.62c.35-2.01 1.91-3.12 3.92-3.02 1.11.04 2.32.42 3.43.07a2.61 2.61 0 0 0 1.67-1.49c.73-1.6.73-2.95 2.29-4.13a5.17 5.17 0 0 1 4.47-.93c1.01.24 2.09.69 3.13.31 1.11-.42 1.63-1.7 2.63-2.36 1.29-.83 2.85-1.11 4.31-1.35.65-.11.38-1.12-.28-1.01-1.36.24-2.71.52-3.92 1.11-.56.28-1.04.59-1.49 1.01-.91.83-1.29 1.66-2.78 1.59-1.28-.03-2.29-.66-3.64-.48-1.22.17-2.36.69-3.3 1.45-.87.73-1.56 1.67-1.91 2.78-.38 1.14-.62 2.53-2.18 2.57-.73.03-1.46-.14-2.19-.18-2.53-.21-4.72 1.18-5.17 3.75-.1.69.87.97 1.01.31h0zm182.86-9.92c2.26.42 3.44 3.36 6.01 2.39 1.49-.55 2.39-1.94 4.12-1.97 1.91-.04 2.78 1.56 4.41 2.08 2.71.86 4.86-2.12 7.46-1.63 2.36.45 3.81 3.29 6.45 2.53.66-.17.38-1.18-.28-1.01-2.32.66-4.12-2.56-6.52-2.63-1.07-.04-2.11.41-3.05.83-1.98.9-3.23 1.46-5.14.03-1.9-1.45-4.09-1.66-6.14-.31-.62.42-1.11.87-1.83 1.08-1.08.31-1.77-.25-2.57-.91-.83-.65-1.6-1.31-2.67-1.52-.63-.11-.91.9-.25 1.04h0zm7.15-3.44c1.77 1.43 3.82-.55 5.69.63 1.77 1.11 2.78 1.46 4.79.76 1.11-.38 2.22-.93 3.43-.76.97.17 1.74.9 2.74 1 .94.11 1.74-.41 2.57-.79 1.67-.73 3.3-.66 4.86.34.55.39 1.07-.52.52-.9-1.63-1.04-3.51-1.32-5.35-.62-.55.21-1.21.73-1.8.83-.87.14-1.56-.24-2.32-.59a4.07 4.07 0 0 0-2.12-.35c-.97.11-1.87.52-2.81.8-1.49.49-2.46.42-3.78-.52-.73-.52-1.39-.8-2.29-.76-1.04.03-2.46.9-3.4.17-.52-.38-1.25.35-.73.76h0z" class="T"/><path d="M247.74 193.19c.14-1.84 2.25-1.77 3.36-1.15.56.31 1.01.76 1.46 1.22.8.76 1.56 1.63 2.57 2.11 1.87.83 3.02-.17 4.58-1.07 4.92-2.78 8.57 6.24 13.53 3.08.28-.17.03-.62-.28-.45-3.29 2.12-6.38-1.97-9.12-3.19-.91-.41-1.88-.66-2.85-.48-1.42.24-2.36 1.49-3.71 1.83-3.19.87-4.41-3.64-7.29-3.95-1.38-.17-2.7.66-2.81 2.08 0 .31.52.31.56-.03h0zm88.05 19.88c.62-2.47 2.74-3.75 5.2-3.54 1.25.1 2.26.07 3.09-1.01.97-1.28 1.01-3.02 2.19-4.23 1.38-1.39 3.5-1.81 5.37-2.15.32-.07.18-.56-.14-.49-1.73.31-3.6.7-5.03 1.77-1.35 1.04-1.7 2.46-2.35 3.96-.87 1.91-2.19 1.56-3.96 1.59-.69 0-1.35.18-1.98.45-1.49.7-2.49 1.98-2.91 3.54-.07.32.42.45.52.11h0zm11.86-1.95c0-1.77 1.08-3.47 2.78-4.02 1.21-.42 2.5.07 3.71-.35 1.94-.69 2.92-3.12 5.1-3.22.35-.04.35-.56 0-.52-1.07.06-1.87.55-2.67 1.24-.62.56-1.18 1.22-1.91 1.63-1.14.73-2.18.42-3.4.53-2.43.2-4.16 2.35-4.16 4.71.03.35.55.35.55 0h0z" class="S"/><path d="M219.95 60.68c.56 1.67 1.77 3.85 3.85 2.81 1.25-.62 1.84-1.97 3.33-2.25a3.99 3.99 0 0 1 4.2 2.01c.21.42.8.28.94-.14 1.04-3.02 4.85-3.26 6.38-.52.31.59 1.21.07.9-.52-1.98-3.61-6.94-3.09-8.25.76l.93-.13c-.9-1.7-2.7-2.68-4.61-2.57-.87.03-1.7.28-2.4.8-.45.31-.79.9-1.28 1.18-.49.27-2.01.06-2.43-.35-.31-.31-.45-.97-.55-1.35-.21-.63-1.22-.35-1.01.27h0zm15.2-4.58c.66.52 1.28.52 2.08.28 1.07-.31 1.77-.97 2.7.24.32.42.42.98.84 1.36.76.76 1.87.86 2.91.76 1.21-.1 4.68-.94 4.51 1.32-.03.66 1.01.66 1.04 0 .24-3.19-3.95-2.4-5.79-2.33-1.36.04-1.98-.52-2.6-1.63-.28-.48-.56-.9-1.08-1.14-1.18-.52-2.98 1.07-3.89.38-.52-.38-1.28.35-.72.76h0zM126.42 244.99c-.38-1.22-.31-2.47.35-3.54.69-1.11 1.77-1.46 2.77-2.12 1.29-.87 1.77-2.05 1.98-3.54.1-.8.1-1.59.31-2.39.38-1.39 1.25-2.01 2.53-2.57 1.18-.48 2.26-.9 3.02-1.98.38-.55-.52-1.07-.9-.52-1.11 1.53-3.3 1.5-4.61 2.78-1.32 1.32-1.11 3.19-1.43 4.86-.45 2.53-2.74 2.67-4.16 4.37-1.14 1.39-1.42 3.26-.87 4.92.21.63 1.22.35 1.01-.27h0zm.49-11.52c2.56-1.53.41-5.28 3.01-6.73 1.39-.8 2.64-1.15 3.75-2.4 1.08-1.21 1.77-2.67 2.46-4.13.28-.59-.62-1.14-.9-.52-.69 1.46-1.39 2.92-2.5 4.1-1.18 1.28-2.77 1.42-4.06 2.46-1.9 1.56-.38 5.14-2.32 6.32-.55.34-.03 1.21.56.9h0zm141.02-43.61c-2.12.24-3.82-1.64-3.47-3.75.35-2.01 2.26-3.58 4.27-3.71 1.63-.11 3.47.55 4.23 2.11.83 1.7.07 4.03-1.7 4.69-.62.24-.35 1.25.28 1 2.11-.83 3.23-3.12 2.67-5.34-.66-2.57-3.47-3.82-5.97-3.47-2.43.35-4.65 2.36-4.89 4.86-.24 2.56 1.94 4.89 4.55 4.61.69-.03.69-1.07.03-1z" class="P"/><path d="M110.08 304.42c2.19-2.36 5.52-5.65 9.99-9.02 3.85-2.91 6.97-4.68 10.93-6.9l20.92-11.42 31.15-2.6c14.71-1.11 38.34-2.88 65.4-3.58l10.93-.24 34.72-.24 17.84-.24c9.5.07 17.31.41 22.58.72l15.92 1.43c1.25.14 3.09.34 5.49.93 2.88.73 5.16 1.67 6.66 2.4l-5.69 8.57c-6.28 9.3-12.67 18.14-19.01 26.64-1.01.63-2.85 1.6-5.24 2.4-5.1 1.66-9.44 1.28-10.93 1.18-6.25-.45-21.41-.18-43.51.48l-29.48-.72-8.57 13.08-57.07-3.09 11.41-12.6-84.44-7.18z" class="Q"/><g class="P"><path d="M130.03 298.31l51.34 3.99c.66.07.66-.97 0-1.04l-51.34-3.99c-.66-.03-.66 1.01 0 1.04h0zM262 306.95a935.46 935.46 0 0 1 53.74 1.15c.66.03.66-1.01 0-1.04-17.9-.9-35.81-1.29-53.74-1.15-.66 0-.66 1.04 0 1.04zM161.04 287.8c8.68 1.53 17.49 1.32 26.27 1.25 9.29-.07 18.59.14 27.89.45l55.06 2.64c10.54.45 21.12.73 31.67.73.66 0 .66-1.04 0-1.04-36.77.1-73.41-3.79-110.15-3.82-10.16 0-20.4.59-30.46-1.18-.62-.14-.94.87-.28.97zm83.61-7.42c26.09.03 52.18.79 78.23 2.29.66.03.66-1.01 0-1.04-26.05-1.5-52.14-2.26-78.23-2.29-.66 0-.66 1.04 0 1.04zm117.61-5.03a646.59 646.59 0 0 1-24.18 34.45c-.42.52.48 1.04.9.52 8.43-11.21 16.51-22.73 24.18-34.45.38-.56-.52-1.08-.9-.52zM119 297.17c10.68-7.39 21.5-14.82 33.58-19.78.62-.24.34-1.25-.28-1-12.18 4.99-23.07 12.45-33.86 19.88-.52.38 0 1.28.56.9z"/><path d="M151.57 277.53c27.55-2.53 55.13-4.37 82.74-5.45 27.62-1.07 55.27-1.49 82.92-1.07 7.74.1 15.47.31 23.17 1.01 7.43.65 15.2 1.42 22.14 4.3.62.24.9-.77.27-1.01-5.89-2.46-12.38-3.26-18.69-3.95-6.91-.77-13.85-1.11-20.79-1.29-13.84-.34-27.71-.31-41.56-.17-27.75.24-55.51 1.25-83.22 2.98-15.69.97-31.37 2.19-47.01 3.65-.66.03-.66 1.07.03 1h0zm97.87 37.23c25.85.87 51.69.9 77.5-.07 4.44-.17 9.4-.69 12.15-4.65.38-.55-.53-1.07-.91-.52-2.74 3.92-8.05 4.03-12.35 4.16l-17.83.53c-12.49.24-24.98.24-37.47.03l-21.13-.52c-.62-.04-.62 1.01.04 1.04h0zm-130.96-18.53l-9.16 8.02c-.39.31-.04.87.38.9l84.2 6.73c.66.04.66-1.01 0-1.04l-84.2-6.73.38.9 9.16-8.01c.45-.49-.28-1.22-.76-.77h0z"/><path d="M205.69 300.74c-8.08 7.12-15.68 14.71-22.76 22.8-.45.48.28 1.25.73.73 7.08-8.09 14.71-15.72 22.76-22.8.52-.45-.21-1.18-.73-.73h0z"/><path d="M206.07 301.47c16.9-1.63 33.9-1.21 50.69 1.29.66.1.94-.91.28-1.01-16.86-2.53-33.97-2.98-50.97-1.32-.66.07-.66 1.11 0 1.04h0z"/><path d="M256.24 302.41l-17.1 24.46c-.39.55.52 1.07.9.52l17.1-24.46c.38-.56-.52-1.08-.9-.52h0z"/><path d="M183.07 324.75l56.24 2.78c.66.03.66-1.01 0-1.04l-56.24-2.78c-.66-.03-.66 1.01 0 1.04zm14.54-6.52l8.71 1.53c.66.1.93-.91.27-1.01l-8.7-1.53c-.66-.1-.94.91-.28 1.01z"/><path d="M204.37 315.04a66.35 66.35 0 0 0-4.99 5.83c-.42.52.48 1.04.9.52l4.86-5.62c.41-.45-.32-1.22-.77-.73h0zm4.9.52c.03-1.81 1.38-2.99 3.15-2.95.87 0 1.67.28 2.54.14 1.59-.24 2.98-1.25 3.71-2.64.52-.94.66-2.01 1.45-2.77.87-.84 2.09-1.22 3.27-1.32 1.07-.11 2.25-.04 3.29.34.87.35 1.77 1.01 1.81 2.05.03.8-.46 1.63-1.36 1.67l.14 1c.94-.14 1.98.87 2.26 1.67.13.38.17.87.13 1.25-.03.9-.48 1.84-1.07 2.53s-1.35 1.25-2.22 1.49c-.76.21-.9.24-1.46-.38-.62-.73-.35-.87.31-1.42 2.99-2.5 5.45.76 8.5.87 2.09.06 4.06-1.22 4.48-3.34.21-1.04-.1-1.97-.63-2.91-.59-1.04-.93-1.25-.69-2.53-.17-.77.07-1.15.73-1.15.38-.17.73-.17 1.07.07.84.24 1.32.8 1.84 1.49.39.52 1.29.04.91-.52-1.08-1.49-2.95-2.91-4.83-1.8-1.77 1.04-1.14 2.88-.27 4.3.9 1.53 1.52 3.12-.07 4.51-1.81 1.56-3.85.52-5.62-.35-1.81-.86-3.82-.97-5.55.18-1.05.66-2.57 2.39-1.43 3.64 1.25 1.32 3.85.21 4.96-.69 1.43-1.15 2.36-3.06 2.09-4.93-.32-1.87-1.77-3.33-3.68-3.02-.59.11-.45 1.04.14 1.01 2.11-.04 3.02-2.6 1.9-4.23-1.52-2.26-5.34-2.29-7.63-1.46-1.14.41-2.15 1.14-2.77 2.22-.45.76-.59 1.7-1.08 2.43-.76 1.11-2.11 1.77-3.47 1.77-1.59-.04-2.84-.49-4.23.55-1.08.8-1.6 1.98-1.6 3.26-.07.66.98.66.98-.03h0z"/></g><path d="M264.7 120.26l-.24 24.84 58.46-1.7 11.93 9.26-3.15-18.28-.98-15.1-66.02.98zm-2.11-61.55l-1.94 35.97-10.31 12.84 12.28-3.33 73.07-2.5-1.95-43.23-71.15.25z" class="T"/><g class="Q"><path d="M303.49 74.67c.49 8.63 6.7 15.75 15.2 17.34.65.11.93-.86.27-1-8.05-1.49-13.98-8.16-14.43-16.34-.07-.7-1.11-.7-1.04 0h0z"/><path d="M318.93 91.98c3.33.24 6.31-4.65 7.53-7.22 1.59-3.47 2.08-7.28 1.35-11-.14-.66-1.14-.38-1.01.28.63 3.23.28 6.52-.97 9.58-.62 1.49-1.42 2.91-2.46 4.16-1.01 1.25-2.67 3.3-4.44 3.16-.66-.07-.66.97 0 1.04h0z"/><path d="M321.84 90.9c1.39 1.7 3.26 2.88 5.38 3.47.66.18.94-.83.28-1-1.98-.56-3.64-1.63-4.93-3.2-.41-.52-1.14.25-.73.73h0z"/><path d="M326.21 84.21c.42.66.87 1.28 1.39 1.87.49.52 1.35.97 1.77 1.53 1.22 1.63-1.11 4.78-2.12 6.03-.41.52.49 1.04.91.52 1.14-1.49 2.74-3.99 2.67-6-.04-.55-.24-.87-.63-1.25-1.11-1.18-2.22-1.84-3.12-3.26-.35-.55-1.25-.03-.87.56h0z"/><path d="M325.55 85.25c-.17 1.66-.58 3.26-1.31 4.79-.11.24-.35.55-.42.79-.17.63.28-.38.38-.52.42-.73.77-1.49 1.11-2.22l-.93-.41c-.32 1-.84 1.77-1.67 2.46l.83.62 2.15-3.67c.35-.59-.52-1.04-.9-.52l-2.29 3.08c-.34.49.42 1.08.83.63.84-.97 1.46-2.01 1.88-3.19.24-.63-.77-.91-1.01-.28-.38 1.04-.9 1.91-1.63 2.74l.83.62 2.29-3.08-.9-.52-2.15 3.67c-.31.56.38.98.83.63.97-.76 1.6-1.74 1.95-2.92.17-.55-.7-.93-.94-.41l-1.11 2.22c-.21.41-.56.93-.49 1.42.04.59.63 1.11 1.25.9.84-.27 1.25-1.8 1.53-2.53.55-1.39.87-2.85 1.04-4.34-.03-.62-1.08-.62-1.15.04h0zm-9.64 5.17c-2.88-.45-5.31 1.42-7.25 3.36-2.15 2.15-3.75 4.76-4.3 7.74-.14.66.87.94 1 .28.45-2.47 1.63-4.62 3.3-6.49 1.66-1.91 4.23-4.34 6.97-3.89.66.11.94-.9.28-1h0zm-3.47-14.54l3.57 8.29c.21.42.84.28.94-.14.31-1.25.45-2.46.38-3.74-.03-.66-1.07-.66-1.04 0 .07 1.18-.03 2.32-.34 3.47l.93-.14-3.47-8.05c-.21-.59-1.21-.31-.97.31h0zm-4.82 3.78c-.24-.45.21-.94.62-1.07.63-.21 1.29.03 1.91.2.63.21.9-.79.28-1-1.01-.31-2.22-.56-3.12.14-.7.55-1.01 1.45-.56 2.25.28.59 1.18.07.87-.52h0z"/><path d="M318.51 77.3c.35-1.52 2.05-2.18 3.26-1.07.49.45 1.25-.28.73-.73-1.73-1.6-4.47-.8-4.99 1.52-.14.66.86.94 1 .28h0zm2.22 1.15l-.14.14c-.2.2-.2.52 0 .72a.5.5 0 0 0 .73 0 1.79 1.79 0 0 0 .14-.13.516.516 0 1 0-.73-.73zm2.33-.97c.03.1.1.17.14.27.13.25.48.32.72.18.25-.14.32-.45.18-.73-.04-.11-.11-.18-.14-.28-.14-.24-.49-.31-.73-.17s-.31.45-.17.73zm-.32 2.36a1.79 1.79 0 0 1 .14.13.5.5 0 0 0 .73 0 .49.49 0 0 0 0-.72c-.03-.04-.1-.11-.14-.14a.5.5 0 0 0-.73 0 .52.52 0 0 0 0 .73zm-14.32 2.32v.14a.53.53 0 0 0 .52.52.54.54 0 0 0 .52-.52v-.14a.54.54 0 0 0-.52-.52c-.32 0-.52.21-.52.52zm2.36-.97h-.49c.21.17.52.21.73 0s.21-.56 0-.73a.71.71 0 0 0-1.01 0c-.21.17-.17.55 0 .73a.59.59 0 0 0 .77 0h0zm.55 1.77v-.14a.53.53 0 0 0-.52-.52.53.53 0 0 0-.52.52v.14a.53.53 0 0 0 .52.52c.28-.04.52-.24.52-.52zm-2.53-9.34c-.87-.55-1.98-.27-2.6.52-.18.21-.04.59.17.73.28.18.56.04.73-.17.28-.35.8-.38 1.14-.14.63.31 1.15-.59.56-.94h0zm8.29-1.18a4.59 4.59 0 0 1 1.35-.31c.66-.03.66-1.07 0-1.04-.66.04-1.28.18-1.87.45-.24.11-.31.49-.17.73.13.24.41.28.69.17h0zm.24 14.58c1.53.14 2.95-.87 3.44-2.33.21-.62-.8-.9-1.01-.28-.35 1.05-1.35 1.67-2.43 1.57-.66-.07-.66.97 0 1.04zm13.39 1.25a5.86 5.86 0 0 1 3.23.72c.59.32 1.11-.59.52-.9-1.18-.62-2.43-.93-3.75-.86-.66.03-.66 1.07 0 1.04zm-25.67-24.98c-2.91 1.31-5.17 3.88-5.97 7-.48 1.91-.13 3.79-.2 5.73-.11 2.18-1.11 4.13-1.77 6.17-1.91 5.94 1.35 12.46 7.39 14.26.66.18.9-.79.27-1-2.88-.87-5.2-2.99-6.41-5.73-1.32-3.02-.8-5.86.31-8.84.48-1.29.97-2.57 1.14-3.96.21-1.66-.14-3.33.04-5 .31-3.43 2.63-6.34 5.72-7.73.59-.28.07-1.15-.52-.9h0zm-.8 11.31c3.72-1.74 6.49-4.76 7.95-8.57.24-.63-.76-.91-1.01-.28-1.35 3.54-4.02 6.35-7.46 7.94-.62.28-.07 1.18.52.91zm8.4-8.78c1.14 2.01 3.54 2.91 5.65 3.61 2.68.9 5.49 1.28 8.3 1.25.65 0 .65-1.05 0-1.05a23.82 23.82 0 0 1-6.84-.86c-2.15-.59-5.03-1.43-6.21-3.51-.31-.55-1.21-.03-.9.56h0z"/><path d="M326.84 71.27a1.79 1.79 0 0 1 3.33.38c.48 1.59-.83 2.91-2.36 3.08-.66.07-.66 1.12 0 1.05 2.32-.28 4.27-2.47 3.19-4.83-1-2.15-3.92-2.18-5.06-.17-.32.52.55 1.04.9.49h0z"/><path d="M327.5 75.12c-.77 4.44-.31 10.44 3.5 13.46.52.41 1.25-.31.73-.73-3.47-2.74-3.95-8.33-3.23-12.42.14-.7-.86-.97-1-.31h0zm-22.62-10.66c2.29-1.17 4.72-2.46 7.35-2.42 2.26.03 4.13 1.07 6.42.66 2.39-.42 4.58-1.53 7.08-1.67 2.57-.14 5.34.28 7.15 2.26.45.48 1.17-.25.72-.73-3.5-3.82-9.12-2.54-13.46-1.29-1.73.52-3.26.66-5.03.21-1.25-.31-2.39-.55-3.71-.45-2.5.24-4.82 1.39-7.01 2.53-.62.32-.1 1.22.49.9zm-.38 31.09c-.11.04-.25.07-.35.07-.56.14-.45.83 0 1.01a5.12 5.12 0 0 0 2.6.34c.66-.06.66-1.11 0-1.04a4.41 4.41 0 0 1-2.32-.31v1.01c.1-.04.24-.07.34-.07.63-.14.35-1.15-.27-1.01zm-35.67-24.18c.52.8 1.77.62 1.95-.35.06-.31-.42-.45-.49-.14-.1.49-.69.66-1.01.25-.17-.28-.62-.04-.45.24h0zm3.99-.38c.21.34.45.73.9.8a.74.74 0 0 0 .87-.49c.11-.31-.38-.45-.48-.14-.07.14-.28.11-.39.04-.17-.11-.27-.32-.38-.52-.24-.25-.69 0-.52.31h0zm-1.11.93l.11.21v-.03c-.04.07-.04.14-.07.17 0 0 0-.03.03-.03-.07.03-.14.03-.17.07h.03c-.07-.04-.14-.07-.21-.14-.06-.11-.1.1-.1.17 0 .14.04.31.04.45s0 .28-.07.38c-.04.07-.18.18-.25.11-.24-.21-.62.14-.38.38.24.21.52.21.8.03.28-.17.38-.48.38-.83 0-.24-.03-.42.04-.62.03-.14.03-.25-.04-.35-.21-.28-.52-.07-.55.21 0 .07.07.17.13.21h.04c.28.24.55-.21.24-.39h0z"/><path d="M271.47 72.13c.1.49-.04 1.01.35 1.43a.72.72 0 0 0 1.04.1c.24-.21-.11-.59-.38-.38-.21.17-.42-.35-.42-.45-.04-.28-.04-.56-.07-.84-.1-.31-.59-.17-.52.14h0zm-2.01-2.46h.76c.35 0 .35-.52 0-.52h-.76c-.35 0-.35.52 0 .52zm3.78.1c.24 0 .45.04.66.18.28.17.55-.28.28-.45-.28-.18-.59-.25-.91-.25-.38 0-.38.52-.03.52h0zm-1.74 5.83c-3.4.21-3.08-3.4-3.88-5.62-.21-.66-.59-1.21-.83-1.87-.91-2.57 1.07-.77 1.73.17.21.28.66 0 .45-.28-.38-.55-1.77-2.6-2.6-2.36-.87.25-.31 2.09-.1 2.61.38 1.04.9 1.87 1.11 2.98.17 1.01.2 2.05.72 2.95.7 1.25 1.95 2.01 3.37 1.91.35.03.35-.49.03-.49h0z"/><path d="M269.11 68.45c1.67-.9 3.4-.97 5.1-.17.14.07.28.04.35-.1.45-.84 1-1.46 1.77-2.02l-.45-.17c.06 1.91.13 3.92-.18 5.8-.45 2.63-2.18 3.6-4.68 3.92-.31.03-.35.55 0 .52 2.05-.28 3.92-.77 4.79-2.81.93-2.22.69-5.07.59-7.43 0-.24-.28-.31-.46-.17-.48.38-1.04 1.39-1.56 1.66-.59.32-1.28-.14-1.94-.2-1.28-.14-2.5.17-3.64.76-.24.14 0 .59.31.41h0zm-.28 6.32c-.93 1.53-.59 3.36-.31 5.07.42 2.6 1.18 5.13 1.94 7.63.11.31.59.17.49-.14l-1.56-5.69c-.45-1.98-1.25-4.75-.11-6.59.18-.28-.27-.56-.45-.28h0z"/><path d="M270.43 87.26c-.66.1-2.78.8-2.12 1.84.25.38.77.45 1.18.48.8.07 1.6-.06 2.36-.31.31-.1.17-.59-.14-.48-.69.2-1.8.55-2.53.27-.14-.07-.42-.31-.35-.48.04-.11.35-.24.49-.31.41-.21.83-.39 1.28-.45.31-.14.18-.63-.17-.56h0zm1.52-8.05l.98 8.5c.03.35.55.17.48-.14l-.97-8.36c.04-.35-.49-.35-.49 0z"/><path d="M273.13 87.5c-.76.11-2.11.77-1.42 1.77.77 1.08 2.92.18 3.82-.17.31-.11.17-.63-.14-.49-.59.25-1.18.45-1.8.56-.28.03-.8.14-1.08 0-.45-.52-.42-.87.1-1.01a1.41 1.41 0 0 1 .52-.1c.32-.07.32-.59 0-.56h0zm2.5-14.08c1.39.83 1.7 2.25 2.33 3.64.45 1.01 1 1.7 1.84 2.43 1.21 1.04 2.32 1.84 2.77 3.5.45 1.74.07 3.54-.42 5.21-.1.31.42.45.49.14.83-2.88 1.15-6.04-1.28-8.26-.56-.52-1.22-.94-1.74-1.46-.76-.8-1.14-1.7-1.52-2.71-.49-1.21-1.01-2.25-2.16-2.94-.34-.18-.59.27-.31.45h0z"/><path d="M279.8 82.13c-1.15-.18-2.09.79-2.43 1.87-.49 1.46.76 2.91 1.59 3.95.07-.13.14-.31.18-.45-1.11.11-2.02.45-2.92 1.11-.1.07-.17.25-.1.35.87 1.11 2.84.62 4.06.62 1.28-.03 2.56-.13 2.53-1.76 0-.35-.52-.35-.52 0 .03 1.66-3.26 1.28-4.16 1.28h-.59c-.66-.11-.8-.24-.42-.42.17-.45 1.73-.62 2.12-.66.24-.03.31-.27.17-.45-.45-.59-1.08-1.28-1.32-2.01-.35-.94.07-3.19 1.67-2.95.34.07.48-.42.14-.48h0zm-4.65 2.39l.24 4.16c0 .35.52.35.52 0l-.24-4.16c-.04-.31-.56-.31-.52 0z"/><path d="M275.7 87.71c1.08.52 2.22.63 3.33.28.31-.11.18-.59-.14-.49-1 .28-2.01.21-2.95-.24-.27-.14-.55.31-.24.45h0zm7.32-1.7c.97-.66 1.67-1.53 1.91-2.71.38-1.87-.8-3.6.03-5.44.66-1.43 1.77-2.5 2.09-4.06.34-1.77-.35-3.58.07-5.35.1-.41.24-.97.55-1.31.31-.7.8-.52 1.39.55l-.21.52c-.1.87-.76 1.77-.94 2.67-.14.8-.07 1.6-.17 2.4-.14 1.14-.69 2.04-1.21 3.09-.73 1.49-.59 2.81-.52 4.44.1 2.46-.87 4.51-3.09 5.69-.31.17-.04.62.28.45 1.45-.8 2.6-2.01 3.08-3.61.77-2.43-.27-4.75.94-7.15.45-.93.9-1.73 1.04-2.77.17-1.22.07-2.26.45-3.47.28-.87 1.84-3.23.66-4.06-.76-.52-1.77.38-2.15.93-1.04 1.46-.73 3.33-.66 5.04.07 1.56-.21 2.77-1.04 4.09-.45.69-.94 1.39-1.21 2.18-.94 2.71 1.49 5.38-1.53 7.46-.28.18-.04.63.24.42zm11.76 9.06c-1.21-.25-2.29.14-3.26.9-.69.52-1.59 1.28-1.46 2.25.42 2.54 4.41 1.04 5.66.21.55-.38.03-1.28-.52-.9-.52.35-1.04.62-1.63.8-.38.1-.76.21-1.15.21-.52.03-.72.07-1-.45-.28-.53-.14-.53.24-.91.24-.24.49-.41.76-.62.63-.42 1.32-.66 2.09-.52.65.17.93-.83.27-.97z"/><path d="M293.74 94.75c-.21-1.56-.66-3.05-1.46-4.44-.52-.9-1.66-2.88-2.87-3.02-2.64-.31.2 6.6.65 7.53.32.59 1.18.07.91-.52-.52-1.07-.94-2.15-1.22-3.29-.14-.59-.41-1.46-.34-2.02 0-.17-.04-.31-.04-.48.28.14.52.35.73.59 1.46 1.49 2.32 3.61 2.6 5.65.11.63 1.15.66 1.04 0z"/><path d="M291 94.27c-.76-1.46-3.92-6.39-6.07-4.48s1.7 6.04 3.05 7.29c.49.45 1.22-.28.73-.73-.73-.69-1.42-1.42-1.98-2.22-.31-.45-1.83-2.71-1.31-3.19l1.24-.21c.32.21.59.45.87.69.31.28.63.63.94.94.66.73 1.18 1.56 1.63 2.43.31.62 1.21.1.9-.52h0z"/><path d="M287.91 96.66c-1.18-.97-2.91 0-2.81 1.49.14 2.02 2.4 2.43 3.96 1.98.66-.17.38-1.18-.28-1-.83.24-1.98.31-2.5-.59-.21-.35-.24-.77.07-1.04.21-.21.59-.32.83-.11.49.45 1.22-.28.73-.73z"/><path d="M285.66 98.15c-1.46.46-1.46 2.19-.63 3.23.84 1.04 2.43 1.74 3.61.83.52-.41-.21-1.14-.73-.72-.55.41-1.45-.14-1.84-.53-.41-.41-.97-1.52-.1-1.8.63-.21.35-1.21-.31-1.01h0zm8.53-3.01c2.54 0 3.3 4.75 2.81 6.52-.17.66.84.94 1.01.28.69-2.5-.49-7.84-3.82-7.84-.69 0-.69 1.04 0 1.04z"/></g><path d="M269.42 131.29h35.91c.66 0 .66-1.04 0-1.04h-35.91c-.66 0-.66 1.04 0 1.04zm9.2 4.65h33.06c.66 0 .66-1.04 0-1.04h-33.06c-.66 0-.66 1.04 0 1.04zm31.05-4.82h4.16c.66 0 .66-1.05 0-1.05h-4.16c-.66 0-.66 1.05 0 1.05zm11.83 3.12c-1.29-.59-2.26-1.63-2.61-3.02-.17-.66-.31-1.63.14-2.22.87-1.22 1.91.45 2.19 1.32.14.45.9.52 1 0 .04-.25.11-.49.18-.73.28-1.04.93-.94 2.01.24.17.63-.24 1.67-.52 2.19-.59 1.18-1.56 2.01-2.74 2.6-.59.28-.07 1.18.52.9 2.22-1.04 4.65-4.09 3.54-6.69-.35-.8-1.18-1.43-2.08-1.29-1.22.18-1.74 1.46-1.95 2.5h1.01c-.59-1.91-3.09-4.13-4.23-1.32-1.01 2.46.8 5.38 3.02 6.42.59.28 1.11-.62.52-.9h0z" class="S"/><path d="M175.79 261.71l-2.4 16.27c-14.67 4.48-21.85 7.39-21.58 8.68.35 1.59 11.66.83 34-2.29l.97-23.28-10.99.62z" class="P"/><path d="M182.9 212.06c-.73.56-1.15 1.18-2.71 4.2l-2.25 4.51c-2.81 6.38-5.55 16.41-5.55 16.41-2.19 7.95-3.3 11.9-4.06 16.1-1.11 5.93-1.56 10.96-1.81 14.61a40.81 40.81 0 0 0 7.39 2.56c6.8 1.63 12.67 1.15 16.55.45.7-4.89 1.67-10.2 3.02-15.78 1.18-5 2.53-9.61 3.92-13.85 1.49.94 3.68 2.4 6.31 4.2 8.64 6.01 11.35 8.92 16.41 12.18 3.33 2.15 8.26 4.86 15.06 6.94 1.56-.21 5.83-.97 9.47-4.51 5.48-5.38 4.93-12.66 4.82-13.7-2.29-2.43-5.51-5.7-9.64-9.2-7.29-6.18-13.57-9.96-18.04-12.63-3.61-2.15-7.63-4.13-15.65-8.12 0 0-9.4-4.65-18.04-5.41-1.52-.14-3.57-.21-5.2 1.04h0z" class="Q"/><g class="P"><path d="M166.94 267.44c.9-9.09 2.57-18.08 4.96-26.86 1.18-4.3 2.53-8.57 4.06-12.8 1.53-4.2 3.05-8.61 5.2-12.56 1.29-2.36 3.02-3.16 5.62-3.26 2.36-.11 4.72.2 7.01.76 4.2.97 8.26 2.6 12.21 4.3a127.28 127.28 0 0 1 21.48 11.69c7.7 5.21 14.81 11.21 21.23 17.94.45.49 1.22-.24.73-.73-12.14-12.66-26.78-22.86-42.92-29.77-3.95-1.7-7.97-3.29-12.17-4.33-3.47-.83-8.85-1.98-12.01.28-1.35.97-2.11 2.53-2.81 4.02-.9 1.98-1.73 3.99-2.56 6-1.84 4.55-3.47 9.16-4.89 13.88-3.09 10.24-5.17 20.78-6.21 31.44-.04.65 1 .65 1.07 0h0z"/><path d="M166.73 267.92a32.09 32.09 0 0 0 23.52 3.19c.66-.17.39-1.18-.27-1-7.71 1.91-15.82.83-22.73-3.09-.59-.31-1.11.55-.52.9h0z"/><path d="M191.29 270.35c1.22-9.89 3.44-19.64 6.56-29.11.21-.62-.8-.9-1-.28-3.16 9.58-5.35 19.4-6.6 29.39-.07.66.98.66 1.04 0h0z"/><path d="M194.63 240.23c13.91 7.08 24.28 20.68 39.93 24.33.66.13.93-.87.27-1.01-15.54-3.64-25.88-17.17-39.68-24.22-.59-.31-1.11.59-.52.9h0z"/></g><g class="R"><path d="M178.74 271.46c3.53-11.24 7.42-22.69 11.69-34.35l3.09-8.26 21.78 11.45 30.39 16.14c-.27 1.28-1.28 4.78-4.44 6.66-2.36 1.39-4.96 1.28-7.73.73-8.61-1.74-14.02-6.94-24.84-15.03-2.47-1.84-6.25-4.61-11.07-7.87a174.36 174.36 0 0 0-2.71 8.26c-2.32 7.77-3.81 15.09-4.78 21.78-2.02.52-4.69.98-7.74.87-1.35-.07-2.57-.21-3.64-.38h0z" class="U"/><path d="M196.71 240.55c-.87-.35-4.37 6.17-5.42 8.11-2.67 4.97-6.14 12.29-9.36 22.04.66.27 1.49.59 2.46.73 2.57.45 4.65-.18 5.79-.63 1.84-9.64 3.72-17.31 5.17-22.76.91-3.4 1.98-7.22 1.36-7.49z" class="U"/></g><path d="M142.41 265.91l-7.11 18.56c-13.84 4.62-20.57 7.67-20.26 9.16.38 1.74 10.3 1.39 29.77-1.07l7-22.56-9.4-4.09z" class="P"/><path d="M162.29 205.57c-2.67 1.88-4.2 4.1-4.96 5.28-3.33 5.03-5.03 7.56-6.17 9.78-3.27 6.28-5.35 11.55-6.32 14.16-3.29 8.71-4.96 15.78-6.49 22.13-1.11 4.76-1.9 8.71-2.39 11.45 1.39 1.67 3.37 3.65 6 5.41 5.55 3.72 11.14 4.58 14.16 4.83 2.53-7.32 4.92-13.5 6.94-18.36 2.11-5.2 3.67-8.67 6.48-12.63 2.01-2.88 3.99-5.03 5.41-6.48a102.56 102.56 0 0 0 6.77 8.43c3.64 4.06 10.3 11.38 21.06 17.76 8.71 5.17 15.54 7.01 22.41 8.88 7.15 1.95 9.33 1.74 11 .77 6.83-4.03 3.36-20.09 3.15-21.06a176.99 176.99 0 0 1-15.05-12.95c-3.06-2.94-6.49-6.52-12.49-11.9l-5.55-4.82c-1.08-.9-5.07-4.16-11.9-8.88 0 0-8.68-6-17.14-10.37 0 0-2.15-1.12-5.86-2.26-3.09-.94-4.37-1.01-5.55-.76-.42.03-1.63.31-3.51 1.59h0z" class="Q"/><g class="P"><path d="M161.29 205.68c-15.3 17-21.76 39.62-25.99 61.58-.14.66.87.94 1.01.28 4.19-21.79 10.54-44.27 25.7-61.13.49-.49-.27-1.25-.72-.73h0z"/><path d="M135.65 268.48a33.11 33.11 0 0 0 19.67 11.03c.66.1.94-.9.28-1.01-7.5-1.21-14.26-5.03-19.22-10.75-.42-.52-1.15.21-.73.73z"/><path d="M156.32 279.02c2.22-6.9 4.86-13.63 7.98-20.19 2.85-5.93 5.76-12.77 10.86-17.14.52-.45-.24-1.18-.73-.73-5.17 4.44-8.15 11.35-10.99 17.35-3.16 6.63-5.83 13.46-8.09 20.44-.24.62.77.9.97.27h0z"/><path d="M171.49 237.25c14.25 19.64 33.68 37.26 58.66 40.59.66.11.66-.93 0-1.04-24.56-3.26-43.71-20.74-57.76-40.07-.42-.52-1.32 0-.9.52zm-9.34-30.88c5.73-4.2 13.01.45 18.29 3.3 5.44 2.91 10.68 6.14 15.78 9.64 10.27 7.11 19.74 15.37 28.21 24.57.45.48 1.18-.25.72-.73-13.94-15.16-30.7-27.9-49.22-36.95-4.44-2.19-9.89-3.92-14.3-.7-.52.35 0 1.25.52.87h0z"/></g><g class="R"><path d="M143.84 273.82l11.27-23.56c9.54-20.09 11.14-23.97 15.51-25.47 7.56-2.53 14.74 5.07 31.36 16.94 9.3 6.66 22.1 15.02 38.44 23.45.31 1.8.97 6.73-1.91 9.85-1.28 1.36-4.2 3.44-13.22 1.91-3.47-.59-19.7-3.68-39.41-23.31A120.84 120.84 0 0 1 174.82 241c-1.01 1.18-2.54 3.09-4.2 5.51-2.92 4.31-4.86 8.23-9.37 19.09-1.46 3.47-3.26 7.91-5.27 13.08-1.32.07-3.82.07-6.59-1.08-2.85-1.07-4.65-2.81-5.55-3.78z" opacity=".129"/><path d="M172.08 236.35l5.65 3.12c14.67 8.74 15.02 14.05 25.95 20.54 8.5 5.03 11.69 3.85 20.43 10.44 3.4 2.57 5.94 5.03 7.57 6.73-3.37-.27-8.02-.97-13.33-2.63-6.93-2.19-11.72-5.07-15.26-7.22-1.77-1.07-9.12-5.62-17.17-13.7-4.03-3.99-9.06-9.68-13.84-17.28h0zm1.56 4.79c-.49-.63-4.13.93-7.32 3.36-5.76 4.34-7.39 9.37-12.74 19.22a192.35 192.35 0 0 1-7.07 12.01l9.26 3.71c.69-1.87 6-16.06 9.96-24.63 1.28-2.74 1.97-4.27 3.22-6.35 2.78-4.58 5.14-6.73 4.69-7.32h0z" class="U"/></g><path d="M317.61 181.56c.9.49.87 1.01 2.01 1.98.94.8 1.29.69 1.67 1.35.41.73.48 1.57.48 2.12.39 0 1.08.1 1.81.62.21.14 1.63 1.15 2.01 3.34.28 1.49-.07 2.74-.24 3.19.38.34.97.97 1.18 1.98.27 1.24-.11 2.39-.59 3.64-1.43 3.5-2.71 4.96-4.17 7.91-.45.87-1.04 2.22-1.66 3.95-.04 1.32-.04 3.47.24 6.08.42 3.88 1.18 6.69 1.42 7.59 1.22 4.52 3.37 15.06 3.58 24.74.1 4.96.2 12.91-3.23 21.03-1.28 3.05-3.19 7.35-7.04 9.12-.63.28-5.1 2.33-8.22-.9-1.15-1.18-1.74-2.64-2.02-3.64a13.26 13.26 0 0 1-.1-2.29c.1-4.2 2.05-7.22 2.74-8.36 2.36-3.99 3.09-8.43 4.3-15.96.77-4.65.59-8.68.24-16.59a251.78 251.78 0 0 0-1.9-21.44c-.59-.17-1.36-.52-1.91-1.35-.83-1.29-.35-2.47-.97-4.72-.49-1.7-.87-1.39-1.67-3.64-.59-1.64-1.14-3.13-.83-4.86.07-.35.38-2.4 1.56-2.88 1.49-.66 3.16 1.7 3.57 2.29.84 1.18 1.25 2.43 1.43 3.19.83-1.39 1.7-3.05 2.49-5.03a32.88 32.88 0 0 0 .98-2.6 42.65 42.65 0 0 1-.46-3.23c-.17-1.8-.24-2.74-.03-3.92.14-.8.49-2.57 1.56-3.05.66-.25 1.39.14 1.77.34h0z" class="Q"/><g class="P"><path d="M321.01 210.46c1.7-3.05 3.71-6.1 5.1-9.33 1.01-2.36 1.42-5.2-.14-7.42-.38-.56-1.28-.04-.9.52 1.8 2.53.59 5.69-.73 8.15l-4.23 7.56c-.35.59.55 1.11.9.52z"/><path d="M323.47 199.47c2.54-3.37 4.58-11.49-1.31-12.81-.66-.14-.94.87-.28 1.01 5.13 1.14 2.81 8.43.69 11.28-.38.52.52 1.04.9.52h0z"/><path d="M320.73 196.38c2.4-3.44 2.57-8.16.73-11.87-.31-.59-1.18-.07-.9.52 1.66 3.4 1.46 7.71-.73 10.83-.38.52.52 1.04.9.52zm-2.04-2.67c.97-3.06 1.28-6.39.59-9.54-.39-1.7-2.09-4.69-4.2-3.06-1.98 1.53-1.08 5.73-.87 7.77.21 2.05-.03 3.51-1.11 5.28-.94 1.52-1.7 3.12-2.29 4.82-.24.63.76.9 1.01.28.79-2.26 2.22-4.1 3.15-6.25.87-2.01.28-4.2.14-6.31-.07-.97-.34-2.53.04-3.47.03-.73.48-.87 1.35-.49.97-.38 1.53-.1 1.63.87.24.66.35 1.42.42 2.12.27 2.6 0 5.17-.8 7.66-.24.7.73.98.94.32h0z"/><path d="M321.84 185.03c-.41-1.59-2.22-2.88-3.78-1.8-.55.38-.03 1.28.52.9.97-.66 1.98.21 2.26 1.18.17.66 1.18.38 1-.28zm-10.4 13.12c-.56-2.05-1.91-4.65-4.2-5.07-2.19-.41-2.95 1.7-3.02 3.47-.17 3.33 1.59 5.62 2.46 8.68.7 2.46.49 4.92 2.99 6.38.59.35 1.11-.56.52-.9-1.88-1.08-1.95-2.95-2.33-4.86-.28-1.53-1-2.81-1.63-4.23-.73-1.63-1.53-4.17-.9-5.94l.1-.48 2.36-.76c.45.13 1.01.86 1.32 1.21.66.83 1.04 1.73 1.28 2.78.21.65 1.22.38 1.05-.28h0z"/><path d="M309.46 211.09c1.45 12.04 3.02 24.53 1.94 36.64-.52 5.72-1.94 11.03-4.23 16.27-1.88 4.3-3.23 8.36-2.33 13.08.14.66 1.15.38 1.01-.28-1.01-5.27 1.14-9.61 3.12-14.33 2.08-4.89 3.12-10.09 3.54-15.37.94-11.93-.55-24.18-1.98-36.01-.14-.66-1.18-.66-1.07 0h0z"/><path d="M319.97 209.56c-.83 2.4-.42 5.07-.14 7.53l1.21 7.77c1.08 5.66 2.43 11.25 3.16 16.97.73 5.62.77 11.31.14 16.93-.62 5.59-1.7 11.69-4.82 16.48-1.49 2.29-3.71 4.51-6.52 5.03-3.02.59-5.76-1.21-7.19-3.81-.31-.59-1.21-.07-.9.52 2.02 3.64 6.14 5.44 10.06 3.71 4.65-2.05 7.12-7.25 8.47-11.87 3.57-12.14 2.57-24.8.1-37.05-.69-3.47-1.45-6.94-2.01-10.45-.31-1.87-.55-3.74-.76-5.62-.18-1.97-.45-4.06.21-5.96.24-.52-.77-.8-1.01-.18h0z"/></g><g class="R"><path d="M323.37 187.95c.1 1.73.1 3.95-.31 6.38-1.11 6.66-4.41 10.86-5.94 12.53-.03 1.97-.1 5.03 0 8.71.42 16.51 2.99 24.59 3.4 32.33.42 7.53-.97 18.53-9.64 32.75 1.14.11 2.95.11 4.82-.9 1.7-.9 4.34-2.98 6.73-9.96 2.19-6.38 4.58-18.07 1.91-31.46-1.18-5.83-2.98-10.41-3.92-20.2a135.76 135.76 0 0 1-.42-6.28c.59-1.39 1.46-3.29 2.71-5.38 2.05-3.43 3.37-4.58 3.71-7.04.25-1.73-.1-3.5-.8-5.24.07-.45.35-2.29-.48-4.09-.56-1.29-1.39-1.91-1.77-2.15h0z" class="W"/><path d="M319.87 214.42c-.18.03.38 6.07 1.49 18.15l1.49 16.37c.35 15.82-4.51 27-3.71 27.38.55.28 3.33-5.35 4.92-12.15 2.19-9.4 1.32-17.55.8-22.24-.48-4.12-.66-2.98-3.12-17-1.22-7.04-1.7-10.54-1.87-10.51h0z" class="V"/></g><path d="M234.42 247.21c-3.3 6.69-4.23 12.59-5.1 18.35-.49 3.16-.97 7.63-.94 13.05 10.83 2.88 20.47 4.44 28.38 5.27 10.27 1.11 7.25-.24 33.17.66 12.94.45 19.6.9 21.44-2.64 1.52-2.98-2.22-5.96-2.43-12.83-.18-5.52 2.01-10.03 3.74-12.84-10.23-4.13-22.06-8.22-35.38-11.69-13.25-3.47-25.54-5.69-36.46-7.08-1.74 2.05-4.24 5.31-6.42 9.75z" fill="#d6d6d6"/><g class="R"><path d="M235.32 246.03c2.53 5.06 7.87 13.74 17.83 18.6 3.89 1.9 8.29 3.12 21.27 3.78 8.39.41 20.05.62 34.17-.52-.21 3.01.42 5.17 1.01 6.59.9 2.12 2.15 3.33 2.01 5.55-.04.52-.11 1.84-1.01 2.91-1.25 1.46-3.29 1.6-4.3 1.64-9.99.48-13.43.13-13.43.13-8.39-.9-15.85-.69-22.03-.52-2.67.07-4.09.18-6.97.14-1.59-.03-6-.14-12.38-1-9.41-1.29-18.08-3.47-22.9-4.83-.1-6.21.45-11.34 1.01-15.05.86-5.69 1.9-8.85 2.29-9.86 1.11-3.19 2.39-5.76 3.43-7.56h0z" class="U"/><path d="M231.5 255.12c1.36 2.74 3.68 6.63 7.6 10.23 6.59 6.04 13.7 7.64 22.13 9.61 17.87 4.24 36.09 9.06 35.95 9.86-.07.48-6.87-.63-18.6-.77-2.84-.03-4.68-.06-7.35 0-5.21.11-6.63.39-9.75.25-3.37-.14-5.83-.63-8.47-1.15l-24.52-5.2c.03-2.22.17-4.55.38-6.98.52-5.79 1.49-11.13 2.63-15.85h0z" class="W"/></g><path d="M332.81 275.38c-7.36 1.04-11.56 1.25-18.43 3.19-3.19.9-5.76 1.84-7.45 2.54-1.08-3.02-2.36-7.92-1.81-13.88.31-3.54 1.18-6.49 2.08-8.71 1.91.48 4.3.94 7.11 1.11a38.86 38.86 0 0 0 8.75-.45l2.56-9.34 4.72-1.28.45-2.6c1.95.9 5.03 2.36 8.88 3.99 7.26 3.12 8.3 3.23 9.86 4.61 4.2 3.79 6.21 11.31 3.12 15.65-1.87 2.6-7.88 3.47-19.84 5.17z" stroke="#161616" class="Q X"/><path d="M330.2 245.89c-.24 1.63-.34 3.26-.27 4.93.03.66 1.07.66 1.04 0-.07-1.57.03-3.09.24-4.65.07-.66-.94-.94-1.01-.28h0zm11.31 8.85c.28 1.28-.52 2.43-1.63 2.95-.62.27-.07 1.18.52.9 1.6-.73 2.47-2.43 2.12-4.13-.14-.66-1.15-.38-1.01.28h0zm-3.92-.35c.38.03.8.14 1.11.42l.21.2c.21-.17.24-.27.07-.24-.1-.07-.38-.07-.48-.1-.18-.07-.35-.11-.53-.21-.1-.04-.17-.1-.27-.17-.28.17-.31.31-.07.38.14.14.41.27.59.38l.59.38c.55.35.97-.38.62-.83-.21-.28-.45-.42-.76-.56-.63-.24-.9.77-.28 1.01.14.07.21.17.31.28l.63-.84-1.42-.9c-.39-.21-.87-.14-1.11.24-.63.94.72 1.6 1.42 1.81.38.1.83.21 1.21.07.42-.14.63-.59.49-1.01-.28-.9-1.49-1.28-2.33-1.35-.69-.04-.66 1.01 0 1.04h0z" class="P"/><path d="M347.76 253.14c1.49.42 3.95 1.32 6.35 3.19.83.66 2.63 2.08 3.71 4.13 2.05 3.89 1.11 9.33-2.46 12.94-3.51 3.51-9.13 4.76-14.37 3.2l6.77-23.46z" class="T"/><g class="P"><path d="M349.46 239.85l-9.79 36.22c-.52 1.95 2.5 2.78 3.02.84l9.79-36.23c.52-1.94-2.5-2.77-3.02-.83z"/><path d="M342.38 268.68c-.55-2.29-2.01-3.74-3.71-5.44-3.61-3.61-5.21-2.88-7.46-5.38-3.54-3.99-.73-7.18-4.23-10.79-2.99-3.05-7.5-3.3-8.54-3.33-1-.04-5.06-.07-8.18 2.6-2.71 2.32-3.72 5.83-3.23 6.11.17.1.69-.14 2.36-1.91a6.5 6.5 0 0 0-1.53 2.46c-.41 1.32-.35 2.6-.14 2.64.18.03.25-.7.97-1.18.42-.28.91-.38 1.25-.38-.9.97-1.73 2.25-1.45 3.57.69 3.68 8.95 5.38 11.69 5.93 8.88 1.84 14.08.07 16.86 3.4.24.28 1.35 1.64.93 2.88-.55 1.6-3.43 2.5-5.16 1.74-1.5-.66-1.7-2.36-2.02-2.29-.38.1-.17 2.95 1.5 5.55.62.94 1.11 1.7 2.11 2.22 1.77.87 4.03.42 5.38-.42 2.88-1.63 3.23-5.48 2.6-7.98h0z" stroke="#161616" class="X"/></g><path d="M330.38 270.45c0-.52.07-1.28.27-1.28.11 0 .21.21.21.17 0 0-.76-.72-.76-1.52 0-.38.17-.7.31-.87a81.92 81.92 0 0 1-11.79 2.53 83.22 83.22 0 0 1-13.19.8c-.17 1.42-.27 3.44.21 5.83a18.52 18.52 0 0 0 1.63 4.72c5.38-2.33 9.54-3.3 12.35-3.78l5.97-.91 6.63-.93c-.18-.25-.46-.63-.73-1.11-.38-.66-1.11-2.02-1.11-3.65h0z" opacity=".22" class="R"/><path d="M358.79 265.18c-1.11 3.09-4.13 5.14-7.42 5.1-3.89-.07-6.18-3.05-6.39-3.33l-2.67 10.03c.83.17 1.98.34 3.37.31 4.37-.11 7.35-2.08 7.98-2.53.97-.66 4.16-3.09 4.96-7.22.17-.97.17-1.8.17-2.36h0z" opacity=".392" fill="gray"/><path d="M296.93 193.98l5.28 6.63c2.7 3.09 5.37 5.69 7.87 7.88a388.67 388.67 0 0 1 11.35-10.55c3.78-3.4 7.52-6.59 11.2-9.61-.87-1.77-2.04-3.82-3.61-5.9-3.05-4.06-6.41-6.77-8.98-8.5-5.86 4.13-12.04 9.06-18.15 14.99l-4.96 5.06z" class="Q"/><g class="P"><path d="M303.98 187.98c4.96-4.92 10.27-9.47 15.92-13.56.52-.39.03-1.29-.52-.91-5.72 4.17-11.14 8.75-16.13 13.74-.49.49.24 1.22.73.73z"/><path d="M319.66 174.21c4.99 3.78 9.19 8.46 12.45 13.81.35.55 1.25.03.9-.52-3.36-5.52-7.7-10.27-12.83-14.19-.52-.39-1.04.52-.52.9zm-15.86 12.56a91.64 91.64 0 0 0-7.25 6.97c-.45.49.28 1.22.73.73 2.29-2.46 4.68-4.79 7.25-6.97.52-.45-.21-1.18-.73-.73z"/><path d="M296.69 194.71c3.96 4.86 8.19 9.44 12.73 13.78.49.45 1.22-.28.73-.73-4.51-4.34-8.78-8.92-12.73-13.78-.42-.55-1.18.21-.73.73z"/><path d="M310.57 208.7c7.32-6.98 14.85-13.71 22.55-20.23.52-.42-.24-1.18-.73-.73-7.7 6.52-15.23 13.29-22.55 20.23-.49.45.24 1.18.73.73zm-9.58-14.33c2.36 3.05 4.82 6.03 7.36 8.91.45.52 1.18-.24.73-.73a213.22 213.22 0 0 1-7.36-8.91c-.38-.56-1.11.21-.73.73z"/><path d="M301.76 194.37c5.27-5.8 11.48-10.55 17.65-15.3.52-.42 0-1.32-.52-.91-6.28 4.79-12.55 9.61-17.86 15.44-.49.52.27 1.25.73.77z"/><path d="M319.52 179.07c3.19 2.39 6.1 5.06 8.78 8.01.45.49 1.18-.24.72-.73-2.74-3.02-5.72-5.72-8.98-8.19-.56-.38-1.08.52-.52.91z"/><path d="M308.97 203.56c1.77-.07 3.12-.94 4.51-1.98l5.31-4.3c3.68-3.09 7.18-6.35 10.55-9.71.48-.49-.28-1.22-.73-.73-2.92 2.95-5.97 5.76-9.09 8.5-1.53 1.32-3.09 2.6-4.65 3.88-1.7 1.36-3.57 3.26-5.9 3.33-.66-.03-.66 1.01 0 1.01h0z"/></g><path d="M317.92 174.52l-3.47 6.56c-3.54 6.87-5.34 10.34-5.89 12.52-.73 2.85-1.29 7.84 1.66 14.89L297 194.4l20.92-19.88z" class="R V"/><g class="S"><path d="M314.31 185.76c1.67 1.7 3.23 3.51 4.69 5.38.41.52 1.14-.21.73-.73-1.46-1.87-3.02-3.68-4.69-5.38-.45-.48-1.18.25-.73.73z"/><path d="M314.73 185.62l2.43-1.52c.42-.28.87-.7 1.35-.84.66-.24.25-.38.77-.1.62.31 1.31 1.66 1.76 2.22l1.95 2.46c.41.52 1.14-.21.73-.73l-2.54-3.22c-.41-.56-1.07-1.88-1.8-2.05-.52-.1-.97.24-1.39.52l-3.78 2.36c-.55.38-.03 1.28.52.9h0z"/><path d="M319.62 191.1c1.46-.62 2.74-1.52 3.85-2.63.49-.49-.27-1.22-.73-.73a12.12 12.12 0 0 1-3.64 2.46c-.62.28-.1 1.18.52.9zm-2.36-3.5c.45-.45.87-.9 1.56-.8.39.07.52.14.94.07.35-.07.45-.48.31-.76-.31-.52-.59.35-.59.66 0 .28.11.59.32.8.52.55 1.28.41 1.9.13.63-.24.35-1.24-.27-1a3.24 3.24 0 0 1-.77.21c-.1-.25-.1-.49 0-.73 0-.25.04-.45-.03-.7-.11-.34-.38-.66-.76-.69-1.11-.14-1.11 1.18-.7 1.87l.31-.76c-.27.03-.62-.17-.9-.17-.21 0-.45.07-.66.14-.55.2-.97.62-1.35 1.04-.52.45.24 1.18.69.69h0zm-.52-2.22c.49.03.94 0 1.39-.1.66-.14.38-1.15-.28-1.01a4.15 4.15 0 0 1-1.11.07c-.27-.04-.52.24-.52.52 0 .31.25.49.52.52h0zm-7.94 5l4.82 5.41c.45.48 1.18-.24.73-.73l-4.82-5.41c-.42-.52-1.15.21-.73.73z"/><path d="M309.63 190.51c.35-.62.52-1.14 1.25-1.17.62-.04 1.01.45 1.42.83.59.52 1.08 1.14 1.67 1.7.45.41.93.83 1.45 1.18.46.31.87.48.39 1.07-.28.35-1.01.49-1.43.63-.62.21-.34 1.21.28 1 .94-.31 2.43-.79 2.74-1.9.14-.46.04-.66-.28-.98-.65-.59-1.56-.97-2.22-1.59-1.11-1.01-2.08-2.5-3.5-3.09-1.35-.52-2.05.73-2.64 1.77-.34.59.56 1.14.87.55z"/></g><path d="M299.05 186.49c-1.18.49-1.11 1.01-2.6 1.98-1.22.8-1.63.69-2.12 1.35-.55.73-.62 1.56-.62 2.12-.49 0-1.36.1-2.29.62-.28.14-2.08 1.15-2.6 3.33a5.07 5.07 0 0 0 .31 3.19c-.49.35-1.22.98-1.53 1.98-.38 1.25.11 2.4.76 3.65 1.81 3.5 3.44 4.96 5.31 7.91.56.86 1.36 2.22 2.12 3.95.03 1.32.03 3.47-.31 6.07-.52 3.89-1.53 6.7-1.84 7.6-1.56 4.51-4.3 15.06-4.58 24.74-.14 4.96-.28 12.91 4.09 21.03 1.63 3.05 4.06 7.35 8.99 9.12.76.28 6.48 2.32 10.47-.9 1.46-1.18 2.19-2.64 2.61-3.64.1-.53.17-1.32.14-2.29-.14-4.2-2.64-7.22-3.51-8.37-3.02-3.99-3.92-8.43-5.48-15.96-.97-4.65-.76-8.67-.31-16.58.31-5.41.93-12.73 2.43-21.44.72-.18 1.73-.52 2.42-1.36 1.05-1.28.42-2.46 1.22-4.71.59-1.71 1.07-1.39 2.12-3.65.76-1.63 1.42-3.12 1.07-4.86-.07-.34-.52-2.39-1.98-2.88-1.87-.65-4.02 1.7-4.54 2.29-1.08 1.18-1.56 2.43-1.84 3.2a31.24 31.24 0 0 1-3.19-5.03c-.45-.91-.87-1.77-1.22-2.61a30.23 30.23 0 0 0 .59-3.22c.21-1.81.32-2.74.04-3.92-.21-.8-.63-2.57-1.98-3.06-.73-.27-1.66.11-2.15.35h0z" class="Q"/><g class="P"><path d="M295.75 214.84l-5.2-7.32c-1.63-2.36-3.54-5.69-1.18-8.3.45-.48-.28-1.25-.73-.73-1.84 2.02-1.63 4.76-.48 7.08 1.73 3.47 4.47 6.63 6.73 9.79.34.55 1.25.03.86-.52z"/><path d="M292.49 203.73c-1.66-1.73-3.05-4.09-3.02-6.55.04-2.4 1.77-4.2 4.06-4.58.66-.11.39-1.11-.27-1.01-2.47.42-4.44 2.32-4.79 4.82-.42 2.99 1.28 6.01 3.29 8.09.46.48 1.18-.28.73-.77h0z"/><path d="M296 200.65c-2.67-2.99-2.99-7.36-.87-10.73.35-.55-.56-1.07-.9-.52a9.96 9.96 0 0 0 1 11.97c.49.52 1.22-.2.77-.72zm2.81-2.29c-1.11-2.71-1.53-5.73-.84-8.61.39-1.63 2.47-4.72 4.13-2.22.7 1.04.45 2.6.35 3.78-.17 2.22-.97 4.65.17 6.73.56.98 1.39 1.81 2.02 2.71.79 1.11 1.42 2.32 2.01 3.57.28.63 1.18.07.9-.52a22.68 22.68 0 0 0-2.71-4.47c-.62-.84-1.42-1.6-1.7-2.64-.27-1.01 0-2.12.11-3.16.28-2.11 1.14-6.07-1.15-7.49-2.04-1.28-4.23.62-4.89 2.5-1.18 3.22-.69 7.01.56 10.13.27.59 1.28.31 1.04-.31z"/><path d="M294.78 190.24c.42-1.22 1.95-1.77 3.09-1.18.59.31 1.11-.59.52-.9-1.73-.94-3.95-.04-4.61 1.8-.25.62.76.9 1 .28zm13.29 13.11c.38-1.11.94-2.08 1.77-2.88.35-.31.73-.62 1.14-.86.98-.56 1.39-.56 2.47-.18 1.25.45 1.42.73 1.52 2.05.04.41.04.83 0 1.25-.1 1.32-.59 2.57-1.21 3.71-.73 1.32-1.63 2.53-2.05 4.02-.62 2.26-.66 4.1-3.09 5.17-.62.28-.06 1.18.53.91 1.04-.45 1.9-1.15 2.49-2.12.8-1.28.73-2.81 1.22-4.2.55-1.52 1.63-2.81 2.32-4.27.63-1.38.94-2.91.83-4.44-.13-2.08-1.35-3.81-3.64-3.47-2.6.39-4.51 2.71-5.31 5.07-.24.59.77.87 1.01.24h0z"/><path d="M308.28 215.88c-.97 6.31-1.77 12.66-2.33 19.01-.48 5.69-.79 11.42-.24 17.14.52 5.24 1.84 10.34 4.3 14.99 2.5 4.75 5.59 9.09 4.2 14.74-.17.66.83.94 1.01.28 1.18-4.89-.63-8.88-2.95-13.08-2.78-4.96-4.65-10.03-5.38-15.72-.69-5.69-.45-11.41 0-17.1.56-6.66 1.35-13.32 2.39-19.95.11-.69-.9-.97-1-.31h0z"/><path d="M294.92 214.87c.7 1.53.52 3.23.35 4.86l-.87 5.52-2.32 9.61c-1.63 6.28-3.2 12.56-3.4 19.04-.21 6.42.62 13.05 2.74 19.12 1.77 5.07 4.89 9.96 9.92 12.21 4.75 2.12 10.62 1.11 13.67-3.33.38-.55-.52-1.07-.9-.52-3.37 4.86-10.06 4.76-14.57 1.63-4.86-3.36-7.08-9.16-8.4-14.67a54.52 54.52 0 0 1-1.14-18.7c.69-6.11 2.42-12.01 3.92-17.94.79-3.19 1.56-6.39 2.01-9.65.38-2.53.9-5.31-.21-7.7-.17-.62-1.08-.07-.8.52h0z"/></g><g class="R"><path d="M291.73 192.84c-.14 1.73-.14 3.95.38 6.38 1.42 6.66 5.62 10.86 7.53 12.53.07 1.98.1 5.03 0 8.71-.52 16.51-3.78 24.6-4.34 32.33-.52 7.53 1.25 18.53 12.28 32.76-1.49.1-3.74.1-6.14-.91-2.15-.9-5.51-2.98-8.57-9.95-2.77-6.39-5.82-18.08-2.42-31.47 1.49-5.83 3.81-10.41 4.99-20.2.31-2.6.45-4.78.52-6.28-.76-1.38-1.87-3.29-3.47-5.37-2.6-3.44-4.3-4.58-4.72-7.05-.31-1.73.11-3.5 1.01-5.24-.1-.45-.42-2.29.63-4.09.76-1.25 1.83-1.87 2.32-2.15h0z" class="W"/><path d="M296.21 219.31c.24.04-.49 6.07-1.91 18.15l-1.91 16.37c-.45 15.83 5.72 27 4.72 27.38-.73.28-4.24-5.34-6.28-12.14-2.81-9.41-1.7-17.56-1.01-22.24.59-4.13.83-2.99 3.96-17 1.56-7.05 2.18-10.55 2.43-10.52z" class="V"/></g><path fill-rule="evenodd" d="M129.85 318.47c.42 4.58.25 8.33-.07 11-.45 5.03-1.21 6.25-2.04 7.01-1.15 1.04-1.81.69-5.8 2.64-2.29 1.07-2.18 1.25-3.99 2.04-1.49.66-3.29 1.43-5.65 1.81-1.35.21-3.4.38-5.9 0a21.13 21.13 0 0 1-7.6 1.7c-4.78.14-8.7-1.49-10.61-2.29-3.12-1.32-4.2-2.4-7.7-3.37-1.95-.52-3.61-.73-4.72-.83-1.15-.21-2.81-.52-4.82-.73-2.12-.24-6.32-.69-11.7-.24-2.91.24-3.29.48-6.14.59-6.14.21-7.14-.94-7.45-1.32-1.01-1.35-.46-3.33-.11-4.58.87-3.19 2.78-5.1 6.38-8.57 7.05-6.8 7.08-6.7 7.85-7.7 2.32-3.09 3.29-5.8 4.82-10.13 1.52-4.27 1.52-5.73 3.74-13.64l1.95-6.52c0-1.42.21-3.58 1.07-6.04.7-2.01 1.63-4.65 3.85-6.04 2.12-1.28 3.99-.55 7.36-.34 7.56.45 13.94-2.4 16.17-3.37 4.44-1.98 5.37-3.57 9.64-4.34 2.12-.38 4.47-.76 6.87.35 3.43 1.63 4.75 5.28 5.9 8.57 1.28 3.58 1.35 6.7 1.45 9.75.07 2.01.07 3.09-.24 4.58-.66 3.12-1.94 3.96-2.39 6.39-.18.93-.07 1.45.97 6.03 2.22 9.61 2.74 10.9 4.09 11.94.77.55 1.74 1.04 2.88 2.39 1.04 1.22 1.63 2.43 1.94 3.26zm-57.34 9.58c-.38-2.46-.38-6.04 1.49-10.72.24-.73.55-2.05.38-3.68a8.66 8.66 0 0 0-.97-3.23c.14-2.01.21-4.99-.07-8.6-.24-2.81-.83-7.95-1.53-7.95-.59.04-.62 3.96-2.36 10.27-.65 2.4-1.31 4.38-1.83 5.8l-1.7 2.57-3.82 5.3c-2.15 2.33-4.06 3.99-5.38 5.07-3.15 2.6-4.92 3.5-5.27 5.65-.21 1.08-.04 2.68.97 3.54.62.56 1.39.59 2.88.73.83.07 1.01-.03 3.02-.21 1.25-.1 1.18-.07 3.16-.2l3.46-.28c4.65-.24 6.49 1.25 7.57.21.83-.84.27-2.36 0-4.27z" class="Q"/><g class="P"><path d="M72.68 275.14c-4.61 7.49-1.66 16.3-.35 24.32.39 2.36.59 4.72.49 7.08-.07 1.11-.21 2.22-.07 3.36.14 1.04.52 1.98.76 2.99.66 2.6-.27 5.24-.79 7.77-.46 2.18-.91 4.37-.98 6.59-.13 3.51.73 7.25 3.27 9.79 2.81 2.81 6.9 2.35 10.26 4.12 3.51 1.88 6.8 3.44 10.83 3.82 1.98.17 4.02.1 5.97-.24 2.08-.35 4.02-1.36 6.1-1.7 1.98-.31 3.89.38 5.86-.14 2.22-.56 4.38-1.81 6.46-2.74l6.48-2.95c1.43-.66 2.71-1.25 3.06-2.92.45-2.08.21-4.54.24-6.66.07-2.22.24-4.44.1-6.66-.06-1.42-.27-2.84-.86-4.13-.9-2.01-2.81-2.63-4.06-4.3-2.46-3.4-3.71-8.15-4.41-12.25-.21-1.28-.34-2.57-.45-3.85-.07-1.32.38-2.15.87-3.3.69-1.63 1.14-3.36 1.35-5.1.56-4.02.04-8.15-.9-12.07-.8-3.33-1.87-7.04-4.55-9.4-7-6.18-16.2 1.07-22.68 4.13-2.4 1.11-4.9 1.84-7.53 1.84-2.53 0-5.03-.49-7.57-.32-3.36.21-6.86 1.74-8.01 5.1-.21.63.8.91 1.01.28 1.38-4.06 6.21-4.51 9.85-4.3 3.89.24 7.42.48 11.1-.97 6.32-2.5 12.87-8.82 20.19-6.59 4.03 1.21 5.73 5.13 6.77 8.88 1.04 3.74 1.7 7.63 1.49 11.52-.11 1.9-.45 3.81-1.08 5.65-.27.83-.66 1.67-1.07 2.47-.45.9-.35 1.56-.28 2.6.24 3.74 1.04 7.42 2.39 10.93.59 1.52 1.25 3.05 2.05 4.51.87 1.52 2.05 2.15 3.26 3.33 2.78 2.63 2.05 7.32 1.95 10.75l-.21 6.56c-.04 1.46-.35 2.29-1.6 3.02-1.01.59-2.15 1.01-3.23 1.46l-5.86 2.67c-2.22 1-4.44 2.29-6.97 2.15-1.67-.07-3.02-.28-4.65.17-2.01.59-3.92 1.32-6 1.56-3.99.49-8.12-.13-11.73-1.87-1.52-.73-2.95-1.7-4.51-2.39-1.63-.73-3.33-.91-5.06-1.32-4.1-.97-6.28-4.86-6.63-8.81-.42-4.72 1.39-9.13 1.94-13.74.32-2.33-.9-4.27-1.07-6.56-.14-2.33.24-4.62 0-6.98-.87-8.7-5.21-18.38-.18-26.61.52-.62-.38-1.14-.76-.55h0z"/><path d="M73.34 275.03c6.07-.9 10.82 3.96 13.36 8.89 2.43 4.65 3.67 9.81 6.35 14.36 2.25 3.82 5.55 7.01 9.99 7.98 3.92.87 8.25.03 11.48-2.39 4.34-3.27 6.21-8.64 7.18-13.78.14-.66-.87-.94-1-.28-.91 4.69-2.5 9.72-6.32 12.84-3.85 3.16-9.54 3.82-14.01 1.56-9.27-4.61-9.34-17.21-15.23-24.63-2.92-3.68-7.36-6.25-12.15-5.55-.59.1-.31 1.11.35 1h0z"/><path d="M110.01 308.13c.03.07.07.11.1.18.04-.21.07-.42.07-.63l-.17.18c.21-.04.42-.07.62-.07-.59-.32-.86-1.63-1.07-2.22-.31-.91-.52-1.88-.69-2.81-.11-.73-.59-6.18.93-5.66.45.17.8 2.05.94 2.53.24.94.38 1.91.48 2.88.11.94.11 1.88.14 2.78l.04 1.25c0 .21 0 .41-.04.62.07.24-.03.42-.27.52.06-.66-.98-.66-1.05 0-.06.7.49 1.25 1.22 1.18 1.01-.1 1.14-1.21 1.14-2.01.07-1.87-.03-3.85-.31-5.69-.21-1.53-.52-3.71-1.63-4.89-2.05-2.22-2.74 2.11-2.77 3.29-.11 1.84.13 3.68.62 5.42.31 1.04.76 3.15 1.84 3.71.21.1.45.1.62-.07l.18-.17c.17-.18.2-.46.07-.63-.04-.07-.07-.1-.11-.17-.34-.63-1.25-.11-.9.48h0zm-8.33 18.81c.18 5.55.66 11.1 1.46 16.58.11.66 1.11.38 1.01-.27-.77-5.42-1.25-10.86-1.43-16.31-.03-.66-1.07-.66-1.04 0h0z"/><path d="M102.41 327.18c2.47-3.47 6.87-4.93 10.69-6.24a86.19 86.19 0 0 1 12.83-3.37c.66-.1.39-1.11-.27-1.01a86.43 86.43 0 0 0-14.68 4.03c-3.57 1.35-7.21 2.88-9.5 6.07-.35.56.55 1.08.93.52z"/><path d="M102.59 327.39c4.09 2.19 8.08 3.85 12.8 2.6 4.51-1.21 8.71-3.75 12.24-6.69.52-.42-.2-1.15-.72-.73-3.3 2.74-7.12 5.03-11.21 6.28-4.65 1.42-8.5-.11-12.59-2.33-.59-.34-1.11.56-.52.87h0z"/><path d="M118.75 326.56l.84 4.09c.13.66 1.14.38 1-.28l-.83-4.09c-.14-.66-1.15-.38-1.01.28zm2.33-.97l.38 3.85c.07.66 1.11.66 1.04 0l-.38-3.85c-.07-.66-1.11-.7-1.04 0zm-47.5-7.53c-.66 1.9 0 3.64 2.26 3.26.55-.11 1.04-.35 1.59-.52.32-.11.77-.28 1.11-.25 1.77.25.77.84 1.22 1.46.52.7.83 1.04 1.77 1.04 1.25-.03 3.71-1.21 4.54.32.31.62 0 2.28 0 3.05l.04 2.7.31 11.84c.03.66 1.07.66 1.04 0-.24-6.08-.35-12.18-.38-18.29 0-.17-.11-.38-.24-.45-1.15-.52-2.29-.76-3.54-.59-.87.1-1.25.45-2.08-.03-.8-.46-.53-.73-1.01-1.36-.52-.66-1.28-.8-2.08-.69-.56.07-1.01.31-1.53.48-.28.11-.62.28-.94.28-.76-.03-1.31-1.21-1.04-1.94.18-.66-.83-.94-1.04-.31h0zm-2.29-34.39c.04-3.99 1.32-11.2 7.01-9.82.66.18.94-.83.28-1-2.4-.59-4.75.45-6.25 2.36-1.87 2.36-2.08 5.55-2.08 8.46 0 .7 1.04.7 1.04 0z"/><path d="M70.36 281.49c-.77 1.59.31 3.22 1.28 4.54 1.01 1.39 2.53 2.64 4.34 2.26 1-.21 1.7-1.11 2.7-1.29 1.11-.24 2.19.73 3.3.7 2.36-.11 3.78-2.36 5.48-3.61.52-.38.03-1.28-.52-.9-1.35.97-2.39 2.5-3.96 3.15-1.63.7-2.6-.52-4.16-.41-1.56.1-2.46 1.7-4.13 1.28-1.38-.34-4.16-3.54-3.4-5.2.25-.59-.66-1.15-.93-.52h0z"/><path d="M70.63 280.86c-1.66 7.29-3.6 14.51-5.79 21.62-1.04 3.36-2.01 6.87-3.75 9.99-1.49 2.67-3.54 4.93-5.72 7.04-3.82 3.68-8.22 7.15-10.37 12.15-.87 2.01-1.11 4.09.86 5.51 2.19 1.6 5.42 1.53 7.95 1.29 3.88-.38 7.73-1.6 11.65-1.29 3.75.32 7.32 1.84 11.07.73.63-.21.38-1.18-.28-1-3.36 1-6.66-.28-10.02-.7-2.78-.34-5.55.11-8.26.56-3.26.55-6.94 1.35-10.16.21-2.02-.7-2.88-2.19-2.15-4.24.48-1.35 1.21-2.63 2.04-3.78 2.95-4.23 7.25-7.29 10.72-11.07 3.89-4.26 5.66-9.36 7.36-14.81 2.22-7.25 4.19-14.57 5.89-21.96.14-.63-.86-.91-1.04-.25h0zm.04 11.52c-.63 6.56-1.32 13.29-4.55 19.19-1.42 2.64-3.26 5.03-5.41 7.08-1.98 1.87-4.27 3.36-6.31 5.13-1.53 1.32-3.71 3.3-3.85 5.48-.14 1.98 1.52 3.54 3.29 4.06 2.85.87 6.28-.17 9.2-.34 3.4-.18 6.83-.07 10.23.27.66.07.66-.97 0-1.04-3.16-.34-6.35-.45-9.54-.31-1.35.07-2.74.17-4.09.31-1.6.18-3.3.56-4.9.25-1.97-.39-3.67-1.95-2.84-4.1.52-1.28 1.63-2.39 2.64-3.33 1.84-1.73 3.99-3.09 5.86-4.75 3.57-3.09 6.38-7.08 8.15-11.45 2.12-5.24 2.64-10.93 3.19-16.52.04-.59-1-.59-1.07.07h0zm8.95 29.6c.31 3.09.8 6.1 1.49 9.12.14.66 1.15.38 1.01-.28a74.39 74.39 0 0 1-1.46-8.88c-.07-.62-1.11-.62-1.04.04zm8.67-43.82c5.55 4.26 14.5 6.73 20.99 3.12.59-.31.07-1.22-.52-.9-6.17 3.4-14.71.9-19.91-3.13-.59-.41-1.11.49-.56.91z"/><path d="M71.4 282.6c-.21-2.5.27-5.42 2.01-7.32 1.73-1.88 4.44-1.7 6.8-1.7 4.34.07 8.71.52 12.84-1.01.62-.24.34-1.25-.28-1.01-5.31 1.98-10.76.42-16.2 1.11-4.76.63-6.56 5.63-6.21 9.93.03.66 1.07.69 1.04 0h0z"/><path d="M71.61 283.6c.34-2.39 1.11-4.65 2.42-6.69.7-1.08 1.43-2.08 2.64-2.54 1.18-.45 2.57-.27 3.82-.27 4.19.07 8.5.21 12.31-1.81.59-.31.07-1.21-.52-.9-2.5 1.32-5.24 1.67-8.01 1.7-2.36.04-4.89-.38-7.22.07-4.06.8-5.93 6.63-6.45 10.13-.1.66.9.97 1.01.31h0z"/><path d="M71.29 282.7c.25-3.16.63-7.22 3.75-8.95 1.7-.94 3.92-.73 5.79-.76h4.93c3.16-.07 6.31-.32 9.33-1.36 2.88-1 5.55-2.56 8.16-4.13.58-.34.06-1.24-.53-.9-3.15 1.88-6.38 3.78-9.99 4.62-3.99.93-8.11.69-12.17.73-2.99.03-5.87.03-7.88 2.56-1.84 2.33-2.12 5.35-2.36 8.19-.1.66.94.66.97 0h0z"/></g><g class="R"><path d="M95.02 271.98c1.49 1.39-.45 4.03.9 6.38 1.77 3.06 6.87 3.44 10.76 3.27-2.05.55-5.17 1.83-6.9 4.71-3.06 5.07-.94 13.54 6.38 19.5l2.01 15.65-5.83 5.1.18 17.49c-1.74.62-4.44 1.32-7.64.9-3.19-.38-3.92-1.49-10.02-3.99-5.66-2.32-6.49-1.94-8.36-3.64-3.47-3.09-4.13-7.43-4.2-7.84-.45-3.2.83-3.61 1.46-10.03.31-3.33.24-5.97.17-6.91-.14-3.08-.52-4.23-.9-7.63-.49-4.06-.25-4.89-.56-8.74-.76-9.92-2.81-11.73-1.45-16.76.55-2.05 1.21-4.61 3.46-6 2.82-1.77 4.86.31 10.76-.18 5.65-.48 8.26-2.77 9.78-1.28h0z" opacity=".051"/><path d="M75.73 274.34c-3.85.73-6.52 6.77-4.71 10.37.59 1.18 1.94 2.71 3.64 2.92 1.39.17 1.73-.73 3.81-.9 2.12-.18 2.5.66 4.2.34 1.25-.2 3.09-1.07 3.65-2.53.97-2.6-2.57-5.76-3.82-6.9-1.98-1.77-4.2-3.79-6.77-3.3z" class="V"/><path d="M73.37 297.48c.84-.14 2.75 11.28 6.74 22.42a102.24 102.24 0 0 0 12.21 23.66c-2.99-1.49-5.52-2.4-7.29-2.92-2.32-.69-4.02-.97-6.38-2.18a21.45 21.45 0 0 1-3.82-2.54c-.76-.97-1.84-2.56-2.18-4.71-.14-.8-.11-1.18.17-4.72.38-5.14.38-5.31.55-6.18.53-2.84.98-2.81 1.08-4.72.14-1.8-.24-2.15-.73-5.65-.41-3.06-.48-5.38-.55-6.91-.07-3.47-.14-5.51.2-5.55h0z" opacity=".141"/></g><defs /></svg>