<svg xmlns="http://www.w3.org/2000/svg" width="850" height="579"  xmlns:v="https://vecta.io/nano"><style><![CDATA[.P{fill:#161616}.Q{fill:#fff}.R{fill:#6d6c6c}.S{fill:#e8e8e8}.T{fill:#e5261f}.U{opacity:.122}.V{opacity:.11}.W{opacity:.102}.X{stroke-width:1.101}]]></style><g class="S"><path d="M70.09 426.05c37.41-18.55 80.43-11.17 119.77-4.18 20.96 3.74 41.87 7.21 63.1 8.97 22.73 1.92 45.56 2.31 68.33 1.21 44.07-2.2 87.37-10.9 130.83-18.11 43.47-7.15 87.81-12.77 131.82-7.54 42.86 5.12 84.67 23.23 128.35 19.59 4.9-.38 9.74-1.1 14.58-2.09 1.05-.22.61-1.81-.44-1.59-43.95 8.91-87.14-8.7-130-15.8-42.91-7.1-86.54-3.19-129.23 3.36-44.35 6.77-88.3 16.34-133.09 19.7-45.17 3.36-90.11.17-134.68-7.7-38.12-6.77-79.27-15.69-117.13-2.76a114.15 114.15 0 0 0-13.03 5.45c-.94.55-.11 1.98.82 1.49zm517.54 72.48c-2.04-4.29-13.7-32.03-3.08-31.37.6.06.88-.55.77-1.04-1.38-8.59-1.21-17.4.55-25.98.82-3.96 1.98-7.82 3.46-11.56 1.32-3.36 4.46-12.88 9.52-8.42 3.08 2.75 2.75 8.7 3.08 12.44a176.83 176.83 0 0 1 .5 13.26c-.06 8.92-.83 17.84-2.31 26.64-.83 4.68-1.82 9.36-3.03 13.93-.66 2.47-1.37 4.89-2.09 7.32-.72 2.2-1.27 5.55-3.8 6.38-.99.33-.55 1.93.44 1.6 3.53-1.21 4.3-5.4 5.23-8.53 1.6-5.18 2.92-10.46 4.02-15.8 2.09-10.57 3.19-21.35 3.19-32.14a170.66 170.66 0 0 0-.83-16.79c-.38-3.52-.66-7.81-3.85-10.07-7.65-5.39-11.72 9.41-13.2 14.2-3.47 10.95-4.24 22.51-2.42 33.85a14.02 14.02 0 0 0 .77-1.05c-6.61-.38-6.44 7.49-5.61 11.89 1.43 7.59 3.9 14.97 7.26 21.96.49 1.1 1.87.22 1.43-.72h0z"/><path d="M604.24 453.24c-.16-3.74.22-7.49 1.27-11.06.49-1.77 1.15-3.47 1.92-5.18.39-.77.77-1.54 1.21-2.25.28-.39.61-.72.88-1.11 1.65-1.65 3.03-1.37 4.08.89-.17 1.04 1.26 1.48 1.59.44 1.1-3.64 3.25-8.15 7.65-8.37 4.67-.22 5.94 4.51 6.1 8.26.39 7.21-.88 14.58-2.75 21.52-3.85 14.14-10.94 27.18-17.99 40.01-.49.93.94 1.76 1.43.82 8.75-15.96 17.77-32.52 20.31-50.74.55-4.07.93-8.26.6-12.39-.22-2.86-.99-6.05-3.41-7.87-2.31-1.7-5.45-1.54-7.87-.22-3.13 1.77-4.73 5.18-5.72 8.48.55.17 1.05.28 1.6.44.27-1.87-.77-3.47-2.7-3.91-2.09-.49-3.91.88-5.06 2.53-3.91 5.45-5.12 13.16-4.84 19.65.05 1.1 1.7 1.1 1.7.06h0zm-38.84 71.99c23.66-12.94 51.72-12.11 77.63-8.37 28.22 4.07 56.61 11.56 85.27 7.98 15.9-1.98 32.02-7.43 48.09-3.63 1.04.22 1.48-1.32.44-1.6-13.92-3.3-27.89.17-41.65 2.54-14.91 2.53-29.87 2.31-44.89.49-28.17-3.36-55.95-11.17-84.56-9.69-14.31.72-28.5 3.91-41.15 10.79-.94.55-.11 1.98.82 1.49zm72.46-37.92c21.07 1.92 41.53-4.24 61.89-8.86 10.73-2.43 21.62-4.52 32.63-4.63 11.49-.16 22.77 2.15 34.05 4.08 11.99 2.09 24.1 3.63 36.2 1.37 1.05-.22.61-1.76-.44-1.59-22.5 4.18-44.51-5.18-66.9-5.56-20.96-.33-41.15 6.38-61.45 10.62-11.83 2.48-23.82 4.02-35.93 2.92-1.1-.06-1.1 1.59-.05 1.65h0zm-489.1-73.15c-1.92-2.09-3.63-4.46-4.89-7.04-.61-1.27-1.16-2.54-1.54-3.91-.33-1.05-.66-2.15-.44-3.19.22-1.21 1.54-3.91 3.46-2.15.61.55 1.6 0 1.38-.83-3.03-10.89-3.74-21.96-4.51-33.18-.77-11.18-1.6-22.62.6-33.69.55-2.64.94-6.49 3.91-7.43 3.68-1.21 6.27 2.7 7.32 5.62 1.87 5.06 3.02 10.56 4.23 15.85 2.59 11.23 4.35 22.62 5.39 34.07 1.1 12.6 1.27 25.26.55 37.86-.05 1.05 1.6 1.05 1.65 0 1.49-25.65-.82-51.51-6.98-76.45l-2.42-9.13c-.72-2.42-1.49-4.9-3.08-6.83-2.15-2.53-6.22-3.9-9.03-1.59-1.65 1.37-2.2 3.69-2.64 5.67-.66 2.91-1.15 5.83-1.43 8.8-.66 6.33-.55 12.72-.22 19.1.77 14.04 1.38 28.29 5.12 41.88l1.37-.82c-3.02-2.81-6.49.77-6.32 4.07.22 5.34 3.96 10.79 7.42 14.53.66.77 1.82-.38 1.1-1.21h0z"/><path d="M164.88 366.61c-2.25-5.23-.99-10.84.39-16.13 1.21-4.79 2.42-9.46 2.42-14.42.05-5.61-.33-11.06 1.1-16.56.66-2.54 1.6-4.96 2.75-7.32.5-1 1.1-2.59 1.93-3.31 2.47-2.2 3.74 1.87 4.29 3.42 3.74 10.29 4.4 21.41 4.56 32.25.22 11.39-.11 22.78-.93 34.12-.94 13.05-2.59 26.03-4.84 38.97-.17 1.04 1.43 1.48 1.59.44 4.57-25.87 6.66-52.29 5.67-78.49-.22-6.05-.72-12.16-1.93-18.1a66.84 66.84 0 0 0-2.25-8.64c-.66-1.93-1.32-4.57-3.08-5.84-3.85-2.8-6.44 4.07-7.49 6.55-2.14 5.01-3.19 10.35-3.19 15.8 0 3.63.28 7.26-.11 10.9-.38 3.52-1.43 6.87-2.25 10.29-1.43 5.67-2.48 11.39-.11 16.95.49.88 1.92.05 1.48-.88h0zm-74.6-73.37c31.36-23.39 63.38-46.94 99.75-62.14 17.93-7.48 36.91-12.71 56.33-14.25 21.46-1.71 43.03 1.16 63.82 6.55 42.47 11.12 81.04 32.58 121.2 49.64 38.9 16.57 79.67 27.41 121.26 34.51 41.64 7.1 83.79 10.79 125.87 14.04l15.68 1.21c1.05.05 1.05-1.6 0-1.65-43.07-3.25-86.21-6.55-128.9-13.21-42.2-6.55-84.06-16.4-123.73-32.42-40.27-16.24-78.34-37.87-119.99-50.58-20.25-6.16-41.26-10.24-62.5-10.24-19.53 0-38.84 3.75-57.22 10.13-36.91 12.88-69.59 35.39-100.84 58.4l-11.55 8.58c-.88.66-.06 2.09.82 1.43h0zm474.68 13.32c33.73.72 66.3-9.08 98.65-17.34 16.61-4.23 33.33-8.14 50.39-9.96 17-1.87 34.17-1.43 51 1.76 19.04 3.58 37.36 10.52 54.03 20.31.93.55 1.76-.88.82-1.43-29.1-17.06-62.99-25.21-96.66-23.06-34.33 2.15-67.07 13.43-100.41 21.03-18.98 4.34-38.34 7.48-57.87 7.1-.99-.06-.99 1.59.05 1.59h0zm175.06 114.37c23.55-3.58 47.59-3.69 71.19-.22 1.05.17 1.49-1.43.44-1.6-23.93-3.46-48.14-3.35-72.07.22-1.04.17-.6 1.71.44 1.6zM15.57 370.46c17.77-21.57 37.03-41.94 57.6-60.82.77-.71-.38-1.87-1.15-1.15-20.63 18.88-39.89 39.19-57.61 60.82-.66.82.5 1.98 1.16 1.15zM654.86 70.5c-7.43 2.59-13.26-3.63-16.89-9.3-3.58-5.5-6.16-11.5-6.16-18.22.05-12.6 8.47-23.66 20.13-28.06 10.78-4.02 23.93-1.88 32.3 6.27 8.63 8.42 10.83 21.52 5.39 32.2-1.54 3.02-3.52 5.89-5.5 8.64-1.16 1.59-2.26 3.36-3.85 4.62-1.88 1.43-3.97 1.71-6.22 1.98l-23.22 2.64c-1.04.11-1.04 1.77 0 1.66 8.36-.94 16.89-1.55 25.2-2.87 6.77-1.1 10.4-7.92 13.59-13.37 6.49-11.06 5.99-24.55-2.37-34.56-8.31-9.97-22.94-13.21-35.04-9.09-12.16 4.19-21.24 15.14-22.06 28.13-.5 8.2 2.75 15.74 7.31 22.34 3.96 5.73 10.29 11.12 17.72 8.53 1.1-.27.66-1.87-.33-1.54h0zM152.28 91.2c-2.31-5.67 3.75-10.29 8.86-10.68 5.45-.38 10.68 1.93 15.96 2.92 9.96 1.92 20.19 1.15 29.82-2.04 9.24-3.08 18.26-8.14 28.22-8.36 10.23-.17 19.36 5.88 29.71 4.62 5-.61 9.85-2.2 14.91-2.59 4.67-.38 11.72.5 13.37 5.84 1.65 5.33-5.84 9.79-9.8 11.72-4.4 2.15-9.29 3.3-14.14 3.36-5.17 0-9.79-1.54-14.63-3.14-4.46-1.49-8.86-2.37-13.53-2.26-8.92.17-17.5 3.03-26.03 5.4-5.28 1.48-10.67 2.86-16.17 3.3-5.67.44-10.84-.55-16.29-1.87-5.39-1.32-10.12-.83-15.57-.06-3.24.44-6.65.72-9.68-.88-2.69-1.43-4.9-3.96-4.23-7.21.22-1.04-1.38-1.48-1.6-.44-.83 3.8 1.37 6.99 4.68 8.86 4.45 2.53 9.4 1.49 14.25.77 3.35-.49 6.49-.6 9.84.06 2.97.6 5.89 1.59 8.92 2.09 4.73.77 9.51.49 14.24-.22 10.79-1.76 20.97-6.11 31.75-7.65 5.78-.83 11.5-.61 17.11 1.1 5.23 1.6 10.18 3.63 15.68 3.8 8.86.33 20.46-3.19 25.64-10.9 2.31-3.47 1.59-7.49-1.54-10.13-3.47-3.02-8.31-3.52-12.71-3.08-5.67.55-11.12 2.48-16.78 2.75-6.33.33-12.16-2.09-18.21-3.63-11.28-2.86-21.18.83-31.64 4.9-6.38 2.48-12.76 4.51-19.64 5.12-7.48.66-14.63-.44-21.89-2.31-5.18-1.33-11.12-2.7-15.96.33-3.69 2.31-6.22 6.66-4.51 10.95.38.93 1.98.55 1.59-.44h0zm460 90.87c7.92-7.71 19.42-7.6 29.76-6.61 12.1 1.16 23.82 2.7 36.03 1.38 6.28-.72 12.38-2.04 18.49-3.64 6.38-1.65 12.93-3.41 19.64-3.19 6.77.22 13.09 2.92 19.75 3.86 6.05.82 12.16.11 18.16-1.05 5.39-.99 10.72-2.64 16.28-2.37 4.9.22 10.89 2.7 10.45 8.64-.44 5.56-6.71 9.42-11.71 10.24-6.39.99-12.88-1.32-19.2-1.82-11.89-.93-20.86 7.05-32.13 9.09-11.89 2.14-23.06-4.41-34.33-6.83-13.87-2.92-27.02 3.14-40.55 5.34-6.77 1.1-14.64 2.59-21.46 1.21-3.35-.71-6.54-2.37-8.19-5.5-1.49-2.92-1.55-6.44.93-8.81.77-.71-.38-1.93-1.15-1.16-3.2 3.03-3.03 7.82-.83 11.45 2.64 4.35 7.7 5.84 12.49 6.11 14.08.83 27.84-3.96 41.37-6.82 7.54-1.6 14.47-1.05 21.84 1.04 6.16 1.76 12.11 4.19 18.43 5.34 6 1.1 11.78.77 17.5-1.32 5.99-2.15 11.61-5.5 17.88-6.93 11.88-2.7 25.25 6.05 35.92-2.32 3.58-2.8 6.06-7.32 4.35-11.83-1.49-3.91-5.28-5.83-9.19-6.38-5.06-.77-9.96.33-14.91 1.37-7.86 1.65-15.9 2.97-23.93 1.43-6.93-1.32-13.48-3.79-20.69-3.46-6.82.33-13.42 2.31-20.02 3.96-8.36 2.09-16.89 3.3-25.53 3.47-7.48.11-14.85-.83-22.28-1.65-11.72-1.33-25.09-2.15-34.22 6.71-.88.61.27 1.76 1.05 1.05h0z"/><path d="M253.95 556.27c-2.47-2.26-4.62-4.79-6.38-7.65-.82-1.32-1.59-2.75-2.2-4.18-.33-.83-.88-2.04-.77-2.98.17-1.59 1.71-4.01 3.58-2.53.71.61 1.76-.11 1.32-.99-2.09-4.07-3.36-8.75-3.14-13.37.06-.88.17-1.71.5-2.53.27-.72.66-1.38 1.15-1.99.99-.99 1.87-.99 2.64.11 2.04 1.49 2.86 4.35 3.8 6.61 3.36 8.03 5.83 16.4 7.54 24.93.55-.16 1.04-.27 1.59-.44-1.48-4.13-2.64-8.36-3.35-12.71-.5-3.09-1.38-13.32 4.95-9.91 4.07 2.2 4.84 8.75 4.84 12.88.05 4.57-.83 9.03-1.71 13.48-.22 1.05 1.38 1.49 1.6.44 1.1-5.67 2.26-11.55 1.54-17.39-.55-4.24-2.42-11.01-7.54-11.67-4.07-.49-5.72 3.64-5.83 6.99-.22 6.11 1.87 12.72 3.91 18.39.38.99 1.81.6 1.59-.44a129.97 129.97 0 0 0-5.22-18.83c-.99-2.75-2.04-5.45-3.25-8.14-.88-2.04-1.76-4.96-3.91-6.11-3.41-1.87-5.83 1.92-6.38 4.79-.99 5.22.83 11.22 3.14 15.85l1.32-.99c-3.36-2.81-6.77 1.21-6.27 4.73.82 5.61 5.77 11.17 9.73 14.92.83.6 1.98-.56 1.21-1.27h0zM187.72 142c12.21-2.48 24.64-4.96 37.19-3.85 12.04 1.04 23.43 5.33 35.1 8.31 22.77 5.72 46.38 7.76 69.81 7.7 13.43-.05 26.79-.71 40.16-1.81 1.05-.11 1.05-1.77 0-1.66-23.87 1.88-47.97 2.65-71.9.44-12.16-1.1-24.26-3.02-36.15-5.88-11.33-2.76-22.33-6.88-33.94-8.37-13.7-1.76-27.35.88-40.71 3.58-1.05.16-.61 1.76.44 1.54h0zm128.73.11c40.38-2.09 79.61-15.85 120.32-13.32 1.05.05 1.05-1.6 0-1.65-40.65-2.53-79.94 11.28-120.32 13.32-1.1.05-1.1 1.7 0 1.65zM648.7 416.86c-1.6-4.02-2.42-8.26-2.37-12.61 0-2.2.28-4.4.77-6.55.44-1.98 2.64-7.1 5.17-3.85.44.55 1.49.11 1.43-.6-.55-4.74-.44-9.47.44-14.15.39-2.03.94-4.07 1.65-6.05.44-1.21.88-2.53 1.49-3.69.88-1.65 1.87-2.09 3.52-2.92 2.97-1.37 3.03-4.95 3.74-7.81.99-3.91 2.15-7.87 4.4-11.23 1.32-1.98 3.8-5.17 6.49-4.46 2.15.55 2.92 2.86 3.3 4.85.88 4.34.28 9.19.06 13.59a190.79 190.79 0 0 1-3.74 29c-2.2 10.46-5.34 20.7-9.24 30.66-.39.99 1.21 1.43 1.59.44 8.14-20.58 12.71-42.54 13.26-64.72.11-4.3.66-18.61-7.81-15.3-3.58 1.43-6 5.77-7.43 9.13-.82 1.93-1.43 3.91-1.98 5.89-.83 3.03-.83 6.77-3.74 8.53-1.71 1.05-2.81 1.49-3.8 3.47-1.15 2.26-1.98 4.84-2.64 7.32-1.48 5.67-1.87 11.56-1.15 17.39.49-.22.93-.38 1.43-.6-1.1-1.38-2.92-1.71-4.51-.99-2.15.99-2.92 3.46-3.42 5.55-1.54 6.66-.88 13.65 1.6 20.04.28 1.1 1.87.66 1.49-.33h0z"/><path d="M633.07 414c-2.36-3.69-4.68-7.54-5.89-11.84-.55-1.98-.88-4.01-.77-6.05.17-2.26 1.1-4.02 1.87-6.11 1.22-3.36-.71-6.55-1.48-9.8-.39-1.54-2.64-15.24 2.2-13.37.61.22 1.16-.44.99-.99-1.6-7.1-3.25-14.64-.99-21.74.99-3.14 5.01-11.29 9.13-7.54 2.53 2.31 3.96 6.6 5.12 9.68 5.06 13.93 7.26 29.39 8.25 44.14.06 1.05 1.71 1.05 1.65 0-.66-9.63-1.98-19.2-4.01-28.62-1.76-8.25-3.69-17.44-8.48-24.6-1.48-2.2-3.63-4.07-6.43-2.91-2.97 1.21-5.01 4.84-6.17 7.59-3.24 7.87-1.43 16.46.33 24.49l1-.99c-2.92-1.15-4.68 2.15-5.12 4.63-.88 5.5 1.15 10.62 2.42 15.85.77 3.19-1.16 5.45-1.71 8.42-.44 2.09-.33 4.18.06 6.27.93 5.23 3.79 10.02 6.6 14.48.55.71 1.98-.11 1.43-.99h0zm44.18-27.69c1.48-5.12 3.03-10.24 6.16-14.58 3.03-4.19 6.55-8.15 9.9-12.06 1.76-1.98 3.52-3.96 5.45-5.78.99-.93 1.98-1.92 3.25-2.58 2.47-1.32 4.12.38 4.78 2.64 1.49 5.17.28 10.79-1.04 15.91-5.06 19.37-13.87 37.7-25.64 53.93-.61.88.83 1.71 1.43.83 10.84-14.92 19.09-31.59 24.37-49.26 1.27-4.24 2.53-8.59 2.97-12.99.39-3.58.5-8.53-1.65-11.61-4.51-6.39-13.86 6.33-16.34 9.24-3.19 3.75-6.6 7.49-9.4 11.56-2.92 4.29-4.41 9.3-5.84 14.26-.33 1.04 1.27 1.48 1.6.49h0zm-3.19-42.71a289.21 289.21 0 0 1-16.34 75.02c-.39.99 1.21 1.43 1.59.44 8.81-24.33 14.31-49.7 16.4-75.46.05-1.04-1.6-1.04-1.65 0h0z"/><path d="M659.09 365.78a137.6 137.6 0 0 1 4.63 34.13c0 1.04 1.65 1.04 1.65 0-.11-11.67-1.65-23.28-4.68-34.57-.28-1.04-1.87-.6-1.6.44zm7.49-12.49c1.92 7.59 2.86 15.35 2.91 23.17 0 1.05 1.65 1.05 1.65 0-.05-7.98-1.04-15.91-2.97-23.61-.27-1.05-1.87-.61-1.59.44h0zm-4.68 59.39a66.51 66.51 0 0 0 11.33-11.29c.66-.82-.49-1.98-1.15-1.15-3.36 4.23-7.1 7.98-11.34 11.28-.82.66.33 1.82 1.16 1.16zm-28.66-77c4.78 19.98 8.52 40.17 11.11 60.54.11 1.04 1.76 1.04 1.65 0-2.64-20.53-6.38-40.89-11.17-60.98-.22-1.05-1.81-.61-1.59.44z"/><path d="M626.69 354.61c4.84 2.92 8.97 6.66 12.27 11.28.6.88 2.03.06 1.43-.82-3.47-4.85-7.76-8.81-12.82-11.84-.99-.6-1.82.83-.88 1.38zm21.07 11.5c-1.98 4.96-3.58 10.02-4.79 15.25-.22 1.04 1.32 1.48 1.6.44a106.94 106.94 0 0 1 4.79-15.25c.38-.99-1.21-1.43-1.6-.44zm-21.18 24.99c6.05 1.71 11.94 3.69 17.77 6 .99.38 1.43-1.21.44-1.6-5.83-2.31-11.77-4.29-17.77-6-1.05-.27-1.49 1.33-.44 1.6zm77.52-39.3c-7.32 25.49-27.57 45.02-34.06 70.84-.27 1.04 1.32 1.48 1.6.44 6.49-25.82 26.74-45.35 34.05-70.84.33-1.04-1.26-1.48-1.59-.44z"/><path d="M689.35 362.54l-4.18 26.74c-.16 1.05 1.43 1.49 1.6.44l4.18-26.74c.16-1.05-1.43-1.49-1.6-.44zm1.65 19.59c4.9-3.52 10.02-6.72 15.35-9.63.94-.5.11-1.93-.82-1.43-5.34 2.86-10.46 6.05-15.35 9.63-.88.66-.06 2.09.82 1.43zm-15.79 31.92c5.01-5.89 12.16-8.86 19.2-11.67.99-.38.55-1.98-.44-1.59-7.26 2.91-14.69 6-19.91 12.11-.72.82.44 1.98 1.15 1.15zm-79.93 5.23c2.03 12.88.33 25.81-1.6 38.64l-5.61 37.86c-.17 1.05 1.43 1.49 1.59.44l5.95-39.95c1.81-12.39 3.24-24.94 1.26-37.38-.22-1.1-1.76-.66-1.59.39h0z"/><path d="M584.55 442.78c1.87 7.71 4.4 15.19 7.59 22.46.44.99 1.87.11 1.43-.83-3.08-7.15-5.56-14.47-7.43-22.07-.27-.99-1.87-.55-1.59.44h0zm16.56-15.63c-.77 5.01-2.59 9.58-5.45 13.7-.6.89.83 1.71 1.43.83 2.92-4.24 4.84-9.03 5.61-14.14.11-1-1.48-1.44-1.59-.39h0zm22.72.83c-6.77 23.5-15.41 46.39-25.75 68.57-.44.94.99 1.82 1.43.83 10.4-22.29 19.09-45.35 25.91-68.96.28-.99-1.32-1.44-1.59-.44h0z"/><path d="M619.48 426.98l-.6 15.97c-.06 1.04 1.59 1.04 1.65 0l.6-15.97c.06-1.04-1.59-1.04-1.65 0zm-12.21 7.16c-2.97 12.44 0 25.43 1.76 37.87.16 1.04 1.76.6 1.59-.44-1.7-12.11-4.62-24.83-1.76-36.99.28-1.05-1.32-1.49-1.59-.44zm-2.42 50.69c5.33-1.32 10.29-3.58 14.74-6.77.88-.61.06-2.04-.82-1.43a42.79 42.79 0 0 1-14.36 6.6c-1.05.22-.61 1.82.44 1.6zM146.29 323.46c5.55 30.05 9.02 60.49 10.29 90.98.05 1.04 1.7 1.04 1.65 0-1.27-30.71-4.73-61.26-10.35-91.42-.22-1.05-1.81-.61-1.59.44h0z"/><path d="M140.29 358.35c5.83 7.32 10.51 15.41 13.92 24.11.39.99 1.98.55 1.6-.44-3.53-8.97-8.31-17.28-14.31-24.82-.66-.83-1.87.33-1.21 1.15zm16.51-20.2c-1.98 8.2-3.47 16.52-4.52 24.88-.11 1.05 1.55 1.05 1.66 0 .99-8.2 2.47-16.35 4.45-24.44.22-1.04-1.37-1.48-1.59-.44h0zm17.27-29.55c.99 35.94-.77 71.88-5.28 107.54-.11 1.05 1.54 1.05 1.65 0 4.51-35.66 6.27-71.6 5.28-107.54-.05-1.05-1.7-1.05-1.65 0z"/><path d="M164.83 346.41c3.96 9.41 6.71 19.26 8.2 29.39.16 1.05 1.76.61 1.59-.44a120.22 120.22 0 0 0-8.2-29.39c-.44-.94-2.03-.55-1.59.44zm6.33 62.25c2.36-4.63 5.5-8.64 9.35-12.11.77-.72-.39-1.87-1.16-1.16a42.79 42.79 0 0 0-9.63 12.44c-.49.94.94 1.76 1.44.83zm-2.37-93.95c1.43 4.57 3.03 9.02 4.79 13.48.38.99 1.98.55 1.59-.44a144.7 144.7 0 0 1-4.78-13.48c-.33-1.05-1.93-.61-1.6.44zM50.61 531.56c36.1-3.53 72.63-2.42 108.39 3.41 10.06 1.65 20.13 3.69 30.09 6.05 1.05.22 1.49-1.32.44-1.59a422.63 422.63 0 0 0-107.78-11.45c-10.39.27-20.79.88-31.14 1.93-1.04.05-1.1 1.7 0 1.65zm323.5 15.79c.06-2.36 5.94-2.8 7.37-2.64 2.42.22 4.73 1.49 6.05 3.52 4.35 6.72-4.45 9.42-9.51 7.76-.99-.33-1.43 1.27-.44 1.6 3.52 1.21 8.19 1.05 11.05-1.76 2.43-2.37 1.93-6.17.11-8.75-2.03-2.86-5.39-4.3-8.85-4.07-2.42.16-7.38 1.26-7.43 4.34 0 1.05 1.65 1.05 1.65 0h0z"/><path d="M373.83 546.47c3.53-4.95 10.9-7.21 16.4-8.97 6.11-1.92 12.43-3.08 18.87-3.41 1.05-.06 1.05-1.71 0-1.65-7.21.38-14.36 1.7-21.18 4.07-5.5 1.93-11.99 4.18-15.52 9.14-.6.88.83 1.7 1.43.82h0z"/><path d="M409.93 534.31c4.23.49 7.64 3.8 8.47 7.92.22 1.05 1.81.61 1.59-.44-.99-4.95-5.11-8.53-10.06-9.13-1.1-.11-1.05 1.54 0 1.65h0zm2.03-1.71c6.16-3.85 12.16 1.1 13.43 7.32.22 1.05 1.81.61 1.59-.44-1.54-7.32-8.8-12.71-15.84-8.31-.88.61-.06 2.04.82 1.43z"/><path d="M418.78 543.39c3.41 1.1 7.05-.83 8.26-4.13.38-.99-1.21-1.43-1.6-.44-.88 2.48-3.74 3.8-6.22 2.97-1.04-.33-1.48 1.27-.44 1.6h0zm-45.17 2.26c-2.86 1.65-2.69 5.56-1.59 8.25 1.21 3.08 4.18 5.12 7.54 4.3 1.04-.28.6-1.82-.44-1.6-2.59.6-4.68-1.05-5.56-3.36-.72-1.87-1.21-4.95.94-6.16.88-.55.05-1.98-.89-1.43h0z"/><path d="M374.39 551.92c-1.66-4.46 6.38-7.15 9.18-4.62 1.76 1.59 1.32 4.13-.55 5.45-.82.6-1.87 1.04-2.91.82-3.69-.71-.66-4.95 1.15-2.53.66.83 2.09 0 1.43-.82-2.14-2.81-6.87-1.38-5.99 2.42.93 4.18 6.87 2.69 8.69.11 2.53-3.64-.22-8.04-4.4-8.09-3.96-.06-9.96 2.8-8.15 7.65.33 1.04 1.93.6 1.55-.39h0zm13.14 4.29c11.56-2.47 22.56-6.71 32.79-12.6.94-.55.11-1.98-.82-1.43-10.12 5.83-21.02 9.96-32.41 12.44-1.04.22-.6 1.81.44 1.59zm31.03-26.19c9.36-7.87 18.71-17.23 30.7-20.81.99-.33.61-1.87-.44-1.59-12.27 3.68-21.84 13.2-31.41 21.24-.83.66.38 1.82 1.15 1.16h0z"/><path d="M449.15 509.82c6.16 2.09 10.62 7.59 11.28 14.09.11 1.04 1.76 1.04 1.65 0-.71-7.27-5.56-13.38-12.49-15.69-.99-.33-1.43 1.27-.44 1.6z"/><path d="M426.87 540.86c11.28-5.01 22.5-10.24 33.62-15.69.93-.44.11-1.87-.83-1.43-11.11 5.45-22.34 10.62-33.61 15.69-.99.44-.11 1.87.82 1.43zm-15.4-7.49l1.1-.77c.38-.27.55-.71.27-1.15-.22-.39-.77-.55-1.15-.28l-1.1.77c-.39.28-.55.72-.28 1.16.22.33.77.55 1.16.27zm-163.24-13.65c1.05 12.33 3.8 24.39 8.26 35.89.38.99 1.98.55 1.59-.44-4.4-11.39-7.21-23.28-8.2-35.45-.05-1.04-1.7-1.04-1.65 0h0z"/><path d="M245.37 544.44c3.41 1.76 6.44 4.07 9.13 6.88.72.77 1.88-.39 1.16-1.16-2.75-2.92-5.89-5.28-9.46-7.1-.94-.55-1.76.88-.83 1.38h0zm12.05-8.26c-2.36 3.41-3.41 7.38-3.03 11.5.11 1.05 1.77 1.05 1.66 0-.33-3.85.6-7.43 2.8-10.67.55-.83-.88-1.66-1.43-.83zm4.9-4.57c1.59 6.83 2.09 13.76 1.37 20.75-.11 1.05 1.54 1.05 1.65 0 .66-7.1.17-14.2-1.48-21.19-.17-.99-1.76-.55-1.54.44z"/><path d="M259.9 534.03l3.96 7.65c.49.94 1.92.11 1.43-.82l-3.96-7.65c-.5-.94-1.93-.11-1.43.82z"/></g><path d="M292.47 189.17c-5.15 0-9.3-4.16-9.3-9.31a9.29 9.29 0 0 1 9.3-9.3c5.14 0 9.29 4.16 9.29 9.3a9.29 9.29 0 0 1-9.29 9.31z" class="T"/><path d="M592.08 387.36c-3.71 0-6.71-3-6.71-6.72 0-3.71 3-6.71 6.71-6.71 3.72 0 6.72 3 6.72 6.71a6.71 6.71 0 0 1-6.72 6.72zm9.8-12.99a2.755 2.755 0 1 1 0-5.51 2.755 2.755 0 1 1 0 5.51zm-444.92-167.1a4.73 4.73 0 1 1 0-9.46 4.73 4.73 0 1 1 0 9.46z" class="P"/><path d="M174.79 217.51c-2.86 0-5.18-2.31-5.18-5.17a5.18 5.18 0 0 1 5.18-5.18c2.86 0 5.17 2.32 5.17 5.18s-2.31 5.17-5.17 5.17zM337.8 332.59c-1.58 0-2.86-1.27-2.86-2.86a2.86 2.86 0 1 1 5.72 0c0 1.59-1.28 2.86-2.86 2.86zM560.89 62.63c-2.74 0-4.95-2.21-4.95-4.95s2.21-4.95 4.95-4.95 4.95 2.21 4.95 4.95-2.21 4.95-4.95 4.95zM582.9 79.7c-2.07 0-3.74-1.68-3.74-3.75s1.67-3.74 3.74-3.74 3.74 1.67 3.74 3.74-1.67 3.75-3.74 3.75zm-3.85 280.03c-2.13 0-3.86-1.72-3.86-3.85s1.73-3.86 3.86-3.86a3.86 3.86 0 0 1 3.85 3.86c0 2.13-1.73 3.85-3.85 3.85zM321.29 62.63a2.47 2.47 0 0 1-2.47-2.47 2.48 2.48 0 0 1 2.47-2.48 2.48 2.48 0 0 1 2.48 2.48 2.47 2.47 0 0 1-2.48 2.47zm-61.01 206.73c-.66-.88 0-2.43.83-2.92 1.04-.66 2.47-.33 3.57-.06 1.16.28 2.2.83 3.3 1.1 1.43.39 3.03.56 4.46 0 1.54-.6 2.31-1.81 2.64-3.35.33-1.32.22-2.97 1.32-4.02 1.05-1.05 2.7-1.16 4.07-1.16 3.52.06 6.99 2.04 8.92-2.03.99-2.2 1.15-4.63 3.57-5.89 2.92-1.54 6.44-.22 9.3.77.99.33 1.43-1.21.44-1.6-4.35-1.54-10.62-2.97-13.31 2.15-.45.88-.72 1.87-1.05 2.75-.33.83-.72 2.26-1.6 2.64-.99.44-2.8-.05-3.85-.22-2.03-.27-4.18-.49-6.16.39-1.98.93-2.64 2.53-3.02 4.62-.99 5.56-5.4 2.97-9.03 2.09-1.98-.49-4.12-.33-5.5 1.32-1.04 1.27-1.32 2.87-.33 4.19.61.93 2.04.11 1.43-.77h0zm12.77 8.91c.55-3.19 3.02-4.95 6.21-4.79 1.76.06 3.69.66 5.45.11 1.21-.38 2.14-1.21 2.64-2.36 1.15-2.53 1.15-4.68 3.63-6.55 2.09-1.6 4.57-2.09 7.1-1.49 1.59.39 3.3 1.1 4.95.5 1.76-.66 2.58-2.7 4.18-3.75 2.04-1.32 4.51-1.76 6.82-2.14 1.05-.17.61-1.76-.44-1.6-2.14.39-4.29.83-6.21 1.76-.88.44-1.66.94-2.37 1.6-1.43 1.32-2.04 2.64-4.4 2.53-2.04-.05-3.63-1.04-5.78-.77-1.92.28-3.74 1.1-5.22 2.31-1.38 1.16-2.48 2.64-3.03 4.41-.61 1.81-.99 4.01-3.47 4.07-1.15.05-2.31-.22-3.46-.28-4.02-.33-7.48 1.87-8.2 5.95-.17 1.1 1.38 1.54 1.6.49h0zm289.99-15.74c3.57.66 5.44 5.34 9.51 3.8 2.37-.88 3.8-3.08 6.55-3.14 3.03-.05 4.4 2.48 6.99 3.3 4.29 1.38 7.7-3.35 11.83-2.58 3.74.71 6.05 5.23 10.23 4.02 1.04-.28.6-1.88-.44-1.6-3.69 1.04-6.55-4.07-10.34-4.18-1.71-.06-3.36.66-4.85 1.32-3.13 1.43-5.11 2.31-8.14.05-3.02-2.31-6.49-2.64-9.74-.49-.99.66-1.76 1.37-2.91 1.7-1.71.5-2.81-.38-4.07-1.43-1.32-1.04-2.53-2.09-4.24-2.42-.99-.16-1.43 1.43-.38 1.65h0zm11.33-5.45c2.8 2.26 6.05-.88 9.02.99 2.81 1.76 4.4 2.31 7.59 1.21 1.76-.6 3.52-1.48 5.45-1.21 1.54.28 2.75 1.43 4.35 1.6 1.48.16 2.75-.66 4.07-1.27 2.64-1.15 5.22-1.04 7.7.55.88.61 1.71-.82.83-1.43-2.59-1.65-5.56-2.09-8.48-.99-.88.33-1.92 1.16-2.86 1.32-1.37.22-2.47-.38-3.68-.93-1.1-.5-2.15-.66-3.36-.55-1.54.16-2.97.82-4.46 1.26-2.36.77-3.9.66-5.99-.82-1.16-.83-2.2-1.27-3.63-1.21-1.65.05-3.91 1.43-5.4.27-.82-.6-1.98.55-1.15 1.21h0z" class="T"/><path d="M392.87 306.45c.22-2.92 3.58-2.81 5.34-1.81.88.49 1.59 1.21 2.31 1.92 1.26 1.21 2.47 2.59 4.07 3.36 2.97 1.32 4.79-.28 7.26-1.71 7.81-4.4 13.59 9.91 21.46 4.9.44-.27.05-.99-.44-.71-5.23 3.35-10.13-3.14-14.47-5.07-1.43-.66-2.97-1.04-4.51-.77-2.26.39-3.74 2.37-5.89 2.92-5.06 1.37-6.99-5.78-11.55-6.28-2.2-.27-4.29 1.05-4.46 3.31 0 .49.83.49.88-.06h0zm139.63 31.54c.99-3.91 4.35-5.95 8.25-5.62 1.98.17 3.58.11 4.9-1.59 1.54-2.04 1.6-4.79 3.47-6.72 2.2-2.2 5.55-2.86 8.52-3.41.5-.11.28-.88-.22-.77-2.75.5-5.72 1.1-7.97 2.81-2.15 1.65-2.7 3.91-3.74 6.27-1.38 3.03-3.47 2.48-6.28 2.53-1.1 0-2.14.28-3.13.72-2.37 1.1-3.96 3.14-4.62 5.61-.11.5.66.72.82.17h0zm18.82-3.08c0-2.81 1.7-5.51 4.4-6.39 1.92-.66 3.96.11 5.89-.55 3.08-1.1 4.62-4.95 8.08-5.12.55-.05.55-.88 0-.82-1.7.11-2.97.88-4.23 1.98-.99.88-1.87 1.93-3.03 2.59-1.82 1.15-3.47.66-5.39.82-3.85.33-6.6 3.74-6.6 7.49.05.55.88.55.88 0h0z" class="S"/><path d="M348.8 96.26c.88 2.64 2.81 6.11 6.11 4.46 1.98-.99 2.92-3.14 5.28-3.58 2.64-.49 5.39.83 6.66 3.19.33.66 1.26.44 1.48-.22 1.65-4.78 7.71-5.17 10.13-.82.49.93 1.92.11 1.43-.83-3.14-5.72-11.01-4.9-13.1 1.21a12.75 12.75 0 0 0 1.49-.22c-1.43-2.69-4.29-4.23-7.32-4.07-1.37.06-2.69.44-3.79 1.27-.72.49-1.27 1.43-2.04 1.87s-3.19.11-3.85-.55c-.5-.5-.72-1.54-.88-2.15-.33-.99-1.93-.55-1.6.44h0zM372.9 89c1.04.82 2.04.82 3.3.44 1.71-.5 2.81-1.54 4.29.38.5.66.66 1.54 1.32 2.15 1.21 1.21 2.97 1.37 4.62 1.21 1.93-.17 7.43-1.49 7.16 2.09-.06 1.05 1.59 1.05 1.65 0 .38-5.06-6.28-3.8-9.19-3.69-2.15.06-3.14-.82-4.13-2.58-.44-.77-.88-1.43-1.7-1.82-1.87-.83-4.73 1.71-6.16.61-.83-.61-2.04.55-1.16 1.21h0zM200.48 388.62c-.61-1.92-.5-3.9.55-5.61 1.1-1.76 2.8-2.31 4.4-3.36 2.04-1.37 2.81-3.24 3.14-5.61.16-1.27.16-2.53.49-3.8.61-2.2 1.98-3.19 4.02-4.07 1.87-.77 3.57-1.43 4.78-3.14.61-.88-.82-1.71-1.43-.82-1.76 2.42-5.22 2.36-7.31 4.4-2.09 2.09-1.76 5.06-2.26 7.7-.71 4.02-4.35 4.24-6.6 6.94-1.82 2.2-2.26 5.17-1.38 7.81.33.99 1.93.55 1.6-.44h0zm.77-18.27c4.07-2.42.66-8.36 4.79-10.68 2.2-1.26 4.18-1.81 5.94-3.79 1.7-1.93 2.8-4.24 3.9-6.55.44-.94-.99-1.82-1.43-.83-1.1 2.31-2.2 4.62-3.96 6.5-1.87 2.03-4.4 2.25-6.43 3.9-3.03 2.48-.61 8.15-3.69 10.02-.88.55-.06 1.93.88 1.43h0zm223.64-69.18c-3.36.38-6.05-2.59-5.5-5.95.55-3.19 3.57-5.66 6.77-5.89 2.58-.16 5.5.89 6.71 3.36 1.32 2.7.11 6.39-2.7 7.43-.99.39-.55 1.98.44 1.6 3.36-1.32 5.12-4.95 4.24-8.48-1.05-4.07-5.5-6.05-9.46-5.5-3.86.55-7.38 3.74-7.76 7.7-.39 4.08 3.08 7.76 7.2 7.32 1.11-.05 1.11-1.7.06-1.59z" class="P"/><path d="M174.57 482.9a119.35 119.35 0 0 1 15.84-14.31c6.11-4.62 11.06-7.43 17.33-10.95l33.18-18.11 49.4-4.12c23.33-1.77 60.79-4.57 103.71-5.67l17.33-.39 55.07-.38 28.28-.39c15.07.11 27.45.66 35.81 1.16l25.25 2.25c1.98.22 4.9.55 8.7 1.49 4.56 1.16 8.19 2.64 10.56 3.8l-9.02 13.59c-9.96 14.75-20.08 28.79-30.15 42.27-1.6.99-4.51 2.53-8.31 3.8-8.09 2.64-14.96 2.03-17.33 1.87-9.9-.72-33.94-.28-68.99.77l-46.76-1.16-13.59 20.75-90.5-4.89 18.1-19.98-133.91-11.4z" class="Q"/><g class="P"><path d="M206.2 473.22l81.42 6.33c1.05.11 1.05-1.54 0-1.65l-81.42-6.33c-1.04-.06-1.04 1.59 0 1.65h0zm209.28 13.7c28.39-.22 56.83.39 85.22 1.82 1.05.05 1.05-1.6 0-1.65-28.39-1.43-56.77-2.04-85.22-1.82-1.04 0-1.04 1.65 0 1.65zm-160.09-30.38c13.75 2.42 27.72 2.09 41.64 1.98 14.75-.11 29.49.22 44.24.72l87.31 4.18c16.72.72 33.5 1.16 50.23 1.16 1.04 0 1.04-1.66 0-1.66-58.32.17-116.42-5.99-174.68-6.05-16.12 0-32.35.94-48.3-1.87-1-.22-1.49 1.38-.44 1.54zm132.58-11.78c41.38.06 82.75 1.27 124.07 3.63 1.04.06 1.04-1.59 0-1.65-41.32-2.36-82.69-3.57-124.07-3.63-1.04 0-1.04 1.65 0 1.65zm186.51-7.98a1017.4 1017.4 0 0 1-38.35 54.65c-.66.83.77 1.66 1.43.83a1016.9 1016.9 0 0 0 38.35-54.65c.6-.88-.83-1.71-1.43-.83zM188.71 471.4c16.94-11.72 34.11-23.5 53.25-31.37.99-.39.55-1.98-.44-1.6-19.31 7.93-36.58 19.76-53.69 31.54-.83.61 0 2.04.88 1.43z"/><path d="M240.37 440.25c43.68-4.02 87.42-6.94 131.21-8.64 43.79-1.71 87.64-2.37 131.49-1.71 12.27.17 24.54.5 36.75 1.6 11.77 1.04 24.1 2.25 35.1 6.82.99.39 1.43-1.21.44-1.59-9.35-3.91-19.64-5.18-29.65-6.28-10.95-1.21-21.96-1.76-32.96-2.03-21.95-.55-43.96-.5-65.91-.28-44.01.39-88.02 1.98-131.98 4.73a2444.78 2444.78 0 0 0-74.55 5.78c-1.04.06-1.04 1.71.06 1.6h0zm155.2 59.05c40.98 1.38 81.97 1.44 122.9-.11 7.04-.27 14.91-1.1 19.26-7.37.6-.88-.83-1.71-1.43-.83-4.35 6.22-12.77 6.39-19.59 6.61l-28.28.82c-19.8.39-39.61.39-59.41.06l-33.51-.83c-.99-.05-.99 1.6.06 1.65h0zm-207.69-29.39l-14.52 12.72c-.61.49-.06 1.37.6 1.43l133.53 10.68c1.04.05 1.04-1.6 0-1.65l-133.53-10.68.61 1.43 14.52-12.71c.72-.78-.44-1.93-1.21-1.22h0z"/><path d="M326.19 477.07a392.25 392.25 0 0 0-36.09 36.16c-.71.77.44 1.98 1.16 1.16 11.22-12.83 23.32-24.94 36.09-36.16.82-.72-.33-1.88-1.16-1.16h0z"/><path d="M326.8 478.23c26.79-2.59 53.75-1.93 80.37 2.03 1.05.17 1.49-1.43.44-1.59a328.14 328.14 0 0 0-80.81-2.1c-1.05.11-1.05 1.77 0 1.66h0z"/><path d="M406.35 479.71l-27.12 38.8c-.61.88.82 1.71 1.43.83l27.12-38.8c.61-.88-.83-1.71-1.43-.83h0z"/><path d="M290.32 515.16l89.18 4.4c1.05.05 1.05-1.6 0-1.65l-89.18-4.41c-1.04-.05-1.04 1.6 0 1.66zm23.05-10.35l13.81 2.42c1.05.17 1.49-1.43.44-1.6l-13.81-2.42c-1.04-.16-1.48 1.43-.44 1.6z"/><path d="M324.1 499.75c-2.81 2.91-5.45 5.99-7.92 9.24-.66.83.77 1.65 1.43.83 2.42-3.08 4.95-6.06 7.7-8.92.66-.71-.49-1.93-1.21-1.15h0zm7.76.82c.05-2.86 2.2-4.73 5-4.68 1.38 0 2.64.44 4.02.22 2.53-.38 4.73-1.98 5.89-4.18.82-1.49 1.04-3.19 2.31-4.4 1.37-1.32 3.3-1.93 5.17-2.09 1.7-.17 3.58-.06 5.23.55 1.37.55 2.8 1.59 2.86 3.24.05 1.27-.72 2.59-2.15 2.64l.22 1.6c1.49-.22 3.14 1.38 3.58 2.64.22.61.27 1.38.22 1.98-.06 1.44-.77 2.92-1.71 4.02-.93 1.1-2.14 1.98-3.52 2.37-1.21.33-1.43.38-2.31-.61-.99-1.15-.55-1.37.5-2.25 4.73-3.97 8.63 1.21 13.47 1.37 3.3.11 6.44-1.92 7.1-5.28.33-1.65-.16-3.14-.99-4.62-.93-1.66-1.48-1.99-1.1-4.02-.27-1.21.11-1.82 1.16-1.82.6-.27 1.15-.27 1.7.11 1.32.39 2.09 1.27 2.92 2.37.6.82 2.03.05 1.43-.83-1.71-2.36-4.68-4.62-7.65-2.86-2.81 1.65-1.82 4.57-.44 6.83 1.43 2.42 2.42 4.95-.11 7.15-2.86 2.48-6.11.83-8.91-.55-2.86-1.38-6.05-1.54-8.81.28-1.65 1.04-4.07 3.79-2.25 5.77 1.98 2.1 6.11.33 7.87-1.1 2.25-1.81 3.74-4.84 3.3-7.81-.5-2.97-2.81-5.29-5.83-4.79-.94.16-.72 1.65.22 1.6 3.35-.06 4.78-4.13 3.02-6.72-2.42-3.58-8.47-3.63-12.1-2.31-1.82.66-3.41 1.82-4.4 3.52-.72 1.21-.94 2.7-1.71 3.85-1.21 1.77-3.35 2.81-5.5 2.81-2.53-.05-4.51-.77-6.71.88-1.71 1.27-2.53 3.14-2.53 5.18-.11 1.04 1.54 1.04 1.54-.06h0z"/></g><path d="M419.77 190.76l-.38 39.41 92.7-2.7 18.93 14.7-5.01-29.01-1.54-23.94-104.7 1.54zm-3.35-97.64l-3.08 57.08L397 170.56l19.47-5.28 115.87-3.96-3.08-68.58-112.84.38z" class="T"/><g class="Q"><path d="M481.28 118.44c.77 13.71 10.62 24.99 24.1 27.52 1.04.17 1.48-1.38.44-1.6-12.76-2.36-22.17-12.93-22.89-25.92-.11-1.1-1.76-1.1-1.65 0h0z"/><path d="M505.76 145.91c5.29.38 10.02-7.38 11.94-11.45 2.53-5.51 3.3-11.56 2.15-17.45-.22-1.04-1.82-.6-1.6.44.99 5.12.44 10.35-1.54 15.19-.99 2.37-2.25 4.62-3.9 6.61-1.6 1.98-4.24 5.22-7.05 5-1.04-.11-1.04 1.55 0 1.66h0z"/><path d="M510.39 144.2c2.2 2.7 5.17 4.57 8.52 5.5 1.05.28 1.49-1.32.44-1.59-3.13-.88-5.77-2.59-7.81-5.07-.66-.82-1.82.39-1.15 1.16h0z"/><path d="M517.32 133.58c.66 1.04 1.37 2.03 2.2 2.97.77.82 2.14 1.54 2.8 2.42 1.93 2.59-1.76 7.6-3.35 9.58-.66.82.77 1.65 1.43.82 1.81-2.36 4.34-6.33 4.23-9.52-.05-.88-.38-1.37-.99-1.98-1.76-1.87-3.52-2.92-4.95-5.17-.55-.88-1.98-.06-1.37.88h0z"/><path d="M516.27 135.23c-.27 2.64-.93 5.17-2.09 7.59-.16.39-.55.88-.66 1.27-.27.99.44-.61.61-.83.66-1.15 1.21-2.36 1.76-3.52l-1.49-.66c-.49 1.6-1.32 2.81-2.64 3.91l1.32.99 3.41-5.83c.55-.94-.82-1.66-1.43-.83l-3.63 4.9c-.55.77.66 1.7 1.32.99 1.32-1.54 2.31-3.19 2.97-5.06.39-1-1.21-1.44-1.59-.44-.61 1.65-1.43 3.02-2.59 4.34l1.32.99 3.63-4.89-1.43-.83-3.41 5.83c-.49.88.61 1.54 1.32.99 1.54-1.21 2.53-2.75 3.08-4.62.28-.88-1.1-1.48-1.48-.66l-1.76 3.52c-.33.66-.88 1.49-.77 2.26.05.94.99 1.76 1.98 1.43 1.32-.44 1.98-2.86 2.42-4.02.88-2.2 1.37-4.51 1.65-6.88-.06-.99-1.71-.99-1.82.06h0zm-15.29 8.2c-4.57-.72-8.42 2.26-11.5 5.34-3.41 3.41-5.94 7.54-6.82 12.27-.22 1.05 1.37 1.49 1.59.44.72-3.91 2.59-7.32 5.23-10.29 2.64-3.03 6.71-6.88 11.06-6.16 1.04.16 1.48-1.44.44-1.6h0zm-5.5-23.06c1.7 4.46 3.63 8.86 5.66 13.15.33.66 1.32.44 1.49-.22.49-1.98.71-3.91.6-5.94-.05-1.05-1.7-1.05-1.65 0 .11 1.87-.05 3.69-.55 5.5a12.75 12.75 0 0 0 1.49-.22c-1.98-4.18-3.85-8.42-5.5-12.77-.33-.93-1.93-.49-1.54.5h0zm-7.65 6c-.39-.72.33-1.49.99-1.71.99-.33 2.03.06 3.02.33.99.33 1.44-1.26.44-1.59-1.59-.5-3.52-.89-4.95.22-1.1.88-1.59 2.31-.88 3.57.44.94 1.87.11 1.38-.82h0z"/><path d="M505.1 122.62c.55-2.42 3.25-3.46 5.18-1.7.77.71 1.98-.44 1.15-1.16-2.75-2.53-7.1-1.26-7.92 2.42-.22 1.05 1.37 1.49 1.59.44h0zm3.52 1.82c-.05.06-.16.17-.22.22a.82.82 0 1 0 1.16 1.16c.05-.06.16-.17.22-.22a.82.82 0 1 0-1.16-1.16zm3.69-1.54c.06.17.17.28.22.44.22.39.77.5 1.16.28.38-.22.49-.72.27-1.16-.05-.17-.16-.28-.22-.44-.22-.39-.77-.5-1.15-.28-.39.22-.5.72-.28 1.16zm-.49 3.74c.05.06.16.17.22.22a.813.813 0 1 0 1.15-1.15c-.05-.06-.16-.17-.22-.22a.813.813 0 1 0-1.15 1.15zm-22.73 3.69v.22c0 .44.39.83.83.83s.82-.39.82-.83v-.22c0-.44-.38-.83-.82-.83a.78.78 0 0 0-.83.83zm3.74-1.54h-.77c.33.27.83.33 1.16 0s.33-.88 0-1.16a1.13 1.13 0 0 0-1.6 0c-.33.28-.27.88 0 1.16.39.33.88.27 1.21 0h0zm.89 2.81v-.22c0-.44-.39-.83-.83-.83s-.83.39-.83.83v.22c0 .44.39.82.83.82.44-.05.83-.38.83-.82zm-4.02-14.81c-1.38-.88-3.14-.44-4.13.83-.27.33-.05.93.28 1.15.44.28.88.06 1.15-.27.44-.55 1.27-.61 1.82-.22.99.49 1.81-.94.88-1.49h0zm13.15-1.87c.66-.28 1.37-.44 2.14-.5 1.05-.05 1.05-1.7 0-1.65-1.04.06-2.03.28-2.97.72-.38.16-.49.77-.27 1.15.22.39.66.44 1.1.28h0zm.38 23.12c2.42.22 4.68-1.38 5.45-3.69.33-.99-1.27-1.43-1.6-.44-.55 1.65-2.14 2.64-3.85 2.47-1.04-.11-1.04 1.55 0 1.66zm21.24 1.98a9.26 9.26 0 0 1 5.12 1.15c.93.5 1.76-.93.82-1.43-1.87-.99-3.85-1.48-5.94-1.37-1.05.05-1.05 1.7 0 1.65zm-40.71-39.63c-4.62 2.09-8.2 6.16-9.47 11.12-.77 3.02-.22 6-.33 9.08-.16 3.47-1.76 6.55-2.8 9.8-3.03 9.41 2.14 19.75 11.72 22.62 1.04.27 1.43-1.27.44-1.6-4.57-1.38-8.26-4.73-10.18-9.08-2.09-4.79-1.27-9.3.49-14.04.77-2.03 1.54-4.07 1.82-6.27.33-2.64-.22-5.28.05-7.93.5-5.44 4.19-10.07 9.08-12.27.94-.44.11-1.82-.82-1.43h0zm-1.27 17.94c5.89-2.75 10.29-7.54 12.6-13.59.39-.99-1.21-1.43-1.59-.44-2.15 5.61-6.39 10.07-11.83 12.6-.99.44-.11 1.87.82 1.43zm13.32-13.92c1.81 3.19 5.61 4.62 8.96 5.72 4.24 1.43 8.7 2.04 13.15 1.98 1.05 0 1.05-1.65 0-1.65-3.68.06-7.31-.38-10.84-1.37-3.41-.94-7.97-2.26-9.84-5.56-.5-.88-1.93-.06-1.43.88h0z"/><path d="M518.31 113.05c1.26-2.26 4.51-1.98 5.28.6.77 2.54-1.32 4.63-3.74 4.9-1.05.11-1.05 1.76 0 1.65 3.68-.44 6.76-3.9 5.06-7.65-1.6-3.41-6.22-3.46-8.03-.27-.5.82.88 1.65 1.43.77h0z"/><path d="M519.35 119.16c-1.21 7.04-.49 16.56 5.56 21.35.82.66 1.98-.49 1.15-1.15-5.5-4.35-6.27-13.21-5.11-19.71.22-1.1-1.38-1.54-1.6-.49h0zm-35.87-16.9c3.63-1.87 7.48-3.91 11.67-3.85 3.57.05 6.54 1.7 10.17 1.04 3.8-.66 7.27-2.42 11.23-2.64 4.07-.22 8.47.44 11.33 3.58.72.77 1.87-.39 1.16-1.16-5.56-6.05-14.47-4.01-21.35-2.03-2.75.82-5.17 1.04-7.98.33-1.98-.5-3.79-.88-5.88-.72-3.97.39-7.65 2.2-11.12 4.02-.99.5-.16 1.93.77 1.43zm-.6 49.31c-.17.06-.39.11-.55.11-.88.22-.72 1.33 0 1.6 1.32.55 2.69.72 4.12.55 1.05-.11 1.05-1.76 0-1.65-1.26.17-2.47 0-3.68-.5v1.6c.16-.05.38-.11.55-.11.99-.22.55-1.82-.44-1.6zm-56.56-38.36c.83 1.27 2.81.99 3.08-.55.11-.49-.66-.71-.77-.22-.16.77-1.1 1.05-1.59.39-.28-.44-.99-.06-.72.38h0zm6.33-.6c.33.55.71 1.15 1.43 1.26.6.11 1.15-.16 1.37-.77.17-.49-.6-.71-.77-.22-.11.22-.44.17-.6.06-.28-.17-.44-.5-.61-.83-.38-.38-1.1 0-.82.5h0zm-1.76 1.48l.16.33v-.05c-.05.11-.05.22-.11.27 0 0 0-.05.06-.05-.11.05-.22.05-.28.11h.06c-.11-.06-.22-.11-.33-.22-.11-.17-.17.16-.17.27 0 .22.06.5.06.72s0 .44-.11.61c-.06.11-.28.27-.39.16-.38-.33-.99.22-.6.61.38.33.82.33 1.26.05.44-.27.61-.77.61-1.32 0-.39-.06-.66.05-.99.06-.22.06-.39-.05-.55-.33-.44-.83-.11-.88.33 0 .11.11.27.22.33h.05c.44.38.88-.33.39-.61h0z"/><path d="M430.5 114.42c.17.77-.05 1.6.55 2.26.44.5 1.1.61 1.65.17.39-.33-.16-.94-.6-.61-.33.28-.66-.55-.66-.72-.06-.44-.06-.88-.11-1.32-.17-.49-.94-.27-.83.22h0zm-3.19-3.9h1.21c.55 0 .55-.83 0-.83h-1.21c-.55 0-.55.83 0 .83zm6 .16c.38 0 .71.06 1.04.28.44.27.88-.44.44-.72-.44-.27-.93-.38-1.43-.38-.6 0-.6.82-.05.82h0zm-2.75 9.25c-5.39.33-4.9-5.4-6.17-8.92-.33-1.04-.93-1.92-1.32-2.97-1.43-4.07 1.71-1.21 2.76.27.33.45 1.04 0 .71-.44-.6-.88-2.81-4.12-4.13-3.74-1.37.39-.49 3.3-.16 4.13.6 1.65 1.43 2.97 1.76 4.73.27 1.6.33 3.25 1.16 4.68 1.1 1.98 3.08 3.19 5.33 3.03.55.05.55-.77.06-.77h0z"/><path d="M426.76 108.59c2.64-1.43 5.39-1.54 8.09-.28.22.11.44.06.55-.16a9.14 9.14 0 0 1 2.8-3.19c-.22-.11-.49-.22-.71-.28.11 3.03.22 6.22-.28 9.19-.71 4.19-3.46 5.73-7.42 6.22-.5.06-.55.88 0 .83 3.24-.44 6.21-1.21 7.59-4.46 1.48-3.52 1.1-8.04.93-11.78 0-.38-.44-.49-.71-.27-.77.6-1.65 2.2-2.48 2.64-.93.49-2.03-.22-3.08-.33-2.03-.22-3.96.27-5.77 1.21-.39.22 0 .94.49.66h0zm-.44 10.02c-1.49 2.42-.93 5.34-.49 8.03.66 4.13 1.87 8.15 3.08 12.11.16.5.93.28.77-.22-.88-2.97-1.82-6-2.48-9.03-.71-3.13-1.98-7.54-.16-10.45.27-.44-.44-.88-.72-.44h0z"/><path d="M428.85 138.42c-1.04.17-4.4 1.27-3.35 2.92.38.6 1.21.71 1.87.77 1.26.11 2.53-.11 3.74-.5.49-.16.27-.93-.22-.77-1.1.33-2.86.88-4.02.44-.22-.11-.66-.49-.55-.77.06-.16.55-.38.77-.49.66-.33 1.32-.61 2.04-.72.49-.22.27-.99-.28-.88h0zm2.42-12.77c.39 4.51.88 8.97 1.54 13.49.06.55.88.27.77-.22-.66-4.41-1.15-8.81-1.54-13.27.06-.55-.77-.55-.77 0z"/><path d="M433.14 138.81c-1.21.16-3.35 1.21-2.25 2.8 1.21 1.71 4.62.28 6.05-.27.49-.17.27-.99-.22-.77-.94.38-1.87.71-2.86.88-.44.05-1.27.22-1.71 0-.71-.83-.66-1.38.17-1.6.27-.11.55-.16.82-.16.5-.11.5-.94 0-.88h0zm3.96-22.35c2.2 1.32 2.7 3.58 3.69 5.78.71 1.6 1.6 2.7 2.92 3.85 1.92 1.65 3.68 2.92 4.4 5.56.71 2.75.11 5.61-.66 8.26-.17.49.66.71.77.22 1.32-4.57 1.81-9.58-2.04-13.1-.88-.83-1.92-1.49-2.75-2.31-1.21-1.27-1.82-2.7-2.42-4.3-.77-1.92-1.6-3.57-3.41-4.68-.55-.27-.94.45-.5.72h0z"/><path d="M443.71 130.28c-1.82-.28-3.31 1.26-3.86 2.97-.77 2.31 1.21 4.62 2.54 6.27a3.44 3.44 0 0 0 .27-.71c-1.76.16-3.19.71-4.62 1.76-.17.11-.28.38-.17.55 1.38 1.76 4.52.99 6.44.99 2.04-.06 4.07-.22 4.02-2.81 0-.55-.83-.55-.83 0 .06 2.64-5.17 2.04-6.6 2.04h-.94c-1.04-.17-1.26-.39-.66-.66.28-.72 2.76-.99 3.36-1.05.39-.05.5-.44.28-.71-.72-.94-1.71-2.04-2.1-3.2-.55-1.48.11-5.06 2.65-4.67.55.11.77-.66.22-.77h0zm-7.38 3.79l.39 6.61c0 .55.82.55.82 0l-.38-6.61c-.06-.49-.88-.49-.83 0z"/><path d="M437.21 139.14c1.71.82 3.52.99 5.29.44.49-.17.27-.94-.22-.77-1.6.44-3.2.33-4.68-.39-.44-.22-.88.5-.39.72h0zm11.61-2.7c1.54-1.05 2.64-2.42 3.03-4.29.6-2.98-1.27-5.73.05-8.64 1.05-2.26 2.81-3.97 3.3-6.44.55-2.81-.55-5.67.11-8.48.17-.66.39-1.54.88-2.09.5-1.1 1.27-.83 2.2.88l-.33.82c-.16 1.38-1.21 2.81-1.48 4.24-.22 1.27-.11 2.53-.28 3.8-.22 1.82-1.1 3.25-1.92 4.9-1.16 2.37-.94 4.46-.83 7.04.17 3.91-1.37 7.16-4.89 9.03-.5.27-.06.99.44.72 2.31-1.27 4.12-3.2 4.89-5.73 1.21-3.85-.44-7.54 1.49-11.34.71-1.48 1.43-2.75 1.65-4.4.27-1.93.11-3.58.71-5.5.44-1.38 2.92-5.12 1.05-6.44-1.21-.83-2.81.6-3.41 1.48-1.65 2.31-1.16 5.29-1.05 7.98.11 2.48-.33 4.41-1.65 6.5-.71 1.1-1.48 2.2-1.92 3.47-1.49 4.29 2.36 8.53-2.42 11.83-.44.27-.06.99.38.66zm18.65 14.36c-1.92-.38-3.63.22-5.17 1.44-1.1.82-2.53 2.03-2.31 3.57.66 4.02 6.99 1.65 8.97.33.88-.6.05-2.03-.83-1.43-.82.55-1.65.99-2.58 1.27-.61.16-1.21.33-1.82.33-.82.05-1.15.11-1.59-.72-.44-.82-.22-.82.38-1.43.39-.38.77-.66 1.21-.99.99-.66 2.09-1.04 3.3-.82 1.05.27 1.49-1.33.44-1.55z"/><path d="M465.82 150.31c-.33-2.48-1.04-4.84-2.31-7.05-.82-1.43-2.64-4.56-4.57-4.78-4.18-.5.34 10.45 1.05 11.94.5.93 1.87.11 1.43-.83-.82-1.7-1.48-3.41-1.92-5.23-.22-.93-.67-2.31-.56-3.19 0-.27-.05-.49-.05-.77.44.22.83.55 1.16.94 2.31 2.36 3.68 5.72 4.12 8.97.17.99 1.82 1.04 1.65 0z"/><path d="M461.48 149.54c-1.21-2.31-6.22-10.13-9.63-7.1s2.69 9.58 4.84 11.56c.77.71 1.92-.44 1.15-1.16-1.15-1.1-2.25-2.26-3.13-3.52-.5-.72-2.92-4.29-2.09-5.07l1.98-.33c.49.33.93.72 1.37 1.11.5.44.99.99 1.49 1.48 1.04 1.16 1.87 2.48 2.59 3.85.49.99 1.92.17 1.43-.82h0z"/><path d="M456.58 153.34c-1.87-1.55-4.62 0-4.46 2.36.22 3.19 3.8 3.86 6.27 3.14 1.05-.28.61-1.87-.44-1.6-1.32.39-3.13.5-3.96-.93-.33-.55-.38-1.21.11-1.65.33-.33.94-.5 1.32-.17.77.72 1.93-.44 1.16-1.15z"/><path d="M453 155.7c-2.31.72-2.31 3.47-.99 5.12s3.85 2.75 5.72 1.32c.83-.66-.33-1.81-1.15-1.15-.88.66-2.31-.22-2.92-.83-.66-.66-1.54-2.42-.16-2.86.99-.33.55-1.93-.5-1.6h0zm13.54-4.79c4.01 0 5.22 7.54 4.45 10.35-.27 1.05 1.32 1.49 1.6.44 1.1-3.96-.77-12.44-6.05-12.44-1.1 0-1.1 1.65 0 1.65z"/></g><path d="M427.26 208.26h56.94c1.04 0 1.04-1.65 0-1.65h-56.94c-1.05 0-1.05 1.65 0 1.65zm14.57 7.38h52.44c1.04 0 1.04-1.65 0-1.65h-52.44c-1.04 0-1.04 1.65 0 1.65zm49.24-7.65h6.61c1.04 0 1.04-1.65 0-1.65h-6.61c-1.04 0-1.04 1.65 0 1.65zm18.76 4.95c-2.03-.93-3.57-2.58-4.12-4.79-.28-1.04-.5-2.58.22-3.52 1.37-1.92 3.02.72 3.46 2.09.22.72 1.44.83 1.6 0 .06-.38.17-.77.28-1.15.44-1.65 1.48-1.49 3.19.38.27.99-.39 2.64-.83 3.47-.93 1.87-2.47 3.19-4.35 4.13-.93.44-.11 1.87.83 1.43 3.52-1.65 7.37-6.5 5.61-10.62-.55-1.27-1.87-2.26-3.3-2.04-1.92.27-2.75 2.31-3.08 3.96h1.6c-.94-3.02-4.9-6.55-6.72-2.09-1.59 3.91 1.27 8.53 4.79 10.18.93.44 1.76-.99.82-1.43h0z" class="S"/><path d="M278.77 415.15l-3.8 25.81c-23.27 7.1-34.66 11.73-34.22 13.76.55 2.54 18.49 1.33 53.92-3.63l1.54-36.93-17.44.99z" class="P"/><path d="M290.05 336.39c-1.16.88-1.82 1.87-4.3 6.66l-3.57 7.16c-4.46 10.12-8.8 26.03-8.8 26.03-3.47 12.6-5.23 18.88-6.44 25.54-1.76 9.41-2.48 17.39-2.86 23.17 3.24 1.48 7.15 2.97 11.72 4.07 10.78 2.59 20.08 1.82 26.24.72 1.1-7.76 2.64-16.18 4.79-25.05 1.87-7.92 4.01-15.24 6.21-21.96 2.37 1.49 5.83 3.8 10.02 6.66 13.69 9.53 17.99 14.15 26.02 19.32 5.28 3.41 13.09 7.71 23.87 11.01 2.48-.33 9.25-1.54 15.02-7.15 8.7-8.54 7.82-20.09 7.65-21.74-3.63-3.86-8.75-9.03-15.29-14.59-11.56-9.8-21.51-15.8-28.61-20.03-5.72-3.42-12.11-6.55-24.81-12.88 0 0-14.91-7.38-28.61-8.59-2.42-.22-5.67-.33-8.25 1.65h0z" class="Q"/><g class="P"><path d="M264.74 424.23c1.43-14.42 4.07-28.67 7.87-42.6a272.91 272.91 0 0 1 6.43-20.31c2.42-6.65 4.84-13.64 8.25-19.92 2.04-3.74 4.79-5.01 8.92-5.17 3.74-.17 7.48.33 11.11 1.21 6.66 1.54 13.09 4.13 19.37 6.82 11.88 5.07 23.32 11.29 34.05 18.55 12.21 8.26 23.49 17.78 33.67 28.46.72.77 1.93-.39 1.16-1.16-19.26-20.09-42.48-36.27-68.06-47.22-6.27-2.7-12.65-5.23-19.31-6.88-5.5-1.32-14.03-3.14-19.03.44-2.15 1.54-3.36 4.02-4.46 6.38-1.43 3.14-2.75 6.33-4.07 9.52-2.92 7.21-5.5 14.53-7.76 22.02-4.9 16.23-8.2 32.97-9.85 49.86-.05 1.05 1.6 1.05 1.71 0h0z"/><path d="M264.41 425c11.33 6.39 24.65 8.2 37.3 5.07 1.04-.28.6-1.87-.44-1.6-12.21 3.03-25.09 1.32-36.04-4.9-.93-.49-1.76.88-.82 1.43h0z"/><path d="M303.36 428.86c1.92-15.69 5.45-31.16 10.4-46.18.33-.99-1.27-1.43-1.6-.44-5 15.19-8.47 30.77-10.45 46.62-.11 1.04 1.54 1.04 1.65 0h0z"/><path d="M308.64 381.08c22.06 11.23 38.51 32.81 63.32 38.58 1.05.23 1.49-1.37.44-1.59-24.64-5.78-41.04-27.24-62.93-38.42-.94-.49-1.76.94-.83 1.43h0z"/></g><g class="R"><path d="M283.44 430.62a1274.17 1274.17 0 0 1 18.54-54.49l4.9-13.1 34.55 18.16 48.19 25.6c-.44 2.03-2.03 7.59-7.04 10.56-3.74 2.2-7.86 2.04-12.27 1.16-13.64-2.75-22.22-11.01-39.39-23.83-3.9-2.92-9.9-7.32-17.55-12.5a296.89 296.89 0 0 0-4.29 13.1c-3.69 12.33-6.05 23.94-7.59 34.57-3.19.82-7.43 1.54-12.27 1.37a54.9 54.9 0 0 1-5.78-.6h0z" class="U"/><path d="M311.94 381.58c-1.37-.55-6.93 9.8-8.58 12.88-4.24 7.87-9.74 19.48-14.86 34.95 1.05.44 2.37.93 3.91 1.15 4.07.72 7.37-.27 9.19-.99 2.91-15.3 5.89-27.46 8.2-36.1 1.43-5.4 3.13-11.45 2.14-11.89z" class="U"/></g><path d="M225.84 421.81l-11.28 29.45c-21.95 7.32-32.62 12.16-32.13 14.53.61 2.75 16.34 2.2 47.21-1.71l11.11-35.77-14.91-6.5z" class="P"/><path d="M257.37 326.1c-4.24 2.97-6.66 6.49-7.87 8.37-5.28 7.98-7.98 11.99-9.79 15.52-5.18 9.96-8.48 18.32-10.02 22.45-5.22 13.82-7.86 25.04-10.29 35.12-1.76 7.54-3.02 13.81-3.79 18.16 2.2 2.64 5.33 5.78 9.52 8.59 8.8 5.88 17.66 7.26 22.44 7.65 4.02-11.62 7.82-21.41 11.01-29.12 3.35-8.26 5.83-13.76 10.28-20.03 3.2-4.57 6.33-7.98 8.59-10.3 2.47 3.47 6.05 8.15 10.72 13.38 5.78 6.44 16.34 18.05 33.4 28.18 13.81 8.2 24.65 11.12 35.54 14.09 11.33 3.08 14.8 2.75 17.44 1.21 10.84-6.39 5.34-31.87 5.01-33.41-10.62-8.15-18.49-15.36-23.88-20.53-4.84-4.68-10.29-10.35-19.81-18.88l-8.8-7.65c-1.7-1.43-8.03-6.6-18.87-14.09 0 0-13.75-9.52-27.18-16.45 0 0-3.41-1.76-9.3-3.58-4.89-1.49-6.93-1.6-8.8-1.21-.66.05-2.58.49-5.55 2.53h0z" class="Q"/><g class="P"><path d="M255.77 326.27c-24.26 26.96-34.49 62.85-41.21 97.69-.22 1.04 1.38 1.48 1.6.44 6.66-34.57 16.72-70.23 40.77-96.98.77-.77-.44-1.98-1.16-1.15h0z"/><path d="M215.11 425.88c8.04 9.31 19.09 15.52 31.2 17.51 1.04.16 1.48-1.43.44-1.6-11.89-1.93-22.61-7.98-30.48-17.06-.66-.83-1.82.33-1.16 1.15z"/><path d="M247.9 442.62c3.52-10.96 7.71-21.63 12.66-32.04 4.51-9.41 9.13-20.25 17.22-27.19.82-.71-.39-1.87-1.16-1.15-8.2 7.04-12.93 18-17.44 27.52-5.01 10.51-9.24 21.35-12.82 32.42-.38.99 1.21 1.43 1.54.44h0z"/><path d="M271.94 376.35c22.62 31.15 53.43 59.11 93.04 64.39 1.04.17 1.04-1.48 0-1.65-38.95-5.17-69.32-32.91-91.6-63.57-.66-.82-2.1 0-1.44.83zm-14.79-48.98c9.07-6.66 20.63.71 28.99 5.22 8.64 4.63 16.94 9.75 25.03 15.31 16.29 11.28 31.31 24.38 44.73 38.96.71.77 1.87-.38 1.16-1.15-22.12-24.06-48.69-44.25-78.07-58.62-7.05-3.47-15.68-6.22-22.67-1.1-.82.55 0 1.98.83 1.38h0z"/></g><g class="R"><path d="M228.1 434.36l17.88-37.37c15.13-31.87 17.66-38.03 24.59-40.4 11.99-4.02 23.38 8.04 49.73 26.86 14.75 10.57 35.05 23.83 60.96 37.21.5 2.86 1.54 10.67-3.02 15.63-2.04 2.14-6.66 5.45-20.96 3.02-5.51-.93-31.25-5.83-62.5-36.98a191.88 191.88 0 0 1-17.55-20.04c-1.6 1.88-4.02 4.9-6.66 8.76-4.62 6.82-7.7 13.04-14.85 30.27-2.32 5.5-5.18 12.54-8.37 20.75-2.09.11-6.05.11-10.45-1.71-4.51-1.71-7.37-4.46-8.8-6z" opacity=".129"/><path d="M272.88 374.92c2.15 1.1 5.28 2.75 8.97 4.95 23.27 13.87 23.82 22.29 41.15 32.58 13.48 7.99 18.54 6.11 32.4 16.57a99.98 99.98 0 0 1 12 10.68c-5.34-.44-12.71-1.54-21.13-4.18-11-3.47-18.59-8.04-24.21-11.45-2.8-1.71-14.46-8.92-27.23-21.74-6.38-6.33-14.36-15.36-21.95-27.41h0zm2.48 7.59c-.77-.99-6.55 1.49-11.61 5.34-9.14 6.88-11.72 14.86-20.19 30.49-2.48 4.57-6.22 11.23-11.23 19.05l14.69 5.89c1.1-2.98 9.52-25.49 15.79-39.08 2.04-4.35 3.14-6.77 5.12-10.07 4.4-7.27 8.14-10.68 7.43-11.62h0z" class="U"/></g><path d="M503.67 288.01c1.43.77 1.38 1.6 3.19 3.14 1.49 1.27 2.04 1.1 2.64 2.15.67 1.15.78 2.47.78 3.35.6 0 1.7.17 2.86 1 .33.22 2.58 1.81 3.19 5.28.44 2.37-.11 4.35-.39 5.06.61.55 1.54 1.54 1.87 3.14.44 1.98-.16 3.8-.93 5.78-2.26 5.56-4.29 7.87-6.6 12.55-.72 1.37-1.66 3.52-2.65 6.27a74.14 74.14 0 0 0 .39 9.63c.66 6.17 1.87 10.63 2.26 12.06 1.92 7.15 5.33 23.88 5.66 39.24.17 7.87.33 20.47-5.11 33.35-2.04 4.85-5.07 11.67-11.17 14.48-.99.44-8.09 3.68-13.04-1.43-1.82-1.88-2.75-4.19-3.19-5.78a22.43 22.43 0 0 1-.17-3.64c.17-6.66 3.25-11.44 4.35-13.26 3.74-6.33 4.89-13.37 6.82-25.32 1.21-7.37.94-13.76.39-26.31-.39-8.58-1.21-20.19-3.03-34.01-.94-.27-2.15-.82-3.03-2.15-1.32-2.03-.55-3.9-1.54-7.48-.77-2.7-1.37-2.2-2.64-5.78-.93-2.59-1.81-4.95-1.32-7.7.11-.56.61-3.8 2.48-4.57 2.36-1.05 5 2.69 5.66 3.63 1.32 1.87 1.99 3.85 2.26 5.06a55.92 55.92 0 0 0 3.96-7.98c.61-1.43 1.1-2.8 1.54-4.13-.22-1.21-.49-2.97-.71-5.11-.28-2.87-.39-4.35-.06-6.22.22-1.27.77-4.08 2.48-4.85 1.04-.38 2.2.22 2.8.55h0z" class="Q"/><g class="P"><path d="M509.06 333.86c2.7-4.84 5.89-9.69 8.09-14.8 1.6-3.75 2.26-8.26-.22-11.78-.6-.88-2.03-.06-1.43.82 2.86 4.02.94 9.03-1.15 12.94l-6.72 12c-.55.93.88 1.76 1.43.82z"/><path d="M512.97 316.41c4.02-5.34 7.26-18.21-2.09-20.31-1.05-.22-1.49 1.38-.44 1.6 8.14 1.82 4.46 13.37 1.1 17.89-.6.82.83 1.65 1.43.82h0z"/><path d="M508.62 311.52c3.8-5.45 4.08-12.94 1.16-18.83-.5-.93-1.87-.11-1.43.83 2.64 5.39 2.31 12.22-1.16 17.17-.6.83.83 1.65 1.43.83zm-3.24-4.24c1.54-4.85 2.03-10.13.93-15.14-.6-2.7-3.3-7.43-6.65-4.84-3.14 2.42-1.71 9.08-1.38 12.33.33 3.24-.05 5.56-1.76 8.36-1.48 2.42-2.69 4.96-3.63 7.65-.39.99 1.21 1.43 1.6.44 1.26-3.57 3.52-6.49 5-9.9 1.38-3.2.44-6.66.22-10.02-.11-1.54-.55-4.02.06-5.5.05-1.16.77-1.38 2.14-.77 1.54-.61 2.42-.17 2.59 1.37.38 1.05.55 2.26.66 3.36.44 4.13 0 8.2-1.27 12.16-.38 1.1 1.16 1.54 1.49.5h0z"/><path d="M510.39 293.52c-.67-2.53-3.53-4.57-6-2.86-.88.6-.06 2.03.82 1.43 1.54-1.05 3.14.33 3.58 1.87.27 1.04 1.87.6 1.6-.44zm-16.51 20.8c-.88-3.25-3.03-7.37-6.66-8.03-3.46-.66-4.67 2.69-4.78 5.5-.28 5.28 2.53 8.92 3.9 13.76 1.1 3.91.77 7.82 4.73 10.13.94.55 1.76-.88.83-1.43-2.97-1.71-3.08-4.68-3.69-7.71-.44-2.42-1.59-4.46-2.58-6.71-1.16-2.59-2.42-6.61-1.43-9.42.05-.27.11-.49.16-.77 1.27-.38 2.53-.82 3.74-1.21.72.22 1.6 1.38 2.09 1.93 1.05 1.32 1.65 2.75 2.04 4.4.33 1.05 1.93.61 1.65-.44h0z"/><path d="M490.74 334.85c2.32 19.1 4.79 38.91 3.09 58.12-.83 9.08-3.09 17.5-6.72 25.81-2.97 6.83-5.11 13.27-3.68 20.75.22 1.05 1.81.61 1.59-.44-1.59-8.36 1.82-15.24 4.95-22.73 3.31-7.76 4.96-16.01 5.62-24.38 1.48-18.93-.88-38.36-3.14-57.13-.22-1.04-1.87-1.04-1.71 0h0z"/><path d="M507.41 332.43c-1.32 3.8-.66 8.04-.22 11.94.5 4.13 1.16 8.26 1.93 12.33 1.71 8.97 3.85 17.83 5.01 26.92 1.15 8.91 1.21 17.94.22 26.85-.99 8.86-2.7 18.55-7.65 26.15-2.37 3.63-5.89 7.15-10.34 7.98-4.79.93-9.14-1.93-11.39-6.06-.5-.93-1.93-.11-1.43.83 3.19 5.78 9.74 8.64 15.95 5.89 7.37-3.25 11.28-11.51 13.43-18.83 5.66-19.26 4.07-39.35.16-58.78-1.1-5.5-2.31-11-3.19-16.56-.5-2.97-.88-5.95-1.21-8.92-.28-3.14-.72-6.44.33-9.47.38-.82-1.21-1.26-1.6-.27h0z"/></g><g class="R"><path d="M512.81 298.14c.16 2.75.16 6.28-.5 10.13-1.76 10.57-6.99 17.22-9.41 19.87-.05 3.13-.16 7.98 0 13.81.66 26.2 4.73 39.02 5.39 51.3.66 11.94-1.54 29.39-15.29 51.95 1.82.17 4.68.17 7.65-1.43 2.69-1.43 6.87-4.73 10.67-15.79 3.47-10.13 7.26-28.68 3.03-49.92-1.87-9.25-4.74-16.52-6.22-32.04-.39-4.12-.55-7.59-.66-9.96.93-2.2 2.31-5.23 4.29-8.53 3.25-5.45 5.34-7.26 5.89-11.17.38-2.75-.17-5.56-1.27-8.31.11-.72.55-3.63-.77-6.5-.88-2.03-2.2-3.02-2.8-3.41h0z" class="W"/><path d="M507.25 340.13c-.28.06.6 9.64 2.36 28.79l2.37 25.98c.55 25.1-7.15 42.82-5.89 43.42.88.44 5.29-8.47 7.82-19.26 3.46-14.92 2.09-27.85 1.26-35.28-.77-6.55-1.04-4.73-4.95-26.97-1.93-11.17-2.7-16.73-2.97-16.68h0z" class="V"/></g><path d="M371.74 392.15c-5.22 10.62-6.71 19.97-8.08 29.11-.77 5.01-1.54 12.11-1.49 20.7 17.17 4.56 32.46 7.04 45 8.36 16.29 1.76 11.5-.38 52.6 1.05 20.52.71 31.08 1.43 34-4.19 2.42-4.73-3.52-9.46-3.85-20.36-.28-8.75 3.19-15.91 5.94-20.36-16.23-6.55-34.99-13.05-56.12-18.55-21.01-5.51-40.49-9.03-57.82-11.23-2.75 3.25-6.71 8.42-10.18 15.47z" fill="#d6d6d6"/><g class="R"><path d="M373.17 390.27c4.02 8.04 12.49 21.8 28.28 29.51 6.16 3.02 13.15 4.95 33.73 5.99 13.31.66 31.8.99 54.19-.82-.33 4.79.66 8.2 1.59 10.46 1.43 3.35 3.42 5.28 3.2 8.8-.06.83-.17 2.92-1.6 4.63-1.98 2.31-5.23 2.53-6.82 2.58-15.85.77-21.29.22-21.29.22-13.32-1.43-25.15-1.1-34.94-.82-4.23.11-6.49.27-11.06.22-2.53-.06-9.51-.22-19.64-1.6-14.91-2.04-28.66-5.5-36.31-7.65a144.82 144.82 0 0 1 1.6-23.89c1.37-9.02 3.02-14.03 3.63-15.63 1.76-5.06 3.79-9.13 5.44-12h0z" class="U"/><path d="M367.12 404.69c2.15 4.35 5.83 10.52 12.05 16.24 10.45 9.58 21.73 12.11 35.1 15.25 28.34 6.71 57.22 14.36 57 15.63-.11.77-10.89-.99-29.49-1.21-4.51-.06-7.43-.11-11.66 0-8.26.16-10.51.6-15.46.38-5.34-.22-9.25-.99-13.43-1.81l-38.89-8.26c.05-3.52.27-7.21.6-11.06.83-9.19 2.37-17.67 4.18-25.16h0z" class="W"/></g><path d="M527.77 436.84c-11.66 1.65-18.32 1.98-29.21 5.06-5.06 1.43-9.14 2.92-11.83 4.02-1.71-4.79-3.74-12.55-2.86-22.02.49-5.61 1.87-10.29 3.3-13.81 3.02.77 6.82 1.48 11.28 1.76 5.55.33 10.28-.11 13.86-.72l4.07-14.8 7.48-2.04.72-4.13c3.08 1.44 7.98 3.75 14.08 6.33 11.5 4.96 13.15 5.12 15.63 7.32 6.65 6 9.85 17.95 4.95 24.83-2.97 4.12-12.49 5.5-31.47 8.2z" stroke="#161616" class="Q X"/><path d="M523.64 390.05c-.38 2.59-.55 5.18-.44 7.82.06 1.05 1.71 1.05 1.65 0-.11-2.48.06-4.9.39-7.38.11-1.04-1.49-1.48-1.6-.44h0zm17.94 14.04c.44 2.04-.83 3.85-2.59 4.68-.99.44-.11 1.87.83 1.43 2.53-1.16 3.9-3.85 3.35-6.55-.22-1.05-1.81-.61-1.59.44h0zm-6.22-.55c.61.05 1.27.22 1.76.66l.33.33c.33-.28.39-.44.11-.39-.16-.11-.6-.11-.77-.16-.27-.11-.55-.17-.82-.33-.17-.06-.28-.17-.44-.28-.44.28-.5.5-.11.61.22.22.66.44.93.6l.94.61c.88.55 1.54-.61.99-1.32-.33-.44-.72-.66-1.21-.88-.99-.39-1.43 1.21-.44 1.59.22.11.33.28.49.44l.99-1.32-2.25-1.43c-.61-.33-1.38-.22-1.76.39-.99 1.48 1.15 2.53 2.25 2.86.61.17 1.32.33 1.93.11.66-.22.99-.94.77-1.6-.44-1.43-2.37-2.03-3.69-2.14-1.1-.06-1.04 1.59 0 1.65h0z" class="P"/><path d="M551.48 401.56c2.37.66 6.27 2.09 10.07 5.06 1.32 1.05 4.18 3.3 5.89 6.55 3.24 6.16 1.76 14.81-3.91 20.53-5.56 5.56-14.47 7.54-22.78 5.06l10.73-37.2z" class="T"/><g class="P"><path d="M554.18 380.48l-15.52 57.46c-.82 3.08 3.96 4.4 4.79 1.32l15.51-57.46c.83-3.08-3.96-4.4-4.78-1.32z"/><path d="M542.95 426.21c-.88-3.63-3.19-5.94-5.88-8.64-5.72-5.72-8.25-4.56-11.83-8.53-5.61-6.33-1.16-11.39-6.71-17.11-4.73-4.85-11.89-5.23-13.54-5.29-1.59-.05-8.03-.11-12.98 4.13-4.29 3.69-5.89 9.25-5.12 9.69.28.16 1.1-.22 3.74-3.03a10.55 10.55 0 0 0-2.42 3.91c-.66 2.09-.55 4.13-.22 4.18.28.06.39-1.1 1.54-1.87.66-.44 1.43-.61 1.98-.61-1.43 1.54-2.75 3.58-2.31 5.67 1.1 5.84 14.2 8.53 18.54 9.41 14.09 2.92 22.34.11 26.74 5.4.39.44 2.15 2.58 1.49 4.57-.88 2.53-5.45 3.96-8.2 2.75-2.37-1.05-2.7-3.74-3.19-3.63-.61.16-.28 4.67 2.36 8.8 1 1.49 1.77 2.7 3.36 3.52 2.81 1.38 6.38.66 8.53-.66 4.56-2.58 5.11-8.69 4.12-12.66h0z" stroke="#161616" class="X"/></g><path d="M523.92 429.02c0-.82.11-2.04.44-2.04.16 0 .33.34.33.28 0 0-1.21-1.16-1.21-2.42 0-.61.27-1.1.49-1.38a130.61 130.61 0 0 1-18.7 4.02c-7.87 1.1-14.91 1.38-20.91 1.27-.27 2.25-.44 5.44.33 9.24a29.45 29.45 0 0 0 2.59 7.49c8.53-3.69 15.13-5.23 19.58-6l9.47-1.43 10.5-1.49c-.27-.38-.71-.99-1.15-1.76-.61-1.05-1.76-3.19-1.76-5.78h0z" opacity=".22" class="R"/><path d="M568.98 420.66c-1.76 4.89-6.55 8.14-11.78 8.09-6.16-.11-9.79-4.85-10.12-5.29l-4.24 15.91c1.33.27 3.14.55 5.34.49 6.93-.16 11.66-3.3 12.65-4.01 1.55-1.05 6.61-4.9 7.87-11.45.28-1.54.28-2.86.28-3.74h0z" opacity=".392" fill="gray"/><path d="M470.88 307.72a140.49 140.49 0 0 0 8.37 10.51c4.29 4.9 8.52 9.03 12.48 12.49 5.67-5.5 11.67-11.06 17.99-16.73 6-5.39 11.94-10.46 17.78-15.24-1.38-2.81-3.25-6.06-5.73-9.36-4.84-6.44-10.17-10.73-14.25-13.48-9.29 6.55-19.09 14.36-28.77 23.77l-7.87 8.04z" class="Q"/><g class="P"><path d="M482.05 298.2c7.87-7.82 16.29-15.03 25.25-21.52.83-.61.06-2.04-.82-1.43-9.08 6.6-17.66 13.86-25.58 21.79-.77.77.38 1.93 1.15 1.16z"/><path d="M506.92 276.35c7.92 6 14.58 13.43 19.75 21.9.55.88 1.98.06 1.43-.82-5.34-8.76-12.21-16.3-20.36-22.52-.82-.6-1.65.83-.82 1.44zm-25.14 19.92c-4.02 3.47-7.87 7.15-11.5 11.06-.72.77.44 1.93 1.15 1.16 3.63-3.91 7.43-7.6 11.5-11.06.83-.72-.33-1.88-1.15-1.16z"/><path d="M470.5 308.87a235.56 235.56 0 0 0 20.19 21.85c.77.72 1.92-.44 1.15-1.15-7.15-6.88-13.91-14.15-20.19-21.85-.66-.88-1.87.33-1.15 1.15z"/><path d="M492.5 331.05c11.61-11.06 23.55-21.74 35.77-32.08.82-.66-.39-1.87-1.16-1.16-12.21 10.35-24.15 21.08-35.76 32.09-.77.71.38 1.87 1.15 1.15zm-15.18-22.73c3.74 4.85 7.65 9.58 11.66 14.15.72.82 1.87-.39 1.16-1.16a345.44 345.44 0 0 1-11.66-14.14c-.61-.88-1.76.33-1.16 1.15z"/><path d="M478.53 308.32c8.36-9.19 18.21-16.73 28-24.27.83-.66 0-2.09-.82-1.43-9.96 7.6-19.92 15.25-28.33 24.49-.77.83.44 1.98 1.15 1.21z"/><path d="M506.7 284.05c5.06 3.8 9.68 8.04 13.92 12.72.71.77 1.87-.39 1.15-1.16-4.34-4.79-9.07-9.08-14.25-12.99-.88-.61-1.7.83-.82 1.43z"/><path d="M489.97 322.91c2.81-.11 4.96-1.49 7.16-3.14a201.94 201.94 0 0 0 8.41-6.82c5.84-4.9 11.39-10.08 16.73-15.41.77-.77-.44-1.93-1.16-1.16-4.62 4.68-9.46 9.14-14.41 13.48-2.42 2.1-4.9 4.13-7.37 6.17-2.7 2.14-5.67 5.17-9.36 5.28-1.04-.05-1.04 1.6 0 1.6h0z"/></g><path d="M504.17 276.84l-5.5 10.4c-5.61 10.9-8.48 16.4-9.36 19.87-1.15 4.52-2.03 12.44 2.64 23.61l-20.96-22.34 33.18-31.54z" class="R V"/><g class="S"><path d="M498.45 294.67a100.05 100.05 0 0 1 7.42 8.53c.66.83 1.82-.33 1.16-1.15a98.65 98.65 0 0 0-7.43-8.53c-.71-.77-1.87.38-1.15 1.15z"/><path d="M499.11 294.45l3.85-2.42c.66-.44 1.37-1.1 2.14-1.32 1.05-.38.39-.6 1.21-.16.99.49 2.09 2.64 2.81 3.52l3.08 3.91c.66.82 1.82-.33 1.16-1.16l-4.02-5.12c-.66-.88-1.71-2.97-2.86-3.25-.83-.16-1.54.39-2.2.83l-6 3.74c-.88.61-.05 2.04.83 1.43h0z"/><path d="M506.86 303.15c2.31-.99 4.35-2.42 6.11-4.18.77-.77-.44-1.93-1.15-1.16-1.71 1.65-3.64 2.97-5.78 3.91-.99.44-.17 1.87.82 1.43zm-3.74-5.56c.72-.71 1.38-1.43 2.48-1.27.6.11.82.22 1.48.11.55-.11.72-.77.5-1.21-.5-.82-.94.55-.94 1.05 0 .44.17.94.5 1.27.82.88 2.03.66 3.03.22.99-.39.55-1.99-.45-1.6a4.69 4.69 0 0 1-1.21.33 1.46 1.46 0 0 1 0-1.16c0-.38.06-.71-.05-1.1-.17-.55-.61-1.04-1.21-1.1-1.76-.22-1.76 1.87-1.1 2.97l.49-1.21c-.44.06-.99-.27-1.43-.27-.33 0-.71.11-1.04.22-.88.33-1.54.99-2.15 1.65-.82.72.39 1.87 1.1 1.1h0zm-.82-3.52c.77.05 1.48 0 2.2-.17 1.04-.22.6-1.81-.44-1.59-.61.11-1.16.16-1.76.11-.44-.06-.83.38-.83.82 0 .5.39.77.83.83h0zm-12.6 7.92l7.65 8.59c.71.77 1.87-.39 1.15-1.16-2.58-2.8-5.17-5.67-7.65-8.58-.66-.83-1.81.33-1.15 1.15z"/><path d="M491.02 302.21c.55-.99.82-1.81 1.98-1.87.99-.05 1.6.72 2.26 1.32.93.83 1.7 1.82 2.64 2.7.71.66 1.48 1.32 2.31 1.87.71.5 1.37.77.6 1.71-.44.55-1.59.77-2.25.99-.99.33-.55 1.92.44 1.59 1.48-.49 3.85-1.26 4.34-3.02.22-.72.06-1.05-.44-1.54-1.04-.94-2.47-1.54-3.52-2.54-1.76-1.59-3.3-3.96-5.55-4.89-2.15-.83-3.25 1.15-4.19 2.8-.55.94.88 1.82 1.38.88z"/></g><path d="M474.24 295.83c-1.87.77-1.76 1.6-4.13 3.14-1.92 1.26-2.58 1.1-3.35 2.14-.88 1.16-.99 2.48-.99 3.36-.77 0-2.15.17-3.63.99-.44.22-3.31 1.82-4.13 5.28-.55 2.37.16 4.35.49 5.07-.77.55-1.92 1.54-2.42 3.14-.6 1.98.17 3.79 1.21 5.77 2.87 5.56 5.45 7.87 8.42 12.55.88 1.38 2.15 3.53 3.36 6.28a61.29 61.29 0 0 1-.5 9.63c-.82 6.16-2.42 10.62-2.91 12.05-2.48 7.16-6.83 23.89-7.27 39.24-.22 7.87-.44 20.48 6.5 33.36 2.58 4.84 6.43 11.67 14.25 14.47 1.21.44 10.28 3.69 16.61-1.43 2.31-1.87 3.47-4.18 4.13-5.78.16-.82.27-2.09.22-3.63-.22-6.66-4.18-11.45-5.56-13.26-4.79-6.33-6.22-13.38-8.69-25.32-1.54-7.38-1.21-13.76-.5-26.31.5-8.59 1.49-20.2 3.85-34.01 1.16-.28 2.75-.83 3.86-2.15 1.65-2.04.66-3.91 1.92-7.48.94-2.7 1.71-2.21 3.36-5.78 1.21-2.59 2.25-4.96 1.7-7.71-.11-.55-.82-3.8-3.13-4.57-2.97-1.04-6.39 2.7-7.21 3.64-1.71 1.87-2.48 3.85-2.92 5.06-1.7-2.2-3.46-4.84-5.06-7.98-.71-1.43-1.37-2.81-1.92-4.13.27-1.21.66-2.97.93-5.12.33-2.86.5-4.35.06-6.22-.33-1.26-.99-4.07-3.14-4.84-1.15-.44-2.64.16-3.41.55h0z" class="Q"/><g class="P"><path d="M469.01 340.8l-8.25-11.62c-2.59-3.74-5.61-9.02-1.87-13.15.72-.77-.44-1.98-1.16-1.16-2.91 3.19-2.58 7.54-.77 11.23 2.76 5.5 7.1 10.51 10.68 15.52.55.88 1.98.06 1.37-.82z"/><path d="M463.84 323.18c-2.64-2.75-4.84-6.49-4.78-10.4.05-3.8 2.8-6.66 6.43-7.26 1.05-.17.61-1.77-.44-1.6-3.9.66-7.04 3.69-7.59 7.65-.66 4.73 2.04 9.52 5.23 12.82.71.77 1.87-.44 1.15-1.21h0z"/><path d="M469.4 318.28c-4.24-4.73-4.73-11.66-1.38-17 .55-.88-.88-1.71-1.43-.83-3.79 6-3.08 13.76 1.6 18.99.77.83 1.92-.33 1.21-1.16zm4.45-3.63c-1.76-4.29-2.42-9.08-1.32-13.65.61-2.58 3.91-7.48 6.55-3.52 1.1 1.65.72 4.13.55 6-.27 3.52-1.54 7.37.28 10.68.88 1.54 2.2 2.86 3.19 4.29 1.26 1.76 2.25 3.69 3.19 5.67.44.99 1.87.11 1.43-.83-1.16-2.53-2.59-4.9-4.29-7.1-.99-1.32-2.26-2.53-2.7-4.18-.44-1.6 0-3.36.17-5.01.44-3.36 1.81-9.63-1.82-11.89-3.25-2.03-6.71.99-7.76 3.97-1.87 5.12-1.1 11.11.88 16.07.44.93 2.04.49 1.65-.5z"/><path d="M467.47 301.77c.66-1.92 3.08-2.8 4.9-1.87.93.5 1.76-.93.82-1.43-2.75-1.48-6.27-.05-7.31 2.86-.39.99 1.21 1.43 1.59.44zm21.07 20.81c.61-1.76 1.49-3.3 2.81-4.57.55-.5 1.15-.99 1.82-1.38 1.54-.88 2.2-.88 3.9-.27 1.98.71 2.26 1.15 2.42 3.25a10.91 10.91 0 0 1 0 1.98c-.16 2.09-.93 4.07-1.92 5.89-1.16 2.09-2.59 4.01-3.25 6.38-.99 3.58-1.04 6.5-4.9 8.2-.99.44-.11 1.87.83 1.43 1.65-.71 3.03-1.81 3.96-3.36 1.27-2.03 1.16-4.45 1.93-6.65.88-2.43 2.58-4.46 3.68-6.77.99-2.21 1.49-4.63 1.32-7.05-.22-3.3-2.14-6.05-5.77-5.5-4.13.6-7.16 4.29-8.42 8.03-.39.94 1.21 1.38 1.59.39h0z"/><path d="M488.87 342.45c-1.54 10.01-2.8 20.09-3.68 30.16-.77 9.02-1.27 18.1-.39 27.19.83 8.31 2.92 16.4 6.82 23.77 3.97 7.54 8.86 14.42 6.66 23.39-.27 1.05 1.32 1.49 1.6.44 1.87-7.76-.99-14.09-4.68-20.75-4.4-7.87-7.37-15.9-8.53-24.93-1.1-9.02-.71-18.1 0-27.13.88-10.57 2.15-21.14 3.8-31.65.16-1.1-1.43-1.54-1.6-.49h0z"/><path d="M467.69 340.85c1.1 2.42.83 5.12.55 7.71l-1.37 8.75c-.99 5.12-2.37 10.18-3.69 15.24-2.58 9.96-5.06 19.93-5.39 30.22-.33 10.18.99 20.69 4.35 30.32 2.8 8.04 7.75 15.8 15.73 19.38 7.54 3.35 16.84 1.76 21.68-5.29.6-.88-.83-1.7-1.43-.82-5.34 7.7-15.96 7.54-23.11 2.59-7.7-5.34-11.22-14.53-13.31-23.29-2.31-9.68-2.92-19.81-1.82-29.66 1.1-9.69 3.85-19.04 6.22-28.46 1.26-5.06 2.47-10.12 3.19-15.3.6-4.01 1.43-8.42-.33-12.22-.28-.99-1.71-.11-1.27.83h0z"/></g><g class="R"><path d="M462.63 305.9c-.22 2.75-.22 6.28.61 10.13 2.25 10.57 8.91 17.23 11.93 19.87.11 3.13.17 7.98 0 13.81-.82 26.2-5.99 39.02-6.87 51.3-.83 11.94 1.98 29.39 19.47 51.95-2.36.17-5.94.17-9.73-1.43-3.42-1.43-8.75-4.73-13.59-15.79-4.4-10.13-9.25-28.68-3.85-49.92 2.36-9.25 6.05-16.51 7.92-32.04a139.12 139.12 0 0 0 .82-9.96c-1.21-2.2-2.97-5.23-5.5-8.53-4.12-5.45-6.82-7.26-7.48-11.17-.5-2.75.16-5.56 1.59-8.31-.16-.72-.66-3.63.99-6.5 1.22-1.98 2.92-2.97 3.69-3.41h0z" class="W"/><path d="M469.73 347.89c.38.06-.77 9.64-3.03 28.79l-3.02 25.98c-.72 25.1 9.07 42.82 7.48 43.42-1.16.44-6.71-8.47-9.96-19.26-4.46-14.92-2.7-27.85-1.59-35.28.93-6.55 1.32-4.73 6.27-26.97 2.47-11.17 3.46-16.73 3.85-16.68z" class="V"/></g><path fill-rule="evenodd" d="M205.93 505.19c.66 7.27.38 13.21-.11 17.45-.72 7.98-1.93 9.91-3.25 11.12-1.82 1.65-2.86 1.1-9.19 4.18-3.63 1.71-3.46 1.98-6.32 3.25-2.37 1.04-5.23 2.26-8.97 2.86a30.59 30.59 0 0 1-9.36 0 33.33 33.33 0 0 1-12.04 2.7c-7.6.22-13.81-2.37-16.84-3.63-4.95-2.1-6.66-3.8-12.21-5.34a43.89 43.89 0 0 0-7.48-1.32c-1.82-.33-4.46-.83-7.65-1.16-3.36-.39-10.01-1.1-18.54-.39-4.62.39-5.23.78-9.74.94-9.74.33-11.33-1.49-11.83-2.09-1.59-2.15-.71-5.28-.16-7.27 1.37-5.06 4.4-8.09 10.12-13.59 11.17-10.79 11.22-10.62 12.43-12.22 3.69-4.9 5.23-9.19 7.65-16.07 2.42-6.77 2.42-9.08 5.94-21.63l3.08-10.35c0-2.25.33-5.67 1.71-9.57 1.1-3.2 2.58-7.38 6.11-9.58 3.35-2.04 6.32-.88 11.66-.55 11.99.71 22.12-3.8 25.64-5.34 7.04-3.14 8.52-5.67 15.29-6.88 3.36-.6 7.1-1.21 10.89.55 5.45 2.59 7.54 8.37 9.36 13.6 2.03 5.66 2.14 10.62 2.31 15.46.11 3.19.11 4.9-.39 7.27-1.04 4.95-3.08 6.27-3.79 10.12-.28 1.49-.11 2.31 1.54 9.58 3.52 15.25 4.34 17.28 6.49 18.93 1.21.88 2.75 1.65 4.56 3.8a17.5 17.5 0 0 1 3.09 5.17zm-90.95 15.19c-.6-3.9-.6-9.57 2.37-17 .38-1.16.88-3.25.6-5.84-.22-2.31-.99-4.07-1.54-5.11.22-3.2.33-7.93-.11-13.65-.38-4.46-1.32-12.61-2.42-12.61-.93.06-.99 6.28-3.74 16.29-1.04 3.8-2.09 6.94-2.91 9.19-.88 1.38-1.76 2.7-2.7 4.08l-6.05 8.42a82.31 82.31 0 0 1-8.53 8.03c-5.01 4.13-7.81 5.56-8.36 8.98-.33 1.7-.06 4.23 1.54 5.61.99.88 2.2.93 4.57 1.15 1.32.11 1.59-.05 4.78-.33 1.98-.16 1.87-.11 5.01-.33l5.5-.44c7.37-.38 10.29 1.99 11.99.33 1.32-1.32.44-3.74 0-6.77z" class="Q"/><g class="P"><path d="M115.26 436.45c-7.32 11.89-2.64 25.87-.55 38.58.6 3.75.93 7.49.77 11.23-.11 1.76-.33 3.52-.11 5.34.22 1.65.82 3.14 1.21 4.73 1.04 4.13-.44 8.31-1.27 12.33-.71 3.47-1.43 6.94-1.54 10.46-.22 5.56 1.16 11.5 5.17 15.52 4.46 4.46 10.95 3.74 16.29 6.55 5.56 2.97 10.78 5.45 17.16 6.05 3.14.28 6.39.17 9.47-.38 3.3-.55 6.38-2.15 9.68-2.7 3.14-.49 6.16.61 9.3-.22 3.52-.88 6.93-2.86 10.23-4.35l10.29-4.68c2.25-1.04 4.29-1.98 4.84-4.62.72-3.3.33-7.21.39-10.57.11-3.52.38-7.04.16-10.56-.11-2.26-.44-4.52-1.37-6.55-1.44-3.19-4.46-4.19-6.44-6.83-3.91-5.39-5.89-12.93-6.99-19.43-.33-2.03-.55-4.07-.71-6.11-.11-2.09.6-3.41 1.37-5.22a29.89 29.89 0 0 0 2.15-8.09c.88-6.39.05-12.94-1.43-19.16-1.27-5.28-2.97-11.17-7.21-14.91-11.11-9.8-25.69 1.7-35.98 6.55-3.8 1.76-7.76 2.91-11.94 2.91-4.02 0-7.98-.77-11.99-.49-5.34.33-10.9 2.75-12.71 8.09-.33.99 1.26 1.43 1.59.44 2.2-6.44 9.85-7.16 15.63-6.83 6.16.39 11.77.78 17.6-1.54 10.02-3.96 20.41-13.98 32.02-10.45 6.38 1.92 9.08 8.14 10.73 14.09 1.65 5.94 2.7 12.1 2.37 18.27-.17 3.03-.72 6.05-1.71 8.97-.44 1.32-1.04 2.64-1.7 3.91-.72 1.43-.55 2.47-.44 4.13.38 5.94 1.65 11.77 3.79 17.33.94 2.42 1.98 4.85 3.25 7.16 1.37 2.42 3.24 3.41 5.17 5.28 4.4 4.18 3.25 11.61 3.08 17.06l-.33 10.4c-.05 2.32-.55 3.64-2.53 4.79-1.6.94-3.41 1.6-5.12 2.31l-9.29 4.24c-3.53 1.6-7.05 3.64-11.06 3.42-2.64-.12-4.79-.45-7.38.27-3.19.94-6.21 2.09-9.51 2.48-6.33.77-12.88-.22-18.6-2.98-2.42-1.15-4.67-2.69-7.15-3.79-2.59-1.16-5.28-1.43-8.03-2.09-6.49-1.55-9.96-7.71-10.51-13.98-.66-7.49 2.2-14.48 3.08-21.8.49-3.69-1.43-6.77-1.71-10.4-.22-3.69.39-7.32 0-11.06-1.37-13.82-8.25-29.17-.27-42.22.82-.99-.61-1.81-1.21-.88h0z"/><path d="M116.3 436.29c9.63-1.43 17.17 6.27 21.19 14.09 3.85 7.37 5.83 15.57 10.06 22.78 3.58 6.06 8.81 11.12 15.85 12.66 6.21 1.38 13.09.06 18.21-3.8 6.88-5.17 9.85-13.7 11.39-21.85.22-1.04-1.38-1.48-1.6-.44-1.43 7.43-3.96 15.41-10.01 20.37-6.11 5.01-15.13 6.05-22.23 2.47-14.69-7.32-14.8-27.3-24.15-39.07-4.62-5.84-11.66-9.91-19.26-8.81-.93.17-.49 1.76.55 1.6h0z"/><path d="M174.46 488.79c.05.11.11.17.16.28.06-.33.11-.66.11-.99l-.27.27c.33-.05.66-.11.99-.11-.94-.49-1.38-2.58-1.71-3.52-.49-1.43-.82-2.97-1.1-4.46-.16-1.15-.93-9.79 1.49-8.97.71.28 1.26 3.25 1.48 4.02.39 1.48.61 3.03.77 4.57.17 1.48.17 2.97.22 4.4l.06 1.98c0 .33 0 .66-.06.99.11.39-.05.66-.44.83.11-1.05-1.54-1.05-1.65 0-.11 1.1.77 1.98 1.93 1.87 1.59-.17 1.81-1.93 1.81-3.19.11-2.98-.05-6.11-.49-9.03-.33-2.42-.83-5.89-2.59-7.76-3.24-3.52-4.34 3.36-4.4 5.23-.16 2.92.22 5.83.99 8.58.5 1.66 1.21 5.01 2.92 5.89.33.17.71.17.99-.11l.27-.27c.28-.28.33-.72.11-.99-.05-.11-.11-.17-.16-.28-.55-.99-1.98-.16-1.43.77h0zm-13.21 29.83c.28 8.81 1.05 17.62 2.31 26.31.17 1.05 1.76.61 1.6-.44-1.21-8.58-1.98-17.23-2.26-25.87-.05-1.04-1.7-1.04-1.65 0h0z"/><path d="M162.41 519.01c3.9-5.51 10.89-7.82 16.94-9.91 6.66-2.31 13.43-4.07 20.36-5.34 1.04-.16.6-1.76-.44-1.59a135.6 135.6 0 0 0-23.27 6.38c-5.67 2.15-11.45 4.57-15.08 9.63-.55.88.88 1.71 1.49.83z"/><path d="M162.68 519.34c6.49 3.47 12.82 6.11 20.3 4.13 7.16-1.93 13.81-5.95 19.42-10.63.83-.66-.33-1.81-1.15-1.15-5.23 4.35-11.28 7.98-17.77 9.96-7.37 2.26-13.48-.16-19.97-3.69-.94-.55-1.76.88-.83 1.38h0z"/><path d="M188.32 518.02l1.32 6.49c.22 1.05 1.82.61 1.6-.44l-1.32-6.49c-.22-1.05-1.82-.61-1.6.44zm3.69-1.54l.6 6.11c.11 1.04 1.76 1.04 1.65 0l-.6-6.11c-.11-1.05-1.76-1.1-1.65 0zm-75.32-11.95c-1.05 3.03 0 5.78 3.58 5.18.88-.17 1.65-.55 2.53-.83.49-.16 1.21-.44 1.76-.38 2.8.38 1.21 1.32 1.92 2.31.83 1.1 1.32 1.65 2.81 1.65 1.98-.06 5.88-1.93 7.21.49.49 1 0 3.64 0 4.85l.05 4.29.5 18.77c.05 1.04 1.7 1.04 1.65 0-.39-9.63-.55-19.32-.61-29.01 0-.27-.16-.6-.38-.71-1.82-.83-3.64-1.21-5.62-.94-1.37.17-1.98.72-3.3-.05-1.26-.72-.82-1.16-1.59-2.15-.83-1.04-2.04-1.26-3.3-1.1-.88.11-1.6.5-2.42.77-.44.17-.99.44-1.49.44-1.21-.05-2.09-1.93-1.65-3.08.27-1.05-1.32-1.49-1.65-.5h0zm-3.63-54.54c.05-6.33 2.09-17.78 11.11-15.57 1.05.27 1.49-1.33.44-1.6-3.79-.94-7.54.71-9.9 3.74-2.97 3.74-3.3 8.81-3.3 13.43 0 1.1 1.65 1.1 1.65 0z"/><path d="M111.57 446.52c-1.21 2.54.5 5.12 2.04 7.21 1.59 2.2 4.01 4.19 6.88 3.58 1.59-.33 2.69-1.76 4.29-2.04 1.76-.38 3.46 1.16 5.22 1.11 3.74-.17 6-3.75 8.7-5.73.82-.6.05-2.04-.83-1.43-2.15 1.54-3.8 3.96-6.27 5.01-2.59 1.1-4.13-.83-6.6-.66-2.48.16-3.91 2.7-6.55 2.03-2.2-.55-6.6-5.61-5.39-8.25.38-.94-1.05-1.82-1.49-.83h0z"/><path d="M112.01 445.53c-2.64 11.56-5.72 23.01-9.18 34.29-1.66 5.34-3.2 10.9-5.95 15.85-2.36 4.24-5.61 7.82-9.07 11.18-6.06 5.83-13.04 11.33-16.45 19.26-1.38 3.19-1.76 6.49 1.37 8.75 3.47 2.53 8.58 2.42 12.6 2.04 6.16-.61 12.27-2.54 18.49-2.04 5.94.49 11.6 2.92 17.55 1.16.99-.33.6-1.88-.44-1.6-5.34 1.6-10.57-.44-15.9-1.1-4.41-.55-8.81.16-13.1.88-5.17.88-11 2.15-16.12.33-3.19-1.1-4.56-3.47-3.41-6.72.77-2.14 1.93-4.18 3.25-5.99 4.67-6.72 11.5-11.56 17-17.56 6.16-6.77 8.96-14.86 11.66-23.5 3.52-11.51 6.66-23.12 9.35-34.84.22-.99-1.37-1.43-1.65-.39h0zm.06 18.28c-.99 10.4-2.09 21.07-7.21 30.43a45.07 45.07 0 0 1-8.58 11.23c-3.14 2.97-6.77 5.34-10.01 8.14-2.43 2.1-5.89 5.23-6.11 8.7-.22 3.14 2.42 5.61 5.23 6.44 4.51 1.38 9.95-.27 14.57-.55 5.4-.28 10.84-.11 16.23.44 1.05.11 1.05-1.54 0-1.65-5-.55-10.06-.72-15.13-.5-2.14.11-4.34.28-6.49.5-2.53.27-5.22.88-7.75.38-3.14-.6-5.84-3.08-4.52-6.49.83-2.04 2.59-3.8 4.19-5.28 2.91-2.76 6.32-4.9 9.29-7.54 5.67-4.9 10.13-11.23 12.93-18.17 3.36-8.31 4.18-17.33 5.06-26.19.06-.94-1.59-.94-1.7.11h0zm14.19 46.94c.5 4.9 1.27 9.69 2.37 14.48.22 1.04 1.81.6 1.59-.44-1.04-4.63-1.81-9.3-2.31-14.09-.11-.99-1.76-.99-1.65.05zm13.76-69.51c8.8 6.77 22.99 10.68 33.28 4.95.94-.49.11-1.92-.82-1.43-9.8 5.4-23.33 1.43-31.58-4.95-.94-.66-1.76.77-.88 1.43z"/><path d="M113.22 448.28c-.33-3.96.44-8.58 3.19-11.61 2.76-2.97 7.05-2.7 10.79-2.7 6.87.11 13.81.83 20.35-1.59.99-.39.55-1.98-.44-1.6-8.41 3.14-17.05.66-25.69 1.76-7.54.99-10.4 8.92-9.85 15.74.06 1.05 1.71 1.11 1.65 0h0z"/><path d="M113.55 449.88c.55-3.8 1.76-7.37 3.85-10.62 1.1-1.71 2.26-3.3 4.19-4.02 1.87-.71 4.07-.44 6.05-.44 6.65.11 13.48.33 19.53-2.86.93-.5.11-1.93-.83-1.43-3.96 2.09-8.3 2.64-12.71 2.69-3.74.06-7.75-.6-11.44.11-6.44 1.27-9.41 10.52-10.23 16.08-.17 1.04 1.43 1.54 1.59.49h0z"/><path d="M113.06 448.45c.38-5.01.99-11.45 5.94-14.2 2.7-1.49 6.22-1.16 9.19-1.21H136c5.01-.11 10.01-.5 14.8-2.15 4.57-1.59 8.8-4.07 12.93-6.55.93-.55.11-1.98-.83-1.43-5 2.97-10.12 6-15.84 7.32-6.33 1.49-12.88 1.1-19.31 1.16-4.73.05-9.3.05-12.49 4.07-2.92 3.69-3.36 8.48-3.74 12.99-.17 1.05 1.48 1.05 1.54 0h0z"/></g><g class="R"><path d="M150.69 431.44c2.37 2.2-.72 6.39 1.43 10.13 2.81 4.84 10.89 5.45 17.05 5.17-3.24.88-8.19 2.92-10.94 7.49-4.84 8.03-1.49 21.46 10.12 30.93l3.19 24.82-9.24 8.09.27 27.74c-2.75.99-7.04 2.09-12.1 1.43-5.06-.6-6.22-2.36-15.9-6.33-8.97-3.68-10.29-3.08-13.26-5.78-5.5-4.89-6.55-11.77-6.66-12.43-.71-5.07 1.32-5.73 2.31-15.91.5-5.28.39-9.47.28-10.95-.22-4.9-.83-6.72-1.43-12.11-.77-6.44-.39-7.76-.88-13.87-1.21-15.74-4.46-18.6-2.31-26.58.88-3.25 1.92-7.32 5.5-9.53 4.46-2.8 7.7.5 17.05-.27 8.97-.77 13.1-4.4 15.52-2.04h0z" opacity=".051"/><path d="M120.1 435.19c-6.11 1.15-10.34 10.73-7.48 16.45.93 1.87 3.08 4.29 5.77 4.63 2.21.27 2.76-1.16 6.06-1.44 3.35-.27 3.96 1.05 6.65.55 1.98-.33 4.9-1.7 5.78-4.01 1.54-4.13-4.07-9.14-6.05-10.96-3.14-2.8-6.66-5.99-10.73-5.22z" class="V"/><path d="M116.36 471.9c1.32-.22 4.35 17.88 10.67 35.55 5.94 16.46 13.48 29.06 19.37 37.54-4.73-2.37-8.75-3.8-11.56-4.63-3.68-1.1-6.38-1.54-10.12-3.46-2.75-1.44-4.78-2.98-6.05-4.02-1.21-1.54-2.92-4.07-3.47-7.49-.22-1.26-.16-1.87.28-7.48.6-8.15.6-8.42.88-9.8.82-4.51 1.54-4.46 1.7-7.48.22-2.87-.38-3.42-1.15-8.98-.66-4.84-.77-8.53-.88-10.95-.11-5.5-.22-8.75.33-8.8h0z" opacity=".141"/></g><defs /></svg>