<svg xmlns="http://www.w3.org/2000/svg" width="800" height="545"  xmlns:v="https://vecta.io/nano"><style><![CDATA[.P{fill:#161616}.Q{fill:#fff}.R{fill:#6d6c6c}.S{fill:#e8e8e8}.T{fill:#e5261f}.U{opacity:.122}.V{opacity:.11}.W{opacity:.102}.X{stroke-width:1.036}]]></style><g class="S"><path d="M65.97 401.03c35.21-17.46 75.7-10.52 112.72-3.94 19.73 3.53 39.41 6.79 59.39 8.45 21.39 1.81 42.88 2.17 64.31 1.14 41.48-2.07 82.23-10.26 123.14-17.05 40.9-6.73 82.64-12.02 124.06-7.09 40.34 4.81 79.69 21.86 120.8 18.44 4.61-.36 9.17-1.04 13.73-1.97.98-.21.57-1.71-.42-1.5-41.37 8.39-82.02-8.19-122.35-14.87-40.39-6.68-81.45-3.01-121.63 3.16-41.74 6.37-83.11 15.39-125.26 18.55-42.51 3.16-84.82.15-126.76-7.26-35.88-6.37-74.61-14.76-110.24-2.59a105.97 105.97 0 0 0-12.27 5.13c-.88.52-.1 1.87.78 1.4zm487.09 68.23c-1.91-4.04-12.89-30.15-2.9-29.53.57.05.83-.52.73-.98a68.2 68.2 0 0 1 .51-24.46c.78-3.73 1.87-7.35 3.27-10.88 1.24-3.16 4.19-12.12 8.95-7.92 2.9 2.59 2.59 8.18 2.9 11.71.31 4.14.47 8.28.47 12.48-.05 8.39-.78 16.79-2.17 25.08-.78 4.4-1.71 8.8-2.85 13.1-.62 2.33-1.3 4.61-1.97 6.89-.67 2.07-1.19 5.23-3.57 6.01-.93.31-.52 1.82.41 1.5 3.32-1.14 4.04-5.07 4.92-8.03 1.5-4.87 2.74-9.84 3.78-14.86 1.97-9.95 3-20.1 3-30.26a163.06 163.06 0 0 0-.77-15.8c-.37-3.32-.62-7.36-3.63-9.48-7.2-5.08-11.03 8.86-12.42 13.37-3.27 10.31-3.99 21.18-2.28 31.86.26-.31.51-.68.72-.99-6.21-.36-6.06 7.05-5.28 11.19 1.35 7.15 3.68 14.09 6.84 20.67.46 1.04 1.76.21 1.34-.67h0z"/><path d="M568.7 426.62c-.16-3.52.21-7.04 1.19-10.41.47-1.66 1.09-3.26 1.81-4.87.36-.72.73-1.45 1.14-2.12.26-.37.57-.68.83-1.04 1.55-1.55 2.85-1.3 3.83.83-.15.98 1.19 1.4 1.5.41 1.04-3.42 3.06-7.66 7.2-7.87 4.4-.21 5.59 4.25 5.75 7.77.36 6.79-.83 13.73-2.59 20.26-3.63 13.31-10.3 25.59-16.93 37.66-.47.88.88 1.66 1.34.78 8.24-15.03 16.73-30.62 19.11-47.77.52-3.83.88-7.77.57-11.66-.21-2.69-.93-5.69-3.21-7.4-2.18-1.61-5.13-1.45-7.41-.21-2.95 1.66-4.45 4.87-5.38 7.98l1.5.41c.26-1.76-.72-3.26-2.54-3.68-1.96-.46-3.67.83-4.76 2.39-3.68 5.13-4.82 12.38-4.56 18.49.06 1.04 1.61 1.04 1.61.05h0zm-36.56 67.77c22.27-12.18 48.68-11.4 73.06-7.88 26.57 3.83 53.29 10.88 80.26 7.51 14.97-1.86 30.14-6.99 45.26-3.42.98.21 1.4-1.24.41-1.5-13.1-3.11-26.25.16-39.19 2.38-14.04 2.39-28.12 2.18-42.26.47-26.51-3.16-52.66-10.52-79.58-9.12-13.47.68-26.82 3.68-38.73 10.16-.88.51-.11 1.86.77 1.4zm68.2-35.7c19.83 1.81 39.09-3.99 58.25-8.34 10.1-2.28 20.35-4.25 30.7-4.35 10.83-.16 21.44 2.02 32.06 3.83 11.28 1.97 22.68 3.42 34.07 1.3.98-.21.57-1.66-.42-1.5-21.17 3.93-41.89-4.87-62.96-5.24-19.73-.31-38.73 6.01-57.84 10-11.13 2.33-22.42 3.78-33.81 2.75-1.04-.05-1.04 1.5-.05 1.55h0zm-460.33-68.85c-1.81-1.97-3.41-4.2-4.61-6.63-.57-1.19-1.08-2.38-1.45-3.68-.31-.98-.62-2.02-.41-3 .21-1.14 1.45-3.68 3.26-2.02.57.51 1.5 0 1.3-.78-2.85-10.26-3.52-20.67-4.25-31.24-.72-10.52-1.5-21.29.57-31.71.52-2.48.88-6.11 3.68-6.99 3.47-1.14 5.9 2.54 6.88 5.29 1.76 4.76 2.85 9.94 3.99 14.92 2.43 10.56 4.09 21.29 5.08 32.06a248.14 248.14 0 0 1 .51 35.65c-.05.98 1.5.98 1.56 0 1.39-24.15-.78-48.49-6.58-71.96-.72-2.9-1.45-5.75-2.28-8.6-.67-2.28-1.4-4.61-2.9-6.43-2.02-2.38-5.85-3.67-8.49-1.5-1.55 1.3-2.07 3.47-2.48 5.34-.63 2.74-1.09 5.49-1.35 8.29-.62 5.95-.52 11.96-.21 17.97.73 13.21 1.3 26.63 4.82 39.43.41-.26.88-.52 1.29-.78-2.85-2.64-6.11.73-5.95 3.83.2 5.03 3.73 10.16 6.99 13.68.62.73 1.71-.36 1.03-1.14h0z"/><path d="M155.18 345.08c-2.12-4.92-.93-10.21.37-15.18 1.14-4.51 2.28-8.91 2.28-13.57.05-5.29-.32-10.42 1.03-15.6.62-2.38 1.5-4.66 2.59-6.89.47-.93 1.04-2.43 1.81-3.1 2.33-2.08 3.52 1.76 4.04 3.21 3.52 9.69 4.14 20.15 4.3 30.36.21 10.72-.1 21.44-.88 32.12-.88 12.27-2.44 24.5-4.56 36.67-.15.99 1.35 1.4 1.5.42 4.3-24.35 6.27-49.22 5.34-73.88-.21-5.7-.68-11.45-1.82-17.04-.51-2.75-1.24-5.49-2.12-8.13-.62-1.82-1.24-4.3-2.9-5.5-3.62-2.64-6.06 3.84-7.04 6.17-2.02 4.71-3 9.74-3 14.87 0 3.42.26 6.84-.11 10.26-.36 3.31-1.34 6.47-2.12 9.68-1.35 5.34-2.33 10.73-.1 15.96.46.83 1.81.05 1.39-.83h0zm-70.21-69.06c29.52-22.01 59.65-44.19 93.88-58.49 16.88-7.04 34.74-11.96 53.02-13.41 20.19-1.61 40.49 1.08 60.07 6.16 39.97 10.47 76.27 30.67 114.07 46.73 36.6 15.59 74.97 25.8 114.12 32.48 39.2 6.69 78.86 10.16 118.47 13.21l14.76 1.14c.98.05.98-1.5 0-1.55-40.54-3.06-81.14-6.17-121.32-12.43-39.72-6.17-79.12-15.44-116.45-30.52-37.91-15.28-73.74-35.64-112.94-47.61-19.05-5.8-38.83-9.63-58.82-9.63-18.38 0-36.55 3.52-53.85 9.53-34.74 12.12-65.5 33.31-94.91 54.96l-10.88 8.09c-.82.62-.05 1.96.78 1.34h0zm446.76 12.54c31.74.67 62.39-8.55 92.84-16.32 15.64-3.99 31.38-7.67 47.43-9.38 16-1.76 32.16-1.34 48 1.66 17.92 3.37 35.16 9.9 50.85 19.12.88.52 1.65-.83.77-1.35-27.39-16.06-59.28-23.73-90.97-21.71-32.31 2.03-63.12 12.65-94.5 19.79-17.87 4.1-36.09 7.05-54.47 6.69-.94-.05-.94 1.5.05 1.5h0zm164.76 107.65c22.16-3.36 44.79-3.47 67.01-.2.98.15 1.39-1.35.41-1.51-22.52-3.26-45.31-3.16-67.83.21-.99.16-.57 1.61.41 1.5zm-681.84-47.5c16.73-20.31 34.85-39.48 54.22-57.25.72-.67-.37-1.76-1.09-1.09-19.42 17.77-37.54 36.89-54.21 57.25-.63.78.46 1.86 1.08 1.09zM616.34 66.36c-6.99 2.44-12.48-3.42-15.9-8.75-3.37-5.18-5.8-10.83-5.8-17.15.05-11.86 7.97-22.28 18.95-26.42 10.15-3.78 22.53-1.76 30.4 5.91 8.13 7.92 10.2 20.25 5.07 30.3-1.45 2.85-3.31 5.55-5.18 8.14-1.08 1.5-2.12 3.16-3.62 4.35-1.76 1.34-3.73 1.6-5.85 1.86l-21.85 2.49c-.99.1-.99 1.66 0 1.55 7.87-.88 15.89-1.45 23.71-2.69 6.37-1.04 9.79-7.46 12.79-12.59 6.11-10.41 5.65-23.11-2.23-32.53-7.81-9.38-21.59-12.44-32.98-8.55-11.44 3.94-19.99 14.24-20.76 26.47-.47 7.72 2.59 14.82 6.88 21.03 3.73 5.39 9.69 10.47 16.68 8.03 1.03-.25.62-1.76-.31-1.45h0zM143.33 85.84c-2.18-5.33 3.52-9.69 8.33-10.05 5.13-.36 10.05 1.82 15.02 2.75 9.37 1.81 19 1.09 28.06-1.92 8.7-2.9 17.2-7.67 26.57-7.87 9.63-.16 18.22 5.54 27.96 4.35 4.71-.57 9.27-2.07 14.03-2.44 4.4-.36 11.03.47 12.58 5.49 1.56 5.03-5.49 9.23-9.21 11.04a31.39 31.39 0 0 1-13.31 3.16c-4.87 0-9.22-1.45-13.77-2.95-4.2-1.4-8.34-2.23-12.74-2.13-8.39.16-16.47 2.85-24.49 5.08-4.97 1.4-10.05 2.69-15.23 3.11-5.33.41-10.2-.52-15.32-1.76-5.08-1.25-9.53-.78-14.66-.06-3.05.42-6.26.68-9.11-.82-2.54-1.35-4.61-3.73-3.99-6.79.21-.98-1.29-1.4-1.5-.41-.78 3.57 1.29 6.57 4.4 8.34 4.2 2.38 8.86 1.39 13.41.72 3.16-.47 6.11-.57 9.27.05 2.8.57 5.54 1.51 8.39 1.97 4.45.73 8.96.47 13.41-.21 10.15-1.65 19.73-5.75 29.88-7.2 5.43-.77 10.82-.57 16.1 1.04 4.92 1.5 9.58 3.42 14.76 3.57 8.33.31 19.26-3 24.13-10.25 2.17-3.27 1.5-7.05-1.45-9.54-3.26-2.85-7.82-3.31-11.96-2.9-5.34.52-10.46 2.33-15.8 2.59-5.95.31-11.44-1.97-17.14-3.42-10.61-2.69-19.93.78-29.77 4.61-6.01 2.34-12.01 4.25-18.48 4.82-7.05.62-13.78-.41-20.61-2.17-4.87-1.25-10.46-2.54-15.02.31-3.47 2.17-5.85 6.27-4.24 10.31.36.88 1.86.52 1.5-.42h0zm432.93 85.53c7.46-7.25 18.28-7.14 28.01-6.21 11.39 1.09 22.42 2.54 33.92 1.29 5.9-.67 11.65-1.91 17.4-3.42 6-1.55 12.16-3.21 18.48-3 6.37.21 12.32 2.74 18.59 3.63 5.7.77 11.44.1 17.09-.99 5.07-.93 10.09-2.49 15.32-2.23 4.61.21 10.26 2.54 9.84 8.14-.41 5.23-6.31 8.86-11.03 9.63-6 .94-12.11-1.24-18.07-1.71-11.18-.88-19.62 6.63-30.24 8.55-11.18 2.02-21.69-4.14-32.31-6.42-13.05-2.75-25.42 2.95-38.16 5.02-6.37 1.04-13.77 2.44-20.19 1.14-3.16-.67-6.17-2.23-7.72-5.18-1.4-2.74-1.45-6.06.88-8.29.73-.67-.36-1.81-1.09-1.09-3 2.85-2.84 7.36-.77 10.78 2.48 4.09 7.25 5.49 11.75 5.75 13.26.78 26.2-3.73 38.94-6.42 7.09-1.51 13.62-.99 20.56.98 5.8 1.66 11.39 3.94 17.34 5.03 5.65 1.03 11.08.72 16.47-1.25 5.64-2.02 10.92-5.18 16.83-6.52 11.18-2.54 23.76 5.69 33.81-2.18 3.37-2.64 5.7-6.89 4.09-11.14-1.4-3.68-4.97-5.49-8.65-6.01-4.76-.72-9.37.31-14.03 1.3-7.4 1.55-14.96 2.79-22.52 1.34-6.53-1.24-12.69-3.57-19.47-3.26-6.42.31-12.64 2.18-18.85 3.73-7.87 1.97-15.9 3.11-24.03 3.26-7.04.11-13.98-.77-20.97-1.55-11.03-1.24-23.61-2.02-32.2 6.32-.83.57.25 1.66.98.98h0z"/><path d="M239.02 523.6c-2.33-2.12-4.35-4.5-6.01-7.2-.78-1.24-1.5-2.59-2.07-3.93-.31-.78-.83-1.92-.73-2.8.16-1.5 1.61-3.78 3.37-2.38.67.57 1.66-.11 1.24-.94-1.97-3.83-3.16-8.23-2.95-12.59.05-.83.16-1.6.47-2.38a6.95 6.95 0 0 1 1.08-1.86c.94-.94 1.76-.94 2.49.1 1.92 1.4 2.69 4.09 3.57 6.22 3.16 7.56 5.49 15.43 7.1 23.46.51-.15.98-.25 1.5-.41-1.4-3.89-2.49-7.87-3.16-11.97-.47-2.9-1.3-12.53 4.66-9.32 3.83 2.07 4.56 8.23 4.56 12.12.05 4.3-.78 8.5-1.61 12.69-.21.99 1.3 1.4 1.5.42 1.04-5.34 2.13-10.88 1.45-16.37-.52-3.99-2.28-10.36-7.09-10.99-3.83-.46-5.39 3.42-5.49 6.58-.21 5.75 1.76 11.97 3.68 17.31.36.93 1.7.57 1.5-.42-1.19-6.01-2.85-11.97-4.92-17.72-.93-2.59-1.92-5.12-3.06-7.66-.82-1.92-1.65-4.67-3.67-5.75-3.21-1.77-5.49 1.81-6.01 4.5-.93 4.92.78 10.57 2.95 14.92l1.24-.93c-3.15-2.64-6.36 1.14-5.9 4.46.78 5.28 5.44 10.51 9.17 14.04.77.57 1.86-.52 1.14-1.2h0zm-62.35-389.94c11.5-2.33 23.2-4.66 35.01-3.63 11.34.99 22.05 5.03 33.03 7.83 21.44 5.38 43.65 7.3 65.71 7.25 12.64-.05 25.22-.67 37.8-1.71.98-.1.98-1.66 0-1.55-22.47 1.76-45.15 2.48-67.68.41-11.44-1.04-22.83-2.85-34.02-5.54-10.66-2.59-21.02-6.48-31.94-7.88-12.9-1.66-25.74.83-38.32 3.37-.98.15-.57 1.66.41 1.45h0zm121.17.1c38-1.97 74.92-14.92 113.24-12.53.98.05.98-1.51 0-1.56-38.26-2.38-75.24 10.62-113.24 12.54-1.04.05-1.04 1.61 0 1.55zm312.7 258.62c-1.5-3.78-2.28-7.77-2.23-11.86 0-2.08.26-4.15.73-6.17.41-1.86 2.48-6.68 4.86-3.63.42.52 1.4.11 1.35-.57-.52-4.45-.42-8.91.41-13.31.37-1.92.88-3.83 1.56-5.7.41-1.14.83-2.38 1.39-3.47.83-1.55 1.77-1.97 3.32-2.75 2.79-1.29 2.85-4.66 3.52-7.35.93-3.68 2.02-7.41 4.14-10.57 1.24-1.87 3.58-4.87 6.11-4.2 2.02.52 2.75 2.7 3.11 4.56.83 4.1.26 8.65.05 12.8-.47 9.17-1.66 18.34-3.52 27.3-2.07 9.84-5.02 19.48-8.7 28.86-.36.93 1.14 1.34 1.5.41 7.67-19.37 11.96-40.05 12.48-60.92.1-4.04.62-17.51-7.35-14.41-3.37 1.35-5.65 5.44-6.99 8.6-.78 1.82-1.35 3.68-1.87 5.55-.77 2.85-.77 6.37-3.52 8.03-1.6.98-2.64 1.4-3.57 3.26-1.09 2.13-1.86 4.56-2.49 6.89-1.39 5.34-1.76 10.88-1.08 16.37l1.34-.57c-1.03-1.29-2.74-1.6-4.24-.93-2.02.93-2.75 3.26-3.21 5.23-1.45 6.27-.83 12.85 1.5 18.86.26 1.04 1.76.62 1.4-.31h0z"/><path d="M595.83 389.69c-2.22-3.48-4.4-7.1-5.54-11.14-.52-1.87-.83-3.78-.72-5.7.15-2.13 1.03-3.78 1.76-5.75 1.14-3.16-.68-6.17-1.4-9.22-.36-1.45-2.49-14.35 2.07-12.59.57.2 1.09-.42.93-.93-1.5-6.69-3.05-13.79-.93-20.47.93-2.95 4.71-10.62 8.6-7.1 2.38 2.18 3.72 6.22 4.81 9.12 4.76 13.11 6.84 27.67 7.77 41.55.05.98 1.6.98 1.55 0-.62-9.07-1.86-18.08-3.78-26.94-1.66-7.77-3.47-16.42-7.97-23.16-1.4-2.07-3.42-3.83-6.06-2.74-2.8 1.14-4.71 4.56-5.8 7.15-3.06 7.41-1.35 15.49.31 23.05l.93-.93c-2.74-1.09-4.4 2.02-4.81 4.35-.83 5.18 1.08 10 2.28 14.92.72 3.01-1.09 5.13-1.61 7.93-.41 1.97-.31 3.93.05 5.9.88 4.92 3.57 9.43 6.22 13.63.51.67 1.86-.11 1.34-.93h0zm41.58-26.06c1.4-4.82 2.85-9.64 5.8-13.73 2.85-3.94 6.16-7.67 9.32-11.35 1.66-1.86 3.31-3.73 5.13-5.44.93-.88 1.86-1.81 3.05-2.43 2.33-1.25 3.89.36 4.51 2.48 1.39 4.87.26 10.16-.99 14.98-4.76 18.23-13.05 35.48-24.13 50.77-.57.83.78 1.6 1.35.77 10.2-14.04 17.97-29.73 22.94-46.36 1.19-3.99 2.38-8.08 2.79-12.23.37-3.37.47-8.03-1.55-10.93-4.24-6.01-13.05 5.96-15.38 8.7-3 3.53-6.21 7.05-8.85 10.88-2.75 4.04-4.14 8.76-5.49 13.42-.31.98 1.19 1.4 1.5.47h0zm-3-40.2c-1.97 24.14-7.15 47.86-15.38 70.61-.36.93 1.14 1.34 1.5.41 8.29-22.9 13.46-46.78 15.43-71.02.05-.99-1.5-.99-1.55 0h0z"/><path d="M620.32 344.3a129.08 129.08 0 0 1 4.35 32.12c0 .99 1.56.99 1.56 0-.11-10.98-1.56-21.91-4.4-32.53-.26-.99-1.77-.57-1.51.41zm7.05-11.76c1.81 7.15 2.69 14.46 2.74 21.81 0 .99 1.55.99 1.55 0a94.32 94.32 0 0 0-2.79-22.22c-.26-.99-1.76-.57-1.5.41h0zm-4.41 55.9c3.99-3.11 7.56-6.68 10.67-10.62.62-.78-.46-1.86-1.09-1.09-3.15 3.99-6.68 7.52-10.66 10.62-.78.63.31 1.71 1.08 1.09zm-26.97-72.47c4.5 18.8 8.02 37.81 10.46 56.98.1.99 1.65.99 1.55 0-2.49-19.32-6.01-38.49-10.51-57.4-.21-.98-1.71-.57-1.5.42z"/><path d="M589.83 333.79c4.55 2.74 8.44 6.27 11.54 10.62.57.83 1.92.05 1.35-.78-3.26-4.56-7.3-8.29-12.07-11.14-.93-.57-1.71.78-.82 1.3zm19.83 10.82a97.92 97.92 0 0 0-4.51 14.35c-.21.99 1.24 1.4 1.5.42 1.14-4.87 2.64-9.69 4.51-14.35.36-.93-1.14-1.35-1.5-.42zm-19.94 23.52c5.7 1.61 11.24 3.48 16.73 5.65.93.36 1.34-1.14.41-1.5-5.49-2.18-11.08-4.04-16.72-5.65-.99-.26-1.4 1.25-.42 1.5zm72.96-36.99c-6.89 23.99-25.94 42.38-32.05 66.68-.26.98 1.24 1.4 1.5.41 6.11-24.29 25.16-42.68 32.05-66.67.31-.99-1.19-1.4-1.5-.42z"/><path d="M648.8 341.25l-3.93 25.17c-.16.99 1.34 1.4 1.5.42l3.93-25.18c.16-.98-1.34-1.4-1.5-.41zm1.56 18.44c4.6-3.32 9.42-6.32 14.44-9.07.88-.46.11-1.81-.77-1.34-5.03 2.69-9.84 5.7-14.45 9.06-.83.62-.05 1.97.78 1.35zm-14.86 30.05c4.71-5.55 11.44-8.34 18.07-10.99.93-.36.51-1.86-.42-1.5-6.83 2.75-13.82 5.65-18.74 11.4-.68.78.41 1.86 1.09 1.09zm-75.24 4.92c1.91 12.12.31 24.3-1.5 36.37l-5.28 35.64c-.16.98 1.34 1.4 1.5.41l5.59-37.61c1.71-11.65 3.05-23.47 1.19-35.17-.21-1.04-1.66-.63-1.5.36h0z"/><path d="M550.16 416.78c1.76 7.25 4.14 14.3 7.15 21.14.41.93 1.76.1 1.34-.78-2.9-6.74-5.23-13.63-6.99-20.77-.26-.94-1.76-.52-1.5.41h0zm15.59-14.71c-.73 4.71-2.44 9.01-5.13 12.9-.57.83.78 1.6 1.35.77 2.74-3.99 4.55-8.49 5.28-13.31.1-.93-1.4-1.35-1.5-.36h0zm21.38.77c-6.37 22.13-14.5 43.68-24.23 64.55-.41.89.93 1.71 1.35.78 9.78-20.98 17.96-42.69 24.38-64.91.26-.93-1.24-1.35-1.5-.42h0z"/><path d="M583.04 401.91l-.57 15.03c-.05.98 1.5.98 1.56 0l.57-15.03c.05-.98-1.51-.98-1.56 0zm-11.49 6.74c-2.8 11.7 0 23.93 1.65 35.64.16.98 1.66.57 1.51-.42-1.61-11.39-4.35-23.36-1.66-34.81.26-.98-1.24-1.4-1.5-.41zm-2.28 47.71c5.02-1.24 9.68-3.37 13.88-6.37.82-.57.05-1.92-.78-1.35a40.34 40.34 0 0 1-13.52 6.22c-.98.2-.57 1.71.42 1.5zm-431.59-151.9c5.23 28.29 8.49 56.94 9.69 85.64.05.98 1.6.98 1.55 0-1.19-28.91-4.45-57.66-9.74-86.05-.2-.98-1.7-.57-1.5.41h0z"/><path d="M132.04 337.31a87.84 87.84 0 0 1 13.1 22.69c.36.93 1.86.52 1.5-.41-3.31-8.45-7.82-16.27-13.46-23.37-.62-.78-1.76.31-1.14 1.09zm15.53-19.01c-1.86 7.72-3.26 15.54-4.24 23.41-.11.99 1.45.99 1.55 0a195.47 195.47 0 0 1 4.19-23c.21-.98-1.29-1.4-1.5-.41h0zm16.26-27.82a661.16 661.16 0 0 1-4.97 101.23c-.1.98 1.45.98 1.55 0 4.25-33.57 5.91-67.4 4.98-101.23-.06-.99-1.61-.99-1.56 0z"/><path d="M155.13 326.07a113.84 113.84 0 0 1 7.72 27.66c.15.99 1.65.57 1.5-.41a113.92 113.92 0 0 0-7.72-27.67c-.41-.88-1.91-.52-1.5.42zm5.96 58.59c2.22-4.35 5.18-8.13 8.8-11.4.72-.67-.36-1.76-1.09-1.09a40.09 40.09 0 0 0-9.06 11.71c-.46.88.88 1.66 1.35.78zm-2.23-88.43c1.35 4.3 2.85 8.49 4.51 12.69.36.93 1.86.52 1.5-.41-1.71-4.15-3.21-8.4-4.51-12.7-.31-.98-1.81-.57-1.5.42zM47.64 500.34c33.97-3.31 68.35-2.28 102 3.22 9.48 1.55 18.96 3.47 28.33 5.69.98.21 1.4-1.24.41-1.5-33.19-7.92-67.31-11.55-101.44-10.77-9.78.25-19.57.82-29.3 1.81-.99.05-1.04 1.6 0 1.55zm304.46 14.87c.06-2.23 5.6-2.64 6.94-2.49 2.28.21 4.46 1.4 5.7 3.32 4.09 6.32-4.2 8.86-8.96 7.31-.93-.32-1.35 1.19-.41 1.5 3.31 1.14 7.71.98 10.4-1.66 2.28-2.23 1.82-5.8.11-8.24-1.92-2.69-5.08-4.04-8.34-3.83-2.28.15-6.94 1.19-6.99 4.09 0 .99 1.55.99 1.55 0h0z"/><path d="M351.84 514.38c3.32-4.66 10.26-6.78 15.44-8.44 5.74-1.81 11.7-2.9 17.76-3.21.98-.06.98-1.61 0-1.56-6.79.36-13.52 1.61-19.94 3.84-5.18 1.81-11.29 3.93-14.6 8.6-.57.82.78 1.6 1.34.77h0z"/><path d="M385.81 502.93c3.99.47 7.2 3.58 7.98 7.46.2.99 1.71.57 1.5-.41-.93-4.66-4.82-8.03-9.48-8.6-1.03-.1-.98 1.45 0 1.55h0zm1.92-1.6c5.8-3.63 11.44 1.03 12.63 6.89.21.98 1.71.57 1.5-.42-1.45-6.89-8.28-11.96-14.91-7.82-.83.57-.05 1.92.78 1.35z"/><path d="M394.15 511.48c3.21 1.04 6.63-.78 7.77-3.88.36-.94-1.14-1.35-1.51-.42-.82 2.33-3.52 3.58-5.85 2.8-.98-.31-1.39 1.19-.41 1.5h0zm-42.51 2.13c-2.7 1.55-2.54 5.23-1.5 7.77 1.14 2.9 3.93 4.81 7.09 4.04.98-.26.57-1.71-.41-1.51-2.44.57-4.41-.98-5.23-3.16-.68-1.76-1.14-4.66.88-5.8.82-.52.05-1.86-.83-1.34h0z"/><path d="M352.36 519.51c-1.55-4.19 6.01-6.73 8.65-4.35 1.66 1.5 1.24 3.89-.52 5.13-.77.57-1.76.98-2.74.78-3.47-.68-.62-4.67 1.08-2.39.63.78 1.97 0 1.35-.77-2.02-2.65-6.47-1.3-5.64 2.27.88 3.94 6.47 2.54 8.18.11 2.38-3.42-.21-7.57-4.14-7.62-3.73-.05-9.38 2.65-7.67 7.2.31.99 1.81.57 1.45-.36h0zm12.38 4.04a106.52 106.52 0 0 0 30.86-11.86c.88-.52.1-1.87-.78-1.35-9.53 5.49-19.78 9.38-30.5 11.71-.98.21-.57 1.71.42 1.5zm29.2-24.66c8.8-7.41 17.61-16.21 28.89-19.58.94-.31.57-1.76-.41-1.5-11.55 3.47-20.56 12.43-29.57 19.99-.77.63.37 1.71 1.09 1.09h0z"/><path d="M422.73 479.88c5.8 1.97 9.99 7.15 10.62 13.26.1.99 1.65.99 1.55 0-.67-6.84-5.23-12.59-11.75-14.76-.94-.31-1.35 1.19-.42 1.5z"/><path d="M401.76 509.1c10.62-4.72 21.18-9.64 31.64-14.77.88-.41.1-1.76-.78-1.34-10.46 5.13-21.02 10-31.64 14.76-.93.42-.1 1.76.78 1.35zm-14.5-7.05l1.04-.72c.36-.26.52-.68.26-1.09-.21-.36-.73-.52-1.09-.26l-1.04.73c-.36.25-.51.67-.26 1.08.21.31.73.52 1.09.26zM233.63 489.2c.98 11.61 3.57 22.95 7.77 33.78.36.93 1.86.52 1.5-.41-4.14-10.73-6.78-21.92-7.72-33.37-.05-.98-1.6-.98-1.55 0h0z"/><path d="M230.94 512.47c3.21 1.65 6.06 3.83 8.59 6.47.68.73 1.76-.36 1.09-1.09-2.59-2.74-5.54-4.97-8.9-6.68-.89-.52-1.66.83-.78 1.3h0zm11.34-7.78a16.14 16.14 0 0 0-2.85 10.83c.1.99 1.66.99 1.55 0-.31-3.62.57-6.99 2.64-10.05.52-.78-.82-1.55-1.34-.78zm4.61-4.3c1.5 6.43 1.96 12.96 1.29 19.54-.1.98 1.45.98 1.55 0 .63-6.69.16-13.37-1.39-19.95-.16-.93-1.66-.52-1.45.41z"/><path d="M244.61 502.67l3.73 7.21c.46.88 1.81.1 1.34-.78l-3.73-7.2c-.46-.88-1.81-.11-1.34.77z"/></g><path d="M275.26 178.06a8.75 8.75 0 0 1-8.75-8.76 8.74 8.74 0 1 1 17.5 0 8.75 8.75 0 0 1-8.75 8.76z" class="T"/><path d="M557.26 364.61a6.31 6.31 0 0 1-6.32-6.32c0-3.49 2.82-6.32 6.32-6.32 3.49 0 6.31 2.83 6.31 6.32 0 3.5-2.82 6.32-6.31 6.32zm9.21-12.23c-1.43 0-2.59-1.15-2.59-2.59a2.59 2.59 0 0 1 5.18 0c0 1.44-1.16 2.59-2.59 2.59zM147.73 195.1a4.455 4.455 0 1 1 0-8.91 4.455 4.455 0 1 1 0 8.91z" class="P"/><path d="M164.5 204.74c-2.69 0-4.86-2.18-4.86-4.87 0-2.7 2.17-4.87 4.86-4.87 2.7 0 4.87 2.17 4.87 4.87 0 2.69-2.17 4.87-4.87 4.87zm153.43 108.32c-1.49 0-2.69-1.2-2.69-2.69s1.2-2.69 2.69-2.69 2.69 1.2 2.69 2.69-1.2 2.69-2.69 2.69zM527.9 58.96a4.66 4.66 0 0 1-4.66-4.67 4.65 4.65 0 0 1 4.66-4.66 4.66 4.66 0 0 1 4.66 4.66c0 2.58-2.09 4.67-4.66 4.67zm20.71 16.06a3.52 3.52 0 0 1-3.52-3.53c0-1.95 1.57-3.52 3.52-3.52s3.52 1.57 3.52 3.52a3.52 3.52 0 0 1-3.52 3.53zm-3.63 263.58a3.62 3.62 0 0 1-3.62-3.62c0-2.01 1.62-3.63 3.62-3.63 2.01 0 3.63 1.62 3.63 3.63 0 2-1.62 3.62-3.63 3.62zM302.39 58.96c-1.28 0-2.33-1.05-2.33-2.34s1.05-2.33 2.33-2.33c1.29 0 2.33 1.04 2.33 2.33s-1.04 2.34-2.33 2.34zm-57.42 194.58c-.62-.83 0-2.28.78-2.75.98-.62 2.33-.31 3.36-.05 1.09.26 2.07.78 3.11 1.04 1.35.36 2.85.52 4.19 0 1.45-.57 2.18-1.71 2.49-3.16.31-1.25.21-2.8 1.24-3.78.99-.99 2.54-1.09 3.83-1.09 3.32.05 6.58 1.91 8.39-1.92.93-2.07 1.09-4.35 3.37-5.54 2.74-1.45 6.06-.21 8.75.72.93.31 1.35-1.14.41-1.5-4.09-1.45-9.99-2.8-12.53 2.02-.41.83-.67 1.76-.98 2.59-.31.78-.67 2.13-1.5 2.49-.94.41-2.64-.05-3.63-.21-1.91-.26-3.93-.47-5.8.36-1.86.88-2.48 2.39-2.84 4.36-.94 5.23-5.08 2.79-8.5 1.96-1.86-.46-3.88-.31-5.17 1.25-.99 1.19-1.25 2.69-.32 3.93.57.88 1.92.11 1.35-.72h0zm12.01 8.39c.52-3 2.85-4.66 5.85-4.51 1.66.06 3.47.63 5.13.11 1.14-.36 2.02-1.14 2.49-2.23 1.08-2.38 1.08-4.4 3.41-6.16 1.97-1.51 4.3-1.97 6.68-1.4 1.51.36 3.11 1.03 4.66.46 1.66-.62 2.44-2.54 3.94-3.52 1.92-1.24 4.25-1.66 6.42-2.02.98-.16.57-1.66-.41-1.5-2.02.36-4.04.77-5.86 1.66-.82.41-1.55.88-2.22 1.5-1.35 1.24-1.92 2.48-4.14 2.38-1.92-.05-3.42-.98-5.44-.72-1.81.25-3.52 1.03-4.92 2.17-1.29 1.09-2.33 2.49-2.85 4.15-.57 1.71-.93 3.78-3.26 3.83-1.09.05-2.18-.21-3.26-.26-3.78-.31-7.04 1.76-7.72 5.6-.15 1.03 1.3 1.45 1.5.46h0zm272.94-14.81c3.36.62 5.12 5.02 8.95 3.57 2.23-.83 3.58-2.9 6.17-2.95 2.84-.06 4.14 2.33 6.57 3.11 4.04 1.29 7.25-3.17 11.13-2.44 3.53.67 5.7 4.92 9.64 3.78.98-.26.56-1.76-.42-1.5-3.47.98-6.16-3.83-9.73-3.94-1.61-.05-3.16.62-4.56 1.25-2.95 1.34-4.82 2.17-7.66.05-2.85-2.18-6.11-2.49-9.17-.47-.93.62-1.66 1.3-2.74 1.61-1.61.46-2.64-.37-3.83-1.35-1.25-.98-2.39-1.97-3.99-2.28-.93-.15-1.35 1.35-.36 1.56h0zm10.66-5.13c2.64 2.12 5.7-.83 8.49.93 2.65 1.66 4.15 2.17 7.15 1.14 1.66-.57 3.31-1.4 5.13-1.14 1.45.26 2.59 1.35 4.09 1.5 1.39.16 2.59-.62 3.83-1.19 2.48-1.09 4.92-.98 7.25.52.83.57 1.6-.78.77-1.35-2.43-1.55-5.23-1.97-7.97-.93-.83.31-1.81 1.09-2.69 1.24-1.3.21-2.33-.36-3.47-.88-1.04-.47-2.02-.62-3.16-.52-1.45.16-2.8.78-4.19 1.19-2.23.73-3.68.63-5.65-.77-1.09-.78-2.07-1.19-3.42-1.14-1.55.05-3.67 1.34-5.07.26-.78-.57-1.86.51-1.09 1.14h0z" class="T"/><path d="M369.76 288.46c.21-2.75 3.37-2.65 5.02-1.71.83.46 1.5 1.14 2.18 1.81 1.19 1.14 2.33 2.43 3.83 3.16 2.8 1.24 4.5-.26 6.83-1.61 7.36-4.14 12.79 9.33 20.2 4.61.41-.25.05-.93-.42-.67-4.91 3.16-9.52-2.95-13.61-4.76-1.35-.63-2.8-.99-4.25-.73-2.12.36-3.52 2.23-5.54 2.75-4.76 1.29-6.58-5.44-10.87-5.91-2.07-.26-4.04.98-4.2 3.11 0 .46.78.46.83-.05h0zm131.42 29.68c.93-3.68 4.09-5.59 7.76-5.28 1.87.15 3.37.1 4.61-1.51 1.45-1.91 1.51-4.5 3.27-6.32 2.07-2.07 5.23-2.69 8.02-3.21.47-.1.26-.83-.21-.72-2.58.46-5.38 1.03-7.5 2.64-2.02 1.55-2.54 3.68-3.52 5.9-1.3 2.85-3.27 2.34-5.91 2.39-1.03 0-2.02.26-2.95.67-2.23 1.04-3.73 2.95-4.35 5.29-.1.46.62.67.78.15h0zm17.71-2.9c0-2.64 1.6-5.18 4.14-6.01 1.81-.62 3.73.1 5.54-.52 2.9-1.03 4.35-4.66 7.61-4.82.52-.05.52-.82 0-.77-1.6.1-2.79.83-3.99 1.86-.93.83-1.76 1.82-2.84 2.44-1.71 1.09-3.27.62-5.08.77-3.62.32-6.21 3.53-6.21 7.05.05.52.83.52.83 0h0z" class="S"/><path d="M328.28 90.61c.83 2.49 2.65 5.75 5.75 4.2 1.87-.94 2.75-2.96 4.97-3.37a5.94 5.94 0 0 1 6.27 3c.31.62 1.19.42 1.4-.2 1.55-4.51 7.25-4.87 9.52-.78.47.88 1.82.1 1.35-.78-2.95-5.39-10.36-4.61-12.32 1.14.46-.05.93-.1 1.39-.21-1.34-2.53-4.03-3.99-6.88-3.83-1.3.05-2.54.41-3.57 1.19-.68.47-1.2 1.35-1.92 1.76-.73.42-3 .11-3.63-.52-.46-.46-.67-1.45-.82-2.02-.31-.93-1.82-.51-1.51.42h0zm22.68-6.84c.99.78 1.92.78 3.11.41 1.61-.46 2.64-1.45 4.04.37.47.62.62 1.45 1.24 2.02 1.14 1.14 2.8 1.29 4.35 1.14 1.81-.16 6.99-1.4 6.73 1.97-.05.98 1.51.98 1.56 0 .36-4.77-5.91-3.58-8.65-3.47-2.02.05-2.95-.78-3.88-2.44-.42-.72-.83-1.35-1.61-1.71-1.76-.78-4.45 1.61-5.8.57-.77-.57-1.91.52-1.09 1.14h0zM188.69 365.8c-.57-1.81-.47-3.68.51-5.28 1.04-1.66 2.64-2.18 4.15-3.16 1.91-1.3 2.64-3.06 2.95-5.29.15-1.19.15-2.38.46-3.57.57-2.07 1.87-3.01 3.78-3.83 1.76-.73 3.37-1.35 4.51-2.96.57-.83-.78-1.6-1.35-.77-1.65 2.28-4.92 2.22-6.88 4.14-1.97 1.97-1.66 4.77-2.13 7.25-.67 3.79-4.09 3.99-6.21 6.53-1.71 2.07-2.12 4.87-1.3 7.36.32.93 1.82.52 1.51-.42h0zm.72-17.2c3.83-2.28.62-7.87 4.51-10.05 2.07-1.19 3.93-1.71 5.59-3.57 1.6-1.82 2.64-3.99 3.67-6.17.42-.88-.93-1.71-1.34-.77-1.04 2.17-2.07 4.35-3.73 6.11-1.76 1.92-4.14 2.12-6.06 3.68-2.85 2.33-.57 7.66-3.47 9.43-.83.51-.05 1.81.83 1.34h0zm210.49-65.12c-3.16.37-5.7-2.43-5.18-5.59.52-3.01 3.36-5.34 6.37-5.55 2.43-.15 5.18.83 6.31 3.16 1.25 2.54.11 6.01-2.53 7-.93.36-.52 1.86.41 1.5 3.16-1.24 4.82-4.66 3.99-7.98-.99-3.83-5.18-5.7-8.91-5.18-3.62.52-6.94 3.53-7.3 7.26-.36 3.83 2.9 7.3 6.78 6.89 1.04-.06 1.04-1.61.06-1.51z" class="P"/><path d="M164.3 454.55c3.26-3.53 8.23-8.45 14.91-13.47 5.75-4.35 10.41-7 16.31-10.31l31.22-17.05 46.5-3.88c21.96-1.66 57.22-4.3 97.61-5.34l16.31-.36 51.83-.36 26.62-.37c14.18.11 25.83.63 33.7 1.09l23.77 2.13c1.86.2 4.61.51 8.18 1.39 4.3 1.09 7.72 2.49 9.94 3.58l-8.49 12.8c-9.37 13.88-18.9 27.09-28.37 39.78-1.51.94-4.25 2.39-7.82 3.58-7.61 2.48-14.09 1.91-16.31 1.76-9.32-.67-31.95-.26-64.93.72l-44.02-1.08-12.79 19.53-85.18-4.61 17.04-18.81-126.03-10.72z" class="Q"/><g class="P"><path d="M194.07 445.43l76.64 5.96c.98.1.98-1.45 0-1.56l-76.64-5.96c-.98-.05-.98 1.51 0 1.56h0zm196.97 12.9a1375.94 1375.94 0 0 1 80.21 1.71c.98.05.98-1.5 0-1.56a1392.84 1392.84 0 0 0-80.21-1.71c-.98 0-.98 1.56 0 1.56zm-150.68-28.6c12.95 2.28 26.1 1.97 39.2 1.87 13.88-.11 27.75.2 41.63.67l82.18 3.94c15.74.67 31.53 1.09 47.27 1.09.98 0 .98-1.56 0-1.56-54.89.16-109.57-5.65-164.4-5.7-15.17 0-30.45.88-45.46-1.76-.94-.21-1.4 1.3-.42 1.45zm124.79-11.09a2105.89 2105.89 0 0 1 116.77 3.42c.98.06.98-1.5 0-1.55a2086.59 2086.59 0 0 0-116.77-3.42c-.98 0-.98 1.55 0 1.55zm175.54-7.51a967.72 967.72 0 0 1-36.09 51.45c-.63.77.72 1.55 1.34.77 12.58-16.73 24.65-33.93 36.09-51.44.57-.83-.77-1.61-1.34-.78zm-363.08 32.59c15.94-11.04 32.1-22.12 50.12-29.53.93-.36.52-1.87-.42-1.5-18.17 7.46-34.43 18.6-50.53 29.68-.78.57 0 1.92.83 1.35z"/><path d="M226.23 414.4c41.11-3.78 82.27-6.53 123.49-8.14 41.22-1.6 82.49-2.22 123.76-1.6 11.54.15 23.09.46 34.58 1.5 11.09.98 22.68 2.12 33.04 6.42.93.37 1.35-1.14.41-1.5-8.8-3.68-18.48-4.87-27.9-5.9-10.31-1.14-20.67-1.66-31.02-1.92-20.66-.52-41.37-.47-62.03-.26-41.43.36-82.85 1.86-124.22 4.45-23.41 1.46-46.81 3.27-70.17 5.44-.98.06-.98 1.61.06 1.51h0zm146.07 55.58c38.57 1.3 77.15 1.35 115.67-.1 6.63-.26 14.04-1.03 18.13-6.94.57-.83-.78-1.61-1.35-.78-4.09 5.86-12.01 6.01-18.43 6.22l-26.62.78c-18.64.36-37.28.36-55.92.05l-31.53-.78c-.94-.05-.94 1.5.05 1.55h0zm-195.47-27.66l-13.67 11.97c-.57.46-.05 1.29.57 1.34l125.67 10.05c.98.06.98-1.5 0-1.55l-125.67-10.05.57 1.35 13.67-11.97c.67-.73-.42-1.81-1.14-1.14h0z"/><path d="M307 449.06c-12.06 10.62-23.4 21.96-33.96 34.03-.68.73.41 1.87 1.08 1.09 10.57-12.07 21.96-23.47 33.97-34.04.78-.67-.31-1.76-1.09-1.08h0z"/><path d="M307.57 450.14c25.22-2.43 50.59-1.81 75.65 1.92.99.16 1.4-1.35.42-1.5-25.17-3.78-50.7-4.46-76.07-1.97-.98.1-.98 1.66 0 1.55h0z"/><path d="M382.45 451.54l-25.53 36.53c-.57.82.78 1.6 1.35.77l25.52-36.52c.57-.83-.77-1.61-1.34-.78h0z"/><path d="M273.24 484.9l83.94 4.15c.98.05.98-1.5 0-1.55l-83.94-4.15c-.98-.05-.98 1.5 0 1.55zm21.7-9.73l13 2.27c.98.16 1.39-1.34.41-1.5l-13-2.28c-.98-.15-1.4 1.35-.41 1.51z"/><path d="M305.04 470.4a98.53 98.53 0 0 0-7.46 8.7c-.62.78.72 1.56 1.35.78 2.27-2.9 4.66-5.7 7.24-8.39.63-.68-.46-1.82-1.13-1.09h0zm7.3.78c.05-2.7 2.07-4.46 4.71-4.41 1.29 0 2.48.42 3.78.21a7.57 7.57 0 0 0 5.54-3.94c.78-1.4.98-3 2.17-4.14 1.3-1.25 3.11-1.81 4.87-1.97 1.61-.16 3.37-.05 4.92.52 1.29.52 2.64 1.5 2.69 3.05.05 1.2-.67 2.44-2.02 2.49l.21 1.5c1.4-.2 2.95 1.3 3.37 2.49.2.57.25 1.3.2 1.87-.05 1.34-.72 2.74-1.6 3.78-.88 1.03-2.02 1.86-3.32 2.22-1.14.32-1.34.37-2.17-.57-.93-1.08-.52-1.29.47-2.12 4.45-3.73 8.12 1.14 12.68 1.3 3.11.1 6.06-1.82 6.68-4.98.31-1.55-.15-2.95-.93-4.35-.88-1.55-1.4-1.86-1.04-3.78-.26-1.14.11-1.71 1.09-1.71.57-.26 1.09-.26 1.61.1 1.24.37 1.96 1.19 2.74 2.23.57.78 1.92.05 1.35-.78-1.61-2.22-4.4-4.35-7.2-2.69-2.64 1.55-1.71 4.3-.42 6.42 1.35 2.28 2.28 4.67-.1 6.74-2.69 2.33-5.75.78-8.39-.52-2.69-1.29-5.69-1.45-8.28.26-1.56.98-3.83 3.57-2.12 5.44 1.86 1.97 5.74.31 7.4-1.04 2.12-1.71 3.52-4.56 3.11-7.35-.47-2.8-2.64-4.98-5.49-4.51-.88.15-.68 1.55.21 1.5 3.15-.05 4.5-3.88 2.84-6.32-2.28-3.37-7.97-3.42-11.39-2.17-1.71.62-3.21 1.7-4.14 3.31-.67 1.14-.88 2.54-1.61 3.63-1.14 1.66-3.15 2.64-5.17 2.64-2.39-.05-4.25-.73-6.32.83-1.61 1.19-2.38 2.95-2.38 4.87-.11.98 1.45.98 1.45-.05h0z"/></g><path d="M395.08 179.56l-.36 37.09 87.25-2.54 17.81 13.84-4.71-27.31-1.45-22.53-98.54 1.45zm-3.16-91.9l-2.9 53.72-15.38 19.17 18.33-4.98 109.05-3.73-2.9-64.55-106.2.37z" class="T"/><g class="Q"><path d="M452.97 111.49c.73 12.9 9.99 23.52 22.68 25.9.98.16 1.4-1.3.41-1.5-12.01-2.23-20.86-12.18-21.54-24.4-.1-1.04-1.65-1.04-1.55 0h0z"/><path d="M476.01 137.34c4.97.36 9.43-6.94 11.24-10.78 2.38-5.18 3.11-10.88 2.02-16.42-.21-.98-1.71-.57-1.5.41.93 4.82.41 9.74-1.45 14.3-.93 2.23-2.13 4.35-3.68 6.22-1.5 1.86-3.99 4.92-6.63 4.71-.98-.1-.98 1.45 0 1.56h0z"/><path d="M480.36 135.73c2.07 2.54 4.87 4.3 8.03 5.18.98.26 1.4-1.24.41-1.5-2.95-.83-5.43-2.43-7.35-4.77-.62-.77-1.71.37-1.09 1.09h0z"/><path d="M486.89 125.73c.62.99 1.29 1.92 2.07 2.8.72.78 2.02 1.45 2.64 2.28 1.81 2.44-1.66 7.15-3.16 9.01-.62.78.73 1.56 1.35.78 1.71-2.23 4.09-5.96 3.98-8.96-.05-.83-.36-1.3-.93-1.87-1.66-1.76-3.31-2.74-4.66-4.87-.52-.82-1.86-.05-1.29.83h0z"/><path d="M485.9 127.29c-.26 2.48-.88 4.87-1.96 7.15-.16.36-.52.83-.63 1.19-.25.93.42-.57.57-.78.62-1.09 1.14-2.23 1.66-3.31l-1.4-.63c-.46 1.51-1.24 2.65-2.48 3.68l1.24.93 3.21-5.49c.52-.88-.78-1.55-1.35-.77l-3.41 4.61c-.52.72.62 1.6 1.24.93 1.24-1.45 2.17-3.01 2.8-4.77.36-.93-1.14-1.34-1.51-.41-.57 1.55-1.34 2.85-2.43 4.09l1.24.93 3.42-4.61-1.35-.77-3.21 5.49c-.46.83.57 1.45 1.25.93 1.45-1.14 2.38-2.59 2.9-4.35.25-.83-1.04-1.4-1.4-.62l-1.66 3.31c-.31.62-.83 1.4-.72 2.13.05.88.93 1.65 1.86 1.34 1.24-.41 1.86-2.69 2.28-3.78.83-2.07 1.29-4.25 1.55-6.47-.05-.94-1.6-.94-1.71.05h0zm-14.39 7.72c-4.3-.68-7.92 2.12-10.82 5.02-3.21 3.21-5.6 7.1-6.42 11.55-.21.99 1.29 1.4 1.5.42.67-3.68 2.43-6.89 4.92-9.69 2.48-2.85 6.31-6.47 10.4-5.8.99.15 1.4-1.35.42-1.5h0zm-5.18-21.71c1.61 4.2 3.42 8.34 5.33 12.38.31.62 1.25.42 1.4-.21.47-1.86.67-3.67.57-5.59-.05-.99-1.6-.99-1.55 0 .1 1.76-.05 3.47-.52 5.18.47-.05.93-.1 1.4-.21-1.87-3.93-3.63-7.92-5.18-12.02-.31-.88-1.81-.46-1.45.47h0zm-7.2 5.65c-.36-.68.31-1.4.93-1.61.94-.31 1.92.05 2.85.31.93.31 1.35-1.19.42-1.5-1.5-.47-3.32-.83-4.66.21-1.04.83-1.5 2.17-.83 3.36.41.88 1.76.11 1.29-.77h0z"/><path d="M475.39 115.42c.52-2.28 3.06-3.26 4.87-1.6.72.67 1.86-.42 1.09-1.09-2.59-2.38-6.68-1.19-7.46 2.28-.21.98 1.29 1.4 1.5.41h0zm3.32 1.71l-.21.21c-.31.31-.31.78 0 1.09s.78.31 1.09 0l.2-.21c.31-.31.31-.78 0-1.09a.74.74 0 0 0-1.08 0zm3.46-1.45c.06.16.16.26.21.42.21.36.73.46 1.09.26.36-.21.47-.68.26-1.09-.05-.16-.16-.26-.21-.42-.21-.36-.72-.46-1.09-.25-.36.2-.46.67-.26 1.08zm-.46 3.53l.21.2a.764.764 0 1 0 1.08-1.08c-.05-.06-.15-.16-.2-.21-.31-.31-.78-.31-1.09 0s-.31.77 0 1.09zm-21.39 3.47v.2c0 .42.37.78.78.78s.78-.36.78-.78v-.2c0-.42-.37-.78-.78-.78a.73.73 0 0 0-.78.78zm3.52-1.45h-.72c.31.26.78.31 1.09 0s.31-.83 0-1.09c-.47-.42-1.04-.42-1.5 0-.32.26-.26.83 0 1.09.36.31.82.26 1.13 0h0zm.83 2.64v-.21a.8.8 0 0 0-.77-.78c-.42 0-.78.37-.78.78v.21c0 .41.36.78.78.78.41-.06.77-.37.77-.78zm-3.78-13.94c-1.29-.83-2.95-.41-3.88.78-.26.31-.05.88.26 1.09.41.26.83.05 1.09-.26.41-.52 1.19-.57 1.7-.21.94.47 1.71-.88.83-1.4h0zm12.38-1.76c.62-.26 1.29-.41 2.02-.47.98-.05.98-1.6 0-1.55-.99.05-1.92.26-2.8.67-.36.16-.46.73-.26 1.09.21.36.62.42 1.04.26h0zm.36 21.76c2.28.21 4.4-1.3 5.13-3.47.31-.93-1.19-1.35-1.5-.42-.52 1.56-2.02 2.49-3.63 2.34-.98-.11-.98 1.45 0 1.55zm19.99 1.86a8.68 8.68 0 0 1 4.81 1.09c.88.47 1.66-.88.78-1.34-1.76-.94-3.62-1.4-5.59-1.3-.99.05-.99 1.61 0 1.55zm-38.32-37.3c-4.35 1.97-7.71 5.81-8.91 10.47-.72 2.85-.2 5.65-.31 8.55-.15 3.26-1.65 6.16-2.64 9.22-2.84 8.86 2.02 18.6 11.03 21.29.99.26 1.35-1.19.42-1.5-4.3-1.3-7.77-4.46-9.58-8.55-1.97-4.51-1.19-8.75.46-13.21.73-1.92 1.45-3.83 1.71-5.91.31-2.48-.2-4.97.05-7.46.47-5.12 3.94-9.48 8.55-11.55.88-.41.1-1.71-.78-1.35h0zm-1.19 16.89c5.54-2.59 9.68-7.09 11.86-12.79.36-.94-1.14-1.35-1.5-.42-2.02 5.29-6.01 9.48-11.14 11.87-.93.41-.1 1.76.78 1.34zm12.53-13.1c1.71 3 5.28 4.35 8.44 5.38 3.99 1.35 8.18 1.92 12.38 1.87.98 0 .98-1.56 0-1.56-3.47.06-6.89-.36-10.2-1.29-3.21-.88-7.51-2.12-9.27-5.23-.47-.83-1.82-.05-1.35.83h0z"/><path d="M487.82 106.41c1.19-2.12 4.24-1.87 4.97.57.72 2.38-1.24 4.35-3.52 4.61-.99.1-.99 1.66 0 1.55 3.47-.41 6.37-3.67 4.76-7.2-1.5-3.21-5.85-3.26-7.56-.26-.46.78.83 1.56 1.35.73h0z"/><path d="M488.8 112.16c-1.14 6.63-.46 15.59 5.23 20.1.78.62 1.87-.47 1.09-1.09-5.18-4.09-5.9-12.43-4.82-18.54.21-1.04-1.29-1.45-1.5-.47h0zm-33.76-15.9c3.42-1.77 7.04-3.68 10.98-3.63 3.37.05 6.16 1.61 9.58.98 3.57-.62 6.83-2.28 10.56-2.48 3.83-.21 7.98.41 10.67 3.36.67.73 1.76-.36 1.09-1.08-5.23-5.7-13.62-3.79-20.09-1.92-2.59.78-4.87.98-7.51.31-1.87-.47-3.58-.83-5.54-.67-3.73.36-7.2 2.07-10.46 3.78-.93.47-.16 1.81.72 1.35zm-.57 46.41a1.56 1.56 0 0 1-.52.11c-.82.2-.67 1.24 0 1.5 1.25.52 2.54.67 3.89.52.98-.11.98-1.66 0-1.56-1.19.16-2.33 0-3.47-.46v1.5c.15-.05.36-.1.52-.1.93-.21.51-1.71-.42-1.51zm-53.23-36.1c.78 1.19 2.64.93 2.9-.52.11-.47-.62-.68-.72-.21-.16.73-1.04.98-1.5.36-.26-.41-.94-.05-.68.37h0zm5.96-.57c.31.51.67 1.08 1.34 1.19.57.1 1.09-.16 1.3-.73.15-.46-.57-.67-.73-.21-.1.21-.41.16-.57.06-.26-.16-.41-.47-.57-.78-.36-.36-1.03 0-.77.47h0zm-1.66 1.39l.16.31v-.05c-.06.11-.06.21-.11.26 0 0 0-.05.05-.05-.1.05-.2.05-.25.1h.05c-.11-.05-.21-.1-.31-.2-.11-.16-.16.15-.16.26 0 .2.05.46.05.67s0 .41-.1.57c-.05.1-.26.26-.36.15-.37-.31-.94.21-.57.57.36.32.77.32 1.19.06.41-.26.57-.73.57-1.25 0-.36-.05-.62.05-.93.05-.21.05-.36-.05-.52-.31-.41-.78-.1-.83.31a.4.4 0 0 0 .21.31h.05c.41.37.83-.31.36-.57h0z"/><path d="M405.18 107.7c.15.73-.05 1.51.52 2.13.41.47 1.03.57 1.55.15.36-.31-.16-.88-.57-.57-.31.26-.62-.51-.62-.67l-.11-1.24c-.15-.47-.88-.26-.77.2h0zm-3.01-3.67h1.14c.52 0 .52-.78 0-.78h-1.14c-.51 0-.51.78 0 .78zm5.65.15c.36 0 .67.05.98.26.42.26.83-.41.42-.67-.42-.26-.88-.37-1.35-.37-.57 0-.57.78-.05.78h0zm-2.59 8.71c-5.07.31-4.61-5.08-5.8-8.4-.31-.98-.88-1.81-1.24-2.79-1.35-3.84 1.6-1.14 2.59.25.31.42.98 0 .67-.41-.57-.83-2.64-3.89-3.88-3.52-1.3.36-.47 3.11-.16 3.88.57 1.56 1.35 2.8 1.66 4.46.26 1.5.31 3.05 1.09 4.4 1.03 1.87 2.9 3.01 5.02 2.85.52.05.52-.72.05-.72h0z"/><path d="M401.66 102.21c2.48-1.34 5.07-1.45 7.61-.26.21.11.41.06.52-.15.67-1.24 1.5-2.18 2.64-3.01-.21-.1-.47-.2-.68-.25.11 2.84.21 5.85-.25 8.65-.68 3.93-3.27 5.38-7 5.85-.46.05-.51.83 0 .78 3.06-.42 5.86-1.14 7.15-4.2 1.4-3.31 1.04-7.56.88-11.08 0-.37-.41-.47-.67-.26-.73.57-1.56 2.07-2.33 2.48-.88.47-1.92-.2-2.9-.31-1.92-.21-3.73.26-5.44 1.14-.36.21 0 .88.47.62h0zm-.42 9.43c-1.4 2.28-.88 5.03-.46 7.57.62 3.88 1.76 7.66 2.9 11.39.15.47.88.26.72-.2-.83-2.8-1.71-5.65-2.33-8.5-.67-2.95-1.86-7.1-.15-9.84.25-.42-.42-.83-.68-.42h0z"/><path d="M403.62 130.29c-.98.16-4.14 1.19-3.15 2.75.36.57 1.14.67 1.76.72 1.19.11 2.38-.1 3.52-.46.46-.16.26-.88-.21-.73-1.04.31-2.69.83-3.78.42-.21-.11-.62-.47-.52-.73.05-.15.52-.36.73-.47.62-.31 1.24-.57 1.91-.67.47-.21.26-.93-.26-.83h0zm2.28-12.02c.37 4.25.83 8.45 1.45 12.7.05.51.83.25.73-.21a199.65 199.65 0 0 1-1.45-12.49c.05-.51-.73-.51-.73 0z"/><path d="M407.66 130.65c-1.14.16-3.16 1.14-2.12 2.65 1.14 1.6 4.35.26 5.7-.26.46-.16.26-.93-.21-.73-.88.37-1.76.68-2.69.83-.42.05-1.19.21-1.61 0-.67-.78-.62-1.29.16-1.5.26-.1.51-.16.77-.16.47-.1.47-.88 0-.83h0zm3.73-21.03c2.07 1.25 2.54 3.37 3.47 5.44.67 1.5 1.5 2.54 2.75 3.63 1.81 1.55 3.46 2.74 4.14 5.23.67 2.59.1 5.28-.62 7.77-.16.47.62.67.72.21 1.24-4.3 1.71-9.02-1.91-12.33-.83-.78-1.82-1.4-2.59-2.18-1.14-1.19-1.71-2.54-2.28-4.04-.73-1.81-1.5-3.37-3.21-4.4-.52-.26-.88.41-.47.67h0z"/><path d="M417.61 122.63c-1.71-.26-3.11 1.19-3.63 2.79-.72 2.18 1.14 4.35 2.38 5.91a3.16 3.16 0 0 0 .26-.68c-1.66.16-3 .68-4.35 1.66-.15.11-.26.37-.15.52 1.29 1.66 4.24.93 6.05.93 1.92-.05 3.84-.2 3.78-2.64a.39.39 0 0 0-.77 0c.05 2.49-4.87 1.92-6.22 1.92h-.88c-.98-.16-1.19-.36-.62-.62.26-.68 2.59-.94 3.16-.99.36-.05.47-.41.26-.67-.67-.88-1.6-1.92-1.97-3.01-.52-1.39.11-4.76 2.49-4.4.52.1.72-.62.21-.72h0zm-6.94 3.57l.36 6.22c0 .51.78.51.78 0l-.37-6.22c-.05-.47-.83-.47-.77 0z"/><path d="M411.5 130.97c1.6.77 3.31.93 4.97.41.46-.16.25-.88-.21-.73-1.5.42-3 .32-4.4-.36-.42-.2-.83.47-.36.68h0zm10.92-2.54c1.45-.99 2.49-2.28 2.85-4.04.57-2.8-1.19-5.39.05-8.14.98-2.12 2.64-3.73 3.11-6.06.51-2.64-.52-5.33.1-7.98.16-.62.36-1.45.83-1.97.47-1.03 1.19-.77 2.07.83l-.31.78c-.16 1.3-1.14 2.64-1.4 3.99-.21 1.19-.1 2.38-.26 3.57-.2 1.71-1.03 3.06-1.81 4.62-1.09 2.22-.88 4.19-.78 6.63.16 3.67-1.29 6.73-4.6 8.49-.47.26-.06.94.41.68 2.17-1.2 3.88-3.01 4.61-5.39 1.14-3.63-.42-7.1 1.4-10.67.67-1.4 1.34-2.59 1.55-4.15.26-1.81.1-3.37.67-5.18.42-1.29 2.75-4.82.99-6.06-1.14-.78-2.64.57-3.21 1.4-1.56 2.17-1.09 4.97-.99 7.51.11 2.33-.31 4.14-1.55 6.11-.67 1.04-1.4 2.08-1.81 3.27-1.4 4.04 2.22 8.03-2.28 11.14-.42.25-.05.93.36.62zm17.55 13.52c-1.81-.36-3.41.21-4.86 1.35-1.04.77-2.39 1.91-2.18 3.36.62 3.78 6.58 1.56 8.44.31.83-.57.05-1.91-.77-1.34-.78.51-1.56.93-2.44 1.19-.57.15-1.14.31-1.71.31-.77.05-1.08.1-1.5-.67-.41-.78-.21-.78.36-1.35.37-.36.73-.62 1.14-.93.94-.63 1.97-.99 3.11-.78.98.26 1.4-1.24.41-1.45z"/><path d="M438.42 141.48c-.31-2.33-.98-4.56-2.17-6.63-.78-1.35-2.49-4.3-4.3-4.51-3.94-.46.31 9.85.98 11.25.47.88 1.76.1 1.35-.78-.78-1.61-1.4-3.21-1.81-4.92-.21-.88-.63-2.18-.52-3.01 0-.26-.05-.46-.05-.72.41.2.77.52 1.08.88 2.18 2.23 3.47 5.39 3.89 8.44.15.93 1.71.99 1.55 0z"/><path d="M434.33 140.76c-1.14-2.18-5.85-9.54-9.06-6.69s2.54 9.02 4.56 10.88c.72.68 1.81-.41 1.08-1.08-1.08-1.04-2.12-2.13-2.95-3.32-.46-.67-2.74-4.04-1.97-4.77l1.87-.31c.46.31.88.68 1.29 1.04.47.41.93.93 1.4 1.4.98 1.09 1.76 2.33 2.43 3.62.47.94 1.82.16 1.35-.77h0z"/><path d="M429.72 144.33c-1.76-1.45-4.35 0-4.19 2.23.2 3 3.57 3.63 5.9 2.95.98-.26.57-1.76-.41-1.5-1.25.36-2.96.47-3.73-.88-.31-.52-.36-1.14.1-1.55.31-.32.88-.47 1.24-.16.73.67 1.82-.41 1.09-1.09z"/><path d="M426.36 146.56c-2.18.67-2.18 3.26-.94 4.82 1.25 1.55 3.63 2.59 5.39 1.24.78-.62-.31-1.71-1.09-1.09-.83.62-2.17-.2-2.74-.77-.62-.63-1.45-2.28-.16-2.7.93-.31.52-1.81-.46-1.5h0zm12.73-4.51c3.78 0 4.92 7.1 4.2 9.74-.26.99 1.24 1.4 1.5.42 1.04-3.73-.73-11.71-5.7-11.71-1.03 0-1.03 1.55 0 1.55z"/></g><path d="M402.12 196.03h53.6c.98 0 .98-1.55 0-1.55h-53.6c-.98 0-.98 1.55 0 1.55zm13.72 6.95h49.35c.98 0 .98-1.56 0-1.56h-49.35c-.98 0-.98 1.56 0 1.56zm46.35-7.2h6.21c.99 0 .99-1.56 0-1.56h-6.21c-.99 0-.99 1.56 0 1.56zm17.65 4.66c-1.91-.88-3.36-2.44-3.88-4.51-.26-.98-.46-2.43.21-3.31 1.29-1.82 2.85.67 3.26 1.96.21.68 1.35.78 1.5 0 .05-.36.16-.72.26-1.08.42-1.56 1.4-1.4 3 .36.26.93-.36 2.49-.77 3.26-.88 1.76-2.33 3.01-4.09 3.89-.88.41-.11 1.76.77 1.34 3.32-1.55 6.94-6.11 5.29-9.99-.52-1.2-1.77-2.13-3.11-1.92-1.81.26-2.59 2.18-2.9 3.73h1.5c-.88-2.85-4.61-6.17-6.32-1.97-1.5 3.68 1.19 8.03 4.51 9.58.88.42 1.65-.93.77-1.34h0z" class="S"/><path d="M262.37 390.77l-3.57 24.3c-21.91 6.68-32.63 11.04-32.21 12.95.52 2.38 17.4 1.25 50.74-3.42l1.45-34.76-16.41.93z" class="P"/><path d="M272.98 316.64c-1.08.83-1.7 1.76-4.04 6.27l-3.36 6.73c-4.19 9.53-8.29 24.51-8.29 24.51-3.26 11.86-4.91 17.77-6.05 24.03-1.66 8.86-2.33 16.38-2.7 21.81 3.06 1.4 6.74 2.8 11.03 3.84 10.15 2.43 18.9 1.71 24.7.67 1.04-7.3 2.49-15.23 4.51-23.57 1.76-7.46 3.78-14.35 5.85-20.67 2.22 1.4 5.49 3.57 9.42 6.27 12.89 8.96 16.93 13.31 24.49 18.18 4.97 3.21 12.33 7.25 22.48 10.36 2.33-.31 8.7-1.45 14.13-6.73 8.18-8.03 7.35-18.91 7.2-20.46-3.42-3.63-8.23-8.5-14.4-13.73-10.87-9.23-20.24-14.87-26.92-18.86-5.39-3.21-11.39-6.17-23.35-12.12 0 0-14.04-6.95-26.93-8.09-2.28-.2-5.33-.31-7.77 1.56h0z" class="Q"/><g class="P"><path d="M249.17 399.32a243.9 243.9 0 0 1 7.4-40.1c1.76-6.42 3.78-12.79 6.06-19.11 2.28-6.27 4.55-12.85 7.76-18.76 1.92-3.52 4.51-4.71 8.39-4.87 3.52-.15 7.05.31 10.46 1.14 6.27 1.45 12.33 3.89 18.23 6.43a189.93 189.93 0 0 1 32.05 17.46c11.5 7.77 22.11 16.73 31.69 26.78.67.72 1.81-.36 1.09-1.09-18.13-18.91-39.98-34.14-64.05-44.45-5.91-2.54-11.91-4.92-18.18-6.47-5.18-1.25-13.2-2.96-17.91.41-2.02 1.45-3.16 3.78-4.2 6.01-1.35 2.95-2.59 5.96-3.83 8.96-2.74 6.79-5.18 13.68-7.3 20.72a245.15 245.15 0 0 0-9.27 46.94c-.05.99 1.5.99 1.61 0h0z"/><path d="M248.85 400.05a47.91 47.91 0 0 0 35.11 4.76c.98-.26.57-1.76-.41-1.5-11.5 2.85-23.61 1.24-33.92-4.61-.88-.47-1.66.83-.78 1.35h0z"/><path d="M285.51 403.67c1.82-14.76 5.13-29.32 9.79-43.46.31-.93-1.19-1.35-1.5-.42-4.71 14.3-7.97 28.96-9.84 43.88-.1.99 1.45.99 1.55 0h0z"/><path d="M290.49 358.71c20.76 10.56 36.24 30.87 59.59 36.31.99.21 1.4-1.29.42-1.5-23.2-5.44-38.63-25.64-59.24-36.16-.88-.47-1.65.88-.77 1.35h0z"/></g><g class="R"><path d="M266.77 405.33c5.28-16.78 11.08-33.88 17.45-51.29l4.61-12.33 32.52 17.1 45.36 24.09c-.42 1.92-1.92 7.15-6.63 9.95-3.52 2.07-7.41 1.91-11.55 1.08-12.84-2.59-20.92-10.36-37.07-22.43-3.68-2.74-9.32-6.89-16.52-11.76a259.01 259.01 0 0 0-4.04 12.33c-3.47 11.61-5.7 22.54-7.15 32.54-3 .77-6.99 1.45-11.54 1.29a49.3 49.3 0 0 1-5.44-.57h0z" class="U"/><path d="M293.59 359.17c-1.29-.52-6.52 9.22-8.08 12.12-3.98 7.41-9.16 18.34-13.98 32.9.99.42 2.23.88 3.68 1.09 3.83.67 6.94-.26 8.65-.93 2.74-14.41 5.54-25.85 7.71-33.99 1.35-5.08 2.95-10.77 2.02-11.19z" class="U"/></g><path d="M212.56 397.04l-10.62 27.72c-20.66 6.89-30.7 11.45-30.24 13.67.57 2.6 15.38 2.08 44.43-1.6l10.46-33.68-14.03-6.11z" class="P"/><path d="M242.23 306.95c-3.99 2.8-6.27 6.11-7.41 7.88-4.97 7.51-7.51 11.29-9.21 14.6-4.87 9.38-7.98 17.26-9.43 21.14-4.92 13.01-7.4 23.57-9.68 33.05-1.66 7.1-2.85 13.01-3.57 17.1a42.55 42.55 0 0 0 8.95 8.08c8.29 5.55 16.62 6.84 21.13 7.2 3.78-10.93 7.35-20.15 10.36-27.4 3.15-7.77 5.48-12.95 9.68-18.86 3-4.3 5.95-7.51 8.08-9.69 2.33 3.27 5.69 7.67 10.09 12.59 5.44 6.06 15.38 16.99 31.43 26.53 13 7.71 23.2 10.46 33.45 13.26 10.67 2.9 13.93 2.59 16.42 1.14 10.2-6.01 5.02-30 4.71-31.45-9.99-7.67-17.4-14.45-22.47-19.32-4.56-4.41-9.69-9.74-18.64-17.77l-8.29-7.2c-1.6-1.35-7.56-6.22-17.76-13.26 0 0-12.94-8.97-25.58-15.49 0 0-3.21-1.66-8.75-3.37-4.61-1.4-6.52-1.5-8.28-1.14-.63.05-2.44.46-5.23 2.38h0z" class="Q"/><g class="P"><path d="M240.72 307.11c-22.83 25.38-32.46 59.16-38.78 91.95-.21.99 1.3 1.4 1.5.42 6.27-32.54 15.74-66.11 38.37-91.29.73-.72-.41-1.86-1.09-1.08h0z"/><path d="M202.46 400.88c7.56 8.75 17.97 14.6 29.36 16.47.98.16 1.4-1.35.41-1.5-11.18-1.82-21.28-7.51-28.68-16.06-.62-.78-1.71.31-1.09 1.09z"/><path d="M233.32 416.62c3.31-10.3 7.25-20.36 11.91-30.15 4.25-8.86 8.6-19.06 16.21-25.59.77-.67-.37-1.76-1.09-1.09-7.72 6.63-12.17 16.94-16.41 25.91-4.72 9.89-8.7 20.1-12.07 30.51-.36.93 1.14 1.35 1.45.41h0z"/><path d="M255.95 354.25c21.28 29.32 50.28 55.64 87.56 60.61.98.16.98-1.4 0-1.55-36.66-4.87-65.24-30.98-86.22-59.84-.62-.77-1.96 0-1.34.78zm-13.93-46.11c8.54-6.27 19.42.68 27.29 4.92 8.13 4.36 15.95 9.17 23.56 14.41 15.32 10.62 29.46 22.95 42.09 36.67.68.73 1.76-.36 1.09-1.08-20.81-22.64-45.82-41.66-73.47-55.18-6.63-3.26-14.76-5.85-21.34-1.03-.77.52 0 1.86.78 1.29h0z"/></g><g class="R"><path d="M214.68 408.85l16.83-35.17c14.24-30 16.62-35.8 23.14-38.03 11.29-3.78 22.01 7.57 46.81 25.28 13.88 9.95 32.99 22.44 57.37 35.02.47 2.7 1.45 10.05-2.84 14.72-1.92 2.02-6.27 5.13-19.73 2.85-5.18-.88-29.41-5.5-58.82-34.82-7.41-7.35-12.9-14.09-16.52-18.85-1.5 1.76-3.78 4.61-6.27 8.23-4.35 6.43-7.25 12.28-13.98 28.5l-7.87 19.53c-1.97.1-5.69.1-9.84-1.61-4.24-1.61-6.93-4.2-8.28-5.65z" opacity=".129"/><path d="M256.83 352.9l8.44 4.67c21.9 13.05 22.42 20.98 38.73 30.66 12.69 7.52 17.45 5.76 30.5 15.6 5.07 3.83 8.85 7.51 11.29 10.05-5.03-.42-11.96-1.45-19.89-3.94-10.35-3.26-17.5-7.56-22.78-10.77-2.64-1.61-13.62-8.4-25.63-20.47a145.08 145.08 0 0 1-20.66-25.8h0zm2.33 7.15c-.73-.93-6.16 1.4-10.93 5.03-8.59 6.47-11.03 13.99-19 28.7a281.88 281.88 0 0 1-10.56 17.92l13.82 5.55c1.04-2.8 8.96-23.99 14.86-36.79 1.92-4.09 2.95-6.37 4.82-9.48 4.14-6.84 7.66-10.05 6.99-10.93h0z" class="U"/></g><path d="M474.05 271.1c1.34.73 1.29 1.5 3 2.95 1.4 1.2 1.91 1.04 2.48 2.02.63 1.09.73 2.34.73 3.16.57 0 1.6.16 2.69.94.31.2 2.44 1.71 3 4.97.42 2.23-.1 4.09-.36 4.77.57.51 1.45 1.45 1.76 2.95.42 1.86-.15 3.57-.88 5.44-2.12 5.23-4.04 7.41-6.21 11.81-.67 1.3-1.55 3.32-2.49 5.91-.05 1.97-.05 5.18.37 9.06.62 5.81 1.76 10 2.12 11.35 1.81 6.73 5.02 22.48 5.33 36.94.16 7.4.31 19.27-4.81 31.39-1.92 4.56-4.77 10.98-10.51 13.63-.94.41-7.62 3.47-12.28-1.35-1.71-1.76-2.59-3.94-3-5.44a21.15 21.15 0 0 1-.16-3.42c.16-6.27 3.06-10.78 4.1-12.49 3.52-5.95 4.6-12.58 6.42-23.83 1.14-6.94.88-12.95.36-24.76-.36-8.08-1.14-19.01-2.85-32.02-.88-.25-2.02-.77-2.85-2.02-1.24-1.91-.51-3.67-1.45-7.04-.72-2.54-1.29-2.07-2.48-5.44-.88-2.44-1.71-4.66-1.25-7.25.11-.52.57-3.58 2.34-4.3 2.22-.99 4.71 2.53 5.33 3.42a13.93 13.93 0 0 1 2.12 4.76 53.56 53.56 0 0 0 3.73-7.51c.57-1.35 1.04-2.64 1.45-3.89-.21-1.14-.47-2.79-.67-4.81-.26-2.7-.37-4.1-.06-5.86.21-1.19.73-3.83 2.33-4.56.99-.36 2.08.21 2.65.52h0z" class="Q"/><g class="P"><path d="M479.12 314.26c2.54-4.56 5.54-9.12 7.61-13.94 1.5-3.52 2.12-7.77-.21-11.09-.57-.83-1.91-.05-1.34.78 2.69 3.78.88 8.5-1.09 12.17l-6.32 11.3c-.51.88.83 1.66 1.35.78z"/><path d="M482.8 297.83c3.78-5.02 6.83-17.14-1.97-19.11-.99-.21-1.4 1.29-.42 1.5 7.67 1.71 4.2 12.59 1.04 16.84-.57.77.78 1.55 1.35.77h0z"/><path d="M478.71 293.22c3.57-5.13 3.83-12.17 1.08-17.72-.46-.88-1.76-.1-1.34.78 2.48 5.08 2.17 11.5-1.09 16.17-.57.77.78 1.55 1.35.77zm-3.06-3.99c1.45-4.56 1.92-9.53.88-14.24-.57-2.54-3.11-7-6.26-4.56-2.96 2.28-1.61 8.55-1.3 11.6.31 3.06-.05 5.23-1.66 7.88a37.08 37.08 0 0 0-3.41 7.2c-.37.93 1.14 1.34 1.5.41 1.19-3.37 3.31-6.11 4.71-9.32 1.29-3.01.41-6.27.21-9.43-.11-1.45-.52-3.78.05-5.18.05-1.09.72-1.3 2.02-.73 1.45-.57 2.28-.15 2.43 1.3.36.98.52 2.12.62 3.16.42 3.88 0 7.72-1.19 11.45-.36 1.03 1.09 1.45 1.4.46h0z"/><path d="M480.36 276.28c-.62-2.38-3.31-4.3-5.64-2.69-.83.57-.05 1.91.78 1.34 1.44-.98 2.95.32 3.36 1.77.26.98 1.76.57 1.5-.42zm-15.53 19.58c-.83-3.05-2.85-6.94-6.27-7.56-3.26-.62-4.4 2.54-4.5 5.18-.26 4.97 2.38 8.39 3.67 12.95 1.04 3.68.73 7.36 4.46 9.54.88.51 1.65-.83.77-1.35-2.79-1.61-2.9-4.41-3.46-7.25-.42-2.28-1.51-4.2-2.44-6.32-1.09-2.44-2.28-6.22-1.34-8.86l.15-.73c1.19-.36 2.38-.78 3.52-1.14.67.21 1.5 1.3 1.97 1.81.98 1.25 1.55 2.59 1.92 4.15.31.98 1.81.57 1.55-.42h0z"/><path d="M461.88 315.19c2.17 17.97 4.5 36.63 2.9 54.71-.78 8.54-2.9 16.47-6.32 24.29-2.8 6.43-4.82 12.49-3.47 19.53.21.99 1.71.57 1.5-.41-1.5-7.88 1.71-14.35 4.66-21.4 3.11-7.3 4.66-15.07 5.28-22.95 1.4-17.82-.82-36.11-2.95-53.77-.2-.99-1.76-.99-1.6 0h0z"/><path d="M477.57 312.91c-1.25 3.57-.63 7.56-.21 11.24.47 3.89 1.09 7.77 1.81 11.61 1.61 8.44 3.63 16.78 4.71 25.33 1.09 8.39 1.14 16.89.21 25.28-.93 8.34-2.54 17.46-7.2 24.61-2.22 3.42-5.54 6.73-9.73 7.51-4.51.88-8.6-1.81-10.72-5.7-.47-.88-1.81-.1-1.35.78 3.01 5.44 9.17 8.13 15.02 5.54 6.94-3.06 10.61-10.83 12.63-17.72 5.34-18.13 3.84-37.04.16-55.33-1.04-5.18-2.18-10.36-3-15.59-.47-2.8-.83-5.59-1.14-8.39-.26-2.95-.68-6.06.31-8.91.36-.78-1.14-1.19-1.5-.26h0z"/></g><g class="R"><path d="M482.64 280.63c.16 2.59.16 5.91-.47 9.54-1.65 9.94-6.57 16.21-8.85 18.7-.05 2.95-.15 7.51 0 13 .62 24.66 4.45 36.73 5.07 48.28.63 11.25-1.45 27.67-14.39 48.91 1.71.15 4.4.15 7.2-1.35 2.53-1.34 6.47-4.45 10.04-14.87 3.26-9.53 6.84-26.99 2.85-46.98-1.76-8.71-4.45-15.55-5.85-30.16-.36-3.88-.52-7.14-.62-9.37.88-2.07 2.17-4.92 4.04-8.03 3.05-5.13 5.02-6.84 5.54-10.52.36-2.59-.16-5.23-1.19-7.82.1-.67.51-3.42-.73-6.11-.83-1.92-2.07-2.85-2.64-3.22h0z" class="W"/><path d="M477.41 320.16c-.26.05.57 9.07 2.23 27.1l2.22 24.45c.52 23.62-6.73 40.3-5.54 40.87.83.42 4.97-7.97 7.36-18.13 3.26-14.04 1.96-26.21 1.19-33.21-.73-6.16-.99-4.45-4.66-25.38-1.82-10.52-2.54-15.75-2.8-15.7h0z" class="V"/></g><path d="M349.88 369.12c-4.92 10-6.32 18.8-7.61 27.4-.73 4.72-1.45 11.4-1.4 19.48 16.15 4.3 30.55 6.63 42.35 7.88 15.33 1.66 10.83-.37 49.5.98 19.32.68 29.26 1.35 32-3.94 2.28-4.45-3.31-8.91-3.62-19.16-.26-8.24 3-14.98 5.59-19.17-15.27-6.17-32.93-12.28-52.81-17.46-19.78-5.18-38.11-8.5-54.42-10.57-2.59 3.06-6.32 7.93-9.58 14.56z" fill="#d6d6d6"/><g class="R"><path d="M351.22 367.36c3.78 7.56 11.76 20.51 26.62 27.77 5.8 2.84 12.37 4.66 31.74 5.64 12.53.62 29.93.93 51-.78-.31 4.51.62 7.72 1.5 9.85 1.35 3.16 3.21 4.97 3.01 8.29-.05.77-.16 2.74-1.5 4.35-1.87 2.17-4.92 2.38-6.42 2.43-14.92.73-20.04.21-20.04.21-12.53-1.35-23.67-1.04-32.88-.78-3.99.11-6.11.26-10.41.21-2.38-.05-8.96-.21-18.49-1.5-14.03-1.92-26.97-5.18-34.17-7.2-.16-9.28.67-16.94 1.5-22.49 1.29-8.49 2.85-13.21 3.42-14.71 1.65-4.77 3.57-8.6 5.12-11.29h0z" class="U"/><path d="M345.53 380.93c2.02 4.09 5.49 9.9 11.34 15.28 9.84 9.02 20.45 11.4 33.03 14.35 26.67 6.32 53.85 13.52 53.65 14.72-.11.72-10.26-.94-27.76-1.14-4.24-.06-6.99-.11-10.97 0-7.77.15-9.89.57-14.55.36-5.03-.21-8.7-.93-12.64-1.71l-36.61-7.77c.05-3.32.26-6.79.57-10.41.78-8.66 2.23-16.63 3.94-23.68h0z" class="W"/></g><path d="M496.72 411.18c-10.97 1.56-17.24 1.87-27.49 4.77-4.76 1.35-8.6 2.75-11.13 3.78-1.61-4.5-3.52-11.81-2.7-20.72.47-5.28 1.77-9.69 3.11-13 2.85.72 6.42 1.4 10.62 1.65 5.23.32 9.68-.1 13.04-.67l3.84-13.93 7.04-1.92.67-3.89c2.9 1.35 7.51 3.53 13.26 5.96 10.82 4.66 12.37 4.82 14.7 6.89 6.27 5.65 9.27 16.89 4.66 23.37-2.79 3.88-11.75 5.18-29.62 7.71z" stroke="#161616" class="Q X"/><path d="M492.84 367.15c-.36 2.43-.52 4.87-.41 7.36.05.98 1.6.98 1.55 0-.1-2.34.05-4.61.36-6.95.11-.98-1.4-1.39-1.5-.41h0zm16.88 13.21c.42 1.92-.78 3.63-2.43 4.4-.93.42-.11 1.77.77 1.35 2.39-1.09 3.68-3.63 3.16-6.16-.2-.99-1.71-.57-1.5.41h0zm-5.85-.52c.57.05 1.19.21 1.66.62l.31.31c.31-.25.36-.41.1-.36-.15-.1-.57-.1-.72-.15-.26-.11-.52-.16-.78-.31-.16-.06-.26-.16-.41-.26-.42.26-.47.46-.11.57.21.2.62.41.88.57l.88.57c.83.51 1.45-.57.93-1.25-.31-.41-.67-.62-1.13-.83-.94-.36-1.35 1.14-.42 1.51.21.1.31.26.47.41l.93-1.24-2.12-1.35c-.57-.31-1.3-.21-1.66.36-.93 1.4 1.09 2.39 2.12 2.7.57.15 1.25.31 1.81.1.63-.21.94-.88.73-1.5-.41-1.35-2.23-1.92-3.47-2.02-1.04-.05-.98 1.5 0 1.55h0z" class="P"/><path d="M519.04 377.98c2.23.62 5.9 1.97 9.48 4.76 1.24.99 3.93 3.11 5.54 6.17 3.05 5.8 1.66 13.93-3.68 19.32-5.23 5.23-13.62 7.1-21.44 4.77l10.1-35.02z" class="T"/><g class="P"><path d="M521.58 358.14l-14.6 54.08c-.78 2.9 3.73 4.15 4.5 1.24l14.6-54.08c.78-2.9-3.72-4.15-4.5-1.24z"/><path d="M511.02 401.19c-.83-3.42-3.01-5.6-5.54-8.14-5.39-5.39-7.77-4.3-11.14-8.03-5.28-5.95-1.08-10.72-6.31-16.11-4.46-4.56-11.19-4.92-12.74-4.97-1.5-.05-7.56-.11-12.22 3.88-4.04 3.47-5.54 8.71-4.82 9.12.26.16 1.04-.21 3.52-2.85a9.73 9.73 0 0 0-2.27 3.68c-.63 1.97-.52 3.89-.21 3.94.26.05.36-1.04 1.45-1.76.62-.42 1.34-.57 1.86-.57-1.34 1.45-2.59 3.36-2.17 5.33 1.03 5.49 13.36 8.03 17.45 8.86 13.25 2.75 21.02.1 25.16 5.08.36.41 2.02 2.43 1.4 4.3-.83 2.38-5.13 3.73-7.72 2.59-2.22-.99-2.53-3.52-3-3.42-.57.15-.26 4.4 2.23 8.29.93 1.4 1.66 2.54 3.16 3.31 2.64 1.3 6 .63 8.02-.62 4.3-2.43 4.82-8.18 3.89-11.91h0z" stroke="#161616" class="X"/></g><path d="M493.1 403.83c0-.78.1-1.92.41-1.92.16 0 .32.31.32.26 0 0-1.14-1.09-1.14-2.28a2.1 2.1 0 0 1 .46-1.29 122.64 122.64 0 0 1-17.6 3.78 126.47 126.47 0 0 1-19.68 1.19c-.26 2.12-.41 5.13.31 8.7.57 2.9 1.55 5.29 2.43 7.05 8.03-3.47 14.24-4.92 18.44-5.65l8.9-1.35 9.89-1.39c-.25-.37-.67-.94-1.08-1.66-.57-.99-1.66-3.01-1.66-5.44h0z" opacity=".22" class="R"/><path d="M535.51 395.95c-1.66 4.61-6.16 7.67-11.08 7.62-5.8-.1-9.22-4.56-9.53-4.97l-3.99 14.97c1.25.26 2.95.52 5.03.46 6.52-.15 10.97-3.1 11.9-3.78 1.45-.98 6.22-4.61 7.41-10.77.26-1.45.26-2.7.26-3.53h0z" opacity=".392" fill="gray"/><path d="M443.18 289.65a130.23 130.23 0 0 0 7.88 9.89c4.03 4.61 8.02 8.5 11.75 11.76 5.33-5.18 10.98-10.41 16.93-15.75 5.65-5.07 11.24-9.84 16.73-14.35-1.3-2.64-3.06-5.7-5.39-8.8-4.56-6.06-9.58-10.11-13.41-12.7-8.75 6.17-17.97 13.53-27.08 22.38l-7.41 7.57z" class="Q"/><g class="P"><path d="M453.7 280.69c7.4-7.36 15.32-14.15 23.76-20.26.78-.57.05-1.92-.77-1.35-8.55 6.22-16.63 13.06-24.08 20.52-.73.72.36 1.81 1.09 1.09z"/><path d="M477.1 260.12c7.46 5.65 13.72 12.64 18.59 20.62.52.83 1.86.05 1.35-.78-5.03-8.24-11.5-15.33-19.16-21.19-.78-.57-1.56.78-.78 1.35zm-23.66 18.75c-3.78 3.27-7.41 6.74-10.83 10.42-.67.72.42 1.81 1.09 1.08 3.42-3.68 6.99-7.15 10.82-10.41.78-.67-.31-1.76-1.08-1.09z"/><path d="M442.82 290.74c5.9 7.25 12.22 14.09 19.01 20.56.72.68 1.81-.41 1.08-1.09-6.73-6.47-13.1-13.31-19-20.56-.62-.83-1.76.31-1.09 1.09z"/><path d="M463.53 311.61c10.93-10.41 22.17-20.46 33.66-30.2.78-.62-.36-1.76-1.09-1.09-11.49 9.74-22.73 19.84-33.65 30.21-.73.67.36 1.76 1.08 1.08zm-14.29-21.39a271.2 271.2 0 0 0 10.98 13.31c.67.78 1.76-.36 1.09-1.09-3.78-4.35-7.46-8.8-10.98-13.31-.57-.83-1.66.31-1.09 1.09z"/><path d="M450.38 290.22c7.87-8.65 17.14-15.75 26.36-22.85.77-.62 0-1.97-.78-1.35-9.37 7.15-18.74 14.35-26.67 23.06-.72.78.42 1.86 1.09 1.14z"/><path d="M476.89 267.37c4.77 3.58 9.12 7.56 13.1 11.97.68.72 1.76-.36 1.09-1.09-4.09-4.51-8.54-8.55-13.41-12.23-.83-.57-1.61.78-.78 1.35z"/><path d="M461.15 303.95c2.64-.11 4.66-1.4 6.73-2.96 2.7-2.07 5.34-4.19 7.93-6.42 5.48-4.61 10.71-9.48 15.74-14.51.72-.72-.42-1.81-1.09-1.08-4.35 4.4-8.91 8.6-13.57 12.69-2.28 1.97-4.61 3.88-6.94 5.8-2.53 2.02-5.33 4.87-8.8 4.97-.98-.05-.98 1.51 0 1.51h0z"/></g><path d="M474.51 260.58l-5.18 9.8c-5.28 10.25-7.97 15.43-8.8 18.7-1.09 4.25-1.92 11.71 2.49 22.22l-19.73-21.03 31.22-29.69z" class="R V"/><g class="S"><path d="M469.13 277.37c2.48 2.54 4.81 5.23 6.99 8.03.62.78 1.71-.31 1.08-1.09a91.76 91.76 0 0 0-6.99-8.03c-.67-.72-1.76.36-1.08 1.09z"/><path d="M469.75 277.16l3.62-2.28c.62-.41 1.3-1.03 2.02-1.24.99-.36.36-.57 1.14-.16.93.47 1.97 2.49 2.64 3.32l2.9 3.68c.62.78 1.71-.31 1.09-1.09l-3.78-4.82c-.62-.83-1.61-2.8-2.69-3.05-.78-.16-1.45.36-2.08.77l-5.64 3.53c-.83.57-.05 1.91.78 1.34h0z"/><path d="M477.05 285.35c2.17-.93 4.09-2.28 5.75-3.94.72-.72-.42-1.81-1.09-1.09-1.61 1.56-3.42 2.8-5.44 3.68-.93.42-.15 1.76.78 1.35zm-3.52-5.23c.67-.68 1.29-1.35 2.33-1.2.57.11.77.21 1.4.11.51-.11.67-.73.46-1.14-.46-.78-.88.52-.88.98 0 .42.16.88.47 1.19.77.83 1.91.63 2.85.21.93-.36.51-1.86-.42-1.5-.36.15-.72.26-1.14.31-.15-.36-.15-.73 0-1.09 0-.36.05-.67-.05-1.03-.16-.52-.57-.99-1.14-1.04-1.66-.21-1.66 1.76-1.03 2.8l.46-1.14c-.41.05-.93-.26-1.34-.26-.32 0-.68.1-.99.21-.83.31-1.45.93-2.02 1.55-.77.67.36 1.76 1.04 1.04h0zm-.78-3.32c.73.05 1.4 0 2.07-.16.99-.2.57-1.71-.41-1.5-.57.11-1.09.16-1.66.11-.41-.06-.78.36-.78.77 0 .47.37.73.78.78h0zm-11.86 7.46l7.2 8.08c.67.73 1.76-.36 1.09-1.09-2.44-2.64-4.87-5.33-7.2-8.08-.62-.78-1.71.31-1.09 1.09z"/><path d="M462.14 284.47c.51-.94.77-1.71 1.86-1.76.93-.06 1.5.67 2.12 1.24.88.78 1.61 1.71 2.49 2.54.67.62 1.4 1.24 2.17 1.76.68.47 1.3.72.57 1.61-.41.51-1.5.72-2.12.93-.93.31-.52 1.81.41 1.5 1.4-.47 3.63-1.19 4.09-2.85.21-.67.06-.98-.41-1.45-.98-.88-2.33-1.45-3.31-2.38-1.66-1.51-3.11-3.73-5.23-4.61-2.02-.78-3.06 1.08-3.94 2.64-.52.88.83 1.71 1.3.83z"/></g><path d="M446.34 278.46c-1.76.72-1.65 1.5-3.88 2.95-1.81 1.19-2.43 1.04-3.16 2.02-.83 1.09-.93 2.33-.93 3.16-.73 0-2.02.16-3.42.93-.41.21-3.11 1.71-3.88 4.98a7.61 7.61 0 0 0 .46 4.76c-.72.52-1.81 1.45-2.27 2.96-.57 1.86.15 3.57 1.13 5.44 2.7 5.23 5.13 7.4 7.93 11.81a43 43 0 0 1 3.16 5.9c.05 1.97.05 5.18-.47 9.07-.78 5.8-2.28 10-2.74 11.35-2.33 6.73-6.43 22.48-6.84 36.93-.21 7.41-.41 19.27 6.11 31.4 2.43 4.56 6.06 10.98 13.41 13.62 1.14.42 9.68 3.47 15.64-1.34 2.17-1.77 3.26-3.94 3.88-5.44.16-.78.26-1.97.21-3.42-.21-6.27-3.94-10.78-5.23-12.49-4.51-5.96-5.85-12.59-8.18-23.83-1.45-6.94-1.14-12.95-.47-24.76.47-8.08 1.4-19.02 3.63-32.02 1.08-.26 2.59-.78 3.62-2.02 1.56-1.92.62-3.68 1.81-7.04.88-2.54 1.61-2.08 3.16-5.44 1.14-2.44 2.13-4.67 1.61-7.26-.11-.52-.78-3.57-2.95-4.3-2.8-.98-6.01 2.54-6.79 3.42-1.6 1.76-2.33 3.63-2.74 4.77-1.61-2.07-3.26-4.56-4.76-7.51-.68-1.35-1.3-2.65-1.82-3.89.26-1.14.62-2.8.88-4.82.31-2.69.47-4.09.05-5.85-.31-1.19-.93-3.84-2.95-4.56-1.08-.41-2.48.16-3.21.52h0z" class="Q"/><g class="P"><path d="M441.42 320.78l-7.76-10.93c-2.44-3.52-5.28-8.49-1.76-12.38.67-.72-.42-1.86-1.09-1.09-2.75 3.01-2.43 7.1-.73 10.57 2.59 5.18 6.68 9.9 10.05 14.61.52.83 1.86.05 1.29-.78z"/><path d="M436.56 304.21c-2.49-2.59-4.56-6.12-4.51-9.8.05-3.57 2.64-6.26 6.06-6.83.98-.16.57-1.66-.41-1.51-3.68.62-6.63 3.47-7.15 7.2-.62 4.46 1.92 8.97 4.92 12.08.67.72 1.76-.42 1.09-1.14h0z"/><path d="M441.79 299.59c-3.99-4.45-4.46-10.98-1.3-16 .52-.83-.83-1.61-1.34-.78-3.58 5.65-2.9 12.95 1.5 17.87.72.78 1.81-.31 1.14-1.09zm4.19-3.41c-1.66-4.05-2.28-8.55-1.24-12.85.57-2.44 3.67-7.05 6.16-3.32 1.04 1.56.67 3.89.52 5.65-.26 3.31-1.45 6.94.26 10.05.82 1.45 2.07 2.69 3 4.04 1.19 1.66 2.12 3.47 3 5.34.42.93 1.76.1 1.35-.78a33.67 33.67 0 0 0-4.04-6.68c-.93-1.25-2.12-2.39-2.54-3.94-.41-1.5 0-3.16.16-4.72.41-3.16 1.71-9.06-1.71-11.19-3.06-1.91-6.32.94-7.3 3.73-1.76 4.82-1.04 10.47.83 15.13.41.88 1.91.47 1.55-.46z"/><path d="M439.97 284.05c.63-1.81 2.9-2.64 4.61-1.76.88.47 1.66-.88.78-1.35-2.59-1.39-5.9-.05-6.89 2.7-.36.93 1.14 1.35 1.5.41zm19.84 19.59c.57-1.66 1.39-3.11 2.64-4.3.51-.47 1.08-.94 1.71-1.3 1.45-.83 2.07-.83 3.67-.26 1.87.67 2.12 1.09 2.28 3.06a11.55 11.55 0 0 1 0 1.86c-.16 1.97-.88 3.84-1.81 5.55-1.09 1.96-2.44 3.78-3.06 6.01-.93 3.36-.98 6.11-4.61 7.71-.93.42-.1 1.77.78 1.35 1.55-.67 2.85-1.71 3.73-3.16 1.19-1.92 1.09-4.19 1.81-6.27.83-2.28 2.44-4.19 3.47-6.37.93-2.07 1.4-4.35 1.24-6.63-.2-3.11-2.02-5.7-5.43-5.18-3.89.57-6.73 4.04-7.93 7.56-.36.88 1.14 1.3 1.51.37h0z"/><path d="M460.12 322.34c-1.45 9.43-2.64 18.91-3.47 28.39-.73 8.49-1.19 17.04-.37 25.59.78 7.82 2.75 15.44 6.43 22.38 3.72 7.1 8.33 13.57 6.26 22.02-.26.98 1.24 1.4 1.5.41 1.76-7.3-.93-13.26-4.4-19.53-4.14-7.41-6.94-14.97-8.02-23.47-1.04-8.49-.68-17.04 0-25.54a405.9 405.9 0 0 1 3.57-29.79c.15-1.03-1.35-1.45-1.5-.46h0z"/><path d="M440.18 320.84c1.04 2.27.78 4.81.52 7.25l-1.3 8.24c-.93 4.81-2.22 9.58-3.46 14.35-2.44 9.37-4.77 18.75-5.08 28.44-.31 9.58.93 19.48 4.09 28.54 2.64 7.57 7.3 14.87 14.81 18.24 7.09 3.16 15.85 1.66 20.4-4.98.57-.82-.77-1.6-1.34-.77-5.03 7.25-15.02 7.09-21.75 2.43-7.25-5.02-10.57-13.67-12.53-21.91-2.18-9.12-2.75-18.65-1.71-27.93 1.03-9.11 3.62-17.92 5.85-26.78 1.19-4.77 2.33-9.53 3-14.4.57-3.78 1.35-7.93-.31-11.5-.26-.93-1.6-.11-1.19.78h0z"/></g><g class="R"><path d="M435.42 287.94c-.21 2.59-.21 5.9.57 9.53 2.12 9.95 8.39 16.22 11.23 18.7.11 2.96.16 7.51 0 13.01-.77 24.66-5.64 36.73-6.47 48.28-.78 11.24 1.86 27.66 18.33 48.9-2.23.16-5.59.16-9.16-1.34-3.21-1.35-8.24-4.46-12.79-14.87-4.15-9.53-8.7-26.99-3.63-46.99 2.23-8.7 5.7-15.54 7.46-30.15.46-3.89.67-7.15.77-9.38-1.13-2.07-2.79-4.92-5.17-8.03-3.89-5.13-6.42-6.84-7.05-10.51-.46-2.59.16-5.24 1.51-7.83-.16-.67-.63-3.42.93-6.11 1.14-1.86 2.74-2.8 3.47-3.21h0z" class="W"/><path d="M442.1 327.47c.36.05-.73 9.06-2.85 27.09l-2.85 24.45c-.67 23.63 8.54 40.31 7.04 40.88-1.08.41-6.31-7.98-9.37-18.13-4.19-14.04-2.54-26.22-1.5-33.21.88-6.17 1.24-4.46 5.9-25.39 2.33-10.51 3.26-15.75 3.63-15.69z" class="V"/></g><path fill-rule="evenodd" d="M193.81 475.53c.62 6.84.36 12.43-.1 16.42-.67 7.51-1.81 9.33-3.06 10.47-1.71 1.55-2.69 1.03-8.64 3.93-3.42 1.61-3.27 1.87-5.96 3.06-2.22.98-4.92 2.12-8.44 2.69a28.88 28.88 0 0 1-8.8 0c-2.54 1.09-6.47 2.39-11.34 2.54-7.15.21-13-2.23-15.85-3.42-4.66-1.97-6.26-3.57-11.49-5.02a42.7 42.7 0 0 0-7.04-1.25c-1.71-.31-4.2-.77-7.2-1.08-3.16-.37-9.42-1.04-17.45-.37-4.35.37-4.92.73-9.16.88-9.17.31-10.67-1.39-11.14-1.96-1.5-2.03-.67-4.98-.15-6.84 1.29-4.77 4.14-7.62 9.52-12.8 10.52-10.15 10.57-10 11.71-11.5 3.47-4.61 4.92-8.65 7.19-15.13 2.28-6.37 2.28-8.55 5.6-20.36l2.9-9.74c0-2.12.31-5.33 1.6-9.01 1.04-3.01 2.43-6.94 5.75-9.02 3.16-1.91 5.95-.82 10.98-.51 11.28.67 20.81-3.58 24.13-5.03 6.62-2.95 8.02-5.33 14.39-6.47 3.16-.57 6.68-1.14 10.25.51 5.13 2.44 7.1 7.88 8.81 12.8 1.91 5.34 2.01 10 2.17 14.56.1 3 .1 4.61-.36 6.84-.99 4.66-2.9 5.9-3.57 9.53-.26 1.4-.11 2.17 1.44 9.01 3.32 14.35 4.1 16.27 6.11 17.82 1.14.83 2.59 1.56 4.3 3.58 1.56 1.81 2.44 3.62 2.9 4.87zm-85.59 14.3c-.57-3.68-.57-9.02 2.23-16.01a13.2 13.2 0 0 0 .57-5.49c-.21-2.18-.94-3.84-1.45-4.82.2-3.01.31-7.46-.11-12.85-.36-4.2-1.24-11.86-2.28-11.86-.88.05-.93 5.9-3.52 15.33-.98 3.58-1.96 6.53-2.74 8.65-.83 1.3-1.66 2.54-2.54 3.84l-5.69 7.92c-3.21 3.47-6.06 5.96-8.03 7.57-4.71 3.88-7.35 5.23-7.87 8.44-.31 1.61-.05 3.99 1.45 5.29.93.82 2.07.88 4.3 1.08 1.24.11 1.5-.05 4.5-.31l4.71-.31 5.18-.41c6.94-.36 9.68 1.86 11.29.31 1.24-1.24.41-3.52 0-6.37z" class="Q"/><g class="P"><path d="M108.48 410.82c-6.89 11.19-2.49 24.35-.52 36.32.57 3.52.88 7.04.73 10.57-.11 1.65-.31 3.31-.11 5.02.21 1.56.78 2.95 1.14 4.46.99 3.88-.41 7.82-1.19 11.6-.67 3.27-1.35 6.53-1.45 9.84-.21 5.24 1.09 10.83 4.87 14.61 4.19 4.2 10.3 3.53 15.33 6.17 5.22 2.8 10.14 5.13 16.15 5.7 2.95.26 6.01.15 8.91-.36 3.1-.52 6-2.03 9.11-2.54 2.95-.47 5.8.57 8.75-.21 3.31-.83 6.52-2.69 9.63-4.09l9.68-4.41c2.13-.98 4.04-1.86 4.56-4.35.67-3.11.31-6.78.36-9.95.11-3.31.37-6.63.16-9.94-.1-2.13-.42-4.25-1.3-6.17-1.34-3-4.19-3.93-6.05-6.42-3.68-5.08-5.54-12.18-6.58-18.29-.31-1.92-.52-3.83-.67-5.75-.11-1.97.57-3.21 1.29-4.92a27.98 27.98 0 0 0 2.02-7.62c.83-6.01.05-12.17-1.35-18.02-1.19-4.98-2.79-10.52-6.78-14.04-10.46-9.23-24.18 1.6-33.86 6.16-3.58 1.66-7.3 2.75-11.24 2.75-3.78 0-7.51-.73-11.29-.47-5.02.31-10.25 2.59-11.96 7.62-.31.93 1.19 1.34 1.5.41 2.07-6.06 9.27-6.73 14.71-6.42 5.8.36 11.08.72 16.57-1.45 9.42-3.73 19.21-13.16 30.13-9.85 6.01 1.82 8.55 7.67 10.1 13.27 1.56 5.59 2.54 11.39 2.23 17.19-.16 2.85-.67 5.7-1.61 8.45-.41 1.24-.98 2.49-1.6 3.68-.68 1.34-.52 2.33-.42 3.88.37 5.6 1.56 11.09 3.58 16.32.88 2.28 1.86 4.56 3.05 6.74 1.3 2.28 3.06 3.21 4.87 4.97 4.14 3.94 3.05 10.93 2.9 16.06l-.31 9.79c-.05 2.18-.52 3.42-2.38 4.51-1.51.88-3.21 1.5-4.82 2.17l-8.75 3.99c-3.31 1.51-6.63 3.42-10.41 3.22-2.48-.11-4.5-.42-6.94.25-3 .88-5.85 1.97-8.95 2.34-5.96.72-12.12-.21-17.51-2.8-2.27-1.09-4.4-2.54-6.73-3.58-2.43-1.08-4.97-1.34-7.56-1.97-6.11-1.45-9.37-7.25-9.89-13.15-.62-7.05 2.07-13.63 2.9-20.52.47-3.47-1.34-6.37-1.6-9.79-.21-3.47.36-6.89 0-10.41-1.3-13.01-7.77-27.46-.26-39.74.77-.93-.57-1.71-1.14-.83h0z"/><path d="M109.46 410.67c9.06-1.35 16.16 5.9 19.94 13.26 3.62 6.94 5.49 14.66 9.47 21.45 3.37 5.7 8.29 10.46 14.92 11.91 5.85 1.3 12.32.05 17.14-3.57 6.47-4.87 9.26-12.9 10.71-20.57.21-.98-1.29-1.4-1.5-.41-1.34 6.99-3.73 14.5-9.42 19.16-5.75 4.72-14.24 5.7-20.92 2.34-13.83-6.89-13.93-25.7-22.73-36.79-4.35-5.49-10.98-9.32-18.13-8.29-.88.16-.46 1.66.52 1.51h0z"/><path d="M164.19 460.09l.16.26c.05-.31.1-.62.1-.93l-.26.26c.31-.06.63-.11.94-.11-.88-.46-1.3-2.43-1.61-3.31-.46-1.35-.78-2.8-1.03-4.2-.16-1.09-.88-9.22 1.39-8.44.68.25 1.19 3.05 1.4 3.78.36 1.4.57 2.85.73 4.3.15 1.4.15 2.79.2 4.14l.06 1.87c0 .31 0 .62-.06.93.11.36-.05.62-.41.78.1-.99-1.45-.99-1.55 0-.11 1.03.72 1.86 1.81 1.76 1.5-.16 1.71-1.82 1.71-3.01.1-2.79-.05-5.75-.47-8.49-.31-2.28-.78-5.55-2.43-7.31-3.06-3.31-4.09 3.16-4.15 4.92-.15 2.75.21 5.5.94 8.09.46 1.55 1.14 4.71 2.74 5.54.31.15.67.15.93-.1l.26-.26c.26-.26.31-.68.11-.94-.06-.1-.11-.15-.16-.26-.52-.93-1.86-.15-1.35.73h0zm-12.42 28.08c.26 8.29.98 16.58 2.17 24.76.16.99 1.66.57 1.5-.41-1.14-8.08-1.86-16.22-2.12-24.35-.05-.99-1.6-.99-1.55 0h0z"/><path d="M152.85 488.53c3.68-5.18 10.26-7.36 15.95-9.32 6.27-2.18 12.64-3.84 19.16-5.03.98-.15.57-1.66-.41-1.5a128.72 128.72 0 0 0-21.91 6.01c-5.33 2.02-10.77 4.3-14.18 9.06-.52.83.82 1.61 1.39.78z"/><path d="M153.11 488.84c6.11 3.27 12.07 5.75 19.11 3.89 6.73-1.82 13-5.6 18.28-10 .78-.62-.31-1.71-1.09-1.09-4.92 4.09-10.61 7.51-16.72 9.38-6.94 2.12-12.69-.16-18.8-3.47-.88-.52-1.66.83-.78 1.29h0z"/><path d="M177.24 487.6l1.25 6.11c.2.99 1.7.57 1.5-.41l-1.25-6.12c-.2-.98-1.7-.57-1.5.42zm3.47-1.45l.57 5.75c.11.98 1.66.98 1.55 0l-.56-5.75c-.11-.99-1.66-1.04-1.56 0zm-70.88-11.24c-.99 2.85 0 5.44 3.36 4.87.83-.16 1.55-.52 2.38-.78.47-.16 1.14-.42 1.66-.36 2.64.36 1.14 1.24 1.81 2.17.78 1.04 1.24 1.56 2.64 1.56 1.87-.06 5.54-1.82 6.79.46.46.94 0 3.42 0 4.56l.05 4.04.46 17.67c.06.98 1.61.98 1.56 0-.37-9.07-.52-18.19-.57-27.3 0-.26-.16-.57-.36-.68-1.71-.77-3.42-1.14-5.29-.88-1.29.16-1.86.68-3.1-.05-1.19-.67-.78-1.09-1.5-2.02-.78-.98-1.92-1.19-3.11-1.04-.83.11-1.5.47-2.28.73-.41.15-.93.41-1.4.41-1.14-.05-1.97-1.81-1.55-2.9.26-.98-1.24-1.4-1.55-.46h0zm-3.42-51.34c.05-5.96 1.97-16.74 10.46-14.66.98.25 1.4-1.25.41-1.51-3.57-.88-7.09.68-9.32 3.53-2.79 3.52-3.11 8.28-3.11 12.64 0 1.03 1.56 1.03 1.56 0z"/><path d="M105.01 420.3c-1.14 2.39.47 4.82 1.92 6.79 1.5 2.07 3.78 3.94 6.47 3.37 1.5-.31 2.54-1.66 4.04-1.92 1.65-.36 3.26 1.09 4.92 1.04 3.52-.16 5.64-3.53 8.18-5.39.77-.57.05-1.92-.78-1.35-2.02 1.45-3.57 3.73-5.9 4.72-2.44 1.03-3.89-.78-6.22-.63-2.33.16-3.67 2.54-6.16 1.92-2.07-.52-6.21-5.28-5.07-7.77.36-.88-.99-1.71-1.4-.78h0z"/><path d="M105.42 419.37c-2.48 10.88-5.38 21.66-8.64 32.28-1.56 5.02-3.01 10.25-5.6 14.92-2.22 3.98-5.28 7.35-8.54 10.51-5.7 5.49-12.27 10.67-15.48 18.13-1.3 3.01-1.66 6.12 1.29 8.24 3.27 2.38 8.08 2.28 11.86 1.92 5.8-.57 11.55-2.38 17.4-1.92 5.59.47 10.92 2.75 16.52 1.09.93-.31.57-1.76-.42-1.5-5.02 1.5-9.94-.42-14.96-1.04-4.14-.52-8.29.16-12.33.83-4.86.83-10.35 2.02-15.17.31-3-1.04-4.29-3.26-3.21-6.32.73-2.02 1.81-3.94 3.06-5.65 4.4-6.32 10.82-10.88 16-16.52 5.8-6.37 8.44-13.99 10.97-22.12 3.32-10.83 6.27-21.76 8.81-32.8.2-.93-1.3-1.34-1.56-.36h0zm.06 17.2c-.94 9.79-1.97 19.84-6.79 28.65a42.16 42.16 0 0 1-8.08 10.57c-2.95 2.79-6.36 5.02-9.42 7.66-2.28 1.97-5.54 4.93-5.75 8.19-.2 2.95 2.28 5.28 4.92 6.06 4.25 1.3 9.37-.26 13.72-.52 5.08-.26 10.2-.1 15.28.42.98.1.98-1.45 0-1.56a93.95 93.95 0 0 0-14.24-.46 125.52 125.52 0 0 0-6.11.46c-2.38.26-4.92.83-7.3.37-2.95-.57-5.49-2.91-4.25-6.12.78-1.91 2.44-3.57 3.94-4.97 2.74-2.59 5.95-4.61 8.75-7.1 5.33-4.61 9.53-10.57 12.17-17.09 3.16-7.83 3.93-16.32 4.76-24.66.05-.88-1.5-.88-1.6.1h0zm13.35 44.19c.47 4.61 1.2 9.12 2.23 13.63.21.98 1.71.57 1.5-.42-.98-4.35-1.71-8.75-2.17-13.26-.11-.93-1.66-.93-1.56.05zm12.95-65.43c8.28 6.37 21.64 10.05 31.33 4.66.88-.46.1-1.81-.78-1.35-9.22 5.08-21.95 1.35-29.72-4.66-.88-.62-1.66.73-.83 1.35z"/><path d="M106.56 421.96c-.31-3.73.42-8.08 3.01-10.93 2.59-2.8 6.62-2.54 10.15-2.54 6.47.1 12.99.78 19.15-1.5.94-.36.52-1.87-.41-1.5-7.92 2.95-16.05.62-24.18 1.65-7.1.94-9.79 8.4-9.27 14.82.05.98 1.6 1.04 1.55 0h0z"/><path d="M106.87 423.46c.52-3.57 1.66-6.94 3.63-10 1.03-1.6 2.12-3.1 3.93-3.78 1.76-.67 3.84-.41 5.7-.41 6.26.1 12.69.31 18.38-2.7.88-.46.1-1.81-.78-1.34-3.72 1.97-7.81 2.48-11.96 2.54-3.52.05-7.3-.57-10.77.1-6.06 1.19-8.85 9.89-9.63 15.13-.15.98 1.35 1.45 1.5.46h0z"/><path d="M106.41 422.12c.36-4.72.93-10.78 5.59-13.37 2.54-1.4 5.85-1.09 8.65-1.14H128c4.71-.1 9.42-.47 13.93-2.02 4.3-1.5 8.28-3.83 12.17-6.17.88-.51.1-1.86-.78-1.34-4.71 2.8-9.53 5.64-14.91 6.89-5.96 1.4-12.12 1.03-18.18 1.09-4.45.05-8.75.05-11.75 3.83-2.75 3.47-3.16 7.98-3.52 12.23-.16.98 1.4.98 1.45 0h0z"/></g><g class="R"><path d="M141.83 406.11c2.22 2.07-.68 6.01 1.34 9.53 2.64 4.56 10.25 5.13 16.05 4.87-3.05.83-7.71 2.75-10.3 7.05-4.56 7.56-1.4 20.2 9.53 29.11l3 23.37-8.7 7.61.26 26.11c-2.59.93-6.63 1.97-11.39 1.35-4.77-.57-5.85-2.23-14.97-5.96-8.44-3.47-9.68-2.9-12.48-5.44-5.17-4.61-6.16-11.09-6.26-11.71-.67-4.76 1.24-5.39 2.17-14.97.47-4.97.37-8.91.26-10.31-.2-4.61-.77-6.32-1.34-11.4-.73-6.06-.37-7.3-.83-13.05-1.14-14.82-4.2-17.51-2.18-25.02.83-3.06 1.82-6.89 5.18-8.97 4.2-2.64 7.25.47 16.05-.26 8.44-.72 12.33-4.14 14.61-1.91h0z" opacity=".051"/><path d="M113.04 409.63c-5.75 1.09-9.74 10.1-7.05 15.49.88 1.76 2.9 4.04 5.44 4.35 2.07.26 2.59-1.09 5.7-1.34 3.15-.26 3.72.98 6.26.51 1.87-.31 4.61-1.6 5.44-3.78 1.45-3.88-3.83-8.6-5.7-10.31-2.95-2.64-6.26-5.64-10.09-4.92z" class="V"/><path d="M109.51 444.19c1.25-.21 4.1 16.83 10.05 33.46 5.59 15.49 12.69 27.36 18.23 35.33-4.46-2.22-8.24-3.57-10.88-4.35-3.47-1.03-6-1.45-9.52-3.26a32.84 32.84 0 0 1-5.7-3.78c-1.14-1.45-2.75-3.84-3.26-7.05-.21-1.19-.16-1.76.26-7.04.57-7.67.57-7.93.82-9.23.78-4.24 1.45-4.19 1.61-7.04.21-2.7-.36-3.21-1.09-8.45-.62-4.56-.72-8.03-.83-10.31-.1-5.18-.2-8.23.31-8.28h0z" opacity=".141"/></g><defs /></svg>